<?xml version="1.0" encoding="utf-8" standalone="no"?>
<!DOCTYPE svg PUBLIC "-//W3C//DTD SVG 1.1//EN"
  "http://www.w3.org/Graphics/SVG/1.1/DTD/svg11.dtd">
<!-- Created with matplotlib (http://matplotlib.org/) -->
<svg height="297pt" version="1.1" viewBox="0 0 278 297" width="278pt" xmlns="http://www.w3.org/2000/svg" xmlns:xlink="http://www.w3.org/1999/xlink">
 <defs>
  <style type="text/css">
*{stroke-linecap:butt;stroke-linejoin:round;stroke-miterlimit:100000;}
  </style>
 </defs>
 <g id="figure_1">
  <g id="patch_1">
   <path d="M 0 297.597969 
L 278.612109 297.597969 
L 278.612109 0 
L 0 0 
z
" style="fill:#3f3f3f;"/>
  </g>
  <g id="axes_1">
   <g id="patch_2">
    <path d="M 44.041406 248.18 
L 267.241406 248.18 
L 267.241406 24.98 
L 44.041406 24.98 
z
" style="fill:#504040;"/>
   </g>
   <g id="matplotlib.axis_1">
    <g id="xtick_1">
     <g id="line2d_1">
      <path clip-path="url(#p95196557bb)" d="M 44.041406 248.18 
L 44.041406 24.98 
" style="fill:none;stroke:#808080;stroke-linecap:round;"/>
     </g>
     <g id="line2d_2"/>
     <g id="line2d_3"/>
     <g id="text_1">
      <!-- −5 -->
      <defs>
       <path d="M 4.15625 18.75 
L 13.375 19.53125 
Q 14.40625 12.796875 18.140625 9.390625 
Q 21.875 6 27.15625 6 
Q 33.5 6 37.890625 10.78125 
Q 42.28125 15.578125 42.28125 23.484375 
Q 42.28125 31 38.0625 35.34375 
Q 33.84375 39.703125 27 39.703125 
Q 22.75 39.703125 19.328125 37.765625 
Q 15.921875 35.84375 13.96875 32.765625 
L 5.71875 33.84375 
L 12.640625 70.609375 
L 48.25 70.609375 
L 48.25 62.203125 
L 19.671875 62.203125 
L 15.828125 42.96875 
Q 22.265625 47.46875 29.34375 47.46875 
Q 38.71875 47.46875 45.15625 40.96875 
Q 51.609375 34.46875 51.609375 24.265625 
Q 51.609375 14.546875 45.953125 7.46875 
Q 39.0625 -1.21875 27.15625 -1.21875 
Q 17.390625 -1.21875 11.203125 4.25 
Q 5.03125 9.71875 4.15625 18.75 
" id="ArialMT-35"/>
       <path d="M 52.828125 31.203125 
L 5.5625 31.203125 
L 5.5625 39.40625 
L 52.828125 39.40625 
z
" id="ArialMT-2212"/>
      </defs>
      <g style="fill:#d9d9d9;" transform="translate(35.490234375 265.91671875)scale(0.15 -0.15)">
       <use xlink:href="#ArialMT-2212"/>
       <use x="58.3984375" xlink:href="#ArialMT-35"/>
      </g>
     </g>
    </g>
    <g id="xtick_2">
     <g id="line2d_4">
      <path clip-path="url(#p95196557bb)" d="M 75.927121 248.18 
L 75.927121 24.98 
" style="fill:none;stroke:#808080;stroke-linecap:round;"/>
     </g>
     <g id="line2d_5"/>
     <g id="line2d_6"/>
     <g id="text_2">
      <!-- −4 -->
      <defs>
       <path d="M 32.328125 0 
L 32.328125 17.140625 
L 1.265625 17.140625 
L 1.265625 25.203125 
L 33.9375 71.578125 
L 41.109375 71.578125 
L 41.109375 25.203125 
L 50.78125 25.203125 
L 50.78125 17.140625 
L 41.109375 17.140625 
L 41.109375 0 
z
M 32.328125 25.203125 
L 32.328125 57.46875 
L 9.90625 25.203125 
z
" id="ArialMT-34"/>
      </defs>
      <g style="fill:#d9d9d9;" transform="translate(67.3759486607 265.91671875)scale(0.15 -0.15)">
       <use xlink:href="#ArialMT-2212"/>
       <use x="58.3984375" xlink:href="#ArialMT-34"/>
      </g>
     </g>
    </g>
    <g id="xtick_3">
     <g id="line2d_7">
      <path clip-path="url(#p95196557bb)" d="M 107.812835 248.18 
L 107.812835 24.98 
" style="fill:none;stroke:#808080;stroke-linecap:round;"/>
     </g>
     <g id="line2d_8"/>
     <g id="line2d_9"/>
     <g id="text_3">
      <!-- −3 -->
      <defs>
       <path d="M 4.203125 18.890625 
L 12.984375 20.0625 
Q 14.5 12.59375 18.140625 9.296875 
Q 21.78125 6 27 6 
Q 33.203125 6 37.46875 10.296875 
Q 41.75 14.59375 41.75 20.953125 
Q 41.75 27 37.796875 30.921875 
Q 33.84375 34.859375 27.734375 34.859375 
Q 25.25 34.859375 21.53125 33.890625 
L 22.515625 41.609375 
Q 23.390625 41.5 23.921875 41.5 
Q 29.546875 41.5 34.03125 44.421875 
Q 38.53125 47.359375 38.53125 53.46875 
Q 38.53125 58.296875 35.25 61.46875 
Q 31.984375 64.65625 26.8125 64.65625 
Q 21.6875 64.65625 18.265625 61.421875 
Q 14.84375 58.203125 13.875 51.765625 
L 5.078125 53.328125 
Q 6.6875 62.15625 12.390625 67.015625 
Q 18.109375 71.875 26.609375 71.875 
Q 32.46875 71.875 37.390625 69.359375 
Q 42.328125 66.84375 44.9375 62.5 
Q 47.5625 58.15625 47.5625 53.265625 
Q 47.5625 48.640625 45.0625 44.828125 
Q 42.578125 41.015625 37.703125 38.765625 
Q 44.046875 37.3125 47.5625 32.6875 
Q 51.078125 28.078125 51.078125 21.140625 
Q 51.078125 11.765625 44.234375 5.25 
Q 37.40625 -1.265625 26.953125 -1.265625 
Q 17.53125 -1.265625 11.296875 4.34375 
Q 5.078125 9.96875 4.203125 18.890625 
" id="ArialMT-33"/>
      </defs>
      <g style="fill:#d9d9d9;" transform="translate(99.2616629464 265.91671875)scale(0.15 -0.15)">
       <use xlink:href="#ArialMT-2212"/>
       <use x="58.3984375" xlink:href="#ArialMT-33"/>
      </g>
     </g>
    </g>
    <g id="xtick_4">
     <g id="line2d_10">
      <path clip-path="url(#p95196557bb)" d="M 139.698549 248.18 
L 139.698549 24.98 
" style="fill:none;stroke:#808080;stroke-linecap:round;"/>
     </g>
     <g id="line2d_11"/>
     <g id="line2d_12"/>
     <g id="text_4">
      <!-- −2 -->
      <defs>
       <path d="M 50.34375 8.453125 
L 50.34375 0 
L 3.03125 0 
Q 2.9375 3.171875 4.046875 6.109375 
Q 5.859375 10.9375 9.828125 15.625 
Q 13.8125 20.3125 21.34375 26.46875 
Q 33.015625 36.03125 37.109375 41.625 
Q 41.21875 47.21875 41.21875 52.203125 
Q 41.21875 57.421875 37.46875 61 
Q 33.734375 64.59375 27.734375 64.59375 
Q 21.390625 64.59375 17.578125 60.78125 
Q 13.765625 56.984375 13.71875 50.25 
L 4.6875 51.171875 
Q 5.609375 61.28125 11.65625 66.578125 
Q 17.71875 71.875 27.9375 71.875 
Q 38.234375 71.875 44.234375 66.15625 
Q 50.25 60.453125 50.25 52 
Q 50.25 47.703125 48.484375 43.546875 
Q 46.734375 39.40625 42.65625 34.8125 
Q 38.578125 30.21875 29.109375 22.21875 
Q 21.1875 15.578125 18.9375 13.203125 
Q 16.703125 10.84375 15.234375 8.453125 
z
" id="ArialMT-32"/>
      </defs>
      <g style="fill:#d9d9d9;" transform="translate(131.147377232 265.91671875)scale(0.15 -0.15)">
       <use xlink:href="#ArialMT-2212"/>
       <use x="58.3984375" xlink:href="#ArialMT-32"/>
      </g>
     </g>
    </g>
    <g id="xtick_5">
     <g id="line2d_13">
      <path clip-path="url(#p95196557bb)" d="M 171.584263 248.18 
L 171.584263 24.98 
" style="fill:none;stroke:#808080;stroke-linecap:round;"/>
     </g>
     <g id="line2d_14"/>
     <g id="line2d_15"/>
     <g id="text_5">
      <!-- −1 -->
      <defs>
       <path d="M 37.25 0 
L 28.46875 0 
L 28.46875 56 
Q 25.296875 52.984375 20.140625 49.953125 
Q 14.984375 46.921875 10.890625 45.40625 
L 10.890625 53.90625 
Q 18.265625 57.375 23.78125 62.296875 
Q 29.296875 67.234375 31.59375 71.875 
L 37.25 71.875 
z
" id="ArialMT-31"/>
      </defs>
      <g style="fill:#d9d9d9;" transform="translate(163.033091518 265.91671875)scale(0.15 -0.15)">
       <use xlink:href="#ArialMT-2212"/>
       <use x="58.3984375" xlink:href="#ArialMT-31"/>
      </g>
     </g>
    </g>
    <g id="xtick_6">
     <g id="line2d_16">
      <path clip-path="url(#p95196557bb)" d="M 203.469978 248.18 
L 203.469978 24.98 
" style="fill:none;stroke:#808080;stroke-linecap:round;"/>
     </g>
     <g id="line2d_17"/>
     <g id="line2d_18"/>
     <g id="text_6">
      <!-- 0 -->
      <defs>
       <path d="M 4.15625 35.296875 
Q 4.15625 48 6.765625 55.734375 
Q 9.375 63.484375 14.515625 67.671875 
Q 19.671875 71.875 27.484375 71.875 
Q 33.25 71.875 37.59375 69.546875 
Q 41.9375 67.234375 44.765625 62.859375 
Q 47.609375 58.5 49.21875 52.21875 
Q 50.828125 45.953125 50.828125 35.296875 
Q 50.828125 22.703125 48.234375 14.96875 
Q 45.65625 7.234375 40.5 3 
Q 35.359375 -1.21875 27.484375 -1.21875 
Q 17.140625 -1.21875 11.234375 6.203125 
Q 4.15625 15.140625 4.15625 35.296875 
M 13.1875 35.296875 
Q 13.1875 17.671875 17.3125 11.828125 
Q 21.4375 6 27.484375 6 
Q 33.546875 6 37.671875 11.859375 
Q 41.796875 17.71875 41.796875 35.296875 
Q 41.796875 52.984375 37.671875 58.78125 
Q 33.546875 64.59375 27.390625 64.59375 
Q 21.34375 64.59375 17.71875 59.46875 
Q 13.1875 52.9375 13.1875 35.296875 
" id="ArialMT-30"/>
      </defs>
      <g style="fill:#d9d9d9;" transform="translate(199.299274554 265.91671875)scale(0.15 -0.15)">
       <use xlink:href="#ArialMT-30"/>
      </g>
     </g>
    </g>
    <g id="xtick_7">
     <g id="line2d_19">
      <path clip-path="url(#p95196557bb)" d="M 235.355692 248.18 
L 235.355692 24.98 
" style="fill:none;stroke:#808080;stroke-linecap:round;"/>
     </g>
     <g id="line2d_20"/>
     <g id="line2d_21"/>
     <g id="text_7">
      <!-- 1 -->
      <g style="fill:#d9d9d9;" transform="translate(231.184988839 265.91671875)scale(0.15 -0.15)">
       <use xlink:href="#ArialMT-31"/>
      </g>
     </g>
    </g>
    <g id="xtick_8">
     <g id="line2d_22">
      <path clip-path="url(#p95196557bb)" d="M 267.241406 248.18 
L 267.241406 24.98 
" style="fill:none;stroke:#808080;stroke-linecap:round;"/>
     </g>
     <g id="line2d_23"/>
     <g id="line2d_24"/>
     <g id="text_8">
      <!-- 2 -->
      <g style="fill:#d9d9d9;" transform="translate(263.070703125 265.91671875)scale(0.15 -0.15)">
       <use xlink:href="#ArialMT-32"/>
      </g>
     </g>
    </g>
    <g id="text_9">
     <!-- $x/r_{0}$ -->
     <defs>
      <path d="M 5.609375 -23 
Q 5.609375 -22.703125 5.71875 -22.609375 
L 40.484375 73.78125 
Q 40.671875 74.359375 41.15625 74.671875 
Q 41.65625 75 42.28125 75 
Q 43.171875 75 43.71875 74.453125 
Q 44.28125 73.921875 44.28125 73 
L 44.28125 72.609375 
L 9.515625 -23.78125 
Q 8.9375 -25 7.625 -25 
Q 6.78125 -25 6.1875 -24.40625 
Q 5.609375 -23.828125 5.609375 -23 
" id="Cmmi10-3d"/>
      <path d="M 7.71875 1.703125 
Q 7.71875 2.296875 7.8125 2.59375 
L 15.28125 32.421875 
Q 16.015625 35.203125 16.015625 37.3125 
Q 16.015625 41.609375 13.09375 41.609375 
Q 9.96875 41.609375 8.453125 37.859375 
Q 6.9375 34.125 5.515625 28.421875 
Q 5.515625 28.125 5.21875 27.953125 
Q 4.9375 27.78125 4.6875 27.78125 
L 3.515625 27.78125 
Q 3.171875 27.78125 2.921875 28.140625 
Q 2.6875 28.515625 2.6875 28.8125 
Q 3.765625 33.15625 4.765625 36.171875 
Q 5.765625 39.203125 7.890625 41.6875 
Q 10.015625 44.1875 13.1875 44.1875 
Q 16.65625 44.1875 19.265625 42.1875 
Q 21.875 40.1875 22.515625 36.921875 
Q 25.046875 40.234375 28.296875 42.203125 
Q 31.546875 44.1875 35.40625 44.1875 
Q 38.578125 44.1875 40.984375 42.328125 
Q 43.40625 40.484375 43.40625 37.3125 
Q 43.40625 34.765625 41.8125 32.875 
Q 40.234375 31 37.59375 31 
Q 35.984375 31 34.890625 32 
Q 33.796875 33.015625 33.796875 34.625 
Q 33.796875 36.8125 35.40625 38.546875 
Q 37.015625 40.28125 39.109375 40.28125 
Q 37.5 41.609375 35.203125 41.609375 
Q 30.90625 41.609375 27.734375 38.546875 
Q 24.5625 35.5 22.015625 30.8125 
L 14.890625 2.203125 
Q 14.546875 0.828125 13.34375 -0.140625 
Q 12.15625 -1.125 10.6875 -1.125 
Q 9.46875 -1.125 8.59375 -0.34375 
Q 7.71875 0.4375 7.71875 1.703125 
" id="Cmmi10-72"/>
      <path d="M 25 -2.203125 
Q 12.75 -2.203125 8.328125 7.875 
Q 3.90625 17.96875 3.90625 31.890625 
Q 3.90625 40.578125 5.484375 48.234375 
Q 7.078125 55.90625 11.78125 61.25 
Q 16.5 66.609375 25 66.609375 
Q 31.59375 66.609375 35.78125 63.375 
Q 39.984375 60.15625 42.1875 55.046875 
Q 44.390625 49.953125 45.1875 44.109375 
Q 46 38.28125 46 31.890625 
Q 46 23.296875 44.40625 15.796875 
Q 42.828125 8.296875 38.1875 3.046875 
Q 33.546875 -2.203125 25 -2.203125 
M 25 0.390625 
Q 30.5625 0.390625 33.296875 6.09375 
Q 36.03125 11.8125 36.671875 18.75 
Q 37.3125 25.6875 37.3125 33.5 
Q 37.3125 41.015625 36.671875 47.359375 
Q 36.03125 53.71875 33.3125 58.859375 
Q 30.609375 64.015625 25 64.015625 
Q 19.34375 64.015625 16.609375 58.828125 
Q 13.875 53.65625 13.234375 47.328125 
Q 12.59375 41.015625 12.59375 33.5 
Q 12.59375 27.9375 12.859375 23 
Q 13.140625 18.0625 14.3125 12.8125 
Q 15.484375 7.5625 18.09375 3.96875 
Q 20.703125 0.390625 25 0.390625 
" id="Cmr10-30"/>
      <path d="M 7.8125 2.875 
Q 9.578125 1.515625 12.796875 1.515625 
Q 15.921875 1.515625 18.3125 4.515625 
Q 20.703125 7.515625 21.578125 11.078125 
L 26.125 28.8125 
Q 27.203125 33.640625 27.203125 35.40625 
Q 27.203125 37.890625 25.8125 39.75 
Q 24.421875 41.609375 21.921875 41.609375 
Q 18.75 41.609375 15.96875 39.625 
Q 13.1875 37.640625 11.28125 34.59375 
Q 9.375 31.546875 8.59375 28.421875 
Q 8.40625 27.78125 7.8125 27.78125 
L 6.59375 27.78125 
Q 5.8125 27.78125 5.8125 28.71875 
L 5.8125 29 
Q 6.78125 32.71875 9.125 36.25 
Q 11.46875 39.796875 14.859375 41.984375 
Q 18.265625 44.1875 22.125 44.1875 
Q 25.78125 44.1875 28.734375 42.234375 
Q 31.6875 40.28125 32.90625 36.921875 
Q 34.625 39.984375 37.28125 42.078125 
Q 39.9375 44.1875 43.109375 44.1875 
Q 45.265625 44.1875 47.5 43.421875 
Q 49.75 42.671875 51.171875 41.109375 
Q 52.59375 39.546875 52.59375 37.203125 
Q 52.59375 34.671875 50.953125 32.828125 
Q 49.3125 31 46.78125 31 
Q 45.171875 31 44.09375 32.03125 
Q 43.015625 33.0625 43.015625 34.625 
Q 43.015625 36.71875 44.453125 38.296875 
Q 45.90625 39.890625 47.90625 40.1875 
Q 46.09375 41.609375 42.921875 41.609375 
Q 39.703125 41.609375 37.328125 38.625 
Q 34.96875 35.640625 33.984375 31.984375 
L 29.59375 14.3125 
Q 28.515625 10.296875 28.515625 7.71875 
Q 28.515625 5.171875 29.953125 3.34375 
Q 31.390625 1.515625 33.796875 1.515625 
Q 38.484375 1.515625 42.15625 5.640625 
Q 45.84375 9.765625 47.015625 14.703125 
Q 47.21875 15.28125 47.796875 15.28125 
L 49.03125 15.28125 
Q 49.421875 15.28125 49.65625 15.015625 
Q 49.90625 14.75 49.90625 14.40625 
Q 49.90625 14.3125 49.8125 14.109375 
Q 48.390625 8.15625 43.84375 3.515625 
Q 39.3125 -1.125 33.59375 -1.125 
Q 29.9375 -1.125 26.984375 0.84375 
Q 24.03125 2.828125 22.796875 6.203125 
Q 21.234375 3.265625 18.46875 1.0625 
Q 15.71875 -1.125 12.59375 -1.125 
Q 10.453125 -1.125 8.171875 -0.359375 
Q 5.90625 0.390625 4.484375 1.953125 
Q 3.078125 3.515625 3.078125 5.90625 
Q 3.078125 8.25 4.703125 10.171875 
Q 6.34375 12.109375 8.796875 12.109375 
Q 10.453125 12.109375 11.578125 11.109375 
Q 12.703125 10.109375 12.703125 8.5 
Q 12.703125 6.390625 11.296875 4.828125 
Q 9.90625 3.265625 7.8125 2.875 
" id="Cmmi10-78"/>
     </defs>
     <g style="fill:#d9d9d9;" transform="translate(139.63640625 286.27296875)scale(0.165 -0.165)">
      <use xlink:href="#Cmmi10-78"/>
      <use transform="translate(57.080078125 0.0)" xlink:href="#Cmmi10-3d"/>
      <use transform="translate(107.080078125 0.0)" xlink:href="#Cmmi10-72"/>
      <use transform="translate(152.197265625 -17.006249999999994)scale(0.7)" xlink:href="#Cmr10-30"/>
     </g>
    </g>
   </g>
   <g id="matplotlib.axis_2">
    <g id="ytick_1">
     <g id="line2d_25">
      <path clip-path="url(#p95196557bb)" d="M 44.041406 248.18 
L 267.241406 248.18 
" style="fill:none;stroke:#808080;stroke-linecap:round;"/>
     </g>
     <g id="line2d_26"/>
     <g id="line2d_27"/>
     <g id="text_10">
      <!-- 0 -->
      <g style="fill:#d9d9d9;" transform="translate(28.7 252.057734375)scale(0.15 -0.15)">
       <use xlink:href="#ArialMT-30"/>
      </g>
     </g>
    </g>
    <g id="ytick_2">
     <g id="line2d_28">
      <path clip-path="url(#p95196557bb)" d="M 44.041406 216.294286 
L 267.241406 216.294286 
" style="fill:none;stroke:#808080;stroke-linecap:round;"/>
     </g>
     <g id="line2d_29"/>
     <g id="line2d_30"/>
     <g id="text_11">
      <!-- 1 -->
      <g style="fill:#d9d9d9;" transform="translate(28.7 220.172020089)scale(0.15 -0.15)">
       <use xlink:href="#ArialMT-31"/>
      </g>
     </g>
    </g>
    <g id="ytick_3">
     <g id="line2d_31">
      <path clip-path="url(#p95196557bb)" d="M 44.041406 184.408571 
L 267.241406 184.408571 
" style="fill:none;stroke:#808080;stroke-linecap:round;"/>
     </g>
     <g id="line2d_32"/>
     <g id="line2d_33"/>
     <g id="text_12">
      <!-- 2 -->
      <g style="fill:#d9d9d9;" transform="translate(28.7 188.286305804)scale(0.15 -0.15)">
       <use xlink:href="#ArialMT-32"/>
      </g>
     </g>
    </g>
    <g id="ytick_4">
     <g id="line2d_34">
      <path clip-path="url(#p95196557bb)" d="M 44.041406 152.522857 
L 267.241406 152.522857 
" style="fill:none;stroke:#808080;stroke-linecap:round;"/>
     </g>
     <g id="line2d_35"/>
     <g id="line2d_36"/>
     <g id="text_13">
      <!-- 3 -->
      <g style="fill:#d9d9d9;" transform="translate(28.7 156.400591518)scale(0.15 -0.15)">
       <use xlink:href="#ArialMT-33"/>
      </g>
     </g>
    </g>
    <g id="ytick_5">
     <g id="line2d_37">
      <path clip-path="url(#p95196557bb)" d="M 44.041406 120.637143 
L 267.241406 120.637143 
" style="fill:none;stroke:#808080;stroke-linecap:round;"/>
     </g>
     <g id="line2d_38"/>
     <g id="line2d_39"/>
     <g id="text_14">
      <!-- 4 -->
      <g style="fill:#d9d9d9;" transform="translate(28.7 124.514877232)scale(0.15 -0.15)">
       <use xlink:href="#ArialMT-34"/>
      </g>
     </g>
    </g>
    <g id="ytick_6">
     <g id="line2d_40">
      <path clip-path="url(#p95196557bb)" d="M 44.041406 88.751429 
L 267.241406 88.751429 
" style="fill:none;stroke:#808080;stroke-linecap:round;"/>
     </g>
     <g id="line2d_41"/>
     <g id="line2d_42"/>
     <g id="text_15">
      <!-- 5 -->
      <g style="fill:#d9d9d9;" transform="translate(28.7 92.6291629464)scale(0.15 -0.15)">
       <use xlink:href="#ArialMT-35"/>
      </g>
     </g>
    </g>
    <g id="ytick_7">
     <g id="line2d_43">
      <path clip-path="url(#p95196557bb)" d="M 44.041406 56.865714 
L 267.241406 56.865714 
" style="fill:none;stroke:#808080;stroke-linecap:round;"/>
     </g>
     <g id="line2d_44"/>
     <g id="line2d_45"/>
     <g id="text_16">
      <!-- 6 -->
      <defs>
       <path d="M 49.75 54.046875 
L 41.015625 53.375 
Q 39.84375 58.546875 37.703125 60.890625 
Q 34.125 64.65625 28.90625 64.65625 
Q 24.703125 64.65625 21.53125 62.3125 
Q 17.390625 59.28125 14.984375 53.46875 
Q 12.59375 47.65625 12.5 36.921875 
Q 15.671875 41.75 20.265625 44.09375 
Q 24.859375 46.4375 29.890625 46.4375 
Q 38.671875 46.4375 44.84375 39.96875 
Q 51.03125 33.5 51.03125 23.25 
Q 51.03125 16.5 48.125 10.71875 
Q 45.21875 4.9375 40.140625 1.859375 
Q 35.0625 -1.21875 28.609375 -1.21875 
Q 17.625 -1.21875 10.6875 6.859375 
Q 3.765625 14.9375 3.765625 33.5 
Q 3.765625 54.25 11.421875 63.671875 
Q 18.109375 71.875 29.4375 71.875 
Q 37.890625 71.875 43.28125 67.140625 
Q 48.6875 62.40625 49.75 54.046875 
M 13.875 23.1875 
Q 13.875 18.65625 15.796875 14.5 
Q 17.71875 10.359375 21.1875 8.171875 
Q 24.65625 6 28.46875 6 
Q 34.03125 6 38.03125 10.484375 
Q 42.046875 14.984375 42.046875 22.703125 
Q 42.046875 30.125 38.078125 34.390625 
Q 34.125 38.671875 28.125 38.671875 
Q 22.171875 38.671875 18.015625 34.390625 
Q 13.875 30.125 13.875 23.1875 
" id="ArialMT-36"/>
      </defs>
      <g style="fill:#d9d9d9;" transform="translate(28.7 60.7434486607)scale(0.15 -0.15)">
       <use xlink:href="#ArialMT-36"/>
      </g>
     </g>
    </g>
    <g id="ytick_8">
     <g id="line2d_46">
      <path clip-path="url(#p95196557bb)" d="M 44.041406 24.98 
L 267.241406 24.98 
" style="fill:none;stroke:#808080;stroke-linecap:round;"/>
     </g>
     <g id="line2d_47"/>
     <g id="line2d_48"/>
     <g id="text_17">
      <!-- 7 -->
      <defs>
       <path d="M 4.734375 62.203125 
L 4.734375 70.65625 
L 51.078125 70.65625 
L 51.078125 63.8125 
Q 44.234375 56.546875 37.515625 44.484375 
Q 30.8125 32.421875 27.15625 19.671875 
Q 24.515625 10.6875 23.78125 0 
L 14.75 0 
Q 14.890625 8.453125 18.0625 20.40625 
Q 21.234375 32.375 27.171875 43.484375 
Q 33.109375 54.59375 39.796875 62.203125 
z
" id="ArialMT-37"/>
      </defs>
      <g style="fill:#d9d9d9;" transform="translate(28.7 28.857734375)scale(0.15 -0.15)">
       <use xlink:href="#ArialMT-37"/>
      </g>
     </g>
    </g>
    <g id="text_18">
     <!-- $y/r_{0}$ -->
     <defs>
      <path d="M 8.40625 -14.3125 
Q 10.5 -17.921875 15.71875 -17.921875 
Q 20.453125 -17.921875 23.921875 -14.59375 
Q 27.390625 -11.28125 29.515625 -6.5625 
Q 31.640625 -1.859375 32.8125 3.078125 
Q 28.375 -1.125 23.1875 -1.125 
Q 19.234375 -1.125 16.453125 0.234375 
Q 13.671875 1.609375 12.125 4.3125 
Q 10.59375 7.03125 10.59375 10.890625 
Q 10.59375 14.15625 11.46875 17.59375 
Q 12.359375 21.046875 13.9375 25.265625 
Q 15.53125 29.5 16.703125 32.625 
Q 18.015625 36.28125 18.015625 38.625 
Q 18.015625 41.609375 15.828125 41.609375 
Q 11.859375 41.609375 9.296875 37.53125 
Q 6.734375 33.453125 5.515625 28.421875 
Q 5.328125 27.78125 4.6875 27.78125 
L 3.515625 27.78125 
Q 2.6875 27.78125 2.6875 28.71875 
L 2.6875 29 
Q 4.296875 34.96875 7.609375 39.578125 
Q 10.9375 44.1875 16.015625 44.1875 
Q 19.578125 44.1875 22.046875 41.84375 
Q 24.515625 39.5 24.515625 35.890625 
Q 24.515625 34.03125 23.6875 31.984375 
Q 23.25 30.765625 21.6875 26.65625 
Q 20.125 22.5625 19.28125 19.875 
Q 18.453125 17.1875 17.921875 14.59375 
Q 17.390625 12.015625 17.390625 9.421875 
Q 17.390625 6.109375 18.796875 3.8125 
Q 20.21875 1.515625 23.296875 1.515625 
Q 29.5 1.515625 34.421875 9.078125 
L 42 39.890625 
Q 42.328125 41.21875 43.546875 42.15625 
Q 44.78125 43.109375 46.1875 43.109375 
Q 47.40625 43.109375 48.3125 42.328125 
Q 49.21875 41.546875 49.21875 40.28125 
Q 49.21875 39.703125 49.125 39.5 
L 39.203125 -0.296875 
Q 37.890625 -5.421875 34.375 -10.109375 
Q 30.859375 -14.796875 25.90625 -17.65625 
Q 20.953125 -20.515625 15.578125 -20.515625 
Q 12.984375 -20.515625 10.4375 -19.5 
Q 7.90625 -18.5 6.34375 -16.5 
Q 4.78125 -14.5 4.78125 -11.8125 
Q 4.78125 -9.078125 6.390625 -7.078125 
Q 8.015625 -5.078125 10.6875 -5.078125 
Q 12.3125 -5.078125 13.40625 -6.078125 
Q 14.5 -7.078125 14.5 -8.6875 
Q 14.5 -10.984375 12.78125 -12.6875 
Q 11.078125 -14.40625 8.796875 -14.40625 
Q 8.6875 -14.359375 8.59375 -14.328125 
Q 8.5 -14.3125 8.40625 -14.3125 
" id="Cmmi10-79"/>
     </defs>
     <g style="fill:#d9d9d9;" transform="translate(19.575 151.925)rotate(-90.0)scale(0.165 -0.165)">
      <use xlink:href="#Cmmi10-79"/>
      <use transform="translate(49.0234375 0.0)" xlink:href="#Cmmi10-3d"/>
      <use transform="translate(99.0234375 0.0)" xlink:href="#Cmmi10-72"/>
      <use transform="translate(144.140625 -17.006249999999994)scale(0.7)" xlink:href="#Cmr10-30"/>
     </g>
    </g>
   </g>
   <g id="line2d_49">
    <path clip-path="url(#p95196557bb)" d="M 235.355692 248.18 
L 235.342504 247.238723 
L 235.302951 246.298141 
L 235.237072 245.358947 
L 235.144928 244.421831 
L 235.026607 243.487479 
L 234.882219 242.556571 
L 234.711901 241.629777 
L 234.515811 240.70776 
L 234.294134 239.79117 
L 234.047075 238.880645 
L 233.774863 237.97681 
L 233.477748 237.080272 
L 233.156003 236.191619 
L 232.809919 235.311423 
L 232.439807 234.440229 
L 232.045997 233.578565 
L 231.628837 232.726928 
L 231.188688 231.88579 
L 230.725927 231.055595 
L 230.240943 230.236754 
L 229.734136 229.429645 
L 229.205916 228.634612 
L 228.656696 227.851961 
L 228.086896 227.081959 
L 227.496936 226.324833 
L 226.887235 225.580767 
L 226.258206 224.849898 
L 225.610255 224.13232 
L 224.943777 223.428078 
L 224.259148 222.737166 
L 223.556726 222.059529 
L 222.836844 221.395059 
L 222.099806 220.743594 
L 221.345881 220.10492 
L 220.575297 219.478765 
L 219.788238 218.864805 
L 218.984833 218.26266 
L 218.165157 217.671891 
L 217.329215 217.09201 
L 216.476946 216.522469 
L 215.608203 215.962671 
L 214.722757 215.411965 
L 213.820283 214.869649 
L 212.900351 214.334976 
L 211.962421 213.807149 
L 211.005832 213.285329 
L 210.029791 212.768638 
L 209.033367 212.25616 
L 208.015477 211.746942 
L 206.974877 211.240005 
L 205.910152 210.734341 
L 204.819698 210.228917 
L 203.701716 209.722683 
L 202.554192 209.214573 
L 201.374885 208.703505 
L 200.161305 208.188376 
L 198.910696 207.668055 
L 197.620003 207.141369 
L 196.285845 206.60709 
L 194.904473 206.063929 
L 193.471729 205.510514 
L 191.982989 204.945381 
L 190.433102 204.366954 
L 188.816316 203.773526 
L 187.12619 203.163236 
L 185.355487 202.53404 
L 183.496055 201.883686 
L 181.53867 201.209672 
L 179.472866 200.509205 
L 177.286706 199.779145 
L 174.966527 199.01595 
L 172.496611 198.21559 
L 169.858784 197.373461 
L 167.031923 196.484261 
L 163.991326 195.541853 
L 160.707934 194.539077 
L 157.147324 193.467522 
L 153.268415 192.317229 
L 149.02179 191.076303 
L 144.347479 189.73041 
L 139.171997 188.262106 
L 133.404337 186.64992 
L 126.930446 184.86711 
L 119.605487 182.879916 
L 111.242764 180.645064 
L 101.597527 178.106128 
L 90.342645 175.188071 
L 77.030975 171.788824 
L 61.035105 167.765813 
L 41.446841 162.913521 
L 16.901205 156.924241 
L -1 152.620838 
" style="fill:none;stroke:#ffc400;stroke-linecap:round;stroke-width:2.0;"/>
   </g>
   <g id="line2d_50">
    <path clip-path="url(#p95196557bb)" d="M 271.670119 248.18 
L 271.564549 246.716211 
L 271.247731 245.250918 
L 270.719339 243.782613 
L 269.871317 242.125289 
L 268.753724 240.460087 
L 267.365106 238.784838 
L 265.502118 236.909016 
L 263.299299 235.015085 
L 260.479453 232.907214 
L 257.238636 230.769651 
L 253.215656 228.399016 
L 248.674863 225.982614 
L 243.15912 223.306712 
L 236.508428 220.349223 
L 229.100269 217.304083 
L 220.295842 213.933266 
L 209.880536 210.200944 
L 198.366262 206.312382 
L 184.875138 201.991687 
L 169.11009 197.182576 
L 150.728046 191.817682 
L 129.331131 185.816527 
L 104.455935 179.083072 
L 75.560418 171.502787 
L 42.00795 162.939085 
L 3.04782 153.229003 
L -1 152.23173 
L -1 152.23173 
" style="fill:none;stroke:#00d7ff;stroke-dasharray:6.000000,6.000000;stroke-dashoffset:0.0;stroke-width:1.75;"/>
   </g>
   <g id="line2d_51">
    <path clip-path="url(#p95196557bb)" d="M 131.143525 248.18 
L 131.25688 250.938306 
L 131.596451 253.684611 
L 132.16076 256.406966 
L 132.947353 259.093526 
L 133.952806 261.732602 
L 135.172746 264.312712 
L 136.601864 266.82263 
L 138.233943 269.251435 
L 140.061881 271.58856 
L 142.178259 273.927571 
L 144.490752 276.143637 
L 146.988319 278.226176 
L 149.659032 280.165246 
L 152.49014 281.951587 
L 155.468124 283.576669 
L 158.72307 285.094785 
L 162.106015 286.420252 
L 165.599302 287.546153 
L 169.184702 288.466612 
L 172.843504 289.176825 
L 176.556612 289.673085 
L 180.304649 289.952804 
L 184.068055 290.014521 
L 187.82719 289.857914 
L 191.562436 289.483801 
L 195.254299 288.894133 
L 198.883513 288.091988 
L 202.431137 287.081553 
L 205.878658 285.868101 
L 209.208083 284.457963 
L 212.402038 282.8585 
L 215.443853 281.078059 
L 218.196407 279.21424 
L 220.782091 277.202234 
L 223.188557 275.051647 
L 225.404316 272.772748 
L 227.418786 270.37642 
L 229.222349 267.874103 
L 230.739264 265.39763 
L 232.049555 262.846245 
L 233.147522 260.231048 
L 234.028387 257.563417 
L 234.688318 254.854961 
L 235.124443 252.117462 
L 235.334866 249.362832 
L 235.318669 246.603055 
L 235.075925 243.850139 
L 234.607688 241.116062 
L 233.915997 238.41272 
L 233.00386 235.751874 
L 231.875247 233.145103 
L 230.535068 230.603746 
L 228.989153 228.138863 
L 227.24423 225.761177 
L 225.211048 223.375059 
L 222.977502 221.107384 
L 220.554255 218.96898 
L 217.952879 216.970059 
L 215.185795 215.120165 
L 212.266216 213.428131 
L 209.066019 211.836733 
L 205.731093 210.435001 
L 202.278842 209.230251 
L 198.727282 208.22877 
L 195.094948 207.435785 
L 191.400796 206.855433 
L 187.664105 206.490744 
L 183.904376 206.343621 
L 180.14123 206.414831 
L 176.394305 206.704003 
L 172.683157 207.209628 
L 169.027152 207.929067 
L 165.445371 208.858566 
L 161.956506 209.993274 
L 158.578764 211.327268 
L 155.329773 212.853587 
L 152.226489 214.564267 
L 149.409415 216.364856 
L 146.753927 218.317361 
L 144.272706 220.412461 
L 141.977599 222.64015 
L 139.879565 224.989792 
L 137.988623 227.450166 
L 136.385124 229.891215 
L 134.985528 232.411836 
L 133.795926 235.001064 
L 132.821492 237.647632 
L 132.066467 240.340025 
L 131.534136 243.06653 
L 131.226814 245.815282 
L 131.143525 248.18 
L 131.143525 248.18 
" style="fill:none;stroke:#ffffff;stroke-dasharray:1.000000,3.000000;stroke-dashoffset:0.0;stroke-width:1.75;"/>
   </g>
   <g id="patch_3">
    <path d="M 267.241406 248.18 
L 267.241406 24.98 
" style="fill:none;"/>
   </g>
   <g id="patch_4">
    <path d="M 44.041406 24.98 
L 267.241406 24.98 
" style="fill:none;"/>
   </g>
   <g id="patch_5">
    <path d="M 44.041406 248.18 
L 267.241406 248.18 
" style="fill:none;"/>
   </g>
   <g id="patch_6">
    <path d="M 44.041406 248.18 
L 44.041406 24.98 
" style="fill:none;"/>
   </g>
   <g id="text_19">
    <!-- $\xi = 0.4$; $\beta = 0.0100$ -->
    <defs>
     <path id="ArialMT-20"/>
     <path d="M 8.890625 41.84375 
L 8.890625 51.859375 
L 18.890625 51.859375 
L 18.890625 41.84375 
z
M 8.890625 0 
L 8.890625 10.015625 
L 18.890625 10.015625 
L 18.890625 0 
Q 18.890625 -5.515625 16.9375 -8.90625 
Q 14.984375 -12.3125 10.75 -14.15625 
L 8.296875 -10.40625 
Q 11.078125 -9.1875 12.390625 -6.8125 
Q 13.71875 -4.4375 13.875 0 
z
" id="ArialMT-3b"/>
     <path d="M 8.40625 5.515625 
Q 8.40625 7.765625 10.0625 9.375 
Q 11.71875 10.984375 13.921875 10.984375 
Q 15.28125 10.984375 16.59375 10.25 
Q 17.921875 9.515625 18.65625 8.203125 
Q 19.390625 6.890625 19.390625 5.515625 
Q 19.390625 3.328125 17.765625 1.65625 
Q 16.15625 0 13.921875 0 
Q 11.71875 0 10.0625 1.65625 
Q 8.40625 3.328125 8.40625 5.515625 
" id="Cmmi10-3a"/>
     <path d="M 2.78125 16.5 
L 2.78125 20.015625 
L 33.6875 66.109375 
Q 34.03125 66.609375 34.71875 66.609375 
L 36.1875 66.609375 
Q 37.3125 66.609375 37.3125 65.484375 
L 37.3125 20.015625 
L 47.125 20.015625 
L 47.125 16.5 
L 37.3125 16.5 
L 37.3125 6.6875 
Q 37.3125 4.640625 40.234375 4.078125 
Q 43.171875 3.515625 47.015625 3.515625 
L 47.015625 0 
L 19.484375 0 
L 19.484375 3.515625 
Q 23.34375 3.515625 26.265625 4.078125 
Q 29.203125 4.640625 29.203125 6.6875 
L 29.203125 16.5 
z
M 6.109375 20.015625 
L 29.78125 20.015625 
L 29.78125 55.421875 
z
" id="Cmr10-34"/>
     <path d="M 2.6875 -19.390625 
Q 2.390625 -19.390625 2.140625 -19.046875 
Q 1.90625 -18.703125 1.90625 -18.40625 
L 17.28125 43.40625 
Q 18.609375 48.390625 21.140625 53.078125 
Q 23.6875 57.765625 27.515625 61.796875 
Q 31.34375 65.828125 35.9375 68.171875 
Q 40.53125 70.515625 45.703125 70.515625 
Q 49.421875 70.515625 52.421875 68.875 
Q 55.421875 67.234375 57.15625 64.28125 
Q 58.890625 61.328125 58.890625 57.625 
Q 58.890625 54.046875 57.515625 50.796875 
Q 56.15625 47.5625 53.703125 44.75 
Q 51.265625 41.9375 48.484375 40.1875 
Q 50.09375 39.15625 51.359375 37.5625 
Q 52.640625 35.984375 53.421875 34.25 
Q 54.203125 32.515625 54.640625 30.390625 
Q 55.078125 28.265625 55.078125 26.421875 
Q 55.078125 21.296875 52.875 16.3125 
Q 50.6875 11.328125 46.890625 7.265625 
Q 43.109375 3.21875 38.21875 0.84375 
Q 33.34375 -1.515625 28.21875 -1.515625 
Q 22.609375 -1.515625 18.109375 1.5625 
Q 13.625 4.640625 11.921875 9.90625 
L 4.6875 -18.796875 
Q 4.6875 -19.390625 3.90625 -19.390625 
z
M 28.421875 1.21875 
Q 32.90625 1.21875 36.546875 4.171875 
Q 40.1875 7.125 42.546875 11.59375 
Q 44.921875 16.0625 46.15625 21.0625 
Q 47.40625 26.078125 47.40625 30.171875 
Q 47.40625 35.25 44.484375 38.1875 
Q 41.0625 36.921875 37.796875 36.921875 
Q 29.890625 36.921875 29.890625 39.59375 
Q 29.890625 43.109375 38.921875 43.109375 
Q 42.140625 43.109375 44.828125 42.09375 
Q 46.96875 43.75 48.71875 46.96875 
Q 50.484375 50.203125 51.390625 53.71875 
Q 52.296875 57.234375 52.296875 60.296875 
Q 52.296875 63.578125 50.5625 65.75 
Q 48.828125 67.921875 45.515625 67.921875 
Q 39.40625 67.921875 34.15625 64.15625 
Q 28.90625 60.40625 25.296875 54.65625 
Q 21.6875 48.921875 20.125 42.828125 
L 14.59375 20.703125 
Q 14.0625 18.40625 13.921875 15.578125 
Q 13.921875 9.328125 18.015625 5.265625 
Q 22.125 1.21875 28.421875 1.21875 
M 32.90625 39.890625 
Q 34.421875 39.5 37.890625 39.5 
Q 39.59375 39.5 41.3125 40.09375 
Q 41.21875 40.1875 40.921875 40.1875 
Q 39.84375 40.484375 38.625 40.484375 
Q 34.078125 40.484375 32.90625 39.890625 
" id="Cmmi10-af"/>
     <path d="M 9.28125 0 
L 9.28125 3.515625 
Q 21.78125 3.515625 21.78125 6.6875 
L 21.78125 59.1875 
Q 16.609375 56.6875 8.6875 56.6875 
L 8.6875 60.203125 
Q 20.953125 60.203125 27.203125 66.609375 
L 28.609375 66.609375 
Q 28.953125 66.609375 29.265625 66.328125 
Q 29.59375 66.0625 29.59375 65.71875 
L 29.59375 6.6875 
Q 29.59375 3.515625 42.09375 3.515625 
L 42.09375 0 
z
" id="Cmr10-31"/>
     <path d="M 7.515625 13.28125 
Q 6.6875 13.28125 6.140625 13.90625 
Q 5.609375 14.546875 5.609375 15.28125 
Q 5.609375 16.109375 6.140625 16.6875 
Q 6.6875 17.28125 7.515625 17.28125 
L 70.3125 17.28125 
Q 71.046875 17.28125 71.578125 16.6875 
Q 72.125 16.109375 72.125 15.28125 
Q 72.125 14.546875 71.578125 13.90625 
Q 71.046875 13.28125 70.3125 13.28125 
z
M 7.515625 32.71875 
Q 6.6875 32.71875 6.140625 33.296875 
Q 5.609375 33.890625 5.609375 34.71875 
Q 5.609375 35.453125 6.140625 36.078125 
Q 6.6875 36.71875 7.515625 36.71875 
L 70.3125 36.71875 
Q 71.046875 36.71875 71.578125 36.078125 
Q 72.125 35.453125 72.125 34.71875 
Q 72.125 33.890625 71.578125 33.296875 
Q 71.046875 32.71875 70.3125 32.71875 
z
" id="Cmr10-3d"/>
     <path d="M 16.3125 -15.578125 
Q 16.453125 -14.40625 17.671875 -14.40625 
Q 17.78125 -14.40625 19.5625 -15.375 
Q 21.34375 -16.359375 23.484375 -17.140625 
Q 25.640625 -17.921875 27.78125 -17.921875 
Q 29.640625 -17.921875 30.90625 -16.328125 
Q 32.171875 -14.75 32.171875 -12.890625 
Q 32.171875 -10.25 29.390625 -9.1875 
L 12.40625 -2.59375 
Q 8.015625 -0.875 5.15625 2.515625 
Q 2.296875 5.90625 2.296875 10.203125 
Q 2.296875 14.0625 4.34375 18.234375 
Q 6.390625 22.40625 9.609375 25.796875 
Q 12.84375 29.203125 16.5 31.296875 
Q 13.578125 33.0625 11.9375 35.8125 
Q 10.296875 38.578125 10.296875 41.890625 
Q 10.296875 45.40625 11.734375 48.4375 
Q 13.1875 51.46875 15.671875 53.953125 
Q 18.171875 56.453125 21.234375 58.171875 
Q 24.3125 59.90625 27.484375 60.796875 
Q 27 62.84375 27 64.5 
Q 27 69.921875 29.109375 69.921875 
Q 29.640625 69.921875 30.03125 69.53125 
Q 30.421875 69.140625 30.421875 68.609375 
Q 30.421875 68.109375 30.15625 66.453125 
Q 29.890625 64.796875 29.890625 64.40625 
Q 29.890625 62.703125 30.328125 61.375 
Q 32.90625 61.921875 35.296875 61.921875 
Q 44.484375 61.921875 44.484375 59.078125 
Q 44.484375 55.71875 34.28125 55.71875 
Q 31.15625 55.71875 29.203125 57.8125 
Q 26.3125 56.34375 23.875 53.65625 
Q 21.4375 50.984375 20.0625 47.6875 
Q 18.703125 44.390625 18.703125 41.015625 
Q 18.703125 36.328125 21.390625 33.5 
Q 24.953125 34.71875 28.515625 34.71875 
Q 37.703125 34.71875 37.703125 31.890625 
Q 37.703125 28.515625 27.484375 28.515625 
Q 23.34375 28.515625 19.671875 29.78125 
Q 15.234375 27.390625 11.515625 22.5 
Q 7.8125 17.625 7.8125 13.09375 
Q 7.8125 10.15625 9.9375 7.9375 
Q 12.0625 5.71875 15.1875 4.390625 
L 32.90625 -2.484375 
Q 35.203125 -3.375 36.640625 -5.296875 
Q 38.09375 -7.234375 38.09375 -9.71875 
Q 38.09375 -13.8125 34.9375 -17.15625 
Q 31.78125 -20.515625 27.6875 -20.515625 
Q 26.421875 -20.515625 23.53125 -19.828125 
Q 20.65625 -19.140625 18.484375 -18.015625 
Q 16.3125 -16.890625 16.3125 -15.578125 
M 24.421875 31.59375 
Q 25.734375 31.109375 27.6875 31.109375 
Q 32.515625 31.109375 34.625 31.6875 
Q 32.71875 32.078125 28.421875 32.078125 
Q 26.703125 32.078125 24.421875 31.59375 
M 32.078125 58.890625 
Q 32.953125 58.296875 34.515625 58.296875 
Q 39.3125 58.296875 41.40625 58.890625 
z
" id="Cmmi10-bb"/>
    </defs>
    <g style="fill:#d9d9d9;" transform="translate(81.66140625 19.98)scale(0.18 -0.18)">
     <use transform="translate(0.0 0.484375)" xlink:href="#Cmmi10-bb"/>
     <use transform="translate(61.259765625 0.484375)" xlink:href="#Cmr10-3d"/>
     <use transform="translate(156.50390625 0.484375)" xlink:href="#Cmr10-30"/>
     <use transform="translate(206.50390625 0.484375)" xlink:href="#Cmmi10-3a"/>
     <use transform="translate(251.748046875 0.484375)" xlink:href="#Cmr10-34"/>
     <use transform="translate(301.748046875 0.484375)" xlink:href="#ArialMT-3b"/>
     <use transform="translate(329.53125 0.484375)" xlink:href="#ArialMT-20"/>
     <use transform="translate(357.314453125 0.484375)" xlink:href="#Cmmi10-af"/>
     <use transform="translate(431.3671875 0.484375)" xlink:href="#Cmr10-3d"/>
     <use transform="translate(526.611328125 0.484375)" xlink:href="#Cmr10-30"/>
     <use transform="translate(576.611328125 0.484375)" xlink:href="#Cmmi10-3a"/>
     <use transform="translate(621.85546875 0.484375)" xlink:href="#Cmr10-30"/>
     <use transform="translate(671.85546875 0.484375)" xlink:href="#Cmr10-31"/>
     <use transform="translate(721.85546875 0.484375)" xlink:href="#Cmr10-30"/>
     <use transform="translate(771.85546875 0.484375)" xlink:href="#Cmr10-30"/>
    </g>
   </g>
  </g>
 </g>
 <defs>
  <clipPath id="p95196557bb">
   <rect height="223.2" width="223.2" x="44.04140625" y="24.98"/>
  </clipPath>
 </defs>
</svg>
