<?xml version="1.0" encoding="utf-8" standalone="no"?>
<!DOCTYPE svg PUBLIC "-//W3C//DTD SVG 1.1//EN"
  "http://www.w3.org/Graphics/SVG/1.1/DTD/svg11.dtd">
<!-- Created with matplotlib (http://matplotlib.org/) -->
<svg height="237pt" version="1.1" viewBox="0 0 357 237" width="357pt" xmlns="http://www.w3.org/2000/svg" xmlns:xlink="http://www.w3.org/1999/xlink">
 <defs>
  <style type="text/css">
*{stroke-linecap:butt;stroke-linejoin:round;}
  </style>
 </defs>
 <g id="figure_1">
  <g id="patch_1">
   <path d="M 0 237.147734 
L 357.442813 237.147734 
L 357.442813 0 
L 0 0 
z
" style="fill:#3f3f3f;"/>
  </g>
  <g id="axes_1">
   <g id="patch_2">
    <path d="M 71.242813 190.14 
L 350.242813 190.14 
L 350.242813 27.06 
L 71.242813 27.06 
z
" style="fill:#504040;"/>
   </g>
   <g id="matplotlib.axis_1">
    <g id="xtick_1">
     <g id="line2d_1">
      <path clip-path="url(#p98e6a41c34)" d="M 71.242813 190.14 
L 71.242813 27.06 
" style="fill:none;stroke:#808080;stroke-linecap:round;"/>
     </g>
     <g id="line2d_2"/>
     <g id="text_1">
      <!-- 0 -->
      <defs>
       <path d="M 4.15625 35.296875 
Q 4.15625 48 6.765625 55.734375 
Q 9.375 63.484375 14.515625 67.671875 
Q 19.671875 71.875 27.484375 71.875 
Q 33.25 71.875 37.59375 69.546875 
Q 41.9375 67.234375 44.765625 62.859375 
Q 47.609375 58.5 49.21875 52.21875 
Q 50.828125 45.953125 50.828125 35.296875 
Q 50.828125 22.703125 48.234375 14.96875 
Q 45.65625 7.234375 40.5 3 
Q 35.359375 -1.21875 27.484375 -1.21875 
Q 17.140625 -1.21875 11.234375 6.203125 
Q 4.15625 15.140625 4.15625 35.296875 
M 13.1875 35.296875 
Q 13.1875 17.671875 17.3125 11.828125 
Q 21.4375 6 27.484375 6 
Q 33.546875 6 37.671875 11.859375 
Q 41.796875 17.71875 41.796875 35.296875 
Q 41.796875 52.984375 37.671875 58.78125 
Q 33.546875 64.59375 27.390625 64.59375 
Q 21.34375 64.59375 17.71875 59.46875 
Q 13.1875 52.9375 13.1875 35.296875 
" id="ArialMT-30"/>
      </defs>
      <g style="fill:#d9d9d9;" transform="translate(67.072109 207.876719)scale(0.15 -0.15)">
       <use xlink:href="#ArialMT-30"/>
      </g>
     </g>
    </g>
    <g id="xtick_2">
     <g id="line2d_3">
      <path clip-path="url(#p98e6a41c34)" d="M 148.742813 190.14 
L 148.742813 27.06 
" style="fill:none;stroke:#808080;stroke-linecap:round;"/>
     </g>
     <g id="line2d_4"/>
     <g id="text_2">
      <!-- 50 -->
      <defs>
       <path d="M 4.15625 18.75 
L 13.375 19.53125 
Q 14.40625 12.796875 18.140625 9.390625 
Q 21.875 6 27.15625 6 
Q 33.5 6 37.890625 10.78125 
Q 42.28125 15.578125 42.28125 23.484375 
Q 42.28125 31 38.0625 35.34375 
Q 33.84375 39.703125 27 39.703125 
Q 22.75 39.703125 19.328125 37.765625 
Q 15.921875 35.84375 13.96875 32.765625 
L 5.71875 33.84375 
L 12.640625 70.609375 
L 48.25 70.609375 
L 48.25 62.203125 
L 19.671875 62.203125 
L 15.828125 42.96875 
Q 22.265625 47.46875 29.34375 47.46875 
Q 38.71875 47.46875 45.15625 40.96875 
Q 51.609375 34.46875 51.609375 24.265625 
Q 51.609375 14.546875 45.953125 7.46875 
Q 39.0625 -1.21875 27.15625 -1.21875 
Q 17.390625 -1.21875 11.203125 4.25 
Q 5.03125 9.71875 4.15625 18.75 
" id="ArialMT-35"/>
      </defs>
      <g style="fill:#d9d9d9;" transform="translate(140.401406 207.876719)scale(0.15 -0.15)">
       <use xlink:href="#ArialMT-35"/>
       <use x="55.615234" xlink:href="#ArialMT-30"/>
      </g>
     </g>
    </g>
    <g id="xtick_3">
     <g id="line2d_5">
      <path clip-path="url(#p98e6a41c34)" d="M 226.242813 190.14 
L 226.242813 27.06 
" style="fill:none;stroke:#808080;stroke-linecap:round;"/>
     </g>
     <g id="line2d_6"/>
     <g id="text_3">
      <!-- 100 -->
      <defs>
       <path d="M 37.25 0 
L 28.46875 0 
L 28.46875 56 
Q 25.296875 52.984375 20.140625 49.953125 
Q 14.984375 46.921875 10.890625 45.40625 
L 10.890625 53.90625 
Q 18.265625 57.375 23.78125 62.296875 
Q 29.296875 67.234375 31.59375 71.875 
L 37.25 71.875 
z
" id="ArialMT-31"/>
      </defs>
      <g style="fill:#d9d9d9;" transform="translate(213.730703 207.876719)scale(0.15 -0.15)">
       <use xlink:href="#ArialMT-31"/>
       <use x="55.615234" xlink:href="#ArialMT-30"/>
       <use x="111.230469" xlink:href="#ArialMT-30"/>
      </g>
     </g>
    </g>
    <g id="xtick_4">
     <g id="line2d_7">
      <path clip-path="url(#p98e6a41c34)" d="M 303.742813 190.14 
L 303.742813 27.06 
" style="fill:none;stroke:#808080;stroke-linecap:round;"/>
     </g>
     <g id="line2d_8"/>
     <g id="text_4">
      <!-- 150 -->
      <g style="fill:#d9d9d9;" transform="translate(291.230703 207.876719)scale(0.15 -0.15)">
       <use xlink:href="#ArialMT-31"/>
       <use x="55.615234" xlink:href="#ArialMT-35"/>
       <use x="111.230469" xlink:href="#ArialMT-30"/>
      </g>
     </g>
    </g>
    <g id="text_5">
     <!-- $\theta$ -->
     <defs>
      <path d="M 45.515625 34.671875 
L 14.453125 34.671875 
Q 12.359375 20.0625 14.5 13.875 
Q 17.1875 6.25 24.46875 6.25 
Q 31.78125 6.25 37.359375 13.921875 
Q 42.234375 20.65625 45.515625 34.671875 
M 47.015625 42.96875 
Q 48.34375 56.84375 46.625 61.71875 
Q 43.953125 69.4375 36.765625 69.4375 
Q 29.296875 69.4375 23.828125 61.8125 
Q 19.53125 55.671875 16.15625 42.96875 
z
M 38.1875 76.765625 
Q 49.90625 76.765625 54.59375 66.40625 
Q 59.28125 56.109375 55.71875 37.84375 
Q 52.203125 19.625 43.453125 9.28125 
Q 34.765625 -1.125 23.046875 -1.125 
Q 11.28125 -1.125 6.640625 9.28125 
Q 2 19.625 5.515625 37.84375 
Q 9.078125 56.109375 17.71875 66.40625 
Q 26.421875 76.765625 38.1875 76.765625 
" id="DejaVuSans-Oblique-3b8"/>
     </defs>
     <g style="fill:#d9d9d9;" transform="translate(205.627813 226.668359)scale(0.165 -0.165)">
      <use transform="translate(0 0.234375)" xlink:href="#DejaVuSans-Oblique-3b8"/>
     </g>
    </g>
   </g>
   <g id="matplotlib.axis_2">
    <g id="ytick_1">
     <g id="line2d_9">
      <path clip-path="url(#p98e6a41c34)" d="M 71.242813 158.124805 
L 350.242813 158.124805 
" style="fill:none;stroke:#808080;stroke-linecap:round;"/>
     </g>
     <g id="line2d_10"/>
     <g id="text_6">
      <!-- 0.000 -->
      <defs>
       <path d="M 9.078125 0 
L 9.078125 10.015625 
L 19.09375 10.015625 
L 19.09375 0 
z
" id="ArialMT-2e"/>
      </defs>
      <g style="fill:#d9d9d9;" transform="translate(26.71 163.493165)scale(0.15 -0.15)">
       <use xlink:href="#ArialMT-30"/>
       <use x="55.615234" xlink:href="#ArialMT-2e"/>
       <use x="83.398438" xlink:href="#ArialMT-30"/>
       <use x="139.013672" xlink:href="#ArialMT-30"/>
       <use x="194.628906" xlink:href="#ArialMT-30"/>
      </g>
     </g>
    </g>
    <g id="ytick_2">
     <g id="line2d_11">
      <path clip-path="url(#p98e6a41c34)" d="M 71.242813 114.436537 
L 350.242813 114.436537 
" style="fill:none;stroke:#808080;stroke-linecap:round;"/>
     </g>
     <g id="line2d_12"/>
     <g id="text_7">
      <!-- 0.001 -->
      <g style="fill:#d9d9d9;" transform="translate(26.71 119.804896)scale(0.15 -0.15)">
       <use xlink:href="#ArialMT-30"/>
       <use x="55.615234" xlink:href="#ArialMT-2e"/>
       <use x="83.398438" xlink:href="#ArialMT-30"/>
       <use x="139.013672" xlink:href="#ArialMT-30"/>
       <use x="194.628906" xlink:href="#ArialMT-31"/>
      </g>
     </g>
    </g>
    <g id="ytick_3">
     <g id="line2d_13">
      <path clip-path="url(#p98e6a41c34)" d="M 71.242813 70.748268 
L 350.242813 70.748268 
" style="fill:none;stroke:#808080;stroke-linecap:round;"/>
     </g>
     <g id="line2d_14"/>
     <g id="text_8">
      <!-- 0.002 -->
      <defs>
       <path d="M 50.34375 8.453125 
L 50.34375 0 
L 3.03125 0 
Q 2.9375 3.171875 4.046875 6.109375 
Q 5.859375 10.9375 9.828125 15.625 
Q 13.8125 20.3125 21.34375 26.46875 
Q 33.015625 36.03125 37.109375 41.625 
Q 41.21875 47.21875 41.21875 52.203125 
Q 41.21875 57.421875 37.46875 61 
Q 33.734375 64.59375 27.734375 64.59375 
Q 21.390625 64.59375 17.578125 60.78125 
Q 13.765625 56.984375 13.71875 50.25 
L 4.6875 51.171875 
Q 5.609375 61.28125 11.65625 66.578125 
Q 17.71875 71.875 27.9375 71.875 
Q 38.234375 71.875 44.234375 66.15625 
Q 50.25 60.453125 50.25 52 
Q 50.25 47.703125 48.484375 43.546875 
Q 46.734375 39.40625 42.65625 34.8125 
Q 38.578125 30.21875 29.109375 22.21875 
Q 21.1875 15.578125 18.9375 13.203125 
Q 16.703125 10.84375 15.234375 8.453125 
z
" id="ArialMT-32"/>
      </defs>
      <g style="fill:#d9d9d9;" transform="translate(26.71 76.116628)scale(0.15 -0.15)">
       <use xlink:href="#ArialMT-30"/>
       <use x="55.615234" xlink:href="#ArialMT-2e"/>
       <use x="83.398438" xlink:href="#ArialMT-30"/>
       <use x="139.013672" xlink:href="#ArialMT-30"/>
       <use x="194.628906" xlink:href="#ArialMT-32"/>
      </g>
     </g>
    </g>
    <g id="ytick_4">
     <g id="line2d_15">
      <path clip-path="url(#p98e6a41c34)" d="M 71.242813 27.06 
L 350.242813 27.06 
" style="fill:none;stroke:#808080;stroke-linecap:round;"/>
     </g>
     <g id="line2d_16"/>
     <g id="text_9">
      <!-- 0.003 -->
      <defs>
       <path d="M 4.203125 18.890625 
L 12.984375 20.0625 
Q 14.5 12.59375 18.140625 9.296875 
Q 21.78125 6 27 6 
Q 33.203125 6 37.46875 10.296875 
Q 41.75 14.59375 41.75 20.953125 
Q 41.75 27 37.796875 30.921875 
Q 33.84375 34.859375 27.734375 34.859375 
Q 25.25 34.859375 21.53125 33.890625 
L 22.515625 41.609375 
Q 23.390625 41.5 23.921875 41.5 
Q 29.546875 41.5 34.03125 44.421875 
Q 38.53125 47.359375 38.53125 53.46875 
Q 38.53125 58.296875 35.25 61.46875 
Q 31.984375 64.65625 26.8125 64.65625 
Q 21.6875 64.65625 18.265625 61.421875 
Q 14.84375 58.203125 13.875 51.765625 
L 5.078125 53.328125 
Q 6.6875 62.15625 12.390625 67.015625 
Q 18.109375 71.875 26.609375 71.875 
Q 32.46875 71.875 37.390625 69.359375 
Q 42.328125 66.84375 44.9375 62.5 
Q 47.5625 58.15625 47.5625 53.265625 
Q 47.5625 48.640625 45.0625 44.828125 
Q 42.578125 41.015625 37.703125 38.765625 
Q 44.046875 37.3125 47.5625 32.6875 
Q 51.078125 28.078125 51.078125 21.140625 
Q 51.078125 11.765625 44.234375 5.25 
Q 37.40625 -1.265625 26.953125 -1.265625 
Q 17.53125 -1.265625 11.296875 4.34375 
Q 5.078125 9.96875 4.203125 18.890625 
" id="ArialMT-33"/>
      </defs>
      <g style="fill:#d9d9d9;" transform="translate(26.71 32.428359)scale(0.15 -0.15)">
       <use xlink:href="#ArialMT-30"/>
       <use x="55.615234" xlink:href="#ArialMT-2e"/>
       <use x="83.398438" xlink:href="#ArialMT-30"/>
       <use x="139.013672" xlink:href="#ArialMT-30"/>
       <use x="194.628906" xlink:href="#ArialMT-33"/>
      </g>
     </g>
    </g>
    <g id="text_10">
     <!-- $\theta_1/\theta$ -->
     <defs>
      <path d="M 12.40625 8.296875 
L 28.515625 8.296875 
L 28.515625 63.921875 
L 10.984375 60.40625 
L 10.984375 69.390625 
L 28.421875 72.90625 
L 38.28125 72.90625 
L 38.28125 8.296875 
L 54.390625 8.296875 
L 54.390625 0 
L 12.40625 0 
z
" id="DejaVuSans-31"/>
      <path d="M 25.390625 72.90625 
L 33.6875 72.90625 
L 8.296875 -9.28125 
L 0 -9.28125 
z
" id="DejaVuSans-2f"/>
     </defs>
     <g style="fill:#d9d9d9;" transform="translate(19.430625 125.43)rotate(-90)scale(0.165 -0.165)">
      <use transform="translate(0 0.234375)" xlink:href="#DejaVuSans-Oblique-3b8"/>
      <use transform="translate(61.181641 -16.171875)scale(0.7)" xlink:href="#DejaVuSans-31"/>
      <use transform="translate(108.452148 0.234375)" xlink:href="#DejaVuSans-2f"/>
      <use transform="translate(142.143555 0.234375)" xlink:href="#DejaVuSans-Oblique-3b8"/>
     </g>
    </g>
   </g>
   <g id="line2d_17">
    <path clip-path="url(#p98e6a41c34)" d="M 74.056993 44.895776 
L 76.871174 51.234679 
L 79.685354 59.334338 
L 82.499535 67.613931 
L 85.313716 75.309463 
L 88.127896 82.172202 
L 90.942077 88.191231 
L 93.756257 93.444706 
L 96.570438 98.033896 
L 99.384619 102.057173 
L 102.198799 105.601322 
L 105.01298 108.739889 
L 107.827161 111.534126 
L 110.641341 114.034725 
L 113.455522 116.283613 
L 116.269702 118.315545 
L 119.083883 120.159449 
L 121.898064 121.839522 
L 124.712244 123.376108 
L 127.526425 124.786403 
L 130.340606 126.085023 
L 133.154786 127.284456 
L 135.968967 128.395425 
L 138.783147 129.427181 
L 141.597328 130.387746 
L 144.411509 131.284104 
L 147.225689 132.122359 
L 150.03987 132.907875 
L 152.854051 133.645373 
L 155.668231 134.339033 
L 158.482412 134.99256 
L 161.296592 135.609255 
L 164.110773 136.192065 
L 166.924954 136.743627 
L 169.739134 137.266313 
L 172.553315 137.762254 
L 175.367496 138.233375 
L 178.181676 138.681419 
L 180.995857 139.107964 
L 183.810037 139.514443 
L 186.624218 139.902162 
L 189.438399 140.272309 
L 192.252579 140.625973 
L 195.06676 140.964145 
L 197.880941 141.287737 
L 200.695121 141.597583 
L 203.509302 141.894448 
L 206.323482 142.179037 
L 209.137663 142.451997 
L 211.951844 142.713922 
L 214.766024 142.96536 
L 217.580205 143.206816 
L 220.394386 143.438751 
L 223.208566 143.661593 
L 226.022747 143.875731 
L 228.836927 144.081523 
L 231.651108 144.279296 
L 234.465289 144.469347 
L 237.279469 144.651946 
L 240.09365 144.827334 
L 242.907831 144.995727 
L 245.722011 145.157315 
L 248.536192 145.312262 
L 251.350372 145.460704 
L 254.164553 145.602754 
L 256.978734 145.738493 
L 259.792914 145.867977 
L 262.607095 145.991229 
L 265.421276 146.108237 
L 268.235456 146.218954 
L 271.049637 146.323291 
L 273.863817 146.42111 
L 276.677998 146.512219 
L 279.492179 146.596365 
L 282.306359 146.673215 
L 285.12054 146.74235 
L 287.934721 146.803237 
L 290.748901 146.855209 
L 293.563082 146.897429 
L 296.377262 146.928847 
L 299.191443 146.948136 
L 302.005624 146.953609 
L 304.819804 146.943108 
L 307.633985 146.91383 
L 310.448166 146.862092 
L 313.262346 146.782974 
L 316.076527 146.669771 
L 318.890707 146.513138 
L 321.704888 146.299683 
L 324.519069 146.009588 
L 327.333249 145.612339 
L 330.14743 145.058615 
L 332.961611 144.263706 
L 335.775791 143.070208 
L 338.589972 141.152852 
L 341.404152 137.727397 
L 344.218333 130.352342 
L 347.032514 105.530112 
" style="fill:none;stroke:#00d7ff;stroke-linecap:round;stroke-width:1.75;"/>
   </g>
   <g id="line2d_18">
    <path clip-path="url(#p98e6a41c34)" d="M 84.253491 -1 
L 85.313716 12.164856 
L 88.127896 35.792946 
L 90.942077 52.835607 
L 93.756257 65.709146 
L 96.570438 75.776615 
L 99.384619 83.865289 
L 102.198799 90.506354 
L 105.01298 96.056493 
L 107.827161 100.764103 
L 110.641341 104.80749 
L 113.455522 108.317963 
L 116.269702 111.394359 
L 119.083883 114.112497 
L 121.898064 116.531509 
L 124.712244 118.698194 
L 127.526425 120.650071 
L 130.340606 122.417571 
L 133.154786 124.025637 
L 135.968967 125.494908 
L 138.783147 126.842604 
L 141.597328 128.083213 
L 144.411509 129.229008 
L 147.225689 130.290453 
L 150.03987 131.27653 
L 152.854051 132.194986 
L 155.668231 133.052544 
L 158.482412 133.855063 
L 161.296592 134.607673 
L 164.110773 135.314886 
L 166.924954 135.980687 
L 169.739134 136.608605 
L 172.553315 137.201781 
L 175.367496 137.763017 
L 178.181676 138.294821 
L 180.995857 138.799447 
L 183.810037 139.278922 
L 186.624218 139.735077 
L 189.438399 140.169569 
L 192.252579 140.583901 
L 195.06676 140.979441 
L 197.880941 141.357434 
L 200.695121 141.719019 
L 203.509302 142.065238 
L 206.323482 142.397043 
L 209.137663 142.715314 
L 211.951844 143.020856 
L 214.766024 143.314413 
L 217.580205 143.596671 
L 220.394386 143.868264 
L 223.208566 144.129781 
L 226.022747 144.381765 
L 228.836927 144.624722 
L 231.651108 144.859121 
L 234.465289 145.0854 
L 237.279469 145.303966 
L 240.09365 145.515198 
L 242.907831 145.719451 
L 245.722011 145.917055 
L 248.536192 146.108319 
L 251.350372 146.293534 
L 254.164553 146.472969 
L 256.978734 146.646879 
L 259.792914 146.8155 
L 262.607095 146.979055 
L 265.421276 147.137751 
L 268.235456 147.291783 
L 271.049637 147.441333 
L 273.863817 147.586571 
L 276.677998 147.727654 
L 279.492179 147.864728 
L 282.306359 147.997928 
L 285.12054 148.127377 
L 287.934721 148.253188 
L 290.748901 148.375459 
L 293.563082 148.494279 
L 296.377262 148.609718 
L 299.191443 148.721835 
L 302.005624 148.830666 
L 304.819804 148.936228 
L 307.633985 149.038508 
L 310.448166 149.137458 
L 313.262346 149.232982 
L 316.076527 149.324918 
L 318.890707 149.413013 
L 321.704888 149.496874 
L 324.519069 149.575896 
L 327.333249 149.649133 
L 330.14743 149.715049 
L 332.961611 149.771039 
L 335.775791 149.812346 
L 338.589972 149.829373 
L 341.404152 149.799557 
L 344.218333 149.654656 
L 347.032514 149.047833 
" style="fill:none;stroke:#03ed3a;stroke-dasharray:5.6,2.4;stroke-dashoffset:0;"/>
   </g>
   <g id="line2d_19">
    <path clip-path="url(#p98e6a41c34)" d="M 74.056993 114.494217 
L 76.871174 114.66629 
L 79.685354 114.949897 
L 82.499535 115.340356 
L 85.313716 115.831331 
L 88.127896 116.415021 
L 90.942077 117.082399 
L 93.756257 117.823485 
L 96.570438 118.627637 
L 99.384619 119.483852 
L 102.198799 120.381063 
L 105.01298 121.308422 
L 107.827161 122.255548 
L 110.641341 123.212755 
L 113.455522 124.17122 
L 116.269702 125.123117 
L 119.083883 126.061694 
L 121.898064 126.981307 
L 124.712244 127.877403 
L 127.526425 128.746476 
L 130.340606 129.585977 
L 133.154786 130.394221 
L 135.968967 131.170264 
L 138.783147 131.913785 
L 141.597328 132.624966 
L 144.411509 133.304381 
L 147.225689 133.9529 
L 150.03987 134.571598 
L 152.854051 135.161687 
L 155.668231 135.724455 
L 158.482412 136.261228 
L 161.296592 136.773328 
L 164.110773 137.262055 
L 166.924954 137.728669 
L 169.739134 138.174377 
L 172.553315 138.600328 
L 175.367496 139.00761 
L 178.181676 139.397248 
L 180.995857 139.770205 
L 183.810037 140.127384 
L 186.624218 140.469629 
L 189.438399 140.79773 
L 192.252579 141.112424 
L 195.06676 141.414397 
L 197.880941 141.704291 
L 200.695121 141.982702 
L 203.509302 142.250186 
L 206.323482 142.50726 
L 209.137663 142.754406 
L 211.951844 142.992071 
L 214.766024 143.22067 
L 217.580205 143.440591 
L 220.394386 143.65219 
L 223.208566 143.855798 
L 226.022747 144.051721 
L 228.836927 144.240241 
L 231.651108 144.421616 
L 234.465289 144.596082 
L 237.279469 144.763855 
L 240.09365 144.925128 
L 242.907831 145.080073 
L 245.722011 145.228845 
L 248.536192 145.371574 
L 251.350372 145.508373 
L 254.164553 145.639331 
L 256.978734 145.764516 
L 259.792914 145.883974 
L 262.607095 145.997724 
L 265.421276 146.105759 
L 268.235456 146.208046 
L 271.049637 146.304517 
L 273.863817 146.395068 
L 276.677998 146.479555 
L 279.492179 146.55779 
L 282.306359 146.629525 
L 285.12054 146.694454 
L 287.934721 146.752191 
L 290.748901 146.802261 
L 293.563082 146.844076 
L 296.377262 146.876913 
L 299.191443 146.899877 
L 302.005624 146.911855 
L 304.819804 146.911461 
L 307.633985 146.896943 
L 310.448166 146.866076 
L 313.262346 146.815987 
L 316.076527 146.742919 
L 318.890707 146.641862 
L 321.704888 146.505997 
L 324.519069 146.325789 
L 327.333249 146.087492 
L 330.14743 145.770484 
L 332.961611 145.342285 
L 335.775791 144.748333 
L 338.589972 143.888659 
L 341.404152 142.555597 
L 344.218333 140.222661 
L 347.032514 134.936568 
" style="fill:none;stroke:#ffc400;stroke-linecap:round;stroke-width:1.75;"/>
   </g>
   <g id="line2d_20">
    <path clip-path="url(#p98e6a41c34)" d="M 74.056993 114.494226 
L 76.871174 114.665833 
L 79.685354 114.947475 
L 82.499535 115.332915 
L 85.313716 115.813899 
L 88.127896 116.380712 
L 90.942077 117.022608 
L 93.756257 117.728376 
L 96.570438 118.486728 
L 99.384619 119.286715 
L 102.198799 120.118044 
L 105.01298 120.971235 
L 107.827161 121.837819 
L 110.641341 122.710337 
L 113.455522 123.58239 
L 116.269702 124.448581 
L 119.083883 125.304446 
L 121.898064 126.146381 
L 124.712244 126.971535 
L 127.526425 127.777745 
L 130.340606 128.563372 
L 133.154786 129.327281 
L 135.968967 130.068809 
L 138.783147 130.787522 
L 141.597328 131.483313 
L 144.411509 132.156349 
L 147.225689 132.806873 
L 150.03987 133.435278 
L 152.854051 134.042126 
L 155.668231 134.628081 
L 158.482412 135.193722 
L 161.296592 135.73978 
L 164.110773 136.267011 
L 166.924954 136.776062 
L 169.739134 137.267783 
L 172.553315 137.742859 
L 175.367496 138.202071 
L 178.181676 138.646027 
L 180.995857 139.075504 
L 183.810037 139.491179 
L 186.624218 139.893711 
L 189.438399 140.283744 
L 192.252579 140.661842 
L 195.06676 141.028653 
L 197.880941 141.384777 
L 200.695121 141.730745 
L 203.509302 142.067064 
L 206.323482 142.394334 
L 209.137663 142.712974 
L 211.951844 143.023536 
L 214.766024 143.326478 
L 217.580205 143.622237 
L 220.394386 143.911317 
L 223.208566 144.194091 
L 226.022747 144.47104 
L 228.836927 144.742588 
L 231.651108 145.009122 
L 234.465289 145.271076 
L 237.279469 145.528866 
L 240.09365 145.782903 
L 242.907831 146.033598 
L 245.722011 146.28137 
L 248.536192 146.526643 
L 251.350372 146.769833 
L 254.164553 147.011395 
L 256.978734 147.25177 
L 259.792914 147.491426 
L 262.607095 147.73084 
L 265.421276 147.970511 
L 268.235456 148.210957 
L 271.049637 148.45272 
L 273.863817 148.696363 
L 276.677998 148.942484 
L 279.492179 149.191706 
L 282.306359 149.444669 
L 285.12054 149.70207 
L 287.934721 149.964604 
L 290.748901 150.233028 
L 293.563082 150.508085 
L 296.377262 150.790569 
L 299.191443 151.081262 
L 302.005624 151.380964 
L 304.819804 151.690444 
L 307.633985 152.010437 
L 310.448166 152.341616 
L 313.262346 152.684567 
L 316.076527 153.039745 
L 318.890707 153.407422 
L 321.704888 153.787663 
L 324.519069 154.180281 
L 327.333249 154.584765 
L 330.14743 155.000246 
L 332.961611 155.425478 
L 335.775791 155.858823 
L 338.589972 156.29823 
L 341.404152 156.741282 
L 344.218333 157.185247 
L 347.032514 157.62716 
L 349.846694 158.063918 
" style="fill:none;stroke:#ffffff;stroke-dasharray:2.2,2.2;stroke-dashoffset:0;stroke-width:1.75;"/>
   </g>
   <g id="patch_3">
    <path d="M 71.242813 190.14 
L 71.242813 27.06 
" style="fill:none;"/>
   </g>
   <g id="patch_4">
    <path d="M 350.242813 190.14 
L 350.242813 27.06 
" style="fill:none;"/>
   </g>
   <g id="patch_5">
    <path d="M 71.242813 190.14 
L 350.242813 190.14 
" style="fill:none;"/>
   </g>
   <g id="patch_6">
    <path d="M 71.242813 27.06 
L 350.242813 27.06 
" style="fill:none;"/>
   </g>
   <g id="text_11">
    <!-- After fit: $\xi = 0.1$; $\beta = 0.0000$ -->
    <defs>
     <path d="M -0.140625 0 
L 27.34375 71.578125 
L 37.546875 71.578125 
L 66.84375 0 
L 56.0625 0 
L 47.703125 21.6875 
L 17.78125 21.6875 
L 9.90625 0 
z
M 20.515625 29.390625 
L 44.78125 29.390625 
L 37.3125 49.21875 
Q 33.890625 58.25 32.234375 64.0625 
Q 30.859375 57.171875 28.375 50.390625 
z
" id="ArialMT-41"/>
     <path d="M 8.6875 0 
L 8.6875 45.015625 
L 0.921875 45.015625 
L 0.921875 51.859375 
L 8.6875 51.859375 
L 8.6875 57.375 
Q 8.6875 62.59375 9.625 65.140625 
Q 10.890625 68.5625 14.078125 70.671875 
Q 17.28125 72.796875 23.046875 72.796875 
Q 26.765625 72.796875 31.25 71.921875 
L 29.9375 64.265625 
Q 27.203125 64.75 24.75 64.75 
Q 20.75 64.75 19.09375 63.03125 
Q 17.4375 61.328125 17.4375 56.640625 
L 17.4375 51.859375 
L 27.546875 51.859375 
L 27.546875 45.015625 
L 17.4375 45.015625 
L 17.4375 0 
z
" id="ArialMT-66"/>
     <path d="M 25.78125 7.859375 
L 27.046875 0.09375 
Q 23.34375 -0.6875 20.40625 -0.6875 
Q 15.625 -0.6875 12.984375 0.828125 
Q 10.359375 2.34375 9.28125 4.8125 
Q 8.203125 7.28125 8.203125 15.1875 
L 8.203125 45.015625 
L 1.765625 45.015625 
L 1.765625 51.859375 
L 8.203125 51.859375 
L 8.203125 64.703125 
L 16.9375 69.96875 
L 16.9375 51.859375 
L 25.78125 51.859375 
L 25.78125 45.015625 
L 16.9375 45.015625 
L 16.9375 14.703125 
Q 16.9375 10.9375 17.40625 9.859375 
Q 17.875 8.796875 18.921875 8.15625 
Q 19.96875 7.515625 21.921875 7.515625 
Q 23.390625 7.515625 25.78125 7.859375 
" id="ArialMT-74"/>
     <path d="M 42.09375 16.703125 
L 51.171875 15.578125 
Q 49.03125 7.625 43.21875 3.21875 
Q 37.40625 -1.171875 28.375 -1.171875 
Q 17 -1.171875 10.328125 5.828125 
Q 3.65625 12.84375 3.65625 25.484375 
Q 3.65625 38.578125 10.390625 45.796875 
Q 17.140625 53.03125 27.875 53.03125 
Q 38.28125 53.03125 44.875 45.953125 
Q 51.46875 38.875 51.46875 26.03125 
Q 51.46875 25.25 51.421875 23.6875 
L 12.75 23.6875 
Q 13.234375 15.140625 17.578125 10.59375 
Q 21.921875 6.0625 28.421875 6.0625 
Q 33.25 6.0625 36.671875 8.59375 
Q 40.09375 11.140625 42.09375 16.703125 
M 13.234375 30.90625 
L 42.1875 30.90625 
Q 41.609375 37.453125 38.875 40.71875 
Q 34.671875 45.796875 27.984375 45.796875 
Q 21.921875 45.796875 17.796875 41.75 
Q 13.671875 37.703125 13.234375 30.90625 
" id="ArialMT-65"/>
     <path d="M 6.5 0 
L 6.5 51.859375 
L 14.40625 51.859375 
L 14.40625 44 
Q 17.4375 49.515625 20 51.265625 
Q 22.5625 53.03125 25.640625 53.03125 
Q 30.078125 53.03125 34.671875 50.203125 
L 31.640625 42.046875 
Q 28.421875 43.953125 25.203125 43.953125 
Q 22.3125 43.953125 20.015625 42.21875 
Q 17.71875 40.484375 16.75 37.40625 
Q 15.28125 32.71875 15.28125 27.15625 
L 15.28125 0 
z
" id="ArialMT-72"/>
     <path id="ArialMT-20"/>
     <path d="M 6.640625 61.46875 
L 6.640625 71.578125 
L 15.4375 71.578125 
L 15.4375 61.46875 
z
M 6.640625 0 
L 6.640625 51.859375 
L 15.4375 51.859375 
L 15.4375 0 
z
" id="ArialMT-69"/>
     <path d="M 9.03125 41.84375 
L 9.03125 51.859375 
L 19.046875 51.859375 
L 19.046875 41.84375 
z
M 9.03125 0 
L 9.03125 10.015625 
L 19.046875 10.015625 
L 19.046875 0 
z
" id="ArialMT-3a"/>
     <path d="M 31.5 6.203125 
Q 37.9375 6.15625 41.0625 2.484375 
Q 44.4375 -1.375 43.3125 -7.234375 
Q 42.1875 -12.84375 37.84375 -16.75 
Q 33.109375 -21 25.140625 -21 
Q 25.875 -17.328125 26.5625 -13.625 
Q 29.890625 -13.875 32.375 -11.71875 
Q 34.28125 -10.015625 34.625 -8.203125 
Q 35.109375 -5.609375 33.984375 -3.46875 
Q 32.8125 -1.421875 30.03125 -1.421875 
Q -0.390625 -1.421875 3.765625 19.921875 
Q 6.59375 34.578125 23.6875 38.875 
Q 10.359375 40.625 12.84375 53.328125 
Q 14.703125 62.9375 26.21875 66.9375 
L 16.0625 66.9375 
L 17.828125 75.984375 
L 56.34375 75.984375 
L 54.59375 66.9375 
Q 23.875 66.9375 21.09375 52.734375 
Q 19.28125 43.40625 45.015625 42.96875 
L 43.40625 34.671875 
Q 15.765625 35.75 12.796875 19.921875 
Q 10.296875 6.6875 31.5 6.203125 
" id="DejaVuSans-Oblique-3be"/>
     <path d="M 10.59375 45.40625 
L 73.1875 45.40625 
L 73.1875 37.203125 
L 10.59375 37.203125 
z
M 10.59375 25.484375 
L 73.1875 25.484375 
L 73.1875 17.1875 
L 10.59375 17.1875 
z
" id="DejaVuSans-3d"/>
     <path d="M 31.78125 66.40625 
Q 24.171875 66.40625 20.328125 58.90625 
Q 16.5 51.421875 16.5 36.375 
Q 16.5 21.390625 20.328125 13.890625 
Q 24.171875 6.390625 31.78125 6.390625 
Q 39.453125 6.390625 43.28125 13.890625 
Q 47.125 21.390625 47.125 36.375 
Q 47.125 51.421875 43.28125 58.90625 
Q 39.453125 66.40625 31.78125 66.40625 
M 31.78125 74.21875 
Q 44.046875 74.21875 50.515625 64.515625 
Q 56.984375 54.828125 56.984375 36.375 
Q 56.984375 17.96875 50.515625 8.265625 
Q 44.046875 -1.421875 31.78125 -1.421875 
Q 19.53125 -1.421875 13.0625 8.265625 
Q 6.59375 17.96875 6.59375 36.375 
Q 6.59375 54.828125 13.0625 64.515625 
Q 19.53125 74.21875 31.78125 74.21875 
" id="DejaVuSans-30"/>
     <path d="M 10.6875 12.40625 
L 21 12.40625 
L 21 0 
L 10.6875 0 
z
" id="DejaVuSans-2e"/>
     <path d="M 8.890625 41.84375 
L 8.890625 51.859375 
L 18.890625 51.859375 
L 18.890625 41.84375 
z
M 8.890625 0 
L 8.890625 10.015625 
L 18.890625 10.015625 
L 18.890625 0 
Q 18.890625 -5.515625 16.9375 -8.90625 
Q 14.984375 -12.3125 10.75 -14.15625 
L 8.296875 -10.40625 
Q 11.078125 -9.1875 12.390625 -6.8125 
Q 13.71875 -4.4375 13.875 0 
z
" id="ArialMT-3b"/>
     <path d="M 13.625 3.375 
L 8.9375 -20.796875 
L -0.09375 -20.796875 
L 14.5 54.34375 
Q 18.84375 76.609375 39.65625 76.609375 
Q 60.75 76.609375 57.171875 57.8125 
Q 54.734375 44.4375 45.21875 39.546875 
Q 58.015625 35.15625 55.515625 22.125 
Q 51.125 -1.078125 27.484375 -1.03125 
Q 17.140625 -0.984375 13.625 3.375 
M 15.921875 15.09375 
Q 19.671875 6.59375 29.296875 6.640625 
Q 43.359375 6.640625 46.34375 21.96875 
Q 49.03125 35.75 26.171875 34.671875 
L 27.78125 42.96875 
Q 45.453125 42.671875 48.53125 58.59375 
Q 50.640625 69.34375 39.203125 69.28125 
Q 26.421875 69.28125 23.484375 54.046875 
z
" id="DejaVuSans-Oblique-3b2"/>
    </defs>
    <g style="fill:#d9d9d9;" transform="translate(93.562813 21.06)scale(0.18 -0.18)">
     <use transform="translate(0 0.390625)" xlink:href="#ArialMT-41"/>
     <use transform="translate(66.699219 0.390625)" xlink:href="#ArialMT-66"/>
     <use transform="translate(94.482422 0.390625)" xlink:href="#ArialMT-74"/>
     <use transform="translate(122.265625 0.390625)" xlink:href="#ArialMT-65"/>
     <use transform="translate(177.880859 0.390625)" xlink:href="#ArialMT-72"/>
     <use transform="translate(211.181641 0.390625)" xlink:href="#ArialMT-20"/>
     <use transform="translate(238.964844 0.390625)" xlink:href="#ArialMT-66"/>
     <use transform="translate(266.748047 0.390625)" xlink:href="#ArialMT-69"/>
     <use transform="translate(288.964844 0.390625)" xlink:href="#ArialMT-74"/>
     <use transform="translate(316.748047 0.390625)" xlink:href="#ArialMT-3a"/>
     <use transform="translate(344.53125 0.390625)" xlink:href="#ArialMT-20"/>
     <use transform="translate(372.314453 0.390625)" xlink:href="#DejaVuSans-Oblique-3be"/>
     <use transform="translate(447.558594 0.390625)" xlink:href="#DejaVuSans-3d"/>
     <use transform="translate(550.830078 0.390625)" xlink:href="#DejaVuSans-30"/>
     <use transform="translate(614.453125 0.390625)" xlink:href="#DejaVuSans-2e"/>
     <use transform="translate(646.240234 0.390625)" xlink:href="#DejaVuSans-31"/>
     <use transform="translate(709.863281 0.390625)" xlink:href="#ArialMT-3b"/>
     <use transform="translate(737.646484 0.390625)" xlink:href="#ArialMT-20"/>
     <use transform="translate(765.429688 0.390625)" xlink:href="#DejaVuSans-Oblique-3b2"/>
     <use transform="translate(848.730469 0.390625)" xlink:href="#DejaVuSans-3d"/>
     <use transform="translate(952.001953 0.390625)" xlink:href="#DejaVuSans-30"/>
     <use transform="translate(1015.625 0.390625)" xlink:href="#DejaVuSans-2e"/>
     <use transform="translate(1047.412109 0.390625)" xlink:href="#DejaVuSans-30"/>
     <use transform="translate(1111.035156 0.390625)" xlink:href="#DejaVuSans-30"/>
     <use transform="translate(1174.658203 0.390625)" xlink:href="#DejaVuSans-30"/>
     <use transform="translate(1238.28125 0.390625)" xlink:href="#DejaVuSans-30"/>
    </g>
   </g>
  </g>
 </g>
 <defs>
  <clipPath id="p98e6a41c34">
   <rect height="163.08" width="279" x="71.242813" y="27.06"/>
  </clipPath>
 </defs>
</svg>
