<?xml version="1.0" encoding="utf-8" standalone="no"?>
<!DOCTYPE svg PUBLIC "-//W3C//DTD SVG 1.1//EN"
  "http://www.w3.org/Graphics/SVG/1.1/DTD/svg11.dtd">
<!-- Created with matplotlib (http://matplotlib.org/) -->
<svg height="222pt" version="1.1" viewBox="0 0 363 222" width="363pt" xmlns="http://www.w3.org/2000/svg" xmlns:xlink="http://www.w3.org/1999/xlink">
 <defs>
  <style type="text/css">
*{stroke-linecap:butt;stroke-linejoin:round;stroke-miterlimit:100000;}
  </style>
 </defs>
 <g id="figure_1">
  <g id="patch_1">
   <path d="M 0 222.607734 
L 363.603516 222.607734 
L 363.603516 0 
L 0 0 
z
" style="fill:#3f3f3f;"/>
  </g>
  <g id="axes_1">
   <g id="patch_2">
    <path d="M 64.891406 174.6 
L 343.891406 174.6 
L 343.891406 7.2 
L 64.891406 7.2 
z
" style="fill:#504040;"/>
   </g>
   <g id="matplotlib.axis_1">
    <g id="xtick_1">
     <g id="line2d_1">
      <path clip-path="url(#pd3572c6dc6)" d="M 64.891406 174.6 
L 64.891406 7.2 
" style="fill:none;stroke:#808080;stroke-linecap:round;"/>
     </g>
     <g id="line2d_2"/>
     <g id="line2d_3"/>
     <g id="text_1">
      <!-- 0 -->
      <defs>
       <path d="M 4.15625 35.296875 
Q 4.15625 48 6.765625 55.734375 
Q 9.375 63.484375 14.515625 67.671875 
Q 19.671875 71.875 27.484375 71.875 
Q 33.25 71.875 37.59375 69.546875 
Q 41.9375 67.234375 44.765625 62.859375 
Q 47.609375 58.5 49.21875 52.21875 
Q 50.828125 45.953125 50.828125 35.296875 
Q 50.828125 22.703125 48.234375 14.96875 
Q 45.65625 7.234375 40.5 3 
Q 35.359375 -1.21875 27.484375 -1.21875 
Q 17.140625 -1.21875 11.234375 6.203125 
Q 4.15625 15.140625 4.15625 35.296875 
M 13.1875 35.296875 
Q 13.1875 17.671875 17.3125 11.828125 
Q 21.4375 6 27.484375 6 
Q 33.546875 6 37.671875 11.859375 
Q 41.796875 17.71875 41.796875 35.296875 
Q 41.796875 52.984375 37.671875 58.78125 
Q 33.546875 64.59375 27.390625 64.59375 
Q 21.34375 64.59375 17.71875 59.46875 
Q 13.1875 52.9375 13.1875 35.296875 
" id="ArialMT-30"/>
      </defs>
      <g style="fill:#d9d9d9;" transform="translate(60.720703125 192.33671875)scale(0.15 -0.15)">
       <use xlink:href="#ArialMT-30"/>
      </g>
     </g>
    </g>
    <g id="xtick_2">
     <g id="line2d_4">
      <path clip-path="url(#pd3572c6dc6)" d="M 95.891406 174.6 
L 95.891406 7.2 
" style="fill:none;stroke:#808080;stroke-linecap:round;"/>
     </g>
     <g id="line2d_5"/>
     <g id="line2d_6"/>
     <g id="text_2">
      <!-- 20 -->
      <defs>
       <path d="M 50.34375 8.453125 
L 50.34375 0 
L 3.03125 0 
Q 2.9375 3.171875 4.046875 6.109375 
Q 5.859375 10.9375 9.828125 15.625 
Q 13.8125 20.3125 21.34375 26.46875 
Q 33.015625 36.03125 37.109375 41.625 
Q 41.21875 47.21875 41.21875 52.203125 
Q 41.21875 57.421875 37.46875 61 
Q 33.734375 64.59375 27.734375 64.59375 
Q 21.390625 64.59375 17.578125 60.78125 
Q 13.765625 56.984375 13.71875 50.25 
L 4.6875 51.171875 
Q 5.609375 61.28125 11.65625 66.578125 
Q 17.71875 71.875 27.9375 71.875 
Q 38.234375 71.875 44.234375 66.15625 
Q 50.25 60.453125 50.25 52 
Q 50.25 47.703125 48.484375 43.546875 
Q 46.734375 39.40625 42.65625 34.8125 
Q 38.578125 30.21875 29.109375 22.21875 
Q 21.1875 15.578125 18.9375 13.203125 
Q 16.703125 10.84375 15.234375 8.453125 
z
" id="ArialMT-32"/>
      </defs>
      <g style="fill:#d9d9d9;" transform="translate(87.55 192.33671875)scale(0.15 -0.15)">
       <use xlink:href="#ArialMT-32"/>
       <use x="55.615234375" xlink:href="#ArialMT-30"/>
      </g>
     </g>
    </g>
    <g id="xtick_3">
     <g id="line2d_7">
      <path clip-path="url(#pd3572c6dc6)" d="M 126.891406 174.6 
L 126.891406 7.2 
" style="fill:none;stroke:#808080;stroke-linecap:round;"/>
     </g>
     <g id="line2d_8"/>
     <g id="line2d_9"/>
     <g id="text_3">
      <!-- 40 -->
      <defs>
       <path d="M 32.328125 0 
L 32.328125 17.140625 
L 1.265625 17.140625 
L 1.265625 25.203125 
L 33.9375 71.578125 
L 41.109375 71.578125 
L 41.109375 25.203125 
L 50.78125 25.203125 
L 50.78125 17.140625 
L 41.109375 17.140625 
L 41.109375 0 
z
M 32.328125 25.203125 
L 32.328125 57.46875 
L 9.90625 25.203125 
z
" id="ArialMT-34"/>
      </defs>
      <g style="fill:#d9d9d9;" transform="translate(118.55 192.33671875)scale(0.15 -0.15)">
       <use xlink:href="#ArialMT-34"/>
       <use x="55.615234375" xlink:href="#ArialMT-30"/>
      </g>
     </g>
    </g>
    <g id="xtick_4">
     <g id="line2d_10">
      <path clip-path="url(#pd3572c6dc6)" d="M 157.891406 174.6 
L 157.891406 7.2 
" style="fill:none;stroke:#808080;stroke-linecap:round;"/>
     </g>
     <g id="line2d_11"/>
     <g id="line2d_12"/>
     <g id="text_4">
      <!-- 60 -->
      <defs>
       <path d="M 49.75 54.046875 
L 41.015625 53.375 
Q 39.84375 58.546875 37.703125 60.890625 
Q 34.125 64.65625 28.90625 64.65625 
Q 24.703125 64.65625 21.53125 62.3125 
Q 17.390625 59.28125 14.984375 53.46875 
Q 12.59375 47.65625 12.5 36.921875 
Q 15.671875 41.75 20.265625 44.09375 
Q 24.859375 46.4375 29.890625 46.4375 
Q 38.671875 46.4375 44.84375 39.96875 
Q 51.03125 33.5 51.03125 23.25 
Q 51.03125 16.5 48.125 10.71875 
Q 45.21875 4.9375 40.140625 1.859375 
Q 35.0625 -1.21875 28.609375 -1.21875 
Q 17.625 -1.21875 10.6875 6.859375 
Q 3.765625 14.9375 3.765625 33.5 
Q 3.765625 54.25 11.421875 63.671875 
Q 18.109375 71.875 29.4375 71.875 
Q 37.890625 71.875 43.28125 67.140625 
Q 48.6875 62.40625 49.75 54.046875 
M 13.875 23.1875 
Q 13.875 18.65625 15.796875 14.5 
Q 17.71875 10.359375 21.1875 8.171875 
Q 24.65625 6 28.46875 6 
Q 34.03125 6 38.03125 10.484375 
Q 42.046875 14.984375 42.046875 22.703125 
Q 42.046875 30.125 38.078125 34.390625 
Q 34.125 38.671875 28.125 38.671875 
Q 22.171875 38.671875 18.015625 34.390625 
Q 13.875 30.125 13.875 23.1875 
" id="ArialMT-36"/>
      </defs>
      <g style="fill:#d9d9d9;" transform="translate(149.55 192.33671875)scale(0.15 -0.15)">
       <use xlink:href="#ArialMT-36"/>
       <use x="55.615234375" xlink:href="#ArialMT-30"/>
      </g>
     </g>
    </g>
    <g id="xtick_5">
     <g id="line2d_13">
      <path clip-path="url(#pd3572c6dc6)" d="M 188.891406 174.6 
L 188.891406 7.2 
" style="fill:none;stroke:#808080;stroke-linecap:round;"/>
     </g>
     <g id="line2d_14"/>
     <g id="line2d_15"/>
     <g id="text_5">
      <!-- 80 -->
      <defs>
       <path d="M 17.671875 38.8125 
Q 12.203125 40.828125 9.5625 44.53125 
Q 6.9375 48.25 6.9375 53.421875 
Q 6.9375 61.234375 12.546875 66.546875 
Q 18.171875 71.875 27.484375 71.875 
Q 36.859375 71.875 42.578125 66.421875 
Q 48.296875 60.984375 48.296875 53.171875 
Q 48.296875 48.1875 45.671875 44.5 
Q 43.0625 40.828125 37.75 38.8125 
Q 44.34375 36.671875 47.78125 31.875 
Q 51.21875 27.09375 51.21875 20.453125 
Q 51.21875 11.28125 44.71875 5.03125 
Q 38.234375 -1.21875 27.640625 -1.21875 
Q 17.046875 -1.21875 10.546875 5.046875 
Q 4.046875 11.328125 4.046875 20.703125 
Q 4.046875 27.6875 7.59375 32.390625 
Q 11.140625 37.109375 17.671875 38.8125 
M 15.921875 53.71875 
Q 15.921875 48.640625 19.1875 45.40625 
Q 22.46875 42.1875 27.6875 42.1875 
Q 32.765625 42.1875 36.015625 45.375 
Q 39.265625 48.578125 39.265625 53.21875 
Q 39.265625 58.0625 35.90625 61.359375 
Q 32.5625 64.65625 27.59375 64.65625 
Q 22.5625 64.65625 19.234375 61.421875 
Q 15.921875 58.203125 15.921875 53.71875 
M 13.09375 20.65625 
Q 13.09375 16.890625 14.875 13.375 
Q 16.65625 9.859375 20.171875 7.921875 
Q 23.6875 6 27.734375 6 
Q 34.03125 6 38.125 10.046875 
Q 42.234375 14.109375 42.234375 20.359375 
Q 42.234375 26.703125 38.015625 30.859375 
Q 33.796875 35.015625 27.4375 35.015625 
Q 21.234375 35.015625 17.15625 30.90625 
Q 13.09375 26.8125 13.09375 20.65625 
" id="ArialMT-38"/>
      </defs>
      <g style="fill:#d9d9d9;" transform="translate(180.55 192.33671875)scale(0.15 -0.15)">
       <use xlink:href="#ArialMT-38"/>
       <use x="55.615234375" xlink:href="#ArialMT-30"/>
      </g>
     </g>
    </g>
    <g id="xtick_6">
     <g id="line2d_16">
      <path clip-path="url(#pd3572c6dc6)" d="M 219.891406 174.6 
L 219.891406 7.2 
" style="fill:none;stroke:#808080;stroke-linecap:round;"/>
     </g>
     <g id="line2d_17"/>
     <g id="line2d_18"/>
     <g id="text_6">
      <!-- 100 -->
      <defs>
       <path d="M 37.25 0 
L 28.46875 0 
L 28.46875 56 
Q 25.296875 52.984375 20.140625 49.953125 
Q 14.984375 46.921875 10.890625 45.40625 
L 10.890625 53.90625 
Q 18.265625 57.375 23.78125 62.296875 
Q 29.296875 67.234375 31.59375 71.875 
L 37.25 71.875 
z
" id="ArialMT-31"/>
      </defs>
      <g style="fill:#d9d9d9;" transform="translate(207.379296875 192.33671875)scale(0.15 -0.15)">
       <use xlink:href="#ArialMT-31"/>
       <use x="55.615234375" xlink:href="#ArialMT-30"/>
       <use x="111.23046875" xlink:href="#ArialMT-30"/>
      </g>
     </g>
    </g>
    <g id="xtick_7">
     <g id="line2d_19">
      <path clip-path="url(#pd3572c6dc6)" d="M 250.891406 174.6 
L 250.891406 7.2 
" style="fill:none;stroke:#808080;stroke-linecap:round;"/>
     </g>
     <g id="line2d_20"/>
     <g id="line2d_21"/>
     <g id="text_7">
      <!-- 120 -->
      <g style="fill:#d9d9d9;" transform="translate(238.379296875 192.33671875)scale(0.15 -0.15)">
       <use xlink:href="#ArialMT-31"/>
       <use x="55.615234375" xlink:href="#ArialMT-32"/>
       <use x="111.23046875" xlink:href="#ArialMT-30"/>
      </g>
     </g>
    </g>
    <g id="xtick_8">
     <g id="line2d_22">
      <path clip-path="url(#pd3572c6dc6)" d="M 281.891406 174.6 
L 281.891406 7.2 
" style="fill:none;stroke:#808080;stroke-linecap:round;"/>
     </g>
     <g id="line2d_23"/>
     <g id="line2d_24"/>
     <g id="text_8">
      <!-- 140 -->
      <g style="fill:#d9d9d9;" transform="translate(269.379296875 192.33671875)scale(0.15 -0.15)">
       <use xlink:href="#ArialMT-31"/>
       <use x="55.615234375" xlink:href="#ArialMT-34"/>
       <use x="111.23046875" xlink:href="#ArialMT-30"/>
      </g>
     </g>
    </g>
    <g id="xtick_9">
     <g id="line2d_25">
      <path clip-path="url(#pd3572c6dc6)" d="M 312.891406 174.6 
L 312.891406 7.2 
" style="fill:none;stroke:#808080;stroke-linecap:round;"/>
     </g>
     <g id="line2d_26"/>
     <g id="line2d_27"/>
     <g id="text_9">
      <!-- 160 -->
      <g style="fill:#d9d9d9;" transform="translate(300.379296875 192.33671875)scale(0.15 -0.15)">
       <use xlink:href="#ArialMT-31"/>
       <use x="55.615234375" xlink:href="#ArialMT-36"/>
       <use x="111.23046875" xlink:href="#ArialMT-30"/>
      </g>
     </g>
    </g>
    <g id="xtick_10">
     <g id="line2d_28">
      <path clip-path="url(#pd3572c6dc6)" d="M 343.891406 174.6 
L 343.891406 7.2 
" style="fill:none;stroke:#808080;stroke-linecap:round;"/>
     </g>
     <g id="line2d_29"/>
     <g id="line2d_30"/>
     <g id="text_10">
      <!-- 180 -->
      <g style="fill:#d9d9d9;" transform="translate(331.379296875 192.33671875)scale(0.15 -0.15)">
       <use xlink:href="#ArialMT-31"/>
       <use x="55.615234375" xlink:href="#ArialMT-38"/>
       <use x="111.23046875" xlink:href="#ArialMT-30"/>
      </g>
     </g>
    </g>
    <g id="text_11">
     <!-- $\theta$ -->
     <defs>
      <path d="M 16.109375 -1.125 
Q 11.578125 -1.125 8.84375 2.1875 
Q 6.109375 5.515625 5.046875 10.203125 
Q 4 14.890625 4 19.484375 
L 4 19.578125 
Q 4 24.5625 4.953125 29.921875 
Q 5.90625 35.296875 7.703125 40.640625 
Q 9.515625 46 11.625 50.203125 
Q 13.09375 53.125 15.40625 56.734375 
Q 17.71875 60.359375 20.578125 63.5 
Q 23.4375 66.65625 26.734375 68.578125 
Q 30.03125 70.515625 33.40625 70.515625 
L 33.5 70.515625 
Q 37.109375 70.515625 39.515625 68.5 
Q 41.9375 66.5 43.28125 63.375 
Q 44.625 60.25 45.15625 56.6875 
Q 45.703125 53.125 45.703125 49.90625 
Q 45.703125 42.328125 43.65625 34.4375 
Q 41.609375 26.5625 37.984375 19.1875 
Q 36.625 16.40625 34.203125 12.640625 
Q 31.78125 8.890625 29.078125 5.90625 
Q 26.375 2.9375 23 0.90625 
Q 19.625 -1.125 16.21875 -1.125 
z
M 16.3125 1.515625 
Q 19.625 1.515625 22.671875 5.046875 
Q 25.734375 8.59375 28.03125 13.640625 
Q 30.328125 18.703125 32.0625 24 
Q 33.796875 29.296875 34.625 33.015625 
L 14.203125 33.015625 
Q 12.640625 26.703125 11.765625 22.140625 
Q 10.890625 17.578125 10.890625 13.1875 
Q 10.890625 1.515625 16.3125 1.515625 
M 14.984375 36.53125 
L 35.5 36.53125 
Q 36.578125 40.921875 37.203125 43.875 
Q 37.84375 46.828125 38.28125 50.09375 
Q 38.71875 53.375 38.71875 56.203125 
Q 38.71875 67.921875 33.40625 67.921875 
Q 27.046875 67.921875 22.4375 57.6875 
Q 17.828125 47.46875 14.984375 36.53125 
" id="Cmmi10-b5"/>
     </defs>
     <g style="fill:#d9d9d9;" transform="translate(200.51390625 212.128359375)scale(0.165 -0.165)">
      <use transform="translate(0.0 0.484375)" xlink:href="#Cmmi10-b5"/>
     </g>
    </g>
   </g>
   <g id="matplotlib.axis_2">
    <g id="ytick_1">
     <g id="line2d_31">
      <path clip-path="url(#pd3572c6dc6)" d="M 64.891406 174.6 
L 343.891406 174.6 
" style="fill:none;stroke:#808080;stroke-linecap:round;"/>
     </g>
     <g id="line2d_32"/>
     <g id="line2d_33"/>
     <g id="text_12">
      <!-- 0.00 -->
      <defs>
       <path d="M 9.078125 0 
L 9.078125 10.015625 
L 19.09375 10.015625 
L 19.09375 0 
z
" id="ArialMT-2e"/>
      </defs>
      <g style="fill:#d9d9d9;" transform="translate(28.7 178.477734375)scale(0.15 -0.15)">
       <use xlink:href="#ArialMT-30"/>
       <use x="55.615234375" xlink:href="#ArialMT-2e"/>
       <use x="83.3984375" xlink:href="#ArialMT-30"/>
       <use x="139.013671875" xlink:href="#ArialMT-30"/>
      </g>
     </g>
    </g>
    <g id="ytick_2">
     <g id="line2d_34">
      <path clip-path="url(#pd3572c6dc6)" d="M 64.891406 154.905882 
L 343.891406 154.905882 
" style="fill:none;stroke:#808080;stroke-linecap:round;"/>
     </g>
     <g id="line2d_35"/>
     <g id="line2d_36"/>
     <g id="text_13">
      <!-- 0.02 -->
      <g style="fill:#d9d9d9;" transform="translate(28.7 158.783616728)scale(0.15 -0.15)">
       <use xlink:href="#ArialMT-30"/>
       <use x="55.615234375" xlink:href="#ArialMT-2e"/>
       <use x="83.3984375" xlink:href="#ArialMT-30"/>
       <use x="139.013671875" xlink:href="#ArialMT-32"/>
      </g>
     </g>
    </g>
    <g id="ytick_3">
     <g id="line2d_37">
      <path clip-path="url(#pd3572c6dc6)" d="M 64.891406 135.211765 
L 343.891406 135.211765 
" style="fill:none;stroke:#808080;stroke-linecap:round;"/>
     </g>
     <g id="line2d_38"/>
     <g id="line2d_39"/>
     <g id="text_14">
      <!-- 0.04 -->
      <g style="fill:#d9d9d9;" transform="translate(28.7 139.089499081)scale(0.15 -0.15)">
       <use xlink:href="#ArialMT-30"/>
       <use x="55.615234375" xlink:href="#ArialMT-2e"/>
       <use x="83.3984375" xlink:href="#ArialMT-30"/>
       <use x="139.013671875" xlink:href="#ArialMT-34"/>
      </g>
     </g>
    </g>
    <g id="ytick_4">
     <g id="line2d_40">
      <path clip-path="url(#pd3572c6dc6)" d="M 64.891406 115.517647 
L 343.891406 115.517647 
" style="fill:none;stroke:#808080;stroke-linecap:round;"/>
     </g>
     <g id="line2d_41"/>
     <g id="line2d_42"/>
     <g id="text_15">
      <!-- 0.06 -->
      <g style="fill:#d9d9d9;" transform="translate(28.7 119.395381434)scale(0.15 -0.15)">
       <use xlink:href="#ArialMT-30"/>
       <use x="55.615234375" xlink:href="#ArialMT-2e"/>
       <use x="83.3984375" xlink:href="#ArialMT-30"/>
       <use x="139.013671875" xlink:href="#ArialMT-36"/>
      </g>
     </g>
    </g>
    <g id="ytick_5">
     <g id="line2d_43">
      <path clip-path="url(#pd3572c6dc6)" d="M 64.891406 95.823529 
L 343.891406 95.823529 
" style="fill:none;stroke:#808080;stroke-linecap:round;"/>
     </g>
     <g id="line2d_44"/>
     <g id="line2d_45"/>
     <g id="text_16">
      <!-- 0.08 -->
      <g style="fill:#d9d9d9;" transform="translate(28.7 99.7012637868)scale(0.15 -0.15)">
       <use xlink:href="#ArialMT-30"/>
       <use x="55.615234375" xlink:href="#ArialMT-2e"/>
       <use x="83.3984375" xlink:href="#ArialMT-30"/>
       <use x="139.013671875" xlink:href="#ArialMT-38"/>
      </g>
     </g>
    </g>
    <g id="ytick_6">
     <g id="line2d_46">
      <path clip-path="url(#pd3572c6dc6)" d="M 64.891406 76.129412 
L 343.891406 76.129412 
" style="fill:none;stroke:#808080;stroke-linecap:round;"/>
     </g>
     <g id="line2d_47"/>
     <g id="line2d_48"/>
     <g id="text_17">
      <!-- 0.10 -->
      <g style="fill:#d9d9d9;" transform="translate(28.7 80.0071461397)scale(0.15 -0.15)">
       <use xlink:href="#ArialMT-30"/>
       <use x="55.615234375" xlink:href="#ArialMT-2e"/>
       <use x="83.3984375" xlink:href="#ArialMT-31"/>
       <use x="139.013671875" xlink:href="#ArialMT-30"/>
      </g>
     </g>
    </g>
    <g id="ytick_7">
     <g id="line2d_49">
      <path clip-path="url(#pd3572c6dc6)" d="M 64.891406 56.435294 
L 343.891406 56.435294 
" style="fill:none;stroke:#808080;stroke-linecap:round;"/>
     </g>
     <g id="line2d_50"/>
     <g id="line2d_51"/>
     <g id="text_18">
      <!-- 0.12 -->
      <g style="fill:#d9d9d9;" transform="translate(28.7 60.3130284926)scale(0.15 -0.15)">
       <use xlink:href="#ArialMT-30"/>
       <use x="55.615234375" xlink:href="#ArialMT-2e"/>
       <use x="83.3984375" xlink:href="#ArialMT-31"/>
       <use x="139.013671875" xlink:href="#ArialMT-32"/>
      </g>
     </g>
    </g>
    <g id="ytick_8">
     <g id="line2d_52">
      <path clip-path="url(#pd3572c6dc6)" d="M 64.891406 36.741176 
L 343.891406 36.741176 
" style="fill:none;stroke:#808080;stroke-linecap:round;"/>
     </g>
     <g id="line2d_53"/>
     <g id="line2d_54"/>
     <g id="text_19">
      <!-- 0.14 -->
      <g style="fill:#d9d9d9;" transform="translate(28.7 40.6189108456)scale(0.15 -0.15)">
       <use xlink:href="#ArialMT-30"/>
       <use x="55.615234375" xlink:href="#ArialMT-2e"/>
       <use x="83.3984375" xlink:href="#ArialMT-31"/>
       <use x="139.013671875" xlink:href="#ArialMT-34"/>
      </g>
     </g>
    </g>
    <g id="ytick_9">
     <g id="line2d_55">
      <path clip-path="url(#pd3572c6dc6)" d="M 64.891406 17.047059 
L 343.891406 17.047059 
" style="fill:none;stroke:#808080;stroke-linecap:round;"/>
     </g>
     <g id="line2d_56"/>
     <g id="line2d_57"/>
     <g id="text_20">
      <!-- 0.16 -->
      <g style="fill:#d9d9d9;" transform="translate(28.7 20.9247931985)scale(0.15 -0.15)">
       <use xlink:href="#ArialMT-30"/>
       <use x="55.615234375" xlink:href="#ArialMT-2e"/>
       <use x="83.3984375" xlink:href="#ArialMT-31"/>
       <use x="139.013671875" xlink:href="#ArialMT-36"/>
      </g>
     </g>
    </g>
    <g id="text_21">
     <!-- $\theta_1/\theta$ -->
     <defs>
      <path d="M 5.609375 -23 
Q 5.609375 -22.703125 5.71875 -22.609375 
L 40.484375 73.78125 
Q 40.671875 74.359375 41.15625 74.671875 
Q 41.65625 75 42.28125 75 
Q 43.171875 75 43.71875 74.453125 
Q 44.28125 73.921875 44.28125 73 
L 44.28125 72.609375 
L 9.515625 -23.78125 
Q 8.9375 -25 7.625 -25 
Q 6.78125 -25 6.1875 -24.40625 
Q 5.609375 -23.828125 5.609375 -23 
" id="Cmmi10-3d"/>
      <path d="M 9.28125 0 
L 9.28125 3.515625 
Q 21.78125 3.515625 21.78125 6.6875 
L 21.78125 59.1875 
Q 16.609375 56.6875 8.6875 56.6875 
L 8.6875 60.203125 
Q 20.953125 60.203125 27.203125 66.609375 
L 28.609375 66.609375 
Q 28.953125 66.609375 29.265625 66.328125 
Q 29.59375 66.0625 29.59375 65.71875 
L 29.59375 6.6875 
Q 29.59375 3.515625 42.09375 3.515625 
L 42.09375 0 
z
" id="Cmr10-31"/>
     </defs>
     <g style="fill:#d9d9d9;" transform="translate(19.575 106.245)rotate(-90.0)scale(0.165 -0.165)">
      <use xlink:href="#Cmmi10-b5"/>
      <use transform="translate(46.923828125 -17.006249999999994)scale(0.7)" xlink:href="#Cmr10-31"/>
      <use transform="translate(88.301171875 0.0)" xlink:href="#Cmmi10-3d"/>
      <use transform="translate(138.301171875 0.0)" xlink:href="#Cmmi10-b5"/>
     </g>
    </g>
   </g>
   <g id="line2d_58">
    <path clip-path="url(#pd3572c6dc6)" d="M 67.31107 47.987357 
L 69.730734 48.038769 
L 72.150397 48.124066 
L 74.570061 48.242668 
L 76.989725 48.393778 
L 79.409388 48.576395 
L 81.829052 48.789331 
L 84.248716 49.031228 
L 86.66838 49.300579 
L 89.088043 49.595752 
L 91.507707 49.91501 
L 93.927371 50.256535 
L 96.347034 50.618448 
L 98.766698 50.998831 
L 101.186362 51.395748 
L 103.606026 51.80726 
L 106.025689 52.231443 
L 108.445353 52.6664 
L 110.865017 53.110274 
L 113.28468 53.56126 
L 115.704344 54.017611 
L 118.124008 54.477643 
L 120.543671 54.939741 
L 122.963335 55.402363 
L 125.382999 55.86404 
L 127.802663 56.323378 
L 130.222326 56.779056 
L 132.64199 57.229823 
L 135.061654 57.674501 
L 137.481317 58.111977 
L 139.900981 58.541202 
L 142.320645 58.961187 
L 144.740309 59.370999 
L 147.159972 59.769757 
L 149.579636 60.156628 
L 151.9993 60.530821 
L 154.418963 60.891587 
L 156.838627 61.238208 
L 159.258291 61.569998 
L 161.677954 61.886298 
L 164.097618 62.186468 
L 166.517282 62.469887 
L 168.936946 62.735949 
L 171.356609 62.984056 
L 173.776273 63.213614 
L 176.195937 63.424034 
L 178.6156 63.614721 
L 181.035264 63.785076 
L 183.454928 63.934491 
L 185.874592 64.062342 
L 188.294255 64.167987 
L 190.713919 64.250765 
L 193.133583 64.309987 
L 195.553246 64.344936 
L 197.97291 64.35486 
L 200.392574 64.338969 
L 202.812238 64.29643 
L 205.231901 64.226364 
L 207.651565 64.127839 
L 210.071229 63.999865 
L 212.490892 63.841389 
L 214.910556 63.651291 
L 217.33022 63.428373 
L 219.749883 63.17136 
L 222.169547 62.878884 
L 224.589211 62.549484 
L 227.008875 62.181595 
L 229.428538 61.773539 
L 231.848202 61.323516 
L 234.267866 60.829598 
L 236.687529 60.289713 
L 239.107193 59.701636 
L 241.526857 59.062983 
L 243.946521 58.371188 
L 246.366184 57.623503 
L 248.785848 56.816974 
L 251.205512 55.948434 
L 253.625175 55.014489 
L 256.044839 54.011504 
L 258.464503 52.935592 
L 260.884166 51.782604 
L 263.30383 50.548121 
L 265.723494 49.227453 
L 268.143158 47.815637 
L 270.562821 46.307454 
L 272.982485 44.697451 
L 275.402149 42.979978 
L 277.821812 41.149259 
L 280.241476 39.19948 
L 282.66114 37.124936 
L 285.080804 34.920229 
L 287.500467 32.58055 
L 289.920131 30.102073 
L 292.339795 27.482508 
L 294.759458 24.721852 
L 297.179122 21.823439 
L 299.598786 18.795371 
L 302.018449 15.6525 
" style="fill:none;stroke:#00d7ff;stroke-linecap:round;stroke-width:1.75;"/>
   </g>
   <g id="line2d_59">
    <path clip-path="url(#pd3572c6dc6)" d="M 67.31107 76.126999 
L 69.730734 76.119761 
L 72.150397 76.10769 
L 74.570061 76.09078 
L 76.989725 76.069018 
L 79.409388 76.042389 
L 81.829052 76.010874 
L 84.248716 75.974451 
L 86.66838 75.933094 
L 89.088043 75.886775 
L 91.507707 75.835459 
L 93.927371 75.779111 
L 96.347034 75.71769 
L 98.766698 75.651151 
L 101.186362 75.579447 
L 103.606026 75.502525 
L 106.025689 75.420329 
L 108.445353 75.332797 
L 110.865017 75.239865 
L 113.28468 75.141463 
L 115.704344 75.037516 
L 118.124008 74.927946 
L 120.543671 74.812667 
L 122.963335 74.691591 
L 125.382999 74.564622 
L 127.802663 74.43166 
L 130.222326 74.292598 
L 132.64199 74.147324 
L 135.061654 73.995718 
L 137.481317 73.837655 
L 139.900981 73.673002 
L 142.320645 73.50162 
L 144.740309 73.323359 
L 147.159972 73.138064 
L 149.579636 72.945571 
L 151.9993 72.745707 
L 154.418963 72.538288 
L 156.838627 72.323122 
L 159.258291 72.100006 
L 161.677954 71.868726 
L 164.097618 71.629054 
L 166.517282 71.380754 
L 168.936946 71.123572 
L 171.356609 70.857244 
L 173.776273 70.581489 
L 176.195937 70.29601 
L 178.6156 70.000495 
L 181.035264 69.694611 
L 183.454928 69.37801 
L 185.874592 69.050319 
L 188.294255 68.711147 
L 190.713919 68.360077 
L 193.133583 67.996668 
L 195.553246 67.620452 
L 197.97291 67.230932 
L 200.392574 66.82758 
L 202.812238 66.409833 
L 205.231901 65.977093 
L 207.651565 65.528724 
L 210.071229 65.064046 
L 212.490892 64.582333 
L 214.910556 64.08281 
L 217.33022 63.564649 
L 219.749883 63.026961 
L 222.169547 62.468793 
L 224.589211 61.889126 
L 227.008875 61.286858 
L 229.428538 60.66081 
L 231.848202 60.009705 
L 234.267866 59.332168 
L 236.687529 58.626713 
L 239.107193 57.891729 
L 241.526857 57.125469 
L 243.946521 56.326035 
L 246.366184 55.491361 
L 248.785848 54.619194 
L 251.205512 53.70707 
L 253.625175 52.752291 
L 256.044839 51.751894 
L 258.464503 50.70262 
L 260.884166 49.600872 
L 263.30383 48.44267 
L 265.723494 47.223599 
L 268.143158 45.938747 
L 270.562821 44.582629 
L 272.982485 43.149102 
L 275.402149 41.631259 
L 277.821812 40.021306 
L 280.241476 38.310406 
L 282.66114 36.488503 
L 285.080804 34.544094 
L 287.500467 32.463949 
L 289.920131 30.232775 
L 292.339795 27.832777 
L 294.759458 25.24312 
L 297.179122 22.439225 
L 299.598786 19.391868 
L 302.018449 16.065994 
" style="fill:none;stroke:#ffc400;stroke-linecap:round;stroke-width:1.75;"/>
   </g>
   <g id="line2d_60">
    <path clip-path="url(#pd3572c6dc6)" d="M 72.150397 76.105224 
L 74.570061 76.087197 
L 76.989725 76.068759 
L 79.409388 76.03861 
L 81.829052 76.008461 
L 84.248716 75.971416 
L 86.66838 75.928993 
L 89.088043 75.88529 
L 91.507707 75.830387 
L 93.927371 75.775485 
L 96.347034 75.712172 
L 98.766698 75.64454 
L 101.186362 75.573783 
L 103.606026 75.493133 
L 106.025689 75.412484 
L 108.445353 75.320572 
L 110.865017 75.226591 
L 113.28468 75.126071 
L 115.704344 75.018429 
L 118.124008 74.908749 
L 120.543671 74.787113 
L 122.963335 74.665477 
L 125.382999 74.531683 
L 127.802663 74.395725 
L 130.222326 74.251108 
L 132.64199 74.100521 
L 135.061654 73.944304 
L 137.481317 73.778807 
L 139.900981 73.610152 
L 142.320645 73.429502 
L 144.740309 73.24752 
L 147.159972 73.051524 
L 149.579636 72.855297 
L 151.9993 72.643814 
L 154.418963 72.432332 
L 156.838627 72.205377 
L 159.258291 71.977926 
L 161.677954 71.735308 
L 164.097618 71.490961 
L 166.517282 71.232836 
L 168.936946 70.970851 
L 171.356609 70.697358 
L 173.776273 70.41712 
L 176.195937 70.128482 
L 178.6156 69.82954 
L 181.035264 69.526058 
L 183.454928 69.208156 
L 185.874592 68.885257 
L 188.294255 68.553327 
L 190.713919 68.211119 
L 193.133583 67.862835 
L 195.553246 67.504661 
L 197.97291 67.137515 
L 200.392574 66.763784 
L 202.812238 66.382212 
L 205.231901 65.991039 
L 207.651565 65.593507 
L 210.071229 65.189541 
L 212.490892 64.779225 
L 214.910556 64.361779 
L 217.33022 63.939062 
L 219.749883 63.511862 
L 222.169547 63.080848 
L 224.589211 62.646872 
L 227.008875 62.21097 
L 229.428538 61.774363 
L 231.848202 61.338449 
L 234.267866 60.9048 
L 236.687529 60.475156 
L 239.107193 60.051413 
L 241.526857 59.635941 
L 243.946521 59.232441 
L 246.366184 58.842301 
L 248.785848 58.468194 
L 251.205512 58.117374 
L 253.625175 57.789028 
L 256.044839 57.493207 
L 258.464503 57.230605 
L 260.884166 57.007989 
L 263.30383 56.835024 
L 265.723494 56.716192 
L 268.143158 56.659732 
L 270.562821 56.675977 
L 272.982485 56.77558 
L 275.402149 56.965835 
L 277.821812 57.26538 
L 280.241476 57.683315 
L 282.66114 58.235977 
L 285.080804 58.939125 
L 287.500467 59.814542 
L 289.920131 60.878274 
L 292.339795 62.152977 
L 294.759458 63.66186 
L 297.179122 65.429565 
L 299.598786 67.48085 
L 302.018449 69.845303 
L 304.438113 72.54842 
" style="fill:none;stroke:#ffffff;stroke-dasharray:1.000000,3.000000;stroke-dashoffset:0.0;stroke-width:1.75;"/>
   </g>
   <g id="patch_3">
    <path d="M 343.891406 174.6 
L 343.891406 7.2 
" style="fill:none;"/>
   </g>
   <g id="patch_4">
    <path d="M 64.891406 7.2 
L 343.891406 7.2 
" style="fill:none;"/>
   </g>
   <g id="patch_5">
    <path d="M 64.891406 174.6 
L 343.891406 174.6 
" style="fill:none;"/>
   </g>
   <g id="patch_6">
    <path d="M 64.891406 174.6 
L 64.891406 7.2 
" style="fill:none;"/>
   </g>
  </g>
 </g>
 <defs>
  <clipPath id="pd3572c6dc6">
   <rect height="167.4" width="279.0" x="64.89140625" y="7.2"/>
  </clipPath>
 </defs>
</svg>
