<?xml version="1.0" encoding="utf-8" standalone="no"?>
<!DOCTYPE svg PUBLIC "-//W3C//DTD SVG 1.1//EN"
  "http://www.w3.org/Graphics/SVG/1.1/DTD/svg11.dtd">
<!-- Created with matplotlib (http://matplotlib.org/) -->
<svg height="277pt" version="1.1" viewBox="0 0 270 277" width="270pt" xmlns="http://www.w3.org/2000/svg" xmlns:xlink="http://www.w3.org/1999/xlink">
 <defs>
  <style type="text/css">
*{stroke-linecap:butt;stroke-linejoin:round;}
  </style>
 </defs>
 <g id="figure_1">
  <g id="patch_1">
   <path d="M 0 277.016094 
L 270.862109 277.016094 
L 270.862109 0 
L 0 0 
z
" style="fill:#3f3f3f;"/>
  </g>
  <g id="axes_1">
   <g id="patch_2">
    <path d="M 42.051406 230.008359 
L 259.491406 230.008359 
L 259.491406 12.568359 
L 42.051406 12.568359 
z
" style="fill:#504040;"/>
   </g>
   <g id="matplotlib.axis_1">
    <g id="xtick_1">
     <g id="line2d_1">
      <path clip-path="url(#p43f43f59b5)" d="M 73.114263 230.008359 
L 73.114263 12.568359 
" style="fill:none;stroke:#808080;stroke-linecap:round;"/>
     </g>
     <g id="line2d_2"/>
     <g id="text_1">
      <!-- −4 -->
      <defs>
       <path d="M 52.828125 31.203125 
L 5.5625 31.203125 
L 5.5625 39.40625 
L 52.828125 39.40625 
z
" id="ArialMT-2212"/>
       <path d="M 32.328125 0 
L 32.328125 17.140625 
L 1.265625 17.140625 
L 1.265625 25.203125 
L 33.9375 71.578125 
L 41.109375 71.578125 
L 41.109375 25.203125 
L 50.78125 25.203125 
L 50.78125 17.140625 
L 41.109375 17.140625 
L 41.109375 0 
z
M 32.328125 25.203125 
L 32.328125 57.46875 
L 9.90625 25.203125 
z
" id="ArialMT-34"/>
      </defs>
      <g style="fill:#d9d9d9;" transform="translate(64.563092 247.745078)scale(0.15 -0.15)">
       <use xlink:href="#ArialMT-2212"/>
       <use x="58.398438" xlink:href="#ArialMT-34"/>
      </g>
     </g>
    </g>
    <g id="xtick_2">
     <g id="line2d_3">
      <path clip-path="url(#p43f43f59b5)" d="M 135.239978 230.008359 
L 135.239978 12.568359 
" style="fill:none;stroke:#808080;stroke-linecap:round;"/>
     </g>
     <g id="line2d_4"/>
     <g id="text_2">
      <!-- −2 -->
      <defs>
       <path d="M 50.34375 8.453125 
L 50.34375 0 
L 3.03125 0 
Q 2.9375 3.171875 4.046875 6.109375 
Q 5.859375 10.9375 9.828125 15.625 
Q 13.8125 20.3125 21.34375 26.46875 
Q 33.015625 36.03125 37.109375 41.625 
Q 41.21875 47.21875 41.21875 52.203125 
Q 41.21875 57.421875 37.46875 61 
Q 33.734375 64.59375 27.734375 64.59375 
Q 21.390625 64.59375 17.578125 60.78125 
Q 13.765625 56.984375 13.71875 50.25 
L 4.6875 51.171875 
Q 5.609375 61.28125 11.65625 66.578125 
Q 17.71875 71.875 27.9375 71.875 
Q 38.234375 71.875 44.234375 66.15625 
Q 50.25 60.453125 50.25 52 
Q 50.25 47.703125 48.484375 43.546875 
Q 46.734375 39.40625 42.65625 34.8125 
Q 38.578125 30.21875 29.109375 22.21875 
Q 21.1875 15.578125 18.9375 13.203125 
Q 16.703125 10.84375 15.234375 8.453125 
z
" id="ArialMT-32"/>
      </defs>
      <g style="fill:#d9d9d9;" transform="translate(126.688806 247.745078)scale(0.15 -0.15)">
       <use xlink:href="#ArialMT-2212"/>
       <use x="58.398438" xlink:href="#ArialMT-32"/>
      </g>
     </g>
    </g>
    <g id="xtick_3">
     <g id="line2d_5">
      <path clip-path="url(#p43f43f59b5)" d="M 197.365692 230.008359 
L 197.365692 12.568359 
" style="fill:none;stroke:#808080;stroke-linecap:round;"/>
     </g>
     <g id="line2d_6"/>
     <g id="text_3">
      <!-- 0 -->
      <defs>
       <path d="M 4.15625 35.296875 
Q 4.15625 48 6.765625 55.734375 
Q 9.375 63.484375 14.515625 67.671875 
Q 19.671875 71.875 27.484375 71.875 
Q 33.25 71.875 37.59375 69.546875 
Q 41.9375 67.234375 44.765625 62.859375 
Q 47.609375 58.5 49.21875 52.21875 
Q 50.828125 45.953125 50.828125 35.296875 
Q 50.828125 22.703125 48.234375 14.96875 
Q 45.65625 7.234375 40.5 3 
Q 35.359375 -1.21875 27.484375 -1.21875 
Q 17.140625 -1.21875 11.234375 6.203125 
Q 4.15625 15.140625 4.15625 35.296875 
M 13.1875 35.296875 
Q 13.1875 17.671875 17.3125 11.828125 
Q 21.4375 6 27.484375 6 
Q 33.546875 6 37.671875 11.859375 
Q 41.796875 17.71875 41.796875 35.296875 
Q 41.796875 52.984375 37.671875 58.78125 
Q 33.546875 64.59375 27.390625 64.59375 
Q 21.34375 64.59375 17.71875 59.46875 
Q 13.1875 52.9375 13.1875 35.296875 
" id="ArialMT-30"/>
      </defs>
      <g style="fill:#d9d9d9;" transform="translate(193.194989 247.745078)scale(0.15 -0.15)">
       <use xlink:href="#ArialMT-30"/>
      </g>
     </g>
    </g>
    <g id="xtick_4">
     <g id="line2d_7">
      <path clip-path="url(#p43f43f59b5)" d="M 259.491406 230.008359 
L 259.491406 12.568359 
" style="fill:none;stroke:#808080;stroke-linecap:round;"/>
     </g>
     <g id="line2d_8"/>
     <g id="text_4">
      <!-- 2 -->
      <g style="fill:#d9d9d9;" transform="translate(255.320703 247.745078)scale(0.15 -0.15)">
       <use xlink:href="#ArialMT-32"/>
      </g>
     </g>
    </g>
    <g id="text_5">
     <!-- $x/r_{0}$ -->
     <defs>
      <path d="M 60.015625 54.6875 
L 34.90625 27.875 
L 50.296875 0 
L 39.984375 0 
L 28.421875 21.6875 
L 8.296875 0 
L -2.59375 0 
L 24.3125 28.8125 
L 10.015625 54.6875 
L 20.3125 54.6875 
L 30.8125 34.90625 
L 49.125 54.6875 
z
" id="DejaVuSans-Oblique-78"/>
      <path d="M 25.390625 72.90625 
L 33.6875 72.90625 
L 8.296875 -9.28125 
L 0 -9.28125 
z
" id="DejaVuSans-2f"/>
      <path d="M 44.578125 46.390625 
Q 43.21875 47.125 41.453125 47.515625 
Q 39.703125 47.90625 37.703125 47.90625 
Q 30.515625 47.90625 25.140625 42.453125 
Q 19.78125 37.015625 18.015625 27.875 
L 12.5 0 
L 3.515625 0 
L 14.203125 54.6875 
L 23.1875 54.6875 
L 21.484375 46.1875 
Q 25.046875 50.921875 30 53.453125 
Q 34.96875 56 40.578125 56 
Q 42.046875 56 43.453125 55.828125 
Q 44.875 55.671875 46.296875 55.28125 
z
" id="DejaVuSans-Oblique-72"/>
      <path d="M 31.78125 66.40625 
Q 24.171875 66.40625 20.328125 58.90625 
Q 16.5 51.421875 16.5 36.375 
Q 16.5 21.390625 20.328125 13.890625 
Q 24.171875 6.390625 31.78125 6.390625 
Q 39.453125 6.390625 43.28125 13.890625 
Q 47.125 21.390625 47.125 36.375 
Q 47.125 51.421875 43.28125 58.90625 
Q 39.453125 66.40625 31.78125 66.40625 
M 31.78125 74.21875 
Q 44.046875 74.21875 50.515625 64.515625 
Q 56.984375 54.828125 56.984375 36.375 
Q 56.984375 17.96875 50.515625 8.265625 
Q 44.046875 -1.421875 31.78125 -1.421875 
Q 19.53125 -1.421875 13.0625 8.265625 
Q 6.59375 17.96875 6.59375 36.375 
Q 6.59375 54.828125 13.0625 64.515625 
Q 19.53125 74.21875 31.78125 74.21875 
" id="DejaVuSans-30"/>
     </defs>
     <g style="fill:#d9d9d9;" transform="translate(135.756406 266.536719)scale(0.165 -0.165)">
      <use transform="translate(0 0.09375)" xlink:href="#DejaVuSans-Oblique-78"/>
      <use transform="translate(59.179688 0.09375)" xlink:href="#DejaVuSans-2f"/>
      <use transform="translate(92.871094 0.09375)" xlink:href="#DejaVuSans-Oblique-72"/>
      <use transform="translate(133.984375 -16.3125)scale(0.7)" xlink:href="#DejaVuSans-30"/>
     </g>
    </g>
   </g>
   <g id="matplotlib.axis_2">
    <g id="ytick_1">
     <g id="line2d_9">
      <path clip-path="url(#p43f43f59b5)" d="M 42.051406 230.008359 
L 259.491406 230.008359 
" style="fill:none;stroke:#808080;stroke-linecap:round;"/>
     </g>
     <g id="line2d_10"/>
     <g id="text_6">
      <!-- 0 -->
      <g style="fill:#d9d9d9;" transform="translate(26.71 235.376719)scale(0.15 -0.15)">
       <use xlink:href="#ArialMT-30"/>
      </g>
     </g>
    </g>
    <g id="ytick_2">
     <g id="line2d_11">
      <path clip-path="url(#p43f43f59b5)" d="M 42.051406 198.945502 
L 259.491406 198.945502 
" style="fill:none;stroke:#808080;stroke-linecap:round;"/>
     </g>
     <g id="line2d_12"/>
     <g id="text_7">
      <!-- 1 -->
      <defs>
       <path d="M 37.25 0 
L 28.46875 0 
L 28.46875 56 
Q 25.296875 52.984375 20.140625 49.953125 
Q 14.984375 46.921875 10.890625 45.40625 
L 10.890625 53.90625 
Q 18.265625 57.375 23.78125 62.296875 
Q 29.296875 67.234375 31.59375 71.875 
L 37.25 71.875 
z
" id="ArialMT-31"/>
      </defs>
      <g style="fill:#d9d9d9;" transform="translate(26.71 204.313862)scale(0.15 -0.15)">
       <use xlink:href="#ArialMT-31"/>
      </g>
     </g>
    </g>
    <g id="ytick_3">
     <g id="line2d_13">
      <path clip-path="url(#p43f43f59b5)" d="M 42.051406 167.882645 
L 259.491406 167.882645 
" style="fill:none;stroke:#808080;stroke-linecap:round;"/>
     </g>
     <g id="line2d_14"/>
     <g id="text_8">
      <!-- 2 -->
      <g style="fill:#d9d9d9;" transform="translate(26.71 173.251004)scale(0.15 -0.15)">
       <use xlink:href="#ArialMT-32"/>
      </g>
     </g>
    </g>
    <g id="ytick_4">
     <g id="line2d_15">
      <path clip-path="url(#p43f43f59b5)" d="M 42.051406 136.819788 
L 259.491406 136.819788 
" style="fill:none;stroke:#808080;stroke-linecap:round;"/>
     </g>
     <g id="line2d_16"/>
     <g id="text_9">
      <!-- 3 -->
      <defs>
       <path d="M 4.203125 18.890625 
L 12.984375 20.0625 
Q 14.5 12.59375 18.140625 9.296875 
Q 21.78125 6 27 6 
Q 33.203125 6 37.46875 10.296875 
Q 41.75 14.59375 41.75 20.953125 
Q 41.75 27 37.796875 30.921875 
Q 33.84375 34.859375 27.734375 34.859375 
Q 25.25 34.859375 21.53125 33.890625 
L 22.515625 41.609375 
Q 23.390625 41.5 23.921875 41.5 
Q 29.546875 41.5 34.03125 44.421875 
Q 38.53125 47.359375 38.53125 53.46875 
Q 38.53125 58.296875 35.25 61.46875 
Q 31.984375 64.65625 26.8125 64.65625 
Q 21.6875 64.65625 18.265625 61.421875 
Q 14.84375 58.203125 13.875 51.765625 
L 5.078125 53.328125 
Q 6.6875 62.15625 12.390625 67.015625 
Q 18.109375 71.875 26.609375 71.875 
Q 32.46875 71.875 37.390625 69.359375 
Q 42.328125 66.84375 44.9375 62.5 
Q 47.5625 58.15625 47.5625 53.265625 
Q 47.5625 48.640625 45.0625 44.828125 
Q 42.578125 41.015625 37.703125 38.765625 
Q 44.046875 37.3125 47.5625 32.6875 
Q 51.078125 28.078125 51.078125 21.140625 
Q 51.078125 11.765625 44.234375 5.25 
Q 37.40625 -1.265625 26.953125 -1.265625 
Q 17.53125 -1.265625 11.296875 4.34375 
Q 5.078125 9.96875 4.203125 18.890625 
" id="ArialMT-33"/>
      </defs>
      <g style="fill:#d9d9d9;" transform="translate(26.71 142.188147)scale(0.15 -0.15)">
       <use xlink:href="#ArialMT-33"/>
      </g>
     </g>
    </g>
    <g id="ytick_5">
     <g id="line2d_17">
      <path clip-path="url(#p43f43f59b5)" d="M 42.051406 105.756931 
L 259.491406 105.756931 
" style="fill:none;stroke:#808080;stroke-linecap:round;"/>
     </g>
     <g id="line2d_18"/>
     <g id="text_10">
      <!-- 4 -->
      <g style="fill:#d9d9d9;" transform="translate(26.71 111.12529)scale(0.15 -0.15)">
       <use xlink:href="#ArialMT-34"/>
      </g>
     </g>
    </g>
    <g id="ytick_6">
     <g id="line2d_19">
      <path clip-path="url(#p43f43f59b5)" d="M 42.051406 74.694074 
L 259.491406 74.694074 
" style="fill:none;stroke:#808080;stroke-linecap:round;"/>
     </g>
     <g id="line2d_20"/>
     <g id="text_11">
      <!-- 5 -->
      <defs>
       <path d="M 4.15625 18.75 
L 13.375 19.53125 
Q 14.40625 12.796875 18.140625 9.390625 
Q 21.875 6 27.15625 6 
Q 33.5 6 37.890625 10.78125 
Q 42.28125 15.578125 42.28125 23.484375 
Q 42.28125 31 38.0625 35.34375 
Q 33.84375 39.703125 27 39.703125 
Q 22.75 39.703125 19.328125 37.765625 
Q 15.921875 35.84375 13.96875 32.765625 
L 5.71875 33.84375 
L 12.640625 70.609375 
L 48.25 70.609375 
L 48.25 62.203125 
L 19.671875 62.203125 
L 15.828125 42.96875 
Q 22.265625 47.46875 29.34375 47.46875 
Q 38.71875 47.46875 45.15625 40.96875 
Q 51.609375 34.46875 51.609375 24.265625 
Q 51.609375 14.546875 45.953125 7.46875 
Q 39.0625 -1.21875 27.15625 -1.21875 
Q 17.390625 -1.21875 11.203125 4.25 
Q 5.03125 9.71875 4.15625 18.75 
" id="ArialMT-35"/>
      </defs>
      <g style="fill:#d9d9d9;" transform="translate(26.71 80.062433)scale(0.15 -0.15)">
       <use xlink:href="#ArialMT-35"/>
      </g>
     </g>
    </g>
    <g id="ytick_7">
     <g id="line2d_21">
      <path clip-path="url(#p43f43f59b5)" d="M 42.051406 43.631217 
L 259.491406 43.631217 
" style="fill:none;stroke:#808080;stroke-linecap:round;"/>
     </g>
     <g id="line2d_22"/>
     <g id="text_12">
      <!-- 6 -->
      <defs>
       <path d="M 49.75 54.046875 
L 41.015625 53.375 
Q 39.84375 58.546875 37.703125 60.890625 
Q 34.125 64.65625 28.90625 64.65625 
Q 24.703125 64.65625 21.53125 62.3125 
Q 17.390625 59.28125 14.984375 53.46875 
Q 12.59375 47.65625 12.5 36.921875 
Q 15.671875 41.75 20.265625 44.09375 
Q 24.859375 46.4375 29.890625 46.4375 
Q 38.671875 46.4375 44.84375 39.96875 
Q 51.03125 33.5 51.03125 23.25 
Q 51.03125 16.5 48.125 10.71875 
Q 45.21875 4.9375 40.140625 1.859375 
Q 35.0625 -1.21875 28.609375 -1.21875 
Q 17.625 -1.21875 10.6875 6.859375 
Q 3.765625 14.9375 3.765625 33.5 
Q 3.765625 54.25 11.421875 63.671875 
Q 18.109375 71.875 29.4375 71.875 
Q 37.890625 71.875 43.28125 67.140625 
Q 48.6875 62.40625 49.75 54.046875 
M 13.875 23.1875 
Q 13.875 18.65625 15.796875 14.5 
Q 17.71875 10.359375 21.1875 8.171875 
Q 24.65625 6 28.46875 6 
Q 34.03125 6 38.03125 10.484375 
Q 42.046875 14.984375 42.046875 22.703125 
Q 42.046875 30.125 38.078125 34.390625 
Q 34.125 38.671875 28.125 38.671875 
Q 22.171875 38.671875 18.015625 34.390625 
Q 13.875 30.125 13.875 23.1875 
" id="ArialMT-36"/>
      </defs>
      <g style="fill:#d9d9d9;" transform="translate(26.71 48.999576)scale(0.15 -0.15)">
       <use xlink:href="#ArialMT-36"/>
      </g>
     </g>
    </g>
    <g id="ytick_8">
     <g id="line2d_23">
      <path clip-path="url(#p43f43f59b5)" d="M 42.051406 12.568359 
L 259.491406 12.568359 
" style="fill:none;stroke:#808080;stroke-linecap:round;"/>
     </g>
     <g id="line2d_24"/>
     <g id="text_13">
      <!-- 7 -->
      <defs>
       <path d="M 4.734375 62.203125 
L 4.734375 70.65625 
L 51.078125 70.65625 
L 51.078125 63.8125 
Q 44.234375 56.546875 37.515625 44.484375 
Q 30.8125 32.421875 27.15625 19.671875 
Q 24.515625 10.6875 23.78125 0 
L 14.75 0 
Q 14.890625 8.453125 18.0625 20.40625 
Q 21.234375 32.375 27.171875 43.484375 
Q 33.109375 54.59375 39.796875 62.203125 
z
" id="ArialMT-37"/>
      </defs>
      <g style="fill:#d9d9d9;" transform="translate(26.71 17.936719)scale(0.15 -0.15)">
       <use xlink:href="#ArialMT-37"/>
      </g>
     </g>
    </g>
    <g id="text_14">
     <!-- $y/r_{0}$ -->
     <defs>
      <path d="M 24.8125 -5.078125 
Q 18.5625 -15.578125 14.625 -18.1875 
Q 10.6875 -20.796875 4.59375 -20.796875 
L -2.484375 -20.796875 
L -0.984375 -13.28125 
L 4.203125 -13.28125 
Q 7.953125 -13.28125 10.59375 -11.234375 
Q 13.234375 -9.1875 16.5 -3.21875 
L 19.28125 2 
L 7.171875 54.6875 
L 16.703125 54.6875 
L 25.78125 12.796875 
L 50.875 54.6875 
L 60.296875 54.6875 
z
" id="DejaVuSans-Oblique-79"/>
     </defs>
     <g style="fill:#d9d9d9;" transform="translate(19.245 136.303359)rotate(-90)scale(0.165 -0.165)">
      <use transform="translate(0 0.09375)" xlink:href="#DejaVuSans-Oblique-79"/>
      <use transform="translate(59.179688 0.09375)" xlink:href="#DejaVuSans-2f"/>
      <use transform="translate(92.871094 0.09375)" xlink:href="#DejaVuSans-Oblique-72"/>
      <use transform="translate(133.984375 -16.3125)scale(0.7)" xlink:href="#DejaVuSans-30"/>
     </g>
    </g>
   </g>
   <g id="line2d_25">
    <path clip-path="url(#p43f43f59b5)" d="M 228.428549 230.008359 
L 228.422323 229.161985 
L 228.403635 228.315372 
L 228.372466 227.46828 
L 228.328776 226.620471 
L 228.272516 225.771702 
L 228.203616 224.92173 
L 228.121996 224.07031 
L 228.027558 223.217195 
L 227.920187 222.362133 
L 227.799753 221.504871 
L 227.666111 220.645149 
L 227.519095 219.782705 
L 227.358525 218.917272 
L 227.1842 218.048575 
L 226.995902 217.176336 
L 226.793393 216.300268 
L 226.576412 215.420077 
L 226.344681 214.535462 
L 226.097894 213.646113 
L 225.835727 212.75171 
L 225.557828 211.851924 
L 225.26382 210.946412 
L 224.953298 210.034823 
L 224.625829 209.116791 
L 224.280948 208.191935 
L 223.918159 207.259862 
L 223.536929 206.320161 
L 223.136692 205.372403 
L 222.71684 204.416142 
L 222.276723 203.450911 
L 221.815649 202.476221 
L 221.332875 201.491558 
L 220.827609 200.496387 
L 220.299003 199.49014 
L 219.74615 198.472225 
L 219.168079 197.442013 
L 218.563751 196.398844 
L 217.932052 195.342017 
L 217.271787 194.270795 
L 216.581675 193.184392 
L 215.860341 192.081977 
L 215.106305 190.962666 
L 214.317977 189.825518 
L 213.493645 188.66953 
L 212.631462 187.493631 
L 211.729437 186.296677 
L 210.785419 185.077441 
L 209.797078 183.834608 
L 208.761896 182.566766 
L 207.677138 181.272394 
L 206.539835 179.949852 
L 205.346756 178.59737 
L 204.094384 177.213031 
L 202.778877 175.794757 
L 201.396037 174.34029 
L 199.941264 172.847173 
L 198.409512 171.312724 
L 196.795231 169.734011 
L 195.092302 168.107818 
L 193.293969 166.430613 
L 191.39275 164.698506 
L 189.38034 162.907198 
L 187.247496 161.051927 
L 184.9839 159.127403 
L 182.578003 157.12773 
L 180.016834 155.046317 
L 177.285778 152.875765 
L 174.368312 150.607743 
L 171.245677 148.232834 
L 167.896501 145.740344 
L 164.296321 143.118079 
L 160.417012 140.352069 
L 156.226076 137.426227 
L 151.685771 134.321928 
L 146.752003 131.017483 
L 141.372948 127.487477 
L 135.487288 123.701921 
L 129.021937 119.625171 
L 121.889098 115.214518 
L 113.982375 110.418331 
L 105.171597 105.173589 
L 95.29581 99.402534 
L 84.153639 93.008073 
L 71.48979 85.867351 
L 56.975766 77.822551 
L 40.181683 68.667469 
L 20.533976 58.127371 
L -1 46.752257 
" style="fill:none;stroke:#ffc400;stroke-linecap:round;stroke-width:2;"/>
   </g>
   <g id="line2d_26">
    <path clip-path="url(#p43f43f59b5)" d="M 236.988556 230.008359 
L 236.889479 227.066559 
L 236.592147 224.121735 
L 236.020282 220.801421 
L 235.196363 217.469126 
L 234.119317 214.120513 
L 232.787744 210.751225 
L 231.199909 207.356877 
L 229.353748 203.933051 
L 227.246858 200.475292 
L 224.876495 196.979101 
L 221.929987 193.043833 
L 218.649654 189.049177 
L 215.030228 184.988715 
L 211.065892 180.855922 
L 206.299134 176.21838 
L 201.098051 171.476267 
L 195.45253 166.620362 
L 188.773981 161.182133 
L 181.537985 155.584662 
L 173.7278 149.814998 
L 164.597818 143.35472 
L 154.747939 136.659137 
L 143.304561 129.164489 
L 130.95918 121.352242 
L 116.686807 112.601565 
L 101.282695 103.426401 
L 83.541383 93.134271 
L 64.375994 82.279064 
L 42.364109 70.078445 
L 18.553262 57.135057 
L -1 46.665397 
L -1 46.665397 
" style="fill:none;stroke:#00d7ff;stroke-dasharray:5.6,2.4;stroke-dashoffset:0;stroke-width:1.75;"/>
   </g>
   <g id="line2d_27">
    <path clip-path="url(#p43f43f59b5)" d="M 208.364559 278.016094 
L 211.467051 274.158755 
L 214.543053 269.959213 
L 217.311801 265.758095 
L 219.773186 261.555565 
L 221.92711 257.35179 
L 223.773489 253.146936 
L 225.312249 248.941168 
L 226.54333 244.734652 
L 227.466684 240.527555 
L 228.082273 236.320043 
L 228.390074 232.112282 
L 228.390074 227.904437 
L 228.082273 223.696676 
L 227.466684 219.489164 
L 226.54333 215.282067 
L 225.312249 211.075551 
L 223.773489 206.869783 
L 221.92711 202.664929 
L 219.773186 198.461153 
L 217.311801 194.258624 
L 214.543053 190.057505 
L 211.467051 185.857964 
L 208.083916 181.660166 
L 204.393783 177.464276 
L 200.396796 173.270461 
L 196.093113 169.078886 
L 191.482905 164.889716 
L 186.566353 160.703117 
L 181.343651 156.519254 
L 175.815007 152.338292 
L 169.980637 148.160397 
L 163.840772 143.985732 
L 157.395655 139.814464 
L 150.64554 135.646757 
L 143.590694 131.482774 
L 136.231395 127.322682 
L 128.567933 123.166643 
L 116.503101 116.940544 
L 103.755659 110.724489 
L 90.326738 104.51903 
L 76.217533 98.324717 
L 61.429296 92.142101 
L 45.963341 85.971731 
L 29.821041 79.814155 
L 13.003831 73.66992 
L -1 68.745274 
L -1 68.745274 
" style="fill:none;stroke:#ffffff;stroke-dasharray:2.2,2.2;stroke-dashoffset:0;stroke-width:1.75;"/>
   </g>
   <g id="patch_3">
    <path d="M 42.051406 230.008359 
L 42.051406 12.568359 
" style="fill:none;"/>
   </g>
   <g id="patch_4">
    <path d="M 259.491406 230.008359 
L 259.491406 12.568359 
" style="fill:none;"/>
   </g>
   <g id="patch_5">
    <path d="M 42.051406 230.008359 
L 259.491406 230.008359 
" style="fill:none;"/>
   </g>
   <g id="patch_6">
    <path d="M 42.051406 12.568359 
L 259.491406 12.568359 
" style="fill:none;"/>
   </g>
  </g>
 </g>
 <defs>
  <clipPath id="p43f43f59b5">
   <rect height="217.44" width="217.44" x="42.051406" y="12.568359"/>
  </clipPath>
 </defs>
</svg>
