<?xml version="1.0" encoding="utf-8" standalone="no"?>
<!DOCTYPE svg PUBLIC "-//W3C//DTD SVG 1.1//EN"
  "http://www.w3.org/Graphics/SVG/1.1/DTD/svg11.dtd">
<!-- Created with matplotlib (http://matplotlib.org/) -->
<svg height="240pt" version="1.1" viewBox="0 0 363 240" width="363pt" xmlns="http://www.w3.org/2000/svg" xmlns:xlink="http://www.w3.org/1999/xlink">
 <defs>
  <style type="text/css">
*{stroke-linecap:butt;stroke-linejoin:round;stroke-miterlimit:100000;}
  </style>
 </defs>
 <g id="figure_1">
  <g id="patch_1">
   <path d="M 0 240.747734 
L 363.603516 240.747734 
L 363.603516 0 
L 0 0 
z
" style="fill:#3f3f3f;"/>
  </g>
  <g id="axes_1">
   <g id="patch_2">
    <path d="M 64.891406 192.74 
L 343.891406 192.74 
L 343.891406 25.34 
L 64.891406 25.34 
z
" style="fill:#504040;"/>
   </g>
   <g id="matplotlib.axis_1">
    <g id="xtick_1">
     <g id="line2d_1">
      <path clip-path="url(#p907b5c5dd2)" d="M 64.891406 192.74 
L 64.891406 25.34 
" style="fill:none;stroke:#808080;stroke-linecap:round;"/>
     </g>
     <g id="line2d_2"/>
     <g id="line2d_3"/>
     <g id="text_1">
      <!-- 0 -->
      <defs>
       <path d="M 4.15625 35.296875 
Q 4.15625 48 6.765625 55.734375 
Q 9.375 63.484375 14.515625 67.671875 
Q 19.671875 71.875 27.484375 71.875 
Q 33.25 71.875 37.59375 69.546875 
Q 41.9375 67.234375 44.765625 62.859375 
Q 47.609375 58.5 49.21875 52.21875 
Q 50.828125 45.953125 50.828125 35.296875 
Q 50.828125 22.703125 48.234375 14.96875 
Q 45.65625 7.234375 40.5 3 
Q 35.359375 -1.21875 27.484375 -1.21875 
Q 17.140625 -1.21875 11.234375 6.203125 
Q 4.15625 15.140625 4.15625 35.296875 
M 13.1875 35.296875 
Q 13.1875 17.671875 17.3125 11.828125 
Q 21.4375 6 27.484375 6 
Q 33.546875 6 37.671875 11.859375 
Q 41.796875 17.71875 41.796875 35.296875 
Q 41.796875 52.984375 37.671875 58.78125 
Q 33.546875 64.59375 27.390625 64.59375 
Q 21.34375 64.59375 17.71875 59.46875 
Q 13.1875 52.9375 13.1875 35.296875 
" id="ArialMT-30"/>
      </defs>
      <g style="fill:#d9d9d9;" transform="translate(60.720703125 210.47671875)scale(0.15 -0.15)">
       <use xlink:href="#ArialMT-30"/>
      </g>
     </g>
    </g>
    <g id="xtick_2">
     <g id="line2d_4">
      <path clip-path="url(#p907b5c5dd2)" d="M 95.891406 192.74 
L 95.891406 25.34 
" style="fill:none;stroke:#808080;stroke-linecap:round;"/>
     </g>
     <g id="line2d_5"/>
     <g id="line2d_6"/>
     <g id="text_2">
      <!-- 20 -->
      <defs>
       <path d="M 50.34375 8.453125 
L 50.34375 0 
L 3.03125 0 
Q 2.9375 3.171875 4.046875 6.109375 
Q 5.859375 10.9375 9.828125 15.625 
Q 13.8125 20.3125 21.34375 26.46875 
Q 33.015625 36.03125 37.109375 41.625 
Q 41.21875 47.21875 41.21875 52.203125 
Q 41.21875 57.421875 37.46875 61 
Q 33.734375 64.59375 27.734375 64.59375 
Q 21.390625 64.59375 17.578125 60.78125 
Q 13.765625 56.984375 13.71875 50.25 
L 4.6875 51.171875 
Q 5.609375 61.28125 11.65625 66.578125 
Q 17.71875 71.875 27.9375 71.875 
Q 38.234375 71.875 44.234375 66.15625 
Q 50.25 60.453125 50.25 52 
Q 50.25 47.703125 48.484375 43.546875 
Q 46.734375 39.40625 42.65625 34.8125 
Q 38.578125 30.21875 29.109375 22.21875 
Q 21.1875 15.578125 18.9375 13.203125 
Q 16.703125 10.84375 15.234375 8.453125 
z
" id="ArialMT-32"/>
      </defs>
      <g style="fill:#d9d9d9;" transform="translate(87.55 210.47671875)scale(0.15 -0.15)">
       <use xlink:href="#ArialMT-32"/>
       <use x="55.615234375" xlink:href="#ArialMT-30"/>
      </g>
     </g>
    </g>
    <g id="xtick_3">
     <g id="line2d_7">
      <path clip-path="url(#p907b5c5dd2)" d="M 126.891406 192.74 
L 126.891406 25.34 
" style="fill:none;stroke:#808080;stroke-linecap:round;"/>
     </g>
     <g id="line2d_8"/>
     <g id="line2d_9"/>
     <g id="text_3">
      <!-- 40 -->
      <defs>
       <path d="M 32.328125 0 
L 32.328125 17.140625 
L 1.265625 17.140625 
L 1.265625 25.203125 
L 33.9375 71.578125 
L 41.109375 71.578125 
L 41.109375 25.203125 
L 50.78125 25.203125 
L 50.78125 17.140625 
L 41.109375 17.140625 
L 41.109375 0 
z
M 32.328125 25.203125 
L 32.328125 57.46875 
L 9.90625 25.203125 
z
" id="ArialMT-34"/>
      </defs>
      <g style="fill:#d9d9d9;" transform="translate(118.55 210.47671875)scale(0.15 -0.15)">
       <use xlink:href="#ArialMT-34"/>
       <use x="55.615234375" xlink:href="#ArialMT-30"/>
      </g>
     </g>
    </g>
    <g id="xtick_4">
     <g id="line2d_10">
      <path clip-path="url(#p907b5c5dd2)" d="M 157.891406 192.74 
L 157.891406 25.34 
" style="fill:none;stroke:#808080;stroke-linecap:round;"/>
     </g>
     <g id="line2d_11"/>
     <g id="line2d_12"/>
     <g id="text_4">
      <!-- 60 -->
      <defs>
       <path d="M 49.75 54.046875 
L 41.015625 53.375 
Q 39.84375 58.546875 37.703125 60.890625 
Q 34.125 64.65625 28.90625 64.65625 
Q 24.703125 64.65625 21.53125 62.3125 
Q 17.390625 59.28125 14.984375 53.46875 
Q 12.59375 47.65625 12.5 36.921875 
Q 15.671875 41.75 20.265625 44.09375 
Q 24.859375 46.4375 29.890625 46.4375 
Q 38.671875 46.4375 44.84375 39.96875 
Q 51.03125 33.5 51.03125 23.25 
Q 51.03125 16.5 48.125 10.71875 
Q 45.21875 4.9375 40.140625 1.859375 
Q 35.0625 -1.21875 28.609375 -1.21875 
Q 17.625 -1.21875 10.6875 6.859375 
Q 3.765625 14.9375 3.765625 33.5 
Q 3.765625 54.25 11.421875 63.671875 
Q 18.109375 71.875 29.4375 71.875 
Q 37.890625 71.875 43.28125 67.140625 
Q 48.6875 62.40625 49.75 54.046875 
M 13.875 23.1875 
Q 13.875 18.65625 15.796875 14.5 
Q 17.71875 10.359375 21.1875 8.171875 
Q 24.65625 6 28.46875 6 
Q 34.03125 6 38.03125 10.484375 
Q 42.046875 14.984375 42.046875 22.703125 
Q 42.046875 30.125 38.078125 34.390625 
Q 34.125 38.671875 28.125 38.671875 
Q 22.171875 38.671875 18.015625 34.390625 
Q 13.875 30.125 13.875 23.1875 
" id="ArialMT-36"/>
      </defs>
      <g style="fill:#d9d9d9;" transform="translate(149.55 210.47671875)scale(0.15 -0.15)">
       <use xlink:href="#ArialMT-36"/>
       <use x="55.615234375" xlink:href="#ArialMT-30"/>
      </g>
     </g>
    </g>
    <g id="xtick_5">
     <g id="line2d_13">
      <path clip-path="url(#p907b5c5dd2)" d="M 188.891406 192.74 
L 188.891406 25.34 
" style="fill:none;stroke:#808080;stroke-linecap:round;"/>
     </g>
     <g id="line2d_14"/>
     <g id="line2d_15"/>
     <g id="text_5">
      <!-- 80 -->
      <defs>
       <path d="M 17.671875 38.8125 
Q 12.203125 40.828125 9.5625 44.53125 
Q 6.9375 48.25 6.9375 53.421875 
Q 6.9375 61.234375 12.546875 66.546875 
Q 18.171875 71.875 27.484375 71.875 
Q 36.859375 71.875 42.578125 66.421875 
Q 48.296875 60.984375 48.296875 53.171875 
Q 48.296875 48.1875 45.671875 44.5 
Q 43.0625 40.828125 37.75 38.8125 
Q 44.34375 36.671875 47.78125 31.875 
Q 51.21875 27.09375 51.21875 20.453125 
Q 51.21875 11.28125 44.71875 5.03125 
Q 38.234375 -1.21875 27.640625 -1.21875 
Q 17.046875 -1.21875 10.546875 5.046875 
Q 4.046875 11.328125 4.046875 20.703125 
Q 4.046875 27.6875 7.59375 32.390625 
Q 11.140625 37.109375 17.671875 38.8125 
M 15.921875 53.71875 
Q 15.921875 48.640625 19.1875 45.40625 
Q 22.46875 42.1875 27.6875 42.1875 
Q 32.765625 42.1875 36.015625 45.375 
Q 39.265625 48.578125 39.265625 53.21875 
Q 39.265625 58.0625 35.90625 61.359375 
Q 32.5625 64.65625 27.59375 64.65625 
Q 22.5625 64.65625 19.234375 61.421875 
Q 15.921875 58.203125 15.921875 53.71875 
M 13.09375 20.65625 
Q 13.09375 16.890625 14.875 13.375 
Q 16.65625 9.859375 20.171875 7.921875 
Q 23.6875 6 27.734375 6 
Q 34.03125 6 38.125 10.046875 
Q 42.234375 14.109375 42.234375 20.359375 
Q 42.234375 26.703125 38.015625 30.859375 
Q 33.796875 35.015625 27.4375 35.015625 
Q 21.234375 35.015625 17.15625 30.90625 
Q 13.09375 26.8125 13.09375 20.65625 
" id="ArialMT-38"/>
      </defs>
      <g style="fill:#d9d9d9;" transform="translate(180.55 210.47671875)scale(0.15 -0.15)">
       <use xlink:href="#ArialMT-38"/>
       <use x="55.615234375" xlink:href="#ArialMT-30"/>
      </g>
     </g>
    </g>
    <g id="xtick_6">
     <g id="line2d_16">
      <path clip-path="url(#p907b5c5dd2)" d="M 219.891406 192.74 
L 219.891406 25.34 
" style="fill:none;stroke:#808080;stroke-linecap:round;"/>
     </g>
     <g id="line2d_17"/>
     <g id="line2d_18"/>
     <g id="text_6">
      <!-- 100 -->
      <defs>
       <path d="M 37.25 0 
L 28.46875 0 
L 28.46875 56 
Q 25.296875 52.984375 20.140625 49.953125 
Q 14.984375 46.921875 10.890625 45.40625 
L 10.890625 53.90625 
Q 18.265625 57.375 23.78125 62.296875 
Q 29.296875 67.234375 31.59375 71.875 
L 37.25 71.875 
z
" id="ArialMT-31"/>
      </defs>
      <g style="fill:#d9d9d9;" transform="translate(207.379296875 210.47671875)scale(0.15 -0.15)">
       <use xlink:href="#ArialMT-31"/>
       <use x="55.615234375" xlink:href="#ArialMT-30"/>
       <use x="111.23046875" xlink:href="#ArialMT-30"/>
      </g>
     </g>
    </g>
    <g id="xtick_7">
     <g id="line2d_19">
      <path clip-path="url(#p907b5c5dd2)" d="M 250.891406 192.74 
L 250.891406 25.34 
" style="fill:none;stroke:#808080;stroke-linecap:round;"/>
     </g>
     <g id="line2d_20"/>
     <g id="line2d_21"/>
     <g id="text_7">
      <!-- 120 -->
      <g style="fill:#d9d9d9;" transform="translate(238.379296875 210.47671875)scale(0.15 -0.15)">
       <use xlink:href="#ArialMT-31"/>
       <use x="55.615234375" xlink:href="#ArialMT-32"/>
       <use x="111.23046875" xlink:href="#ArialMT-30"/>
      </g>
     </g>
    </g>
    <g id="xtick_8">
     <g id="line2d_22">
      <path clip-path="url(#p907b5c5dd2)" d="M 281.891406 192.74 
L 281.891406 25.34 
" style="fill:none;stroke:#808080;stroke-linecap:round;"/>
     </g>
     <g id="line2d_23"/>
     <g id="line2d_24"/>
     <g id="text_8">
      <!-- 140 -->
      <g style="fill:#d9d9d9;" transform="translate(269.379296875 210.47671875)scale(0.15 -0.15)">
       <use xlink:href="#ArialMT-31"/>
       <use x="55.615234375" xlink:href="#ArialMT-34"/>
       <use x="111.23046875" xlink:href="#ArialMT-30"/>
      </g>
     </g>
    </g>
    <g id="xtick_9">
     <g id="line2d_25">
      <path clip-path="url(#p907b5c5dd2)" d="M 312.891406 192.74 
L 312.891406 25.34 
" style="fill:none;stroke:#808080;stroke-linecap:round;"/>
     </g>
     <g id="line2d_26"/>
     <g id="line2d_27"/>
     <g id="text_9">
      <!-- 160 -->
      <g style="fill:#d9d9d9;" transform="translate(300.379296875 210.47671875)scale(0.15 -0.15)">
       <use xlink:href="#ArialMT-31"/>
       <use x="55.615234375" xlink:href="#ArialMT-36"/>
       <use x="111.23046875" xlink:href="#ArialMT-30"/>
      </g>
     </g>
    </g>
    <g id="xtick_10">
     <g id="line2d_28">
      <path clip-path="url(#p907b5c5dd2)" d="M 343.891406 192.74 
L 343.891406 25.34 
" style="fill:none;stroke:#808080;stroke-linecap:round;"/>
     </g>
     <g id="line2d_29"/>
     <g id="line2d_30"/>
     <g id="text_10">
      <!-- 180 -->
      <g style="fill:#d9d9d9;" transform="translate(331.379296875 210.47671875)scale(0.15 -0.15)">
       <use xlink:href="#ArialMT-31"/>
       <use x="55.615234375" xlink:href="#ArialMT-38"/>
       <use x="111.23046875" xlink:href="#ArialMT-30"/>
      </g>
     </g>
    </g>
    <g id="text_11">
     <!-- $\theta$ -->
     <defs>
      <path d="M 16.109375 -1.125 
Q 11.578125 -1.125 8.84375 2.1875 
Q 6.109375 5.515625 5.046875 10.203125 
Q 4 14.890625 4 19.484375 
L 4 19.578125 
Q 4 24.5625 4.953125 29.921875 
Q 5.90625 35.296875 7.703125 40.640625 
Q 9.515625 46 11.625 50.203125 
Q 13.09375 53.125 15.40625 56.734375 
Q 17.71875 60.359375 20.578125 63.5 
Q 23.4375 66.65625 26.734375 68.578125 
Q 30.03125 70.515625 33.40625 70.515625 
L 33.5 70.515625 
Q 37.109375 70.515625 39.515625 68.5 
Q 41.9375 66.5 43.28125 63.375 
Q 44.625 60.25 45.15625 56.6875 
Q 45.703125 53.125 45.703125 49.90625 
Q 45.703125 42.328125 43.65625 34.4375 
Q 41.609375 26.5625 37.984375 19.1875 
Q 36.625 16.40625 34.203125 12.640625 
Q 31.78125 8.890625 29.078125 5.90625 
Q 26.375 2.9375 23 0.90625 
Q 19.625 -1.125 16.21875 -1.125 
z
M 16.3125 1.515625 
Q 19.625 1.515625 22.671875 5.046875 
Q 25.734375 8.59375 28.03125 13.640625 
Q 30.328125 18.703125 32.0625 24 
Q 33.796875 29.296875 34.625 33.015625 
L 14.203125 33.015625 
Q 12.640625 26.703125 11.765625 22.140625 
Q 10.890625 17.578125 10.890625 13.1875 
Q 10.890625 1.515625 16.3125 1.515625 
M 14.984375 36.53125 
L 35.5 36.53125 
Q 36.578125 40.921875 37.203125 43.875 
Q 37.84375 46.828125 38.28125 50.09375 
Q 38.71875 53.375 38.71875 56.203125 
Q 38.71875 67.921875 33.40625 67.921875 
Q 27.046875 67.921875 22.4375 57.6875 
Q 17.828125 47.46875 14.984375 36.53125 
" id="Cmmi10-b5"/>
     </defs>
     <g style="fill:#d9d9d9;" transform="translate(200.51390625 230.268359375)scale(0.165 -0.165)">
      <use transform="translate(0.0 0.484375)" xlink:href="#Cmmi10-b5"/>
     </g>
    </g>
   </g>
   <g id="matplotlib.axis_2">
    <g id="ytick_1">
     <g id="line2d_31">
      <path clip-path="url(#p907b5c5dd2)" d="M 64.891406 192.74 
L 343.891406 192.74 
" style="fill:none;stroke:#808080;stroke-linecap:round;"/>
     </g>
     <g id="line2d_32"/>
     <g id="line2d_33"/>
     <g id="text_12">
      <!-- 0.00 -->
      <defs>
       <path d="M 9.078125 0 
L 9.078125 10.015625 
L 19.09375 10.015625 
L 19.09375 0 
z
" id="ArialMT-2e"/>
      </defs>
      <g style="fill:#d9d9d9;" transform="translate(28.7 196.617734375)scale(0.15 -0.15)">
       <use xlink:href="#ArialMT-30"/>
       <use x="55.615234375" xlink:href="#ArialMT-2e"/>
       <use x="83.3984375" xlink:href="#ArialMT-30"/>
       <use x="139.013671875" xlink:href="#ArialMT-30"/>
      </g>
     </g>
    </g>
    <g id="ytick_2">
     <g id="line2d_34">
      <path clip-path="url(#p907b5c5dd2)" d="M 64.891406 173.045882 
L 343.891406 173.045882 
" style="fill:none;stroke:#808080;stroke-linecap:round;"/>
     </g>
     <g id="line2d_35"/>
     <g id="line2d_36"/>
     <g id="text_13">
      <!-- 0.02 -->
      <g style="fill:#d9d9d9;" transform="translate(28.7 176.923616728)scale(0.15 -0.15)">
       <use xlink:href="#ArialMT-30"/>
       <use x="55.615234375" xlink:href="#ArialMT-2e"/>
       <use x="83.3984375" xlink:href="#ArialMT-30"/>
       <use x="139.013671875" xlink:href="#ArialMT-32"/>
      </g>
     </g>
    </g>
    <g id="ytick_3">
     <g id="line2d_37">
      <path clip-path="url(#p907b5c5dd2)" d="M 64.891406 153.351765 
L 343.891406 153.351765 
" style="fill:none;stroke:#808080;stroke-linecap:round;"/>
     </g>
     <g id="line2d_38"/>
     <g id="line2d_39"/>
     <g id="text_14">
      <!-- 0.04 -->
      <g style="fill:#d9d9d9;" transform="translate(28.7 157.229499081)scale(0.15 -0.15)">
       <use xlink:href="#ArialMT-30"/>
       <use x="55.615234375" xlink:href="#ArialMT-2e"/>
       <use x="83.3984375" xlink:href="#ArialMT-30"/>
       <use x="139.013671875" xlink:href="#ArialMT-34"/>
      </g>
     </g>
    </g>
    <g id="ytick_4">
     <g id="line2d_40">
      <path clip-path="url(#p907b5c5dd2)" d="M 64.891406 133.657647 
L 343.891406 133.657647 
" style="fill:none;stroke:#808080;stroke-linecap:round;"/>
     </g>
     <g id="line2d_41"/>
     <g id="line2d_42"/>
     <g id="text_15">
      <!-- 0.06 -->
      <g style="fill:#d9d9d9;" transform="translate(28.7 137.535381434)scale(0.15 -0.15)">
       <use xlink:href="#ArialMT-30"/>
       <use x="55.615234375" xlink:href="#ArialMT-2e"/>
       <use x="83.3984375" xlink:href="#ArialMT-30"/>
       <use x="139.013671875" xlink:href="#ArialMT-36"/>
      </g>
     </g>
    </g>
    <g id="ytick_5">
     <g id="line2d_43">
      <path clip-path="url(#p907b5c5dd2)" d="M 64.891406 113.963529 
L 343.891406 113.963529 
" style="fill:none;stroke:#808080;stroke-linecap:round;"/>
     </g>
     <g id="line2d_44"/>
     <g id="line2d_45"/>
     <g id="text_16">
      <!-- 0.08 -->
      <g style="fill:#d9d9d9;" transform="translate(28.7 117.841263787)scale(0.15 -0.15)">
       <use xlink:href="#ArialMT-30"/>
       <use x="55.615234375" xlink:href="#ArialMT-2e"/>
       <use x="83.3984375" xlink:href="#ArialMT-30"/>
       <use x="139.013671875" xlink:href="#ArialMT-38"/>
      </g>
     </g>
    </g>
    <g id="ytick_6">
     <g id="line2d_46">
      <path clip-path="url(#p907b5c5dd2)" d="M 64.891406 94.269412 
L 343.891406 94.269412 
" style="fill:none;stroke:#808080;stroke-linecap:round;"/>
     </g>
     <g id="line2d_47"/>
     <g id="line2d_48"/>
     <g id="text_17">
      <!-- 0.10 -->
      <g style="fill:#d9d9d9;" transform="translate(28.7 98.1471461397)scale(0.15 -0.15)">
       <use xlink:href="#ArialMT-30"/>
       <use x="55.615234375" xlink:href="#ArialMT-2e"/>
       <use x="83.3984375" xlink:href="#ArialMT-31"/>
       <use x="139.013671875" xlink:href="#ArialMT-30"/>
      </g>
     </g>
    </g>
    <g id="ytick_7">
     <g id="line2d_49">
      <path clip-path="url(#p907b5c5dd2)" d="M 64.891406 74.575294 
L 343.891406 74.575294 
" style="fill:none;stroke:#808080;stroke-linecap:round;"/>
     </g>
     <g id="line2d_50"/>
     <g id="line2d_51"/>
     <g id="text_18">
      <!-- 0.12 -->
      <g style="fill:#d9d9d9;" transform="translate(28.7 78.4530284926)scale(0.15 -0.15)">
       <use xlink:href="#ArialMT-30"/>
       <use x="55.615234375" xlink:href="#ArialMT-2e"/>
       <use x="83.3984375" xlink:href="#ArialMT-31"/>
       <use x="139.013671875" xlink:href="#ArialMT-32"/>
      </g>
     </g>
    </g>
    <g id="ytick_8">
     <g id="line2d_52">
      <path clip-path="url(#p907b5c5dd2)" d="M 64.891406 54.881176 
L 343.891406 54.881176 
" style="fill:none;stroke:#808080;stroke-linecap:round;"/>
     </g>
     <g id="line2d_53"/>
     <g id="line2d_54"/>
     <g id="text_19">
      <!-- 0.14 -->
      <g style="fill:#d9d9d9;" transform="translate(28.7 58.7589108456)scale(0.15 -0.15)">
       <use xlink:href="#ArialMT-30"/>
       <use x="55.615234375" xlink:href="#ArialMT-2e"/>
       <use x="83.3984375" xlink:href="#ArialMT-31"/>
       <use x="139.013671875" xlink:href="#ArialMT-34"/>
      </g>
     </g>
    </g>
    <g id="ytick_9">
     <g id="line2d_55">
      <path clip-path="url(#p907b5c5dd2)" d="M 64.891406 35.187059 
L 343.891406 35.187059 
" style="fill:none;stroke:#808080;stroke-linecap:round;"/>
     </g>
     <g id="line2d_56"/>
     <g id="line2d_57"/>
     <g id="text_20">
      <!-- 0.16 -->
      <g style="fill:#d9d9d9;" transform="translate(28.7 39.0647931985)scale(0.15 -0.15)">
       <use xlink:href="#ArialMT-30"/>
       <use x="55.615234375" xlink:href="#ArialMT-2e"/>
       <use x="83.3984375" xlink:href="#ArialMT-31"/>
       <use x="139.013671875" xlink:href="#ArialMT-36"/>
      </g>
     </g>
    </g>
    <g id="text_21">
     <!-- $\theta_1/\theta$ -->
     <defs>
      <path d="M 5.609375 -23 
Q 5.609375 -22.703125 5.71875 -22.609375 
L 40.484375 73.78125 
Q 40.671875 74.359375 41.15625 74.671875 
Q 41.65625 75 42.28125 75 
Q 43.171875 75 43.71875 74.453125 
Q 44.28125 73.921875 44.28125 73 
L 44.28125 72.609375 
L 9.515625 -23.78125 
Q 8.9375 -25 7.625 -25 
Q 6.78125 -25 6.1875 -24.40625 
Q 5.609375 -23.828125 5.609375 -23 
" id="Cmmi10-3d"/>
      <path d="M 9.28125 0 
L 9.28125 3.515625 
Q 21.78125 3.515625 21.78125 6.6875 
L 21.78125 59.1875 
Q 16.609375 56.6875 8.6875 56.6875 
L 8.6875 60.203125 
Q 20.953125 60.203125 27.203125 66.609375 
L 28.609375 66.609375 
Q 28.953125 66.609375 29.265625 66.328125 
Q 29.59375 66.0625 29.59375 65.71875 
L 29.59375 6.6875 
Q 29.59375 3.515625 42.09375 3.515625 
L 42.09375 0 
z
" id="Cmr10-31"/>
     </defs>
     <g style="fill:#d9d9d9;" transform="translate(19.575 124.385)rotate(-90.0)scale(0.165 -0.165)">
      <use xlink:href="#Cmmi10-b5"/>
      <use transform="translate(46.923828125 -17.006249999999994)scale(0.7)" xlink:href="#Cmr10-31"/>
      <use transform="translate(88.301171875 0.0)" xlink:href="#Cmmi10-3d"/>
      <use transform="translate(138.301171875 0.0)" xlink:href="#Cmmi10-b5"/>
     </g>
    </g>
   </g>
   <g id="line2d_58">
    <path clip-path="url(#p907b5c5dd2)" d="M 67.31107 86.34403 
L 69.730734 86.353869 
L 72.150397 86.370188 
L 74.570061 86.392868 
L 76.989725 86.421743 
L 79.409388 86.456605 
L 81.829052 86.497199 
L 84.248716 86.543232 
L 86.66838 86.594371 
L 89.088043 86.650245 
L 91.507707 86.710453 
L 93.927371 86.77456 
L 96.347034 86.842103 
L 98.766698 86.912595 
L 101.186362 86.985527 
L 103.606026 87.060368 
L 106.025689 87.136574 
L 108.445353 87.213585 
L 110.865017 87.290828 
L 113.28468 87.367723 
L 115.704344 87.443684 
L 118.124008 87.518115 
L 120.543671 87.590423 
L 122.963335 87.660007 
L 125.382999 87.72627 
L 127.802663 87.788613 
L 130.222326 87.84644 
L 132.64199 87.899153 
L 135.061654 87.946162 
L 137.481317 87.986875 
L 139.900981 88.020705 
L 142.320645 88.047066 
L 144.740309 88.065375 
L 147.159972 88.075051 
L 149.579636 88.075513 
L 151.9993 88.06618 
L 154.418963 88.046472 
L 156.838627 88.015807 
L 159.258291 87.9736 
L 161.677954 87.919262 
L 164.097618 87.852198 
L 166.517282 87.771809 
L 168.936946 87.677485 
L 171.356609 87.568609 
L 173.776273 87.44455 
L 176.195937 87.304667 
L 178.6156 87.148301 
L 181.035264 86.974778 
L 183.454928 86.783406 
L 185.874592 86.57347 
L 188.294255 86.344234 
L 190.713919 86.094935 
L 193.133583 85.824783 
L 195.553246 85.532959 
L 197.97291 85.21861 
L 200.392574 84.880849 
L 202.812238 84.51875 
L 205.231901 84.131347 
L 207.651565 83.717631 
L 210.071229 83.276545 
L 212.490892 82.806984 
L 214.910556 82.307789 
L 217.33022 81.777748 
L 219.749883 81.215586 
L 222.169547 80.619969 
L 224.589211 79.989499 
L 227.008875 79.322709 
L 229.428538 78.61806 
L 231.848202 77.873944 
L 234.267866 77.088677 
L 236.687529 76.260498 
L 239.107193 75.387572 
L 241.526857 74.46799 
L 243.946521 73.499766 
L 246.366184 72.48085 
L 248.785848 71.409127 
L 251.205512 70.28243 
L 253.625175 69.098554 
L 256.044839 67.855273 
L 258.464503 66.550365 
L 260.884166 65.181648 
L 263.30383 63.747018 
L 265.723494 62.244512 
L 268.143158 60.672376 
L 270.562821 59.02916 
L 272.982485 57.313837 
L 275.402149 55.525961 
L 277.821812 53.665858 
L 280.241476 51.734875 
L 282.66114 49.735706 
L 285.080804 47.672788 
L 287.500467 45.552822 
L 289.920131 43.385432 
L 292.339795 41.183995 
L 294.759458 38.966713 
L 297.179122 36.757968 
L 299.598786 34.590047 
L 302.018449 32.505344 
" style="fill:none;stroke:#00d7ff;stroke-linecap:round;stroke-width:1.75;"/>
   </g>
   <g id="line2d_59">
    <path clip-path="url(#p907b5c5dd2)" d="M 67.31107 94.266999 
L 69.730734 94.259761 
L 72.150397 94.24769 
L 74.570061 94.23078 
L 76.989725 94.209018 
L 79.409388 94.182389 
L 81.829052 94.150874 
L 84.248716 94.114451 
L 86.66838 94.073094 
L 89.088043 94.026775 
L 91.507707 93.975459 
L 93.927371 93.919111 
L 96.347034 93.85769 
L 98.766698 93.791151 
L 101.186362 93.719447 
L 103.606026 93.642525 
L 106.025689 93.560329 
L 108.445353 93.472797 
L 110.865017 93.379865 
L 113.28468 93.281463 
L 115.704344 93.177516 
L 118.124008 93.067946 
L 120.543671 92.952667 
L 122.963335 92.831591 
L 125.382999 92.704622 
L 127.802663 92.57166 
L 130.222326 92.432598 
L 132.64199 92.287324 
L 135.061654 92.135718 
L 137.481317 91.977655 
L 139.900981 91.813002 
L 142.320645 91.64162 
L 144.740309 91.463359 
L 147.159972 91.278064 
L 149.579636 91.085571 
L 151.9993 90.885707 
L 154.418963 90.678288 
L 156.838627 90.463122 
L 159.258291 90.240006 
L 161.677954 90.008726 
L 164.097618 89.769054 
L 166.517282 89.520754 
L 168.936946 89.263572 
L 171.356609 88.997244 
L 173.776273 88.721489 
L 176.195937 88.43601 
L 178.6156 88.140495 
L 181.035264 87.834611 
L 183.454928 87.51801 
L 185.874592 87.190319 
L 188.294255 86.851147 
L 190.713919 86.500077 
L 193.133583 86.136668 
L 195.553246 85.760452 
L 197.97291 85.370932 
L 200.392574 84.96758 
L 202.812238 84.549833 
L 205.231901 84.117093 
L 207.651565 83.668724 
L 210.071229 83.204046 
L 212.490892 82.722333 
L 214.910556 82.22281 
L 217.33022 81.704649 
L 219.749883 81.166961 
L 222.169547 80.608793 
L 224.589211 80.029126 
L 227.008875 79.426858 
L 229.428538 78.80081 
L 231.848202 78.149705 
L 234.267866 77.472168 
L 236.687529 76.766713 
L 239.107193 76.031729 
L 241.526857 75.265469 
L 243.946521 74.466035 
L 246.366184 73.631361 
L 248.785848 72.759194 
L 251.205512 71.84707 
L 253.625175 70.892291 
L 256.044839 69.891894 
L 258.464503 68.84262 
L 260.884166 67.740872 
L 263.30383 66.58267 
L 265.723494 65.363599 
L 268.143158 64.078747 
L 270.562821 62.722629 
L 272.982485 61.289102 
L 275.402149 59.771259 
L 277.821812 58.161306 
L 280.241476 56.450406 
L 282.66114 54.628503 
L 285.080804 52.684094 
L 287.500467 50.603949 
L 289.920131 48.372775 
L 292.339795 45.972777 
L 294.759458 43.38312 
L 297.179122 40.579225 
L 299.598786 37.531868 
L 302.018449 34.205994 
" style="fill:none;stroke:#ffc400;stroke-linecap:round;stroke-width:1.75;"/>
   </g>
   <g id="line2d_60">
    <path clip-path="url(#p907b5c5dd2)" d="M 72.150397 94.245224 
L 74.570061 94.227197 
L 76.989725 94.208759 
L 79.409388 94.17861 
L 81.829052 94.148461 
L 84.248716 94.111416 
L 86.66838 94.068993 
L 89.088043 94.02529 
L 91.507707 93.970387 
L 93.927371 93.915485 
L 96.347034 93.852172 
L 98.766698 93.78454 
L 101.186362 93.713783 
L 103.606026 93.633133 
L 106.025689 93.552484 
L 108.445353 93.460572 
L 110.865017 93.366591 
L 113.28468 93.266071 
L 115.704344 93.158429 
L 118.124008 93.048749 
L 120.543671 92.927113 
L 122.963335 92.805477 
L 125.382999 92.671683 
L 127.802663 92.535725 
L 130.222326 92.391108 
L 132.64199 92.240521 
L 135.061654 92.084304 
L 137.481317 91.918807 
L 139.900981 91.750152 
L 142.320645 91.569502 
L 144.740309 91.38752 
L 147.159972 91.191524 
L 149.579636 90.995297 
L 151.9993 90.783814 
L 154.418963 90.572332 
L 156.838627 90.345377 
L 159.258291 90.117926 
L 161.677954 89.875308 
L 164.097618 89.630961 
L 166.517282 89.372836 
L 168.936946 89.110851 
L 171.356609 88.837358 
L 173.776273 88.55712 
L 176.195937 88.268482 
L 178.6156 87.96954 
L 181.035264 87.666058 
L 183.454928 87.348156 
L 185.874592 87.025257 
L 188.294255 86.693327 
L 190.713919 86.351119 
L 193.133583 86.002835 
L 195.553246 85.644661 
L 197.97291 85.277515 
L 200.392574 84.903784 
L 202.812238 84.522212 
L 205.231901 84.131039 
L 207.651565 83.733507 
L 210.071229 83.329541 
L 212.490892 82.919225 
L 214.910556 82.501779 
L 217.33022 82.079062 
L 219.749883 81.651862 
L 222.169547 81.220848 
L 224.589211 80.786872 
L 227.008875 80.35097 
L 229.428538 79.914363 
L 231.848202 79.478449 
L 234.267866 79.0448 
L 236.687529 78.615156 
L 239.107193 78.191413 
L 241.526857 77.775941 
L 243.946521 77.372441 
L 246.366184 76.982301 
L 248.785848 76.608194 
L 251.205512 76.257374 
L 253.625175 75.929028 
L 256.044839 75.633207 
L 258.464503 75.370605 
L 260.884166 75.147989 
L 263.30383 74.975024 
L 265.723494 74.856192 
L 268.143158 74.799732 
L 270.562821 74.815977 
L 272.982485 74.91558 
L 275.402149 75.105835 
L 277.821812 75.40538 
L 280.241476 75.823315 
L 282.66114 76.375977 
L 285.080804 77.079125 
L 287.500467 77.954542 
L 289.920131 79.018274 
L 292.339795 80.292977 
L 294.759458 81.80186 
L 297.179122 83.569565 
L 299.598786 85.62085 
L 302.018449 87.985303 
L 304.438113 90.68842 
" style="fill:none;stroke:#ffffff;stroke-dasharray:1.000000,3.000000;stroke-dashoffset:0.0;stroke-width:1.75;"/>
   </g>
   <g id="patch_3">
    <path d="M 343.891406 192.74 
L 343.891406 25.34 
" style="fill:none;"/>
   </g>
   <g id="patch_4">
    <path d="M 64.891406 25.34 
L 343.891406 25.34 
" style="fill:none;"/>
   </g>
   <g id="patch_5">
    <path d="M 64.891406 192.74 
L 343.891406 192.74 
" style="fill:none;"/>
   </g>
   <g id="patch_6">
    <path d="M 64.891406 192.74 
L 64.891406 25.34 
" style="fill:none;"/>
   </g>
   <g id="text_22">
    <!-- Before fit: CRW, $\beta = 0.4000$ -->
    <defs>
     <path d="M 7.328125 0 
L 7.328125 71.578125 
L 34.1875 71.578125 
Q 42.390625 71.578125 47.34375 69.40625 
Q 52.296875 67.234375 55.09375 62.71875 
Q 57.90625 58.203125 57.90625 53.265625 
Q 57.90625 48.6875 55.421875 44.625 
Q 52.9375 40.578125 47.90625 38.09375 
Q 54.390625 36.1875 57.875 31.59375 
Q 61.375 27 61.375 20.75 
Q 61.375 15.71875 59.25 11.390625 
Q 57.125 7.078125 54 4.734375 
Q 50.875 2.390625 46.15625 1.1875 
Q 41.453125 0 34.625 0 
z
M 16.796875 41.5 
L 32.28125 41.5 
Q 38.578125 41.5 41.3125 42.328125 
Q 44.921875 43.40625 46.75 45.890625 
Q 48.578125 48.390625 48.578125 52.15625 
Q 48.578125 55.71875 46.875 58.421875 
Q 45.171875 61.140625 41.984375 62.140625 
Q 38.8125 63.140625 31.109375 63.140625 
L 16.796875 63.140625 
z
M 16.796875 8.453125 
L 34.625 8.453125 
Q 39.203125 8.453125 41.0625 8.796875 
Q 44.34375 9.375 46.53125 10.734375 
Q 48.734375 12.109375 50.140625 14.71875 
Q 51.5625 17.328125 51.5625 20.75 
Q 51.5625 24.75 49.515625 27.703125 
Q 47.46875 30.671875 43.828125 31.859375 
Q 40.1875 33.0625 33.34375 33.0625 
L 16.796875 33.0625 
z
" id="ArialMT-42"/>
     <path d="M 8.6875 0 
L 8.6875 45.015625 
L 0.921875 45.015625 
L 0.921875 51.859375 
L 8.6875 51.859375 
L 8.6875 57.375 
Q 8.6875 62.59375 9.625 65.140625 
Q 10.890625 68.5625 14.078125 70.671875 
Q 17.28125 72.796875 23.046875 72.796875 
Q 26.765625 72.796875 31.25 71.921875 
L 29.9375 64.265625 
Q 27.203125 64.75 24.75 64.75 
Q 20.75 64.75 19.09375 63.03125 
Q 17.4375 61.328125 17.4375 56.640625 
L 17.4375 51.859375 
L 27.546875 51.859375 
L 27.546875 45.015625 
L 17.4375 45.015625 
L 17.4375 0 
z
" id="ArialMT-66"/>
     <path id="ArialMT-20"/>
     <path d="M 20.21875 0 
L 1.21875 71.578125 
L 10.9375 71.578125 
L 21.828125 24.65625 
Q 23.578125 17.28125 24.859375 10.015625 
Q 27.59375 21.484375 28.078125 23.25 
L 41.703125 71.578125 
L 53.125 71.578125 
L 63.375 35.359375 
Q 67.234375 21.875 68.953125 10.015625 
Q 70.3125 16.796875 72.515625 25.59375 
L 83.734375 71.578125 
L 93.265625 71.578125 
L 73.640625 0 
L 64.5 0 
L 49.421875 54.546875 
Q 47.515625 61.375 47.171875 62.9375 
Q 46.046875 58.015625 45.0625 54.546875 
L 29.890625 0 
z
" id="ArialMT-57"/>
     <path d="M 25.78125 7.859375 
L 27.046875 0.09375 
Q 23.34375 -0.6875 20.40625 -0.6875 
Q 15.625 -0.6875 12.984375 0.828125 
Q 10.359375 2.34375 9.28125 4.8125 
Q 8.203125 7.28125 8.203125 15.1875 
L 8.203125 45.015625 
L 1.765625 45.015625 
L 1.765625 51.859375 
L 8.203125 51.859375 
L 8.203125 64.703125 
L 16.9375 69.96875 
L 16.9375 51.859375 
L 25.78125 51.859375 
L 25.78125 45.015625 
L 16.9375 45.015625 
L 16.9375 14.703125 
Q 16.9375 10.9375 17.40625 9.859375 
Q 17.875 8.796875 18.921875 8.15625 
Q 19.96875 7.515625 21.921875 7.515625 
Q 23.390625 7.515625 25.78125 7.859375 
" id="ArialMT-74"/>
     <path d="M 6.5 0 
L 6.5 51.859375 
L 14.40625 51.859375 
L 14.40625 44 
Q 17.4375 49.515625 20 51.265625 
Q 22.5625 53.03125 25.640625 53.03125 
Q 30.078125 53.03125 34.671875 50.203125 
L 31.640625 42.046875 
Q 28.421875 43.953125 25.203125 43.953125 
Q 22.3125 43.953125 20.015625 42.21875 
Q 17.71875 40.484375 16.75 37.40625 
Q 15.28125 32.71875 15.28125 27.15625 
L 15.28125 0 
z
" id="ArialMT-72"/>
     <path d="M 42.09375 16.703125 
L 51.171875 15.578125 
Q 49.03125 7.625 43.21875 3.21875 
Q 37.40625 -1.171875 28.375 -1.171875 
Q 17 -1.171875 10.328125 5.828125 
Q 3.65625 12.84375 3.65625 25.484375 
Q 3.65625 38.578125 10.390625 45.796875 
Q 17.140625 53.03125 27.875 53.03125 
Q 38.28125 53.03125 44.875 45.953125 
Q 51.46875 38.875 51.46875 26.03125 
Q 51.46875 25.25 51.421875 23.6875 
L 12.75 23.6875 
Q 13.234375 15.140625 17.578125 10.59375 
Q 21.921875 6.0625 28.421875 6.0625 
Q 33.25 6.0625 36.671875 8.59375 
Q 40.09375 11.140625 42.09375 16.703125 
M 13.234375 30.90625 
L 42.1875 30.90625 
Q 41.609375 37.453125 38.875 40.71875 
Q 34.671875 45.796875 27.984375 45.796875 
Q 21.921875 45.796875 17.796875 41.75 
Q 13.671875 37.703125 13.234375 30.90625 
" id="ArialMT-65"/>
     <path d="M 3.328125 25.921875 
Q 3.328125 40.328125 11.328125 47.265625 
Q 18.015625 53.03125 27.640625 53.03125 
Q 38.328125 53.03125 45.109375 46.015625 
Q 51.90625 39.015625 51.90625 26.65625 
Q 51.90625 16.65625 48.90625 10.90625 
Q 45.90625 5.171875 40.15625 2 
Q 34.421875 -1.171875 27.640625 -1.171875 
Q 16.75 -1.171875 10.03125 5.8125 
Q 3.328125 12.796875 3.328125 25.921875 
M 12.359375 25.921875 
Q 12.359375 15.96875 16.703125 11.015625 
Q 21.046875 6.0625 27.640625 6.0625 
Q 34.1875 6.0625 38.53125 11.03125 
Q 42.875 16.015625 42.875 26.21875 
Q 42.875 35.84375 38.5 40.796875 
Q 34.125 45.75 27.640625 45.75 
Q 21.046875 45.75 16.703125 40.8125 
Q 12.359375 35.890625 12.359375 25.921875 
" id="ArialMT-6f"/>
     <path d="M 25 -2.203125 
Q 12.75 -2.203125 8.328125 7.875 
Q 3.90625 17.96875 3.90625 31.890625 
Q 3.90625 40.578125 5.484375 48.234375 
Q 7.078125 55.90625 11.78125 61.25 
Q 16.5 66.609375 25 66.609375 
Q 31.59375 66.609375 35.78125 63.375 
Q 39.984375 60.15625 42.1875 55.046875 
Q 44.390625 49.953125 45.1875 44.109375 
Q 46 38.28125 46 31.890625 
Q 46 23.296875 44.40625 15.796875 
Q 42.828125 8.296875 38.1875 3.046875 
Q 33.546875 -2.203125 25 -2.203125 
M 25 0.390625 
Q 30.5625 0.390625 33.296875 6.09375 
Q 36.03125 11.8125 36.671875 18.75 
Q 37.3125 25.6875 37.3125 33.5 
Q 37.3125 41.015625 36.671875 47.359375 
Q 36.03125 53.71875 33.3125 58.859375 
Q 30.609375 64.015625 25 64.015625 
Q 19.34375 64.015625 16.609375 58.828125 
Q 13.875 53.65625 13.234375 47.328125 
Q 12.59375 41.015625 12.59375 33.5 
Q 12.59375 27.9375 12.859375 23 
Q 13.140625 18.0625 14.3125 12.8125 
Q 15.484375 7.5625 18.09375 3.96875 
Q 20.703125 0.390625 25 0.390625 
" id="Cmr10-30"/>
     <path d="M 9.03125 41.84375 
L 9.03125 51.859375 
L 19.046875 51.859375 
L 19.046875 41.84375 
z
M 9.03125 0 
L 9.03125 10.015625 
L 19.046875 10.015625 
L 19.046875 0 
z
" id="ArialMT-3a"/>
     <path d="M 8.40625 5.515625 
Q 8.40625 7.765625 10.0625 9.375 
Q 11.71875 10.984375 13.921875 10.984375 
Q 15.28125 10.984375 16.59375 10.25 
Q 17.921875 9.515625 18.65625 8.203125 
Q 19.390625 6.890625 19.390625 5.515625 
Q 19.390625 3.328125 17.765625 1.65625 
Q 16.15625 0 13.921875 0 
Q 11.71875 0 10.0625 1.65625 
Q 8.40625 3.328125 8.40625 5.515625 
" id="Cmmi10-3a"/>
     <path d="M 7.515625 13.28125 
Q 6.6875 13.28125 6.140625 13.90625 
Q 5.609375 14.546875 5.609375 15.28125 
Q 5.609375 16.109375 6.140625 16.6875 
Q 6.6875 17.28125 7.515625 17.28125 
L 70.3125 17.28125 
Q 71.046875 17.28125 71.578125 16.6875 
Q 72.125 16.109375 72.125 15.28125 
Q 72.125 14.546875 71.578125 13.90625 
Q 71.046875 13.28125 70.3125 13.28125 
z
M 7.515625 32.71875 
Q 6.6875 32.71875 6.140625 33.296875 
Q 5.609375 33.890625 5.609375 34.71875 
Q 5.609375 35.453125 6.140625 36.078125 
Q 6.6875 36.71875 7.515625 36.71875 
L 70.3125 36.71875 
Q 71.046875 36.71875 71.578125 36.078125 
Q 72.125 35.453125 72.125 34.71875 
Q 72.125 33.890625 71.578125 33.296875 
Q 71.046875 32.71875 70.3125 32.71875 
z
" id="Cmr10-3d"/>
     <path d="M 7.859375 0 
L 7.859375 71.578125 
L 39.59375 71.578125 
Q 49.171875 71.578125 54.140625 69.640625 
Q 59.125 67.71875 62.109375 62.828125 
Q 65.09375 57.953125 65.09375 52.046875 
Q 65.09375 44.4375 60.15625 39.203125 
Q 55.21875 33.984375 44.921875 32.5625 
Q 48.6875 30.765625 50.640625 29 
Q 54.78125 25.203125 58.5 19.484375 
L 70.953125 0 
L 59.03125 0 
L 49.5625 14.890625 
Q 45.40625 21.34375 42.71875 24.75 
Q 40.046875 28.171875 37.921875 29.53125 
Q 35.796875 30.90625 33.59375 31.453125 
Q 31.984375 31.78125 28.328125 31.78125 
L 17.328125 31.78125 
L 17.328125 0 
z
M 17.328125 39.984375 
L 37.703125 39.984375 
Q 44.1875 39.984375 47.84375 41.328125 
Q 51.515625 42.671875 53.421875 45.625 
Q 55.328125 48.578125 55.328125 52.046875 
Q 55.328125 57.125 51.640625 60.390625 
Q 47.953125 63.671875 39.984375 63.671875 
L 17.328125 63.671875 
z
" id="ArialMT-52"/>
     <path d="M 58.796875 25.09375 
L 68.265625 22.703125 
Q 65.28125 11.03125 57.546875 4.90625 
Q 49.8125 -1.21875 38.625 -1.21875 
Q 27.046875 -1.21875 19.796875 3.484375 
Q 12.546875 8.203125 8.765625 17.140625 
Q 4.984375 26.078125 4.984375 36.328125 
Q 4.984375 47.515625 9.25 55.828125 
Q 13.53125 64.15625 21.40625 68.46875 
Q 29.296875 72.796875 38.765625 72.796875 
Q 49.515625 72.796875 56.828125 67.328125 
Q 64.15625 61.859375 67.046875 51.953125 
L 57.71875 49.75 
Q 55.21875 57.5625 50.484375 61.125 
Q 45.75 64.703125 38.578125 64.703125 
Q 30.328125 64.703125 24.78125 60.734375 
Q 19.234375 56.78125 16.984375 50.109375 
Q 14.75 43.453125 14.75 36.375 
Q 14.75 27.25 17.40625 20.4375 
Q 20.0625 13.625 25.671875 10.25 
Q 31.296875 6.890625 37.84375 6.890625 
Q 45.796875 6.890625 51.3125 11.46875 
Q 56.84375 16.0625 58.796875 25.09375 
" id="ArialMT-43"/>
     <path d="M 2.78125 16.5 
L 2.78125 20.015625 
L 33.6875 66.109375 
Q 34.03125 66.609375 34.71875 66.609375 
L 36.1875 66.609375 
Q 37.3125 66.609375 37.3125 65.484375 
L 37.3125 20.015625 
L 47.125 20.015625 
L 47.125 16.5 
L 37.3125 16.5 
L 37.3125 6.6875 
Q 37.3125 4.640625 40.234375 4.078125 
Q 43.171875 3.515625 47.015625 3.515625 
L 47.015625 0 
L 19.484375 0 
L 19.484375 3.515625 
Q 23.34375 3.515625 26.265625 4.078125 
Q 29.203125 4.640625 29.203125 6.6875 
L 29.203125 16.5 
z
M 6.109375 20.015625 
L 29.78125 20.015625 
L 29.78125 55.421875 
z
" id="Cmr10-34"/>
     <path d="M 8.890625 0 
L 8.890625 10.015625 
L 18.890625 10.015625 
L 18.890625 0 
Q 18.890625 -5.515625 16.9375 -8.90625 
Q 14.984375 -12.3125 10.75 -14.15625 
L 8.296875 -10.40625 
Q 11.078125 -9.1875 12.390625 -6.8125 
Q 13.71875 -4.4375 13.875 0 
z
" id="ArialMT-2c"/>
     <path d="M 6.640625 61.46875 
L 6.640625 71.578125 
L 15.4375 71.578125 
L 15.4375 61.46875 
z
M 6.640625 0 
L 6.640625 51.859375 
L 15.4375 51.859375 
L 15.4375 0 
z
" id="ArialMT-69"/>
     <path d="M 2.6875 -19.390625 
Q 2.390625 -19.390625 2.140625 -19.046875 
Q 1.90625 -18.703125 1.90625 -18.40625 
L 17.28125 43.40625 
Q 18.609375 48.390625 21.140625 53.078125 
Q 23.6875 57.765625 27.515625 61.796875 
Q 31.34375 65.828125 35.9375 68.171875 
Q 40.53125 70.515625 45.703125 70.515625 
Q 49.421875 70.515625 52.421875 68.875 
Q 55.421875 67.234375 57.15625 64.28125 
Q 58.890625 61.328125 58.890625 57.625 
Q 58.890625 54.046875 57.515625 50.796875 
Q 56.15625 47.5625 53.703125 44.75 
Q 51.265625 41.9375 48.484375 40.1875 
Q 50.09375 39.15625 51.359375 37.5625 
Q 52.640625 35.984375 53.421875 34.25 
Q 54.203125 32.515625 54.640625 30.390625 
Q 55.078125 28.265625 55.078125 26.421875 
Q 55.078125 21.296875 52.875 16.3125 
Q 50.6875 11.328125 46.890625 7.265625 
Q 43.109375 3.21875 38.21875 0.84375 
Q 33.34375 -1.515625 28.21875 -1.515625 
Q 22.609375 -1.515625 18.109375 1.5625 
Q 13.625 4.640625 11.921875 9.90625 
L 4.6875 -18.796875 
Q 4.6875 -19.390625 3.90625 -19.390625 
z
M 28.421875 1.21875 
Q 32.90625 1.21875 36.546875 4.171875 
Q 40.1875 7.125 42.546875 11.59375 
Q 44.921875 16.0625 46.15625 21.0625 
Q 47.40625 26.078125 47.40625 30.171875 
Q 47.40625 35.25 44.484375 38.1875 
Q 41.0625 36.921875 37.796875 36.921875 
Q 29.890625 36.921875 29.890625 39.59375 
Q 29.890625 43.109375 38.921875 43.109375 
Q 42.140625 43.109375 44.828125 42.09375 
Q 46.96875 43.75 48.71875 46.96875 
Q 50.484375 50.203125 51.390625 53.71875 
Q 52.296875 57.234375 52.296875 60.296875 
Q 52.296875 63.578125 50.5625 65.75 
Q 48.828125 67.921875 45.515625 67.921875 
Q 39.40625 67.921875 34.15625 64.15625 
Q 28.90625 60.40625 25.296875 54.65625 
Q 21.6875 48.921875 20.125 42.828125 
L 14.59375 20.703125 
Q 14.0625 18.40625 13.921875 15.578125 
Q 13.921875 9.328125 18.015625 5.265625 
Q 22.125 1.21875 28.421875 1.21875 
M 32.90625 39.890625 
Q 34.421875 39.5 37.890625 39.5 
Q 39.59375 39.5 41.3125 40.09375 
Q 41.21875 40.1875 40.921875 40.1875 
Q 39.84375 40.484375 38.625 40.484375 
Q 34.078125 40.484375 32.90625 39.890625 
" id="Cmmi10-af"/>
    </defs>
    <g style="fill:#d9d9d9;" transform="translate(95.04140625 20.34)scale(0.18 -0.18)">
     <use transform="translate(0.0 0.203125)" xlink:href="#ArialMT-42"/>
     <use transform="translate(66.69921875 0.203125)" xlink:href="#ArialMT-65"/>
     <use transform="translate(122.314453125 0.203125)" xlink:href="#ArialMT-66"/>
     <use transform="translate(150.09765625 0.203125)" xlink:href="#ArialMT-6f"/>
     <use transform="translate(205.712890625 0.203125)" xlink:href="#ArialMT-72"/>
     <use transform="translate(239.013671875 0.203125)" xlink:href="#ArialMT-65"/>
     <use transform="translate(294.62890625 0.203125)" xlink:href="#ArialMT-20"/>
     <use transform="translate(322.412109375 0.203125)" xlink:href="#ArialMT-66"/>
     <use transform="translate(350.1953125 0.203125)" xlink:href="#ArialMT-69"/>
     <use transform="translate(372.412109375 0.203125)" xlink:href="#ArialMT-74"/>
     <use transform="translate(400.1953125 0.203125)" xlink:href="#ArialMT-3a"/>
     <use transform="translate(427.978515625 0.203125)" xlink:href="#ArialMT-20"/>
     <use transform="translate(455.76171875 0.203125)" xlink:href="#ArialMT-43"/>
     <use transform="translate(527.978515625 0.203125)" xlink:href="#ArialMT-52"/>
     <use transform="translate(600.1953125 0.203125)" xlink:href="#ArialMT-57"/>
     <use transform="translate(694.580078125 0.203125)" xlink:href="#ArialMT-2c"/>
     <use transform="translate(722.36328125 0.203125)" xlink:href="#ArialMT-20"/>
     <use transform="translate(750.146484375 0.203125)" xlink:href="#Cmmi10-af"/>
     <use transform="translate(824.19921875 0.203125)" xlink:href="#Cmr10-3d"/>
     <use transform="translate(919.443359375 0.203125)" xlink:href="#Cmr10-30"/>
     <use transform="translate(969.443359375 0.203125)" xlink:href="#Cmmi10-3a"/>
     <use transform="translate(1014.6875 0.203125)" xlink:href="#Cmr10-34"/>
     <use transform="translate(1064.6875 0.203125)" xlink:href="#Cmr10-30"/>
     <use transform="translate(1114.6875 0.203125)" xlink:href="#Cmr10-30"/>
     <use transform="translate(1164.6875 0.203125)" xlink:href="#Cmr10-30"/>
    </g>
   </g>
  </g>
 </g>
 <defs>
  <clipPath id="p907b5c5dd2">
   <rect height="167.4" width="279.0" x="64.89140625" y="25.34"/>
  </clipPath>
 </defs>
</svg>
