<?xml version="1.0" encoding="utf-8" standalone="no"?>
<!DOCTYPE svg PUBLIC "-//W3C//DTD SVG 1.1//EN"
  "http://www.w3.org/Graphics/SVG/1.1/DTD/svg11.dtd">
<!-- Created with matplotlib (http://matplotlib.org/) -->
<svg height="237pt" version="1.1" viewBox="0 0 365 237" width="365pt" xmlns="http://www.w3.org/2000/svg" xmlns:xlink="http://www.w3.org/1999/xlink">
 <defs>
  <style type="text/css">
*{stroke-linecap:butt;stroke-linejoin:round;}
  </style>
 </defs>
 <g id="figure_1">
  <g id="patch_1">
   <path d="M 0 237.147734 
L 365.784219 237.147734 
L 365.784219 0 
L 0 0 
z
" style="fill:#3f3f3f;"/>
  </g>
  <g id="axes_1">
   <g id="patch_2">
    <path d="M 79.584219 190.14 
L 358.584219 190.14 
L 358.584219 27.06 
L 79.584219 27.06 
z
" style="fill:#504040;"/>
   </g>
   <g id="matplotlib.axis_1">
    <g id="xtick_1">
     <g id="line2d_1">
      <path clip-path="url(#p4d0b986bdb)" d="M 79.584219 190.14 
L 79.584219 27.06 
" style="fill:none;stroke:#808080;stroke-linecap:round;"/>
     </g>
     <g id="line2d_2"/>
     <g id="text_1">
      <!-- 0 -->
      <defs>
       <path d="M 4.15625 35.296875 
Q 4.15625 48 6.765625 55.734375 
Q 9.375 63.484375 14.515625 67.671875 
Q 19.671875 71.875 27.484375 71.875 
Q 33.25 71.875 37.59375 69.546875 
Q 41.9375 67.234375 44.765625 62.859375 
Q 47.609375 58.5 49.21875 52.21875 
Q 50.828125 45.953125 50.828125 35.296875 
Q 50.828125 22.703125 48.234375 14.96875 
Q 45.65625 7.234375 40.5 3 
Q 35.359375 -1.21875 27.484375 -1.21875 
Q 17.140625 -1.21875 11.234375 6.203125 
Q 4.15625 15.140625 4.15625 35.296875 
M 13.1875 35.296875 
Q 13.1875 17.671875 17.3125 11.828125 
Q 21.4375 6 27.484375 6 
Q 33.546875 6 37.671875 11.859375 
Q 41.796875 17.71875 41.796875 35.296875 
Q 41.796875 52.984375 37.671875 58.78125 
Q 33.546875 64.59375 27.390625 64.59375 
Q 21.34375 64.59375 17.71875 59.46875 
Q 13.1875 52.9375 13.1875 35.296875 
" id="ArialMT-30"/>
      </defs>
      <g style="fill:#d9d9d9;" transform="translate(75.413516 207.876719)scale(0.15 -0.15)">
       <use xlink:href="#ArialMT-30"/>
      </g>
     </g>
    </g>
    <g id="xtick_2">
     <g id="line2d_3">
      <path clip-path="url(#p4d0b986bdb)" d="M 157.084219 190.14 
L 157.084219 27.06 
" style="fill:none;stroke:#808080;stroke-linecap:round;"/>
     </g>
     <g id="line2d_4"/>
     <g id="text_2">
      <!-- 50 -->
      <defs>
       <path d="M 4.15625 18.75 
L 13.375 19.53125 
Q 14.40625 12.796875 18.140625 9.390625 
Q 21.875 6 27.15625 6 
Q 33.5 6 37.890625 10.78125 
Q 42.28125 15.578125 42.28125 23.484375 
Q 42.28125 31 38.0625 35.34375 
Q 33.84375 39.703125 27 39.703125 
Q 22.75 39.703125 19.328125 37.765625 
Q 15.921875 35.84375 13.96875 32.765625 
L 5.71875 33.84375 
L 12.640625 70.609375 
L 48.25 70.609375 
L 48.25 62.203125 
L 19.671875 62.203125 
L 15.828125 42.96875 
Q 22.265625 47.46875 29.34375 47.46875 
Q 38.71875 47.46875 45.15625 40.96875 
Q 51.609375 34.46875 51.609375 24.265625 
Q 51.609375 14.546875 45.953125 7.46875 
Q 39.0625 -1.21875 27.15625 -1.21875 
Q 17.390625 -1.21875 11.203125 4.25 
Q 5.03125 9.71875 4.15625 18.75 
" id="ArialMT-35"/>
      </defs>
      <g style="fill:#d9d9d9;" transform="translate(148.742812 207.876719)scale(0.15 -0.15)">
       <use xlink:href="#ArialMT-35"/>
       <use x="55.615234" xlink:href="#ArialMT-30"/>
      </g>
     </g>
    </g>
    <g id="xtick_3">
     <g id="line2d_5">
      <path clip-path="url(#p4d0b986bdb)" d="M 234.584219 190.14 
L 234.584219 27.06 
" style="fill:none;stroke:#808080;stroke-linecap:round;"/>
     </g>
     <g id="line2d_6"/>
     <g id="text_3">
      <!-- 100 -->
      <defs>
       <path d="M 37.25 0 
L 28.46875 0 
L 28.46875 56 
Q 25.296875 52.984375 20.140625 49.953125 
Q 14.984375 46.921875 10.890625 45.40625 
L 10.890625 53.90625 
Q 18.265625 57.375 23.78125 62.296875 
Q 29.296875 67.234375 31.59375 71.875 
L 37.25 71.875 
z
" id="ArialMT-31"/>
      </defs>
      <g style="fill:#d9d9d9;" transform="translate(222.072109 207.876719)scale(0.15 -0.15)">
       <use xlink:href="#ArialMT-31"/>
       <use x="55.615234" xlink:href="#ArialMT-30"/>
       <use x="111.230469" xlink:href="#ArialMT-30"/>
      </g>
     </g>
    </g>
    <g id="xtick_4">
     <g id="line2d_7">
      <path clip-path="url(#p4d0b986bdb)" d="M 312.084219 190.14 
L 312.084219 27.06 
" style="fill:none;stroke:#808080;stroke-linecap:round;"/>
     </g>
     <g id="line2d_8"/>
     <g id="text_4">
      <!-- 150 -->
      <g style="fill:#d9d9d9;" transform="translate(299.572109 207.876719)scale(0.15 -0.15)">
       <use xlink:href="#ArialMT-31"/>
       <use x="55.615234" xlink:href="#ArialMT-35"/>
       <use x="111.230469" xlink:href="#ArialMT-30"/>
      </g>
     </g>
    </g>
    <g id="text_5">
     <!-- $\theta$ -->
     <defs>
      <path d="M 45.515625 34.671875 
L 14.453125 34.671875 
Q 12.359375 20.0625 14.5 13.875 
Q 17.1875 6.25 24.46875 6.25 
Q 31.78125 6.25 37.359375 13.921875 
Q 42.234375 20.65625 45.515625 34.671875 
M 47.015625 42.96875 
Q 48.34375 56.84375 46.625 61.71875 
Q 43.953125 69.4375 36.765625 69.4375 
Q 29.296875 69.4375 23.828125 61.8125 
Q 19.53125 55.671875 16.15625 42.96875 
z
M 38.1875 76.765625 
Q 49.90625 76.765625 54.59375 66.40625 
Q 59.28125 56.109375 55.71875 37.84375 
Q 52.203125 19.625 43.453125 9.28125 
Q 34.765625 -1.125 23.046875 -1.125 
Q 11.28125 -1.125 6.640625 9.28125 
Q 2 19.625 5.515625 37.84375 
Q 9.078125 56.109375 17.71875 66.40625 
Q 26.421875 76.765625 38.1875 76.765625 
" id="DejaVuSans-Oblique-3b8"/>
     </defs>
     <g style="fill:#d9d9d9;" transform="translate(213.969219 226.668359)scale(0.165 -0.165)">
      <use transform="translate(0 0.234375)" xlink:href="#DejaVuSans-Oblique-3b8"/>
     </g>
    </g>
   </g>
   <g id="matplotlib.axis_2">
    <g id="ytick_1">
     <g id="line2d_9">
      <path clip-path="url(#p4d0b986bdb)" d="M 79.584219 183.716359 
L 358.584219 183.716359 
" style="fill:none;stroke:#808080;stroke-linecap:round;"/>
     </g>
     <g id="line2d_10"/>
     <g id="text_6">
      <!-- 0.0000 -->
      <defs>
       <path d="M 9.078125 0 
L 9.078125 10.015625 
L 19.09375 10.015625 
L 19.09375 0 
z
" id="ArialMT-2e"/>
      </defs>
      <g style="fill:#d9d9d9;" transform="translate(26.71 189.084718)scale(0.15 -0.15)">
       <use xlink:href="#ArialMT-30"/>
       <use x="55.615234" xlink:href="#ArialMT-2e"/>
       <use x="83.398438" xlink:href="#ArialMT-30"/>
       <use x="139.013672" xlink:href="#ArialMT-30"/>
       <use x="194.628906" xlink:href="#ArialMT-30"/>
       <use x="250.244141" xlink:href="#ArialMT-30"/>
      </g>
     </g>
    </g>
    <g id="ytick_2">
     <g id="line2d_11">
      <path clip-path="url(#p4d0b986bdb)" d="M 79.584219 146.356657 
L 358.584219 146.356657 
" style="fill:none;stroke:#808080;stroke-linecap:round;"/>
     </g>
     <g id="line2d_12"/>
     <g id="text_7">
      <!-- 0.0025 -->
      <defs>
       <path d="M 50.34375 8.453125 
L 50.34375 0 
L 3.03125 0 
Q 2.9375 3.171875 4.046875 6.109375 
Q 5.859375 10.9375 9.828125 15.625 
Q 13.8125 20.3125 21.34375 26.46875 
Q 33.015625 36.03125 37.109375 41.625 
Q 41.21875 47.21875 41.21875 52.203125 
Q 41.21875 57.421875 37.46875 61 
Q 33.734375 64.59375 27.734375 64.59375 
Q 21.390625 64.59375 17.578125 60.78125 
Q 13.765625 56.984375 13.71875 50.25 
L 4.6875 51.171875 
Q 5.609375 61.28125 11.65625 66.578125 
Q 17.71875 71.875 27.9375 71.875 
Q 38.234375 71.875 44.234375 66.15625 
Q 50.25 60.453125 50.25 52 
Q 50.25 47.703125 48.484375 43.546875 
Q 46.734375 39.40625 42.65625 34.8125 
Q 38.578125 30.21875 29.109375 22.21875 
Q 21.1875 15.578125 18.9375 13.203125 
Q 16.703125 10.84375 15.234375 8.453125 
z
" id="ArialMT-32"/>
      </defs>
      <g style="fill:#d9d9d9;" transform="translate(26.71 151.725016)scale(0.15 -0.15)">
       <use xlink:href="#ArialMT-30"/>
       <use x="55.615234" xlink:href="#ArialMT-2e"/>
       <use x="83.398438" xlink:href="#ArialMT-30"/>
       <use x="139.013672" xlink:href="#ArialMT-30"/>
       <use x="194.628906" xlink:href="#ArialMT-32"/>
       <use x="250.244141" xlink:href="#ArialMT-35"/>
      </g>
     </g>
    </g>
    <g id="ytick_3">
     <g id="line2d_13">
      <path clip-path="url(#p4d0b986bdb)" d="M 79.584219 108.996955 
L 358.584219 108.996955 
" style="fill:none;stroke:#808080;stroke-linecap:round;"/>
     </g>
     <g id="line2d_14"/>
     <g id="text_8">
      <!-- 0.0050 -->
      <g style="fill:#d9d9d9;" transform="translate(26.71 114.365314)scale(0.15 -0.15)">
       <use xlink:href="#ArialMT-30"/>
       <use x="55.615234" xlink:href="#ArialMT-2e"/>
       <use x="83.398438" xlink:href="#ArialMT-30"/>
       <use x="139.013672" xlink:href="#ArialMT-30"/>
       <use x="194.628906" xlink:href="#ArialMT-35"/>
       <use x="250.244141" xlink:href="#ArialMT-30"/>
      </g>
     </g>
    </g>
    <g id="ytick_4">
     <g id="line2d_15">
      <path clip-path="url(#p4d0b986bdb)" d="M 79.584219 71.637253 
L 358.584219 71.637253 
" style="fill:none;stroke:#808080;stroke-linecap:round;"/>
     </g>
     <g id="line2d_16"/>
     <g id="text_9">
      <!-- 0.0075 -->
      <defs>
       <path d="M 4.734375 62.203125 
L 4.734375 70.65625 
L 51.078125 70.65625 
L 51.078125 63.8125 
Q 44.234375 56.546875 37.515625 44.484375 
Q 30.8125 32.421875 27.15625 19.671875 
Q 24.515625 10.6875 23.78125 0 
L 14.75 0 
Q 14.890625 8.453125 18.0625 20.40625 
Q 21.234375 32.375 27.171875 43.484375 
Q 33.109375 54.59375 39.796875 62.203125 
z
" id="ArialMT-37"/>
      </defs>
      <g style="fill:#d9d9d9;" transform="translate(26.71 77.005612)scale(0.15 -0.15)">
       <use xlink:href="#ArialMT-30"/>
       <use x="55.615234" xlink:href="#ArialMT-2e"/>
       <use x="83.398438" xlink:href="#ArialMT-30"/>
       <use x="139.013672" xlink:href="#ArialMT-30"/>
       <use x="194.628906" xlink:href="#ArialMT-37"/>
       <use x="250.244141" xlink:href="#ArialMT-35"/>
      </g>
     </g>
    </g>
    <g id="ytick_5">
     <g id="line2d_17">
      <path clip-path="url(#p4d0b986bdb)" d="M 79.584219 34.277551 
L 358.584219 34.277551 
" style="fill:none;stroke:#808080;stroke-linecap:round;"/>
     </g>
     <g id="line2d_18"/>
     <g id="text_10">
      <!-- 0.0100 -->
      <g style="fill:#d9d9d9;" transform="translate(26.71 39.64591)scale(0.15 -0.15)">
       <use xlink:href="#ArialMT-30"/>
       <use x="55.615234" xlink:href="#ArialMT-2e"/>
       <use x="83.398438" xlink:href="#ArialMT-30"/>
       <use x="139.013672" xlink:href="#ArialMT-31"/>
       <use x="194.628906" xlink:href="#ArialMT-30"/>
       <use x="250.244141" xlink:href="#ArialMT-30"/>
      </g>
     </g>
    </g>
    <g id="text_11">
     <!-- $\theta_1/\theta$ -->
     <defs>
      <path d="M 12.40625 8.296875 
L 28.515625 8.296875 
L 28.515625 63.921875 
L 10.984375 60.40625 
L 10.984375 69.390625 
L 28.421875 72.90625 
L 38.28125 72.90625 
L 38.28125 8.296875 
L 54.390625 8.296875 
L 54.390625 0 
L 12.40625 0 
z
" id="DejaVuSans-31"/>
      <path d="M 25.390625 72.90625 
L 33.6875 72.90625 
L 8.296875 -9.28125 
L 0 -9.28125 
z
" id="DejaVuSans-2f"/>
     </defs>
     <g style="fill:#d9d9d9;" transform="translate(19.430625 125.43)rotate(-90)scale(0.165 -0.165)">
      <use transform="translate(0 0.234375)" xlink:href="#DejaVuSans-Oblique-3b8"/>
      <use transform="translate(61.181641 -16.171875)scale(0.7)" xlink:href="#DejaVuSans-31"/>
      <use transform="translate(108.452148 0.234375)" xlink:href="#DejaVuSans-2f"/>
      <use transform="translate(142.143555 0.234375)" xlink:href="#DejaVuSans-Oblique-3b8"/>
     </g>
    </g>
   </g>
   <g id="line2d_19">
    <path clip-path="url(#p4d0b986bdb)" d="M 0 0 
" style="fill:none;stroke:#00d7ff;stroke-linecap:round;stroke-width:1.75;"/>
   </g>
   <g id="line2d_20">
    <path clip-path="url(#p4d0b986bdb)" d="M 0 0 
" style="fill:none;stroke:#03ed3a;stroke-dasharray:5.6,2.4;stroke-dashoffset:0;"/>
   </g>
   <g id="line2d_21">
    <path clip-path="url(#p4d0b986bdb)" d="M 82.383488 34.472769 
L 85.182757 35.055189 
L 87.982027 36.015212 
L 90.781296 37.337177 
L 93.580566 38.999845 
L 96.379835 40.977059 
L 99.179104 43.238538 
L 101.978374 45.750777 
L 104.777643 48.478016 
L 107.576912 51.383249 
L 110.376182 54.429205 
L 113.175451 57.579291 
L 115.97472 60.79845 
L 118.77399 64.053891 
L 121.573259 67.315692 
L 124.372529 70.557236 
L 127.171798 73.755489 
L 129.971067 76.891121 
L 132.770337 79.948475 
L 135.569606 82.915406 
L 138.368875 85.783024 
L 141.168145 88.545355 
L 143.967414 91.198957 
L 146.766683 93.742522 
L 149.565953 96.176474 
L 152.365222 98.502597 
L 155.164492 100.7237 
L 157.963761 102.843321 
L 160.76303 104.865485 
L 163.5623 106.794507 
L 166.361569 108.634832 
L 169.160838 110.390923 
L 171.960108 112.067174 
L 174.759377 113.667851 
L 177.558646 115.197051 
L 180.357916 116.65868 
L 183.157185 118.056439 
L 185.956455 119.39382 
L 188.755724 120.674107 
L 191.554993 121.900378 
L 194.354263 123.075519 
L 197.153532 124.202226 
L 199.952801 125.283016 
L 202.752071 126.320239 
L 205.55134 127.316089 
L 208.350609 128.272606 
L 211.149879 129.191697 
L 213.949148 130.075132 
L 216.748418 130.924562 
L 219.547687 131.741523 
L 222.346956 132.527441 
L 225.146226 133.283641 
L 227.945495 134.011354 
L 230.744764 134.711716 
L 233.544034 135.385783 
L 236.343303 136.034524 
L 239.142572 136.658832 
L 241.941842 137.259525 
L 244.741111 137.837348 
L 247.540381 138.392974 
L 250.33965 138.927009 
L 253.138919 139.439989 
L 255.938189 139.932381 
L 258.737458 140.404582 
L 261.536727 140.856921 
L 264.335997 141.289653 
L 267.135266 141.702955 
L 269.934535 142.096926 
L 272.733805 142.471577 
L 275.533074 142.826827 
L 278.332344 143.162489 
L 281.131613 143.478265 
L 283.930882 143.773723 
L 286.730152 144.048285 
L 289.529421 144.301203 
L 292.32869 144.531527 
L 295.12796 144.73807 
L 297.927229 144.919362 
L 300.726498 145.073591 
L 303.525768 145.198522 
L 306.325037 145.291402 
L 309.124307 145.348821 
L 311.923576 145.366537 
L 314.722845 145.339234 
L 317.522115 145.260184 
L 320.321384 145.120775 
L 323.120653 144.909831 
L 325.919923 144.612611 
L 328.719192 144.209275 
L 331.518461 143.672497 
L 334.317731 142.96355 
L 337.117 142.025604 
L 339.91627 140.771571 
L 342.715539 139.060371 
L 345.514808 136.646004 
L 348.314078 133.053248 
L 351.113347 127.211564 
L 353.912616 115.988034 
" style="fill:none;stroke:#ffc400;stroke-linecap:round;stroke-width:1.75;"/>
   </g>
   <g id="line2d_22">
    <path clip-path="url(#p4d0b986bdb)" d="M 82.383488 34.472727 
L 85.182757 35.053609 
L 87.982027 36.007039 
L 90.781296 37.312246 
L 93.580566 38.941319 
L 96.379835 40.861866 
L 99.179104 43.037845 
L 101.978374 45.431279 
L 104.777643 48.004317 
L 107.576912 50.719999 
L 110.376182 53.543479 
L 113.175451 56.442785 
L 115.97472 59.389094 
L 118.77399 62.357133 
L 121.573259 65.325074 
L 124.372529 68.274502 
L 127.171798 71.190153 
L 129.971067 74.059627 
L 132.770337 76.873164 
L 135.569606 79.623126 
L 138.368875 82.303985 
L 141.168145 84.911839 
L 143.967414 87.443914 
L 146.766683 89.899013 
L 149.565953 92.276615 
L 152.365222 94.576909 
L 155.164492 96.800876 
L 157.963761 98.949961 
L 160.76303 101.025688 
L 163.5623 103.030337 
L 166.361569 104.965822 
L 169.160838 106.834717 
L 171.960108 108.639449 
L 174.759377 110.382316 
L 177.558646 112.06594 
L 180.357916 113.692841 
L 183.157185 115.265559 
L 185.956455 116.786171 
L 188.755724 118.257319 
L 191.554993 119.681285 
L 194.354263 121.060309 
L 197.153532 122.396486 
L 199.952801 123.691862 
L 202.752071 124.948638 
L 205.55134 126.168818 
L 208.350609 127.353983 
L 211.149879 128.506269 
L 213.949148 129.627361 
L 216.748418 130.718876 
L 219.547687 131.782686 
L 222.346956 132.820103 
L 225.146226 133.833018 
L 227.945495 134.822669 
L 230.744764 135.790757 
L 233.544034 136.738676 
L 236.343303 137.667788 
L 239.142572 138.579626 
L 241.941842 139.475557 
L 244.741111 140.356914 
L 247.540381 141.225121 
L 250.33965 142.081585 
L 253.138919 142.927703 
L 255.938189 143.764863 
L 258.737458 144.594517 
L 261.536727 145.418151 
L 264.335997 146.237232 
L 267.135266 147.053328 
L 269.934535 147.868022 
L 272.733805 148.682969 
L 275.533074 149.499894 
L 278.332344 150.320578 
L 281.131613 151.146914 
L 283.930882 151.980845 
L 286.730152 152.824435 
L 289.529421 153.679812 
L 292.32869 154.549295 
L 295.12796 155.435176 
L 297.927229 156.339915 
L 300.726498 157.266074 
L 303.525768 158.216229 
L 306.325037 159.193072 
L 309.124307 160.199224 
L 311.923576 161.237353 
L 314.722845 162.309983 
L 317.522115 163.419498 
L 320.321384 164.568006 
L 323.120653 165.757246 
L 325.919923 166.988445 
L 328.719192 168.262183 
L 331.518461 169.57823 
L 334.317731 170.93538 
L 337.117 172.331336 
L 339.91627 173.76252 
L 342.715539 175.224076 
L 345.514808 176.709756 
L 348.314078 178.21204 
L 351.113347 179.722243 
L 353.912616 181.230737 
L 356.711886 182.727273 
" style="fill:none;stroke:#ffffff;stroke-dasharray:2.2,2.2;stroke-dashoffset:0;stroke-width:1.75;"/>
   </g>
   <g id="patch_3">
    <path d="M 79.584219 190.14 
L 79.584219 27.06 
" style="fill:none;"/>
   </g>
   <g id="patch_4">
    <path d="M 358.584219 190.14 
L 358.584219 27.06 
" style="fill:none;"/>
   </g>
   <g id="patch_5">
    <path d="M 79.584219 190.14 
L 358.584219 190.14 
" style="fill:none;"/>
   </g>
   <g id="patch_6">
    <path d="M 79.584219 27.06 
L 358.584219 27.06 
" style="fill:none;"/>
   </g>
   <g id="text_12">
    <!-- After fit: $\xi = 0.1$; $\beta = 0.0001$ -->
    <defs>
     <path d="M -0.140625 0 
L 27.34375 71.578125 
L 37.546875 71.578125 
L 66.84375 0 
L 56.0625 0 
L 47.703125 21.6875 
L 17.78125 21.6875 
L 9.90625 0 
z
M 20.515625 29.390625 
L 44.78125 29.390625 
L 37.3125 49.21875 
Q 33.890625 58.25 32.234375 64.0625 
Q 30.859375 57.171875 28.375 50.390625 
z
" id="ArialMT-41"/>
     <path d="M 8.6875 0 
L 8.6875 45.015625 
L 0.921875 45.015625 
L 0.921875 51.859375 
L 8.6875 51.859375 
L 8.6875 57.375 
Q 8.6875 62.59375 9.625 65.140625 
Q 10.890625 68.5625 14.078125 70.671875 
Q 17.28125 72.796875 23.046875 72.796875 
Q 26.765625 72.796875 31.25 71.921875 
L 29.9375 64.265625 
Q 27.203125 64.75 24.75 64.75 
Q 20.75 64.75 19.09375 63.03125 
Q 17.4375 61.328125 17.4375 56.640625 
L 17.4375 51.859375 
L 27.546875 51.859375 
L 27.546875 45.015625 
L 17.4375 45.015625 
L 17.4375 0 
z
" id="ArialMT-66"/>
     <path d="M 25.78125 7.859375 
L 27.046875 0.09375 
Q 23.34375 -0.6875 20.40625 -0.6875 
Q 15.625 -0.6875 12.984375 0.828125 
Q 10.359375 2.34375 9.28125 4.8125 
Q 8.203125 7.28125 8.203125 15.1875 
L 8.203125 45.015625 
L 1.765625 45.015625 
L 1.765625 51.859375 
L 8.203125 51.859375 
L 8.203125 64.703125 
L 16.9375 69.96875 
L 16.9375 51.859375 
L 25.78125 51.859375 
L 25.78125 45.015625 
L 16.9375 45.015625 
L 16.9375 14.703125 
Q 16.9375 10.9375 17.40625 9.859375 
Q 17.875 8.796875 18.921875 8.15625 
Q 19.96875 7.515625 21.921875 7.515625 
Q 23.390625 7.515625 25.78125 7.859375 
" id="ArialMT-74"/>
     <path d="M 42.09375 16.703125 
L 51.171875 15.578125 
Q 49.03125 7.625 43.21875 3.21875 
Q 37.40625 -1.171875 28.375 -1.171875 
Q 17 -1.171875 10.328125 5.828125 
Q 3.65625 12.84375 3.65625 25.484375 
Q 3.65625 38.578125 10.390625 45.796875 
Q 17.140625 53.03125 27.875 53.03125 
Q 38.28125 53.03125 44.875 45.953125 
Q 51.46875 38.875 51.46875 26.03125 
Q 51.46875 25.25 51.421875 23.6875 
L 12.75 23.6875 
Q 13.234375 15.140625 17.578125 10.59375 
Q 21.921875 6.0625 28.421875 6.0625 
Q 33.25 6.0625 36.671875 8.59375 
Q 40.09375 11.140625 42.09375 16.703125 
M 13.234375 30.90625 
L 42.1875 30.90625 
Q 41.609375 37.453125 38.875 40.71875 
Q 34.671875 45.796875 27.984375 45.796875 
Q 21.921875 45.796875 17.796875 41.75 
Q 13.671875 37.703125 13.234375 30.90625 
" id="ArialMT-65"/>
     <path d="M 6.5 0 
L 6.5 51.859375 
L 14.40625 51.859375 
L 14.40625 44 
Q 17.4375 49.515625 20 51.265625 
Q 22.5625 53.03125 25.640625 53.03125 
Q 30.078125 53.03125 34.671875 50.203125 
L 31.640625 42.046875 
Q 28.421875 43.953125 25.203125 43.953125 
Q 22.3125 43.953125 20.015625 42.21875 
Q 17.71875 40.484375 16.75 37.40625 
Q 15.28125 32.71875 15.28125 27.15625 
L 15.28125 0 
z
" id="ArialMT-72"/>
     <path id="ArialMT-20"/>
     <path d="M 6.640625 61.46875 
L 6.640625 71.578125 
L 15.4375 71.578125 
L 15.4375 61.46875 
z
M 6.640625 0 
L 6.640625 51.859375 
L 15.4375 51.859375 
L 15.4375 0 
z
" id="ArialMT-69"/>
     <path d="M 9.03125 41.84375 
L 9.03125 51.859375 
L 19.046875 51.859375 
L 19.046875 41.84375 
z
M 9.03125 0 
L 9.03125 10.015625 
L 19.046875 10.015625 
L 19.046875 0 
z
" id="ArialMT-3a"/>
     <path d="M 31.5 6.203125 
Q 37.9375 6.15625 41.0625 2.484375 
Q 44.4375 -1.375 43.3125 -7.234375 
Q 42.1875 -12.84375 37.84375 -16.75 
Q 33.109375 -21 25.140625 -21 
Q 25.875 -17.328125 26.5625 -13.625 
Q 29.890625 -13.875 32.375 -11.71875 
Q 34.28125 -10.015625 34.625 -8.203125 
Q 35.109375 -5.609375 33.984375 -3.46875 
Q 32.8125 -1.421875 30.03125 -1.421875 
Q -0.390625 -1.421875 3.765625 19.921875 
Q 6.59375 34.578125 23.6875 38.875 
Q 10.359375 40.625 12.84375 53.328125 
Q 14.703125 62.9375 26.21875 66.9375 
L 16.0625 66.9375 
L 17.828125 75.984375 
L 56.34375 75.984375 
L 54.59375 66.9375 
Q 23.875 66.9375 21.09375 52.734375 
Q 19.28125 43.40625 45.015625 42.96875 
L 43.40625 34.671875 
Q 15.765625 35.75 12.796875 19.921875 
Q 10.296875 6.6875 31.5 6.203125 
" id="DejaVuSans-Oblique-3be"/>
     <path d="M 10.59375 45.40625 
L 73.1875 45.40625 
L 73.1875 37.203125 
L 10.59375 37.203125 
z
M 10.59375 25.484375 
L 73.1875 25.484375 
L 73.1875 17.1875 
L 10.59375 17.1875 
z
" id="DejaVuSans-3d"/>
     <path d="M 31.78125 66.40625 
Q 24.171875 66.40625 20.328125 58.90625 
Q 16.5 51.421875 16.5 36.375 
Q 16.5 21.390625 20.328125 13.890625 
Q 24.171875 6.390625 31.78125 6.390625 
Q 39.453125 6.390625 43.28125 13.890625 
Q 47.125 21.390625 47.125 36.375 
Q 47.125 51.421875 43.28125 58.90625 
Q 39.453125 66.40625 31.78125 66.40625 
M 31.78125 74.21875 
Q 44.046875 74.21875 50.515625 64.515625 
Q 56.984375 54.828125 56.984375 36.375 
Q 56.984375 17.96875 50.515625 8.265625 
Q 44.046875 -1.421875 31.78125 -1.421875 
Q 19.53125 -1.421875 13.0625 8.265625 
Q 6.59375 17.96875 6.59375 36.375 
Q 6.59375 54.828125 13.0625 64.515625 
Q 19.53125 74.21875 31.78125 74.21875 
" id="DejaVuSans-30"/>
     <path d="M 10.6875 12.40625 
L 21 12.40625 
L 21 0 
L 10.6875 0 
z
" id="DejaVuSans-2e"/>
     <path d="M 8.890625 41.84375 
L 8.890625 51.859375 
L 18.890625 51.859375 
L 18.890625 41.84375 
z
M 8.890625 0 
L 8.890625 10.015625 
L 18.890625 10.015625 
L 18.890625 0 
Q 18.890625 -5.515625 16.9375 -8.90625 
Q 14.984375 -12.3125 10.75 -14.15625 
L 8.296875 -10.40625 
Q 11.078125 -9.1875 12.390625 -6.8125 
Q 13.71875 -4.4375 13.875 0 
z
" id="ArialMT-3b"/>
     <path d="M 13.625 3.375 
L 8.9375 -20.796875 
L -0.09375 -20.796875 
L 14.5 54.34375 
Q 18.84375 76.609375 39.65625 76.609375 
Q 60.75 76.609375 57.171875 57.8125 
Q 54.734375 44.4375 45.21875 39.546875 
Q 58.015625 35.15625 55.515625 22.125 
Q 51.125 -1.078125 27.484375 -1.03125 
Q 17.140625 -0.984375 13.625 3.375 
M 15.921875 15.09375 
Q 19.671875 6.59375 29.296875 6.640625 
Q 43.359375 6.640625 46.34375 21.96875 
Q 49.03125 35.75 26.171875 34.671875 
L 27.78125 42.96875 
Q 45.453125 42.671875 48.53125 58.59375 
Q 50.640625 69.34375 39.203125 69.28125 
Q 26.421875 69.28125 23.484375 54.046875 
z
" id="DejaVuSans-Oblique-3b2"/>
    </defs>
    <g style="fill:#d9d9d9;" transform="translate(101.904219 21.06)scale(0.18 -0.18)">
     <use transform="translate(0 0.390625)" xlink:href="#ArialMT-41"/>
     <use transform="translate(66.699219 0.390625)" xlink:href="#ArialMT-66"/>
     <use transform="translate(94.482422 0.390625)" xlink:href="#ArialMT-74"/>
     <use transform="translate(122.265625 0.390625)" xlink:href="#ArialMT-65"/>
     <use transform="translate(177.880859 0.390625)" xlink:href="#ArialMT-72"/>
     <use transform="translate(211.181641 0.390625)" xlink:href="#ArialMT-20"/>
     <use transform="translate(238.964844 0.390625)" xlink:href="#ArialMT-66"/>
     <use transform="translate(266.748047 0.390625)" xlink:href="#ArialMT-69"/>
     <use transform="translate(288.964844 0.390625)" xlink:href="#ArialMT-74"/>
     <use transform="translate(316.748047 0.390625)" xlink:href="#ArialMT-3a"/>
     <use transform="translate(344.53125 0.390625)" xlink:href="#ArialMT-20"/>
     <use transform="translate(372.314453 0.390625)" xlink:href="#DejaVuSans-Oblique-3be"/>
     <use transform="translate(447.558594 0.390625)" xlink:href="#DejaVuSans-3d"/>
     <use transform="translate(550.830078 0.390625)" xlink:href="#DejaVuSans-30"/>
     <use transform="translate(614.453125 0.390625)" xlink:href="#DejaVuSans-2e"/>
     <use transform="translate(646.240234 0.390625)" xlink:href="#DejaVuSans-31"/>
     <use transform="translate(709.863281 0.390625)" xlink:href="#ArialMT-3b"/>
     <use transform="translate(737.646484 0.390625)" xlink:href="#ArialMT-20"/>
     <use transform="translate(765.429688 0.390625)" xlink:href="#DejaVuSans-Oblique-3b2"/>
     <use transform="translate(848.730469 0.390625)" xlink:href="#DejaVuSans-3d"/>
     <use transform="translate(952.001953 0.390625)" xlink:href="#DejaVuSans-30"/>
     <use transform="translate(1015.625 0.390625)" xlink:href="#DejaVuSans-2e"/>
     <use transform="translate(1047.412109 0.390625)" xlink:href="#DejaVuSans-30"/>
     <use transform="translate(1111.035156 0.390625)" xlink:href="#DejaVuSans-30"/>
     <use transform="translate(1174.658203 0.390625)" xlink:href="#DejaVuSans-30"/>
     <use transform="translate(1238.28125 0.390625)" xlink:href="#DejaVuSans-31"/>
    </g>
   </g>
  </g>
 </g>
 <defs>
  <clipPath id="p4d0b986bdb">
   <rect height="163.08" width="279" x="79.584219" y="27.06"/>
  </clipPath>
 </defs>
</svg>
