<?xml version="1.0" encoding="utf-8" standalone="no"?>
<!DOCTYPE svg PUBLIC "-//W3C//DTD SVG 1.1//EN"
  "http://www.w3.org/Graphics/SVG/1.1/DTD/svg11.dtd">
<!-- Created with matplotlib (http://matplotlib.org/) -->
<svg height="209pt" version="1.1" viewBox="0 0 312 209" width="312pt" xmlns="http://www.w3.org/2000/svg" xmlns:xlink="http://www.w3.org/1999/xlink">
 <defs>
  <style type="text/css">
*{stroke-linecap:butt;stroke-linejoin:round;stroke-miterlimit:100000;}
  </style>
 </defs>
 <g id="figure_1">
  <g id="patch_1">
   <path d="M 0 209.376953 
L 312.912109 209.376953 
L 312.912109 0 
L 0 0 
z
" style="fill:#3f3f3f;"/>
  </g>
  <g id="axes_1">
   <g id="patch_2">
    <path d="M 22.541406 181.458984 
L 301.541406 181.458984 
L 301.541406 14.058984 
L 22.541406 14.058984 
z
" style="fill:#504040;"/>
   </g>
   <g id="matplotlib.axis_1">
    <g id="xtick_1">
     <g id="line2d_1">
      <path clip-path="url(#p0f3c7d8805)" d="M 22.541406 181.458984 
L 22.541406 14.058984 
" style="fill:none;stroke:#808080;stroke-linecap:round;"/>
     </g>
     <g id="line2d_2"/>
     <g id="line2d_3"/>
     <g id="text_1">
      <!-- −5 -->
      <defs>
       <path d="M 52.828125 31.203125 
L 5.5625 31.203125 
L 5.5625 39.40625 
L 52.828125 39.40625 
z
" id="ArialMT-2212"/>
       <path d="M 4.15625 18.75 
L 13.375 19.53125 
Q 14.40625 12.796875 18.140625 9.390625 
Q 21.875 6 27.15625 6 
Q 33.5 6 37.890625 10.78125 
Q 42.28125 15.578125 42.28125 23.484375 
Q 42.28125 31 38.0625 35.34375 
Q 33.84375 39.703125 27 39.703125 
Q 22.75 39.703125 19.328125 37.765625 
Q 15.921875 35.84375 13.96875 32.765625 
L 5.71875 33.84375 
L 12.640625 70.609375 
L 48.25 70.609375 
L 48.25 62.203125 
L 19.671875 62.203125 
L 15.828125 42.96875 
Q 22.265625 47.46875 29.34375 47.46875 
Q 38.71875 47.46875 45.15625 40.96875 
Q 51.609375 34.46875 51.609375 24.265625 
Q 51.609375 14.546875 45.953125 7.46875 
Q 39.0625 -1.21875 27.15625 -1.21875 
Q 17.390625 -1.21875 11.203125 4.25 
Q 5.03125 9.71875 4.15625 18.75 
" id="ArialMT-35"/>
      </defs>
      <g style="fill:#d9d9d9;" transform="translate(13.990234375 199.195703125)scale(0.15 -0.15)">
       <use xlink:href="#ArialMT-2212"/>
       <use x="58.3984375" xlink:href="#ArialMT-35"/>
      </g>
     </g>
    </g>
    <g id="xtick_2">
     <g id="line2d_4">
      <path clip-path="url(#p0f3c7d8805)" d="M 62.398549 181.458984 
L 62.398549 14.058984 
" style="fill:none;stroke:#808080;stroke-linecap:round;"/>
     </g>
     <g id="line2d_5"/>
     <g id="line2d_6"/>
     <g id="text_2">
      <!-- −4 -->
      <defs>
       <path d="M 32.328125 0 
L 32.328125 17.140625 
L 1.265625 17.140625 
L 1.265625 25.203125 
L 33.9375 71.578125 
L 41.109375 71.578125 
L 41.109375 25.203125 
L 50.78125 25.203125 
L 50.78125 17.140625 
L 41.109375 17.140625 
L 41.109375 0 
z
M 32.328125 25.203125 
L 32.328125 57.46875 
L 9.90625 25.203125 
z
" id="ArialMT-34"/>
      </defs>
      <g style="fill:#d9d9d9;" transform="translate(53.8473772321 199.195703125)scale(0.15 -0.15)">
       <use xlink:href="#ArialMT-2212"/>
       <use x="58.3984375" xlink:href="#ArialMT-34"/>
      </g>
     </g>
    </g>
    <g id="xtick_3">
     <g id="line2d_7">
      <path clip-path="url(#p0f3c7d8805)" d="M 102.255692 181.458984 
L 102.255692 14.058984 
" style="fill:none;stroke:#808080;stroke-linecap:round;"/>
     </g>
     <g id="line2d_8"/>
     <g id="line2d_9"/>
     <g id="text_3">
      <!-- −3 -->
      <defs>
       <path d="M 4.203125 18.890625 
L 12.984375 20.0625 
Q 14.5 12.59375 18.140625 9.296875 
Q 21.78125 6 27 6 
Q 33.203125 6 37.46875 10.296875 
Q 41.75 14.59375 41.75 20.953125 
Q 41.75 27 37.796875 30.921875 
Q 33.84375 34.859375 27.734375 34.859375 
Q 25.25 34.859375 21.53125 33.890625 
L 22.515625 41.609375 
Q 23.390625 41.5 23.921875 41.5 
Q 29.546875 41.5 34.03125 44.421875 
Q 38.53125 47.359375 38.53125 53.46875 
Q 38.53125 58.296875 35.25 61.46875 
Q 31.984375 64.65625 26.8125 64.65625 
Q 21.6875 64.65625 18.265625 61.421875 
Q 14.84375 58.203125 13.875 51.765625 
L 5.078125 53.328125 
Q 6.6875 62.15625 12.390625 67.015625 
Q 18.109375 71.875 26.609375 71.875 
Q 32.46875 71.875 37.390625 69.359375 
Q 42.328125 66.84375 44.9375 62.5 
Q 47.5625 58.15625 47.5625 53.265625 
Q 47.5625 48.640625 45.0625 44.828125 
Q 42.578125 41.015625 37.703125 38.765625 
Q 44.046875 37.3125 47.5625 32.6875 
Q 51.078125 28.078125 51.078125 21.140625 
Q 51.078125 11.765625 44.234375 5.25 
Q 37.40625 -1.265625 26.953125 -1.265625 
Q 17.53125 -1.265625 11.296875 4.34375 
Q 5.078125 9.96875 4.203125 18.890625 
" id="ArialMT-33"/>
      </defs>
      <g style="fill:#d9d9d9;" transform="translate(93.7045200893 199.195703125)scale(0.15 -0.15)">
       <use xlink:href="#ArialMT-2212"/>
       <use x="58.3984375" xlink:href="#ArialMT-33"/>
      </g>
     </g>
    </g>
    <g id="xtick_4">
     <g id="line2d_10">
      <path clip-path="url(#p0f3c7d8805)" d="M 142.112835 181.458984 
L 142.112835 14.058984 
" style="fill:none;stroke:#808080;stroke-linecap:round;"/>
     </g>
     <g id="line2d_11"/>
     <g id="line2d_12"/>
     <g id="text_4">
      <!-- −2 -->
      <defs>
       <path d="M 50.34375 8.453125 
L 50.34375 0 
L 3.03125 0 
Q 2.9375 3.171875 4.046875 6.109375 
Q 5.859375 10.9375 9.828125 15.625 
Q 13.8125 20.3125 21.34375 26.46875 
Q 33.015625 36.03125 37.109375 41.625 
Q 41.21875 47.21875 41.21875 52.203125 
Q 41.21875 57.421875 37.46875 61 
Q 33.734375 64.59375 27.734375 64.59375 
Q 21.390625 64.59375 17.578125 60.78125 
Q 13.765625 56.984375 13.71875 50.25 
L 4.6875 51.171875 
Q 5.609375 61.28125 11.65625 66.578125 
Q 17.71875 71.875 27.9375 71.875 
Q 38.234375 71.875 44.234375 66.15625 
Q 50.25 60.453125 50.25 52 
Q 50.25 47.703125 48.484375 43.546875 
Q 46.734375 39.40625 42.65625 34.8125 
Q 38.578125 30.21875 29.109375 22.21875 
Q 21.1875 15.578125 18.9375 13.203125 
Q 16.703125 10.84375 15.234375 8.453125 
z
" id="ArialMT-32"/>
      </defs>
      <g style="fill:#d9d9d9;" transform="translate(133.561662946 199.195703125)scale(0.15 -0.15)">
       <use xlink:href="#ArialMT-2212"/>
       <use x="58.3984375" xlink:href="#ArialMT-32"/>
      </g>
     </g>
    </g>
    <g id="xtick_5">
     <g id="line2d_13">
      <path clip-path="url(#p0f3c7d8805)" d="M 181.969978 181.458984 
L 181.969978 14.058984 
" style="fill:none;stroke:#808080;stroke-linecap:round;"/>
     </g>
     <g id="line2d_14"/>
     <g id="line2d_15"/>
     <g id="text_5">
      <!-- −1 -->
      <defs>
       <path d="M 37.25 0 
L 28.46875 0 
L 28.46875 56 
Q 25.296875 52.984375 20.140625 49.953125 
Q 14.984375 46.921875 10.890625 45.40625 
L 10.890625 53.90625 
Q 18.265625 57.375 23.78125 62.296875 
Q 29.296875 67.234375 31.59375 71.875 
L 37.25 71.875 
z
" id="ArialMT-31"/>
      </defs>
      <g style="fill:#d9d9d9;" transform="translate(173.418805804 199.195703125)scale(0.15 -0.15)">
       <use xlink:href="#ArialMT-2212"/>
       <use x="58.3984375" xlink:href="#ArialMT-31"/>
      </g>
     </g>
    </g>
    <g id="xtick_6">
     <g id="line2d_16">
      <path clip-path="url(#p0f3c7d8805)" d="M 221.827121 181.458984 
L 221.827121 14.058984 
" style="fill:none;stroke:#808080;stroke-linecap:round;"/>
     </g>
     <g id="line2d_17"/>
     <g id="line2d_18"/>
     <g id="text_6">
      <!-- 0 -->
      <defs>
       <path d="M 4.15625 35.296875 
Q 4.15625 48 6.765625 55.734375 
Q 9.375 63.484375 14.515625 67.671875 
Q 19.671875 71.875 27.484375 71.875 
Q 33.25 71.875 37.59375 69.546875 
Q 41.9375 67.234375 44.765625 62.859375 
Q 47.609375 58.5 49.21875 52.21875 
Q 50.828125 45.953125 50.828125 35.296875 
Q 50.828125 22.703125 48.234375 14.96875 
Q 45.65625 7.234375 40.5 3 
Q 35.359375 -1.21875 27.484375 -1.21875 
Q 17.140625 -1.21875 11.234375 6.203125 
Q 4.15625 15.140625 4.15625 35.296875 
M 13.1875 35.296875 
Q 13.1875 17.671875 17.3125 11.828125 
Q 21.4375 6 27.484375 6 
Q 33.546875 6 37.671875 11.859375 
Q 41.796875 17.71875 41.796875 35.296875 
Q 41.796875 52.984375 37.671875 58.78125 
Q 33.546875 64.59375 27.390625 64.59375 
Q 21.34375 64.59375 17.71875 59.46875 
Q 13.1875 52.9375 13.1875 35.296875 
" id="ArialMT-30"/>
      </defs>
      <g style="fill:#d9d9d9;" transform="translate(217.656417411 199.195703125)scale(0.15 -0.15)">
       <use xlink:href="#ArialMT-30"/>
      </g>
     </g>
    </g>
    <g id="xtick_7">
     <g id="line2d_19">
      <path clip-path="url(#p0f3c7d8805)" d="M 261.684263 181.458984 
L 261.684263 14.058984 
" style="fill:none;stroke:#808080;stroke-linecap:round;"/>
     </g>
     <g id="line2d_20"/>
     <g id="line2d_21"/>
     <g id="text_7">
      <!-- 1 -->
      <g style="fill:#d9d9d9;" transform="translate(257.513560268 199.195703125)scale(0.15 -0.15)">
       <use xlink:href="#ArialMT-31"/>
      </g>
     </g>
    </g>
    <g id="xtick_8">
     <g id="line2d_22">
      <path clip-path="url(#p0f3c7d8805)" d="M 301.541406 181.458984 
L 301.541406 14.058984 
" style="fill:none;stroke:#808080;stroke-linecap:round;"/>
     </g>
     <g id="line2d_23"/>
     <g id="line2d_24"/>
     <g id="text_8">
      <!-- 2 -->
      <g style="fill:#d9d9d9;" transform="translate(297.370703125 199.195703125)scale(0.15 -0.15)">
       <use xlink:href="#ArialMT-32"/>
      </g>
     </g>
    </g>
   </g>
   <g id="matplotlib.axis_2">
    <g id="ytick_1">
     <g id="line2d_25">
      <path clip-path="url(#p0f3c7d8805)" d="M 22.541406 181.458984 
L 301.541406 181.458984 
" style="fill:none;stroke:#808080;stroke-linecap:round;"/>
     </g>
     <g id="line2d_26"/>
     <g id="line2d_27"/>
     <g id="text_9">
      <!-- 0 -->
      <g style="fill:#d9d9d9;" transform="translate(7.2 185.33671875)scale(0.15 -0.15)">
       <use xlink:href="#ArialMT-30"/>
      </g>
     </g>
    </g>
    <g id="ytick_2">
     <g id="line2d_28">
      <path clip-path="url(#p0f3c7d8805)" d="M 22.541406 157.544699 
L 301.541406 157.544699 
" style="fill:none;stroke:#808080;stroke-linecap:round;"/>
     </g>
     <g id="line2d_29"/>
     <g id="line2d_30"/>
     <g id="text_10">
      <!-- 1 -->
      <g style="fill:#d9d9d9;" transform="translate(7.2 161.422433036)scale(0.15 -0.15)">
       <use xlink:href="#ArialMT-31"/>
      </g>
     </g>
    </g>
    <g id="ytick_3">
     <g id="line2d_31">
      <path clip-path="url(#p0f3c7d8805)" d="M 22.541406 133.630413 
L 301.541406 133.630413 
" style="fill:none;stroke:#808080;stroke-linecap:round;"/>
     </g>
     <g id="line2d_32"/>
     <g id="line2d_33"/>
     <g id="text_11">
      <!-- 2 -->
      <g style="fill:#d9d9d9;" transform="translate(7.2 137.508147321)scale(0.15 -0.15)">
       <use xlink:href="#ArialMT-32"/>
      </g>
     </g>
    </g>
    <g id="ytick_4">
     <g id="line2d_34">
      <path clip-path="url(#p0f3c7d8805)" d="M 22.541406 109.716127 
L 301.541406 109.716127 
" style="fill:none;stroke:#808080;stroke-linecap:round;"/>
     </g>
     <g id="line2d_35"/>
     <g id="line2d_36"/>
     <g id="text_12">
      <!-- 3 -->
      <g style="fill:#d9d9d9;" transform="translate(7.2 113.593861607)scale(0.15 -0.15)">
       <use xlink:href="#ArialMT-33"/>
      </g>
     </g>
    </g>
    <g id="ytick_5">
     <g id="line2d_37">
      <path clip-path="url(#p0f3c7d8805)" d="M 22.541406 85.801842 
L 301.541406 85.801842 
" style="fill:none;stroke:#808080;stroke-linecap:round;"/>
     </g>
     <g id="line2d_38"/>
     <g id="line2d_39"/>
     <g id="text_13">
      <!-- 4 -->
      <g style="fill:#d9d9d9;" transform="translate(7.2 89.6795758929)scale(0.15 -0.15)">
       <use xlink:href="#ArialMT-34"/>
      </g>
     </g>
    </g>
    <g id="ytick_6">
     <g id="line2d_40">
      <path clip-path="url(#p0f3c7d8805)" d="M 22.541406 61.887556 
L 301.541406 61.887556 
" style="fill:none;stroke:#808080;stroke-linecap:round;"/>
     </g>
     <g id="line2d_41"/>
     <g id="line2d_42"/>
     <g id="text_14">
      <!-- 5 -->
      <g style="fill:#d9d9d9;" transform="translate(7.2 65.7652901786)scale(0.15 -0.15)">
       <use xlink:href="#ArialMT-35"/>
      </g>
     </g>
    </g>
    <g id="ytick_7">
     <g id="line2d_43">
      <path clip-path="url(#p0f3c7d8805)" d="M 22.541406 37.97327 
L 301.541406 37.97327 
" style="fill:none;stroke:#808080;stroke-linecap:round;"/>
     </g>
     <g id="line2d_44"/>
     <g id="line2d_45"/>
     <g id="text_15">
      <!-- 6 -->
      <defs>
       <path d="M 49.75 54.046875 
L 41.015625 53.375 
Q 39.84375 58.546875 37.703125 60.890625 
Q 34.125 64.65625 28.90625 64.65625 
Q 24.703125 64.65625 21.53125 62.3125 
Q 17.390625 59.28125 14.984375 53.46875 
Q 12.59375 47.65625 12.5 36.921875 
Q 15.671875 41.75 20.265625 44.09375 
Q 24.859375 46.4375 29.890625 46.4375 
Q 38.671875 46.4375 44.84375 39.96875 
Q 51.03125 33.5 51.03125 23.25 
Q 51.03125 16.5 48.125 10.71875 
Q 45.21875 4.9375 40.140625 1.859375 
Q 35.0625 -1.21875 28.609375 -1.21875 
Q 17.625 -1.21875 10.6875 6.859375 
Q 3.765625 14.9375 3.765625 33.5 
Q 3.765625 54.25 11.421875 63.671875 
Q 18.109375 71.875 29.4375 71.875 
Q 37.890625 71.875 43.28125 67.140625 
Q 48.6875 62.40625 49.75 54.046875 
M 13.875 23.1875 
Q 13.875 18.65625 15.796875 14.5 
Q 17.71875 10.359375 21.1875 8.171875 
Q 24.65625 6 28.46875 6 
Q 34.03125 6 38.03125 10.484375 
Q 42.046875 14.984375 42.046875 22.703125 
Q 42.046875 30.125 38.078125 34.390625 
Q 34.125 38.671875 28.125 38.671875 
Q 22.171875 38.671875 18.015625 34.390625 
Q 13.875 30.125 13.875 23.1875 
" id="ArialMT-36"/>
      </defs>
      <g style="fill:#d9d9d9;" transform="translate(7.2 41.8510044643)scale(0.15 -0.15)">
       <use xlink:href="#ArialMT-36"/>
      </g>
     </g>
    </g>
    <g id="ytick_8">
     <g id="line2d_46">
      <path clip-path="url(#p0f3c7d8805)" d="M 22.541406 14.058984 
L 301.541406 14.058984 
" style="fill:none;stroke:#808080;stroke-linecap:round;"/>
     </g>
     <g id="line2d_47"/>
     <g id="line2d_48"/>
     <g id="text_16">
      <!-- 7 -->
      <defs>
       <path d="M 4.734375 62.203125 
L 4.734375 70.65625 
L 51.078125 70.65625 
L 51.078125 63.8125 
Q 44.234375 56.546875 37.515625 44.484375 
Q 30.8125 32.421875 27.15625 19.671875 
Q 24.515625 10.6875 23.78125 0 
L 14.75 0 
Q 14.890625 8.453125 18.0625 20.40625 
Q 21.234375 32.375 27.171875 43.484375 
Q 33.109375 54.59375 39.796875 62.203125 
z
" id="ArialMT-37"/>
      </defs>
      <g style="fill:#d9d9d9;" transform="translate(7.2 17.93671875)scale(0.15 -0.15)">
       <use xlink:href="#ArialMT-37"/>
      </g>
     </g>
    </g>
   </g>
   <g id="line2d_49">
    <path clip-path="url(#p0f3c7d8805)" d="M 261.684263 181.458984 
L 261.676274 180.807388 
L 261.652296 180.155608 
L 261.612302 179.50346 
L 261.556244 178.850759 
L 261.484055 178.197319 
L 261.395649 177.542954 
L 261.290922 176.887473 
L 261.169746 176.230687 
L 261.031977 175.572403 
L 260.877447 174.912424 
L 260.705969 174.250552 
L 260.517331 173.586585 
L 260.311302 172.920316 
L 260.087624 172.251534 
L 259.846016 171.580026 
L 259.586174 170.905569 
L 259.307763 170.227939 
L 259.010425 169.546903 
L 258.693771 168.862222 
L 258.357381 168.17365 
L 258.000806 167.480934 
L 257.62356 166.78381 
L 257.225125 166.082007 
L 256.804945 165.375244 
L 256.362424 164.663227 
L 255.896924 163.945655 
L 255.407764 163.222209 
L 254.894215 162.492561 
L 254.355497 161.756367 
L 253.790778 161.013267 
L 253.199168 160.262884 
L 252.579715 159.504825 
L 251.931402 158.738674 
L 251.253141 157.963998 
L 250.543768 157.180338 
L 249.802038 156.387211 
L 249.026617 155.584109 
L 248.216076 154.770493 
L 247.368881 153.945793 
L 246.48339 153.109407 
L 245.557837 152.260694 
L 244.590324 151.398972 
L 243.578811 150.523519 
L 242.5211 149.633561 
L 241.414822 148.728275 
L 240.257423 147.806778 
L 239.046141 146.868128 
L 237.777989 145.911312 
L 236.449734 144.935241 
L 235.057867 143.938746 
L 233.598579 142.920564 
L 232.067725 141.879332 
L 230.46079 140.813574 
L 228.772846 139.721691 
L 226.998507 138.601944 
L 225.13187 137.452442 
L 223.16646 136.27112 
L 221.095154 135.055719 
L 218.910105 133.803766 
L 216.602641 132.512541 
L 214.163163 131.179048 
L 211.581015 129.799978 
L 208.844336 128.371665 
L 205.939888 126.890036 
L 202.85285 125.350553 
L 199.566582 123.74814 
L 196.06233 122.077103 
L 192.318892 120.331027 
L 188.312201 118.502661 
L 184.014831 116.583774 
L 179.395395 114.564977 
L 174.417804 112.435516 
L 169.040362 110.183005 
L 163.214639 107.793106 
L 156.884059 105.249121 
L 149.982127 102.531484 
L 142.430162 99.617107 
L 134.134389 96.47855 
L 124.982153 93.082931 
L 114.836937 89.390503 
L 103.531717 85.352746 
L 90.859971 80.909797 
L 76.563311 75.98691 
L 60.314166 70.489499 
L 41.69104 64.296069 
L 20.142341 57.247869 
L -1 50.442728 
" style="fill:none;stroke:#003fff;stroke-linecap:round;stroke-width:1.75;"/>
   </g>
   <g id="line2d_50">
    <path clip-path="url(#p0f3c7d8805)" d="M 269.656223 181.458984 
L 269.555196 179.40207 
L 269.252033 177.343537 
L 268.746496 175.281764 
L 267.920418 172.919403 
L 266.82864 170.548261 
L 265.47004 168.165902 
L 263.843221 165.769874 
L 261.946511 163.357715 
L 259.487668 160.621665 
L 256.681568 157.858498 
L 253.524559 155.064619 
L 250.012532 152.236392 
L 245.688328 149.049155 
L 240.913229 145.809847 
L 235.679564 142.513264 
L 229.382832 138.814546 
L 222.508803 135.032923 
L 214.335724 130.804321 
L 205.440779 126.45852 
L 194.966073 121.606644 
L 183.591551 116.592241 
L 170.300279 110.994726 
L 155.887714 105.175289 
L 139.149743 98.673077 
L 121.011897 91.871551 
L 100.047901 84.258948 
L 77.330234 76.246479 
L 51.166543 67.258198 
L 21.055669 57.162157 
L -1 49.90194 
L -1 49.90194 
" style="fill:none;stroke:#03ed3a;stroke-dasharray:6.000000,6.000000;stroke-dashoffset:0.0;stroke-width:1.75;"/>
   </g>
   <g id="line2d_51">
    <path clip-path="url(#p0f3c7d8805)" d="M 245.930148 210.376953 
L 249.048647 207.363978 
L 252.009642 204.128091 
L 254.576074 200.89131 
L 256.747842 197.653761 
L 258.52486 194.415573 
L 259.907058 191.176873 
L 260.894381 187.93779 
L 261.486791 184.698451 
L 261.684263 181.458984 
L 261.486791 178.219517 
L 260.894381 174.980179 
L 259.907058 171.741095 
L 258.52486 168.502396 
L 256.747842 165.264208 
L 254.576074 162.026659 
L 252.009642 158.789877 
L 249.048647 155.553991 
L 245.693206 152.319127 
L 241.943451 149.085413 
L 237.799531 145.852978 
L 233.261609 142.621948 
L 228.329864 139.392451 
L 223.00449 136.164615 
L 217.285699 132.938568 
L 211.173716 129.714435 
L 204.668783 126.492346 
L 197.771155 123.272426 
L 190.481105 120.054804 
L 182.798922 116.839606 
L 174.724908 113.626959 
L 161.879906 108.813048 
L 148.155147 104.005591 
L 133.55185 99.205014 
L 118.071312 94.411743 
L 101.714909 89.626204 
L 84.484092 84.848822 
L 66.380394 80.080021 
L 47.405421 75.320226 
L 27.560859 70.569858 
L 6.848471 65.82934 
L -1 64.086624 
L -1 64.086624 
" style="fill:none;stroke:#e8000b;stroke-dasharray:1.000000,3.000000;stroke-dashoffset:0.0;stroke-width:1.75;"/>
   </g>
   <g id="patch_3">
    <path d="M 22.541406 181.458984 
L 22.541406 14.058984 
" style="fill:none;"/>
   </g>
   <g id="patch_4">
    <path d="M 301.541406 181.458984 
L 301.541406 14.058984 
" style="fill:none;"/>
   </g>
   <g id="patch_5">
    <path d="M 22.541406 14.058984 
L 301.541406 14.058984 
" style="fill:none;"/>
   </g>
   <g id="patch_6">
    <path d="M 22.541406 181.458984 
L 301.541406 181.458984 
" style="fill:none;"/>
   </g>
  </g>
 </g>
 <defs>
  <clipPath id="p0f3c7d8805">
   <rect height="167.4" width="279.0" x="22.54140625" y="14.058984375"/>
  </clipPath>
 </defs>
</svg>
