<?xml version="1.0" encoding="utf-8" standalone="no"?>
<!DOCTYPE svg PUBLIC "-//W3C//DTD SVG 1.1//EN"
  "http://www.w3.org/Graphics/SVG/1.1/DTD/svg11.dtd">
<!-- Created with matplotlib (http://matplotlib.org/) -->
<svg height="237pt" version="1.1" viewBox="0 0 357 237" width="357pt" xmlns="http://www.w3.org/2000/svg" xmlns:xlink="http://www.w3.org/1999/xlink">
 <defs>
  <style type="text/css">
*{stroke-linecap:butt;stroke-linejoin:round;}
  </style>
 </defs>
 <g id="figure_1">
  <g id="patch_1">
   <path d="M 0 237.147734 
L 357.442813 237.147734 
L 357.442813 0 
L 0 0 
z
" style="fill:#3f3f3f;"/>
  </g>
  <g id="axes_1">
   <g id="patch_2">
    <path d="M 71.242813 190.14 
L 350.242813 190.14 
L 350.242813 27.06 
L 71.242813 27.06 
z
" style="fill:#504040;"/>
   </g>
   <g id="matplotlib.axis_1">
    <g id="xtick_1">
     <g id="line2d_1">
      <path clip-path="url(#pdef8ee7039)" d="M 71.242813 190.14 
L 71.242813 27.06 
" style="fill:none;stroke:#808080;stroke-linecap:round;"/>
     </g>
     <g id="line2d_2"/>
     <g id="text_1">
      <!-- 0 -->
      <defs>
       <path d="M 4.15625 35.296875 
Q 4.15625 48 6.765625 55.734375 
Q 9.375 63.484375 14.515625 67.671875 
Q 19.671875 71.875 27.484375 71.875 
Q 33.25 71.875 37.59375 69.546875 
Q 41.9375 67.234375 44.765625 62.859375 
Q 47.609375 58.5 49.21875 52.21875 
Q 50.828125 45.953125 50.828125 35.296875 
Q 50.828125 22.703125 48.234375 14.96875 
Q 45.65625 7.234375 40.5 3 
Q 35.359375 -1.21875 27.484375 -1.21875 
Q 17.140625 -1.21875 11.234375 6.203125 
Q 4.15625 15.140625 4.15625 35.296875 
M 13.1875 35.296875 
Q 13.1875 17.671875 17.3125 11.828125 
Q 21.4375 6 27.484375 6 
Q 33.546875 6 37.671875 11.859375 
Q 41.796875 17.71875 41.796875 35.296875 
Q 41.796875 52.984375 37.671875 58.78125 
Q 33.546875 64.59375 27.390625 64.59375 
Q 21.34375 64.59375 17.71875 59.46875 
Q 13.1875 52.9375 13.1875 35.296875 
" id="ArialMT-30"/>
      </defs>
      <g style="fill:#d9d9d9;" transform="translate(67.072109 207.876719)scale(0.15 -0.15)">
       <use xlink:href="#ArialMT-30"/>
      </g>
     </g>
    </g>
    <g id="xtick_2">
     <g id="line2d_3">
      <path clip-path="url(#pdef8ee7039)" d="M 148.742813 190.14 
L 148.742813 27.06 
" style="fill:none;stroke:#808080;stroke-linecap:round;"/>
     </g>
     <g id="line2d_4"/>
     <g id="text_2">
      <!-- 50 -->
      <defs>
       <path d="M 4.15625 18.75 
L 13.375 19.53125 
Q 14.40625 12.796875 18.140625 9.390625 
Q 21.875 6 27.15625 6 
Q 33.5 6 37.890625 10.78125 
Q 42.28125 15.578125 42.28125 23.484375 
Q 42.28125 31 38.0625 35.34375 
Q 33.84375 39.703125 27 39.703125 
Q 22.75 39.703125 19.328125 37.765625 
Q 15.921875 35.84375 13.96875 32.765625 
L 5.71875 33.84375 
L 12.640625 70.609375 
L 48.25 70.609375 
L 48.25 62.203125 
L 19.671875 62.203125 
L 15.828125 42.96875 
Q 22.265625 47.46875 29.34375 47.46875 
Q 38.71875 47.46875 45.15625 40.96875 
Q 51.609375 34.46875 51.609375 24.265625 
Q 51.609375 14.546875 45.953125 7.46875 
Q 39.0625 -1.21875 27.15625 -1.21875 
Q 17.390625 -1.21875 11.203125 4.25 
Q 5.03125 9.71875 4.15625 18.75 
" id="ArialMT-35"/>
      </defs>
      <g style="fill:#d9d9d9;" transform="translate(140.401406 207.876719)scale(0.15 -0.15)">
       <use xlink:href="#ArialMT-35"/>
       <use x="55.615234" xlink:href="#ArialMT-30"/>
      </g>
     </g>
    </g>
    <g id="xtick_3">
     <g id="line2d_5">
      <path clip-path="url(#pdef8ee7039)" d="M 226.242813 190.14 
L 226.242813 27.06 
" style="fill:none;stroke:#808080;stroke-linecap:round;"/>
     </g>
     <g id="line2d_6"/>
     <g id="text_3">
      <!-- 100 -->
      <defs>
       <path d="M 37.25 0 
L 28.46875 0 
L 28.46875 56 
Q 25.296875 52.984375 20.140625 49.953125 
Q 14.984375 46.921875 10.890625 45.40625 
L 10.890625 53.90625 
Q 18.265625 57.375 23.78125 62.296875 
Q 29.296875 67.234375 31.59375 71.875 
L 37.25 71.875 
z
" id="ArialMT-31"/>
      </defs>
      <g style="fill:#d9d9d9;" transform="translate(213.730703 207.876719)scale(0.15 -0.15)">
       <use xlink:href="#ArialMT-31"/>
       <use x="55.615234" xlink:href="#ArialMT-30"/>
       <use x="111.230469" xlink:href="#ArialMT-30"/>
      </g>
     </g>
    </g>
    <g id="xtick_4">
     <g id="line2d_7">
      <path clip-path="url(#pdef8ee7039)" d="M 303.742813 190.14 
L 303.742813 27.06 
" style="fill:none;stroke:#808080;stroke-linecap:round;"/>
     </g>
     <g id="line2d_8"/>
     <g id="text_4">
      <!-- 150 -->
      <g style="fill:#d9d9d9;" transform="translate(291.230703 207.876719)scale(0.15 -0.15)">
       <use xlink:href="#ArialMT-31"/>
       <use x="55.615234" xlink:href="#ArialMT-35"/>
       <use x="111.230469" xlink:href="#ArialMT-30"/>
      </g>
     </g>
    </g>
    <g id="text_5">
     <!-- $\theta$ -->
     <defs>
      <path d="M 45.515625 34.671875 
L 14.453125 34.671875 
Q 12.359375 20.0625 14.5 13.875 
Q 17.1875 6.25 24.46875 6.25 
Q 31.78125 6.25 37.359375 13.921875 
Q 42.234375 20.65625 45.515625 34.671875 
M 47.015625 42.96875 
Q 48.34375 56.84375 46.625 61.71875 
Q 43.953125 69.4375 36.765625 69.4375 
Q 29.296875 69.4375 23.828125 61.8125 
Q 19.53125 55.671875 16.15625 42.96875 
z
M 38.1875 76.765625 
Q 49.90625 76.765625 54.59375 66.40625 
Q 59.28125 56.109375 55.71875 37.84375 
Q 52.203125 19.625 43.453125 9.28125 
Q 34.765625 -1.125 23.046875 -1.125 
Q 11.28125 -1.125 6.640625 9.28125 
Q 2 19.625 5.515625 37.84375 
Q 9.078125 56.109375 17.71875 66.40625 
Q 26.421875 76.765625 38.1875 76.765625 
" id="DejaVuSans-Oblique-3b8"/>
     </defs>
     <g style="fill:#d9d9d9;" transform="translate(205.627813 226.668359)scale(0.165 -0.165)">
      <use transform="translate(0 0.234375)" xlink:href="#DejaVuSans-Oblique-3b8"/>
     </g>
    </g>
   </g>
   <g id="matplotlib.axis_2">
    <g id="ytick_1">
     <g id="line2d_9">
      <path clip-path="url(#pdef8ee7039)" d="M 71.242813 190.14 
L 350.242813 190.14 
" style="fill:none;stroke:#808080;stroke-linecap:round;"/>
     </g>
     <g id="line2d_10"/>
     <g id="text_6">
      <!-- 0.000 -->
      <defs>
       <path d="M 9.078125 0 
L 9.078125 10.015625 
L 19.09375 10.015625 
L 19.09375 0 
z
" id="ArialMT-2e"/>
      </defs>
      <g style="fill:#d9d9d9;" transform="translate(26.71 195.508359)scale(0.15 -0.15)">
       <use xlink:href="#ArialMT-30"/>
       <use x="55.615234" xlink:href="#ArialMT-2e"/>
       <use x="83.398438" xlink:href="#ArialMT-30"/>
       <use x="139.013672" xlink:href="#ArialMT-30"/>
       <use x="194.628906" xlink:href="#ArialMT-30"/>
      </g>
     </g>
    </g>
    <g id="ytick_2">
     <g id="line2d_11">
      <path clip-path="url(#pdef8ee7039)" d="M 71.242813 137.259485 
L 350.242813 137.259485 
" style="fill:none;stroke:#808080;stroke-linecap:round;"/>
     </g>
     <g id="line2d_12"/>
     <g id="text_7">
      <!-- 0.005 -->
      <g style="fill:#d9d9d9;" transform="translate(26.71 142.627844)scale(0.15 -0.15)">
       <use xlink:href="#ArialMT-30"/>
       <use x="55.615234" xlink:href="#ArialMT-2e"/>
       <use x="83.398438" xlink:href="#ArialMT-30"/>
       <use x="139.013672" xlink:href="#ArialMT-30"/>
       <use x="194.628906" xlink:href="#ArialMT-35"/>
      </g>
     </g>
    </g>
    <g id="ytick_3">
     <g id="line2d_13">
      <path clip-path="url(#pdef8ee7039)" d="M 71.242813 84.37897 
L 350.242813 84.37897 
" style="fill:none;stroke:#808080;stroke-linecap:round;"/>
     </g>
     <g id="line2d_14"/>
     <g id="text_8">
      <!-- 0.010 -->
      <g style="fill:#d9d9d9;" transform="translate(26.71 89.74733)scale(0.15 -0.15)">
       <use xlink:href="#ArialMT-30"/>
       <use x="55.615234" xlink:href="#ArialMT-2e"/>
       <use x="83.398438" xlink:href="#ArialMT-30"/>
       <use x="139.013672" xlink:href="#ArialMT-31"/>
       <use x="194.628906" xlink:href="#ArialMT-30"/>
      </g>
     </g>
    </g>
    <g id="ytick_4">
     <g id="line2d_15">
      <path clip-path="url(#pdef8ee7039)" d="M 71.242813 31.498455 
L 350.242813 31.498455 
" style="fill:none;stroke:#808080;stroke-linecap:round;"/>
     </g>
     <g id="line2d_16"/>
     <g id="text_9">
      <!-- 0.015 -->
      <g style="fill:#d9d9d9;" transform="translate(26.71 36.866815)scale(0.15 -0.15)">
       <use xlink:href="#ArialMT-30"/>
       <use x="55.615234" xlink:href="#ArialMT-2e"/>
       <use x="83.398438" xlink:href="#ArialMT-30"/>
       <use x="139.013672" xlink:href="#ArialMT-31"/>
       <use x="194.628906" xlink:href="#ArialMT-35"/>
      </g>
     </g>
    </g>
    <g id="text_10">
     <!-- $\theta_1/\theta$ -->
     <defs>
      <path d="M 12.40625 8.296875 
L 28.515625 8.296875 
L 28.515625 63.921875 
L 10.984375 60.40625 
L 10.984375 69.390625 
L 28.421875 72.90625 
L 38.28125 72.90625 
L 38.28125 8.296875 
L 54.390625 8.296875 
L 54.390625 0 
L 12.40625 0 
z
" id="DejaVuSans-31"/>
      <path d="M 25.390625 72.90625 
L 33.6875 72.90625 
L 8.296875 -9.28125 
L 0 -9.28125 
z
" id="DejaVuSans-2f"/>
     </defs>
     <g style="fill:#d9d9d9;" transform="translate(19.430625 125.43)rotate(-90)scale(0.165 -0.165)">
      <use transform="translate(0 0.234375)" xlink:href="#DejaVuSans-Oblique-3b8"/>
      <use transform="translate(61.181641 -16.171875)scale(0.7)" xlink:href="#DejaVuSans-31"/>
      <use transform="translate(108.452148 0.234375)" xlink:href="#DejaVuSans-2f"/>
      <use transform="translate(142.143555 0.234375)" xlink:href="#DejaVuSans-Oblique-3b8"/>
     </g>
    </g>
   </g>
   <g id="line2d_17">
    <path clip-path="url(#pdef8ee7039)" d="M 74.056993 34.825012 
L 76.871174 106.114373 
L 79.685354 132.561446 
L 82.499535 146.346628 
L 85.313716 154.805859 
L 88.127896 160.525772 
L 90.942077 164.651478 
L 93.756257 167.767918 
L 96.570438 170.205062 
L 99.384619 172.163176 
L 102.198799 173.770853 
L 105.01298 175.114436 
L 107.827161 176.254059 
L 110.641341 177.232887 
L 113.455522 178.082706 
L 116.269702 178.827443 
L 119.083883 179.485453 
L 121.898064 180.07105 
L 124.712244 180.595564 
L 127.526425 181.068076 
L 130.340606 181.495954 
L 133.154786 181.885237 
L 135.968967 182.240919 
L 138.783147 182.567171 
L 141.597328 182.867499 
L 144.411509 183.144874 
L 147.225689 183.40183 
L 150.03987 183.640541 
L 152.854051 183.862882 
L 155.668231 184.07048 
L 158.482412 184.264755 
L 161.296592 184.446947 
L 164.110773 184.61815 
L 166.924954 184.779328 
L 169.739134 184.931335 
L 172.553315 185.074932 
L 175.367496 185.210796 
L 178.181676 185.339536 
L 180.995857 185.461697 
L 183.810037 185.577768 
L 186.624218 185.688195 
L 189.438399 185.793377 
L 192.252579 185.893679 
L 195.06676 185.989432 
L 197.880941 186.080937 
L 200.695121 186.16847 
L 203.509302 186.252283 
L 206.323482 186.332606 
L 209.137663 186.409654 
L 211.951844 186.48362 
L 214.766024 186.554684 
L 217.580205 186.623014 
L 220.394386 186.688761 
L 223.208566 186.752069 
L 226.022747 186.81307 
L 228.836927 186.871885 
L 231.651108 186.928629 
L 234.465289 186.983407 
L 237.279469 187.036317 
L 240.09365 187.087453 
L 242.907831 187.136898 
L 245.722011 187.184735 
L 248.536192 187.231036 
L 251.350372 187.275873 
L 254.164553 187.319311 
L 256.978734 187.361411 
L 259.792914 187.402231 
L 262.607095 187.441825 
L 265.421276 187.480242 
L 268.235456 187.51753 
L 271.049637 187.553734 
L 273.863817 187.588893 
L 276.677998 187.623046 
L 279.492179 187.656229 
L 282.306359 187.688475 
L 285.12054 187.719812 
L 287.934721 187.750268 
L 290.748901 187.779868 
L 293.563082 187.808632 
L 296.377262 187.836577 
L 299.191443 187.863719 
L 302.005624 187.890065 
L 304.819804 187.915619 
L 307.633985 187.940379 
L 310.448166 187.964333 
L 313.262346 187.987458 
L 316.076527 188.009714 
L 318.890707 188.03104 
L 321.704888 188.051341 
L 324.519069 188.070471 
L 327.333249 188.0882 
L 330.14743 188.104157 
L 332.961611 188.117711 
L 335.775791 188.127711 
L 338.589972 188.131833 
L 341.404152 188.124615 
L 344.218333 188.089537 
L 347.032514 187.942637 
" style="fill:none;stroke:#00d7ff;stroke-linecap:round;stroke-width:1.75;"/>
   </g>
   <g id="line2d_18">
    <path clip-path="url(#pdef8ee7039)" d="M 74.056993 179.57786 
L 76.871174 179.619516 
L 79.685354 179.688172 
L 82.499535 179.782695 
L 85.313716 179.90155 
L 88.127896 180.042851 
L 90.942077 180.20441 
L 93.756257 180.383813 
L 96.570438 180.578483 
L 99.384619 180.785756 
L 102.198799 181.002954 
L 105.01298 181.22745 
L 107.827161 181.456732 
L 110.641341 181.688453 
L 113.455522 181.920479 
L 116.269702 182.150916 
L 119.083883 182.378128 
L 121.898064 182.600748 
L 124.712244 182.817676 
L 127.526425 183.028062 
L 130.340606 183.23129 
L 133.154786 183.42695 
L 135.968967 183.614816 
L 138.783147 183.794808 
L 141.597328 183.966971 
L 144.411509 184.131445 
L 147.225689 184.288439 
L 150.03987 184.438214 
L 152.854051 184.581064 
L 155.668231 184.717299 
L 158.482412 184.847242 
L 161.296592 184.971211 
L 164.110773 185.089523 
L 166.924954 185.202481 
L 169.739134 185.310379 
L 172.553315 185.413494 
L 175.367496 185.512089 
L 178.181676 185.606413 
L 180.995857 185.696699 
L 183.810037 185.783165 
L 186.624218 185.866016 
L 189.438399 185.945443 
L 192.252579 186.021624 
L 195.06676 186.094726 
L 197.880941 186.164904 
L 200.695121 186.232302 
L 203.509302 186.297055 
L 206.323482 186.359288 
L 209.137663 186.419117 
L 211.951844 186.476651 
L 214.766024 186.531991 
L 217.580205 186.58523 
L 220.394386 186.636454 
L 223.208566 186.685743 
L 226.022747 186.733173 
L 228.836927 186.77881 
L 231.651108 186.822717 
L 234.465289 186.864952 
L 237.279469 186.905567 
L 240.09365 186.944608 
L 242.907831 186.982117 
L 245.722011 187.018132 
L 248.536192 187.052684 
L 251.350372 187.0858 
L 254.164553 187.117503 
L 256.978734 187.147808 
L 259.792914 187.176726 
L 262.607095 187.204263 
L 265.421276 187.230416 
L 268.235456 187.255178 
L 271.049637 187.278532 
L 273.863817 187.300452 
L 276.677998 187.320905 
L 279.492179 187.339844 
L 282.306359 187.35721 
L 285.12054 187.372928 
L 287.934721 187.386905 
L 290.748901 187.399026 
L 293.563082 187.409149 
L 296.377262 187.417098 
L 299.191443 187.422657 
L 302.005624 187.425557 
L 304.819804 187.425461 
L 307.633985 187.421947 
L 310.448166 187.414475 
L 313.262346 187.402349 
L 316.076527 187.384661 
L 318.890707 187.360197 
L 321.704888 187.327306 
L 324.519069 187.283682 
L 327.333249 187.225994 
L 330.14743 187.149253 
L 332.961611 187.045594 
L 335.775791 186.901809 
L 338.589972 186.693698 
L 341.404152 186.370989 
L 344.218333 185.80623 
L 347.032514 184.526567 
" style="fill:none;stroke:#ffc400;stroke-linecap:round;stroke-width:1.75;"/>
   </g>
   <g id="line2d_19">
    <path clip-path="url(#pdef8ee7039)" d="M 74.056993 179.577862 
L 76.871174 179.619405 
L 79.685354 179.687585 
L 82.499535 179.780893 
L 85.313716 179.89733 
L 88.127896 180.034545 
L 90.942077 180.189936 
L 93.756257 180.360789 
L 96.570438 180.544372 
L 99.384619 180.738033 
L 102.198799 180.939282 
L 105.01298 181.145824 
L 107.827161 181.355607 
L 110.641341 181.566827 
L 113.455522 181.777935 
L 116.269702 181.987623 
L 119.083883 182.194812 
L 121.898064 182.398629 
L 124.712244 182.598383 
L 127.526425 182.793551 
L 130.340606 182.983736 
L 133.154786 183.168664 
L 135.968967 183.348174 
L 138.783147 183.522161 
L 141.597328 183.690599 
L 144.411509 183.853528 
L 147.225689 184.011008 
L 150.03987 184.163133 
L 152.854051 184.310039 
L 155.668231 184.451888 
L 158.482412 184.588819 
L 161.296592 184.721009 
L 164.110773 184.848642 
L 166.924954 184.971873 
L 169.739134 185.09091 
L 172.553315 185.205916 
L 175.367496 185.317083 
L 178.181676 185.424556 
L 180.995857 185.528525 
L 183.810037 185.629152 
L 186.624218 185.726597 
L 189.438399 185.821017 
L 192.252579 185.912547 
L 195.06676 186.001345 
L 197.880941 186.087556 
L 200.695121 186.171308 
L 203.509302 186.252725 
L 206.323482 186.33195 
L 209.137663 186.409087 
L 211.951844 186.484268 
L 214.766024 186.557605 
L 217.580205 186.629203 
L 220.394386 186.699184 
L 223.208566 186.767638 
L 226.022747 186.834682 
L 228.836927 186.900418 
L 231.651108 186.964941 
L 234.465289 187.028355 
L 237.279469 187.090761 
L 240.09365 187.152259 
L 242.907831 187.212948 
L 245.722011 187.272929 
L 248.536192 187.332304 
L 251.350372 187.391176 
L 254.164553 187.449654 
L 256.978734 187.507844 
L 259.792914 187.56586 
L 262.607095 187.623818 
L 265.421276 187.681838 
L 268.235456 187.740045 
L 271.049637 187.798571 
L 273.863817 187.857552 
L 276.677998 187.917134 
L 279.492179 187.977466 
L 282.306359 188.038703 
L 285.12054 188.101015 
L 287.934721 188.16457 
L 290.748901 188.22955 
L 293.563082 188.296136 
L 296.377262 188.36452 
L 299.191443 188.434891 
L 302.005624 188.507444 
L 304.819804 188.582363 
L 307.633985 188.659827 
L 310.448166 188.739999 
L 313.262346 188.823021 
L 316.076527 188.909003 
L 318.890707 188.998011 
L 321.704888 189.09006 
L 324.519069 189.185105 
L 327.333249 189.283023 
L 330.14743 189.383603 
L 332.961611 189.486544 
L 335.775791 189.591449 
L 338.589972 189.697821 
L 341.404152 189.805075 
L 344.218333 189.912551 
L 347.032514 190.019529 
L 349.846694 190.12526 
" style="fill:none;stroke:#ffffff;stroke-dasharray:2.2,2.2;stroke-dashoffset:0;stroke-width:1.75;"/>
   </g>
   <g id="patch_3">
    <path d="M 71.242813 190.14 
L 71.242813 27.06 
" style="fill:none;"/>
   </g>
   <g id="patch_4">
    <path d="M 350.242813 190.14 
L 350.242813 27.06 
" style="fill:none;"/>
   </g>
   <g id="patch_5">
    <path d="M 71.242813 190.14 
L 350.242813 190.14 
" style="fill:none;"/>
   </g>
   <g id="patch_6">
    <path d="M 71.242813 27.06 
L 350.242813 27.06 
" style="fill:none;"/>
   </g>
   <g id="text_11">
    <!-- Before fit: $\xi = 0.1$; $\beta = 0.0000$ -->
    <defs>
     <path d="M 7.328125 0 
L 7.328125 71.578125 
L 34.1875 71.578125 
Q 42.390625 71.578125 47.34375 69.40625 
Q 52.296875 67.234375 55.09375 62.71875 
Q 57.90625 58.203125 57.90625 53.265625 
Q 57.90625 48.6875 55.421875 44.625 
Q 52.9375 40.578125 47.90625 38.09375 
Q 54.390625 36.1875 57.875 31.59375 
Q 61.375 27 61.375 20.75 
Q 61.375 15.71875 59.25 11.390625 
Q 57.125 7.078125 54 4.734375 
Q 50.875 2.390625 46.15625 1.1875 
Q 41.453125 0 34.625 0 
z
M 16.796875 41.5 
L 32.28125 41.5 
Q 38.578125 41.5 41.3125 42.328125 
Q 44.921875 43.40625 46.75 45.890625 
Q 48.578125 48.390625 48.578125 52.15625 
Q 48.578125 55.71875 46.875 58.421875 
Q 45.171875 61.140625 41.984375 62.140625 
Q 38.8125 63.140625 31.109375 63.140625 
L 16.796875 63.140625 
z
M 16.796875 8.453125 
L 34.625 8.453125 
Q 39.203125 8.453125 41.0625 8.796875 
Q 44.34375 9.375 46.53125 10.734375 
Q 48.734375 12.109375 50.140625 14.71875 
Q 51.5625 17.328125 51.5625 20.75 
Q 51.5625 24.75 49.515625 27.703125 
Q 47.46875 30.671875 43.828125 31.859375 
Q 40.1875 33.0625 33.34375 33.0625 
L 16.796875 33.0625 
z
" id="ArialMT-42"/>
     <path d="M 42.09375 16.703125 
L 51.171875 15.578125 
Q 49.03125 7.625 43.21875 3.21875 
Q 37.40625 -1.171875 28.375 -1.171875 
Q 17 -1.171875 10.328125 5.828125 
Q 3.65625 12.84375 3.65625 25.484375 
Q 3.65625 38.578125 10.390625 45.796875 
Q 17.140625 53.03125 27.875 53.03125 
Q 38.28125 53.03125 44.875 45.953125 
Q 51.46875 38.875 51.46875 26.03125 
Q 51.46875 25.25 51.421875 23.6875 
L 12.75 23.6875 
Q 13.234375 15.140625 17.578125 10.59375 
Q 21.921875 6.0625 28.421875 6.0625 
Q 33.25 6.0625 36.671875 8.59375 
Q 40.09375 11.140625 42.09375 16.703125 
M 13.234375 30.90625 
L 42.1875 30.90625 
Q 41.609375 37.453125 38.875 40.71875 
Q 34.671875 45.796875 27.984375 45.796875 
Q 21.921875 45.796875 17.796875 41.75 
Q 13.671875 37.703125 13.234375 30.90625 
" id="ArialMT-65"/>
     <path d="M 8.6875 0 
L 8.6875 45.015625 
L 0.921875 45.015625 
L 0.921875 51.859375 
L 8.6875 51.859375 
L 8.6875 57.375 
Q 8.6875 62.59375 9.625 65.140625 
Q 10.890625 68.5625 14.078125 70.671875 
Q 17.28125 72.796875 23.046875 72.796875 
Q 26.765625 72.796875 31.25 71.921875 
L 29.9375 64.265625 
Q 27.203125 64.75 24.75 64.75 
Q 20.75 64.75 19.09375 63.03125 
Q 17.4375 61.328125 17.4375 56.640625 
L 17.4375 51.859375 
L 27.546875 51.859375 
L 27.546875 45.015625 
L 17.4375 45.015625 
L 17.4375 0 
z
" id="ArialMT-66"/>
     <path d="M 3.328125 25.921875 
Q 3.328125 40.328125 11.328125 47.265625 
Q 18.015625 53.03125 27.640625 53.03125 
Q 38.328125 53.03125 45.109375 46.015625 
Q 51.90625 39.015625 51.90625 26.65625 
Q 51.90625 16.65625 48.90625 10.90625 
Q 45.90625 5.171875 40.15625 2 
Q 34.421875 -1.171875 27.640625 -1.171875 
Q 16.75 -1.171875 10.03125 5.8125 
Q 3.328125 12.796875 3.328125 25.921875 
M 12.359375 25.921875 
Q 12.359375 15.96875 16.703125 11.015625 
Q 21.046875 6.0625 27.640625 6.0625 
Q 34.1875 6.0625 38.53125 11.03125 
Q 42.875 16.015625 42.875 26.21875 
Q 42.875 35.84375 38.5 40.796875 
Q 34.125 45.75 27.640625 45.75 
Q 21.046875 45.75 16.703125 40.8125 
Q 12.359375 35.890625 12.359375 25.921875 
" id="ArialMT-6f"/>
     <path d="M 6.5 0 
L 6.5 51.859375 
L 14.40625 51.859375 
L 14.40625 44 
Q 17.4375 49.515625 20 51.265625 
Q 22.5625 53.03125 25.640625 53.03125 
Q 30.078125 53.03125 34.671875 50.203125 
L 31.640625 42.046875 
Q 28.421875 43.953125 25.203125 43.953125 
Q 22.3125 43.953125 20.015625 42.21875 
Q 17.71875 40.484375 16.75 37.40625 
Q 15.28125 32.71875 15.28125 27.15625 
L 15.28125 0 
z
" id="ArialMT-72"/>
     <path id="ArialMT-20"/>
     <path d="M 6.640625 61.46875 
L 6.640625 71.578125 
L 15.4375 71.578125 
L 15.4375 61.46875 
z
M 6.640625 0 
L 6.640625 51.859375 
L 15.4375 51.859375 
L 15.4375 0 
z
" id="ArialMT-69"/>
     <path d="M 25.78125 7.859375 
L 27.046875 0.09375 
Q 23.34375 -0.6875 20.40625 -0.6875 
Q 15.625 -0.6875 12.984375 0.828125 
Q 10.359375 2.34375 9.28125 4.8125 
Q 8.203125 7.28125 8.203125 15.1875 
L 8.203125 45.015625 
L 1.765625 45.015625 
L 1.765625 51.859375 
L 8.203125 51.859375 
L 8.203125 64.703125 
L 16.9375 69.96875 
L 16.9375 51.859375 
L 25.78125 51.859375 
L 25.78125 45.015625 
L 16.9375 45.015625 
L 16.9375 14.703125 
Q 16.9375 10.9375 17.40625 9.859375 
Q 17.875 8.796875 18.921875 8.15625 
Q 19.96875 7.515625 21.921875 7.515625 
Q 23.390625 7.515625 25.78125 7.859375 
" id="ArialMT-74"/>
     <path d="M 9.03125 41.84375 
L 9.03125 51.859375 
L 19.046875 51.859375 
L 19.046875 41.84375 
z
M 9.03125 0 
L 9.03125 10.015625 
L 19.046875 10.015625 
L 19.046875 0 
z
" id="ArialMT-3a"/>
     <path d="M 31.5 6.203125 
Q 37.9375 6.15625 41.0625 2.484375 
Q 44.4375 -1.375 43.3125 -7.234375 
Q 42.1875 -12.84375 37.84375 -16.75 
Q 33.109375 -21 25.140625 -21 
Q 25.875 -17.328125 26.5625 -13.625 
Q 29.890625 -13.875 32.375 -11.71875 
Q 34.28125 -10.015625 34.625 -8.203125 
Q 35.109375 -5.609375 33.984375 -3.46875 
Q 32.8125 -1.421875 30.03125 -1.421875 
Q -0.390625 -1.421875 3.765625 19.921875 
Q 6.59375 34.578125 23.6875 38.875 
Q 10.359375 40.625 12.84375 53.328125 
Q 14.703125 62.9375 26.21875 66.9375 
L 16.0625 66.9375 
L 17.828125 75.984375 
L 56.34375 75.984375 
L 54.59375 66.9375 
Q 23.875 66.9375 21.09375 52.734375 
Q 19.28125 43.40625 45.015625 42.96875 
L 43.40625 34.671875 
Q 15.765625 35.75 12.796875 19.921875 
Q 10.296875 6.6875 31.5 6.203125 
" id="DejaVuSans-Oblique-3be"/>
     <path d="M 10.59375 45.40625 
L 73.1875 45.40625 
L 73.1875 37.203125 
L 10.59375 37.203125 
z
M 10.59375 25.484375 
L 73.1875 25.484375 
L 73.1875 17.1875 
L 10.59375 17.1875 
z
" id="DejaVuSans-3d"/>
     <path d="M 31.78125 66.40625 
Q 24.171875 66.40625 20.328125 58.90625 
Q 16.5 51.421875 16.5 36.375 
Q 16.5 21.390625 20.328125 13.890625 
Q 24.171875 6.390625 31.78125 6.390625 
Q 39.453125 6.390625 43.28125 13.890625 
Q 47.125 21.390625 47.125 36.375 
Q 47.125 51.421875 43.28125 58.90625 
Q 39.453125 66.40625 31.78125 66.40625 
M 31.78125 74.21875 
Q 44.046875 74.21875 50.515625 64.515625 
Q 56.984375 54.828125 56.984375 36.375 
Q 56.984375 17.96875 50.515625 8.265625 
Q 44.046875 -1.421875 31.78125 -1.421875 
Q 19.53125 -1.421875 13.0625 8.265625 
Q 6.59375 17.96875 6.59375 36.375 
Q 6.59375 54.828125 13.0625 64.515625 
Q 19.53125 74.21875 31.78125 74.21875 
" id="DejaVuSans-30"/>
     <path d="M 10.6875 12.40625 
L 21 12.40625 
L 21 0 
L 10.6875 0 
z
" id="DejaVuSans-2e"/>
     <path d="M 8.890625 41.84375 
L 8.890625 51.859375 
L 18.890625 51.859375 
L 18.890625 41.84375 
z
M 8.890625 0 
L 8.890625 10.015625 
L 18.890625 10.015625 
L 18.890625 0 
Q 18.890625 -5.515625 16.9375 -8.90625 
Q 14.984375 -12.3125 10.75 -14.15625 
L 8.296875 -10.40625 
Q 11.078125 -9.1875 12.390625 -6.8125 
Q 13.71875 -4.4375 13.875 0 
z
" id="ArialMT-3b"/>
     <path d="M 13.625 3.375 
L 8.9375 -20.796875 
L -0.09375 -20.796875 
L 14.5 54.34375 
Q 18.84375 76.609375 39.65625 76.609375 
Q 60.75 76.609375 57.171875 57.8125 
Q 54.734375 44.4375 45.21875 39.546875 
Q 58.015625 35.15625 55.515625 22.125 
Q 51.125 -1.078125 27.484375 -1.03125 
Q 17.140625 -0.984375 13.625 3.375 
M 15.921875 15.09375 
Q 19.671875 6.59375 29.296875 6.640625 
Q 43.359375 6.640625 46.34375 21.96875 
Q 49.03125 35.75 26.171875 34.671875 
L 27.78125 42.96875 
Q 45.453125 42.671875 48.53125 58.59375 
Q 50.640625 69.34375 39.203125 69.28125 
Q 26.421875 69.28125 23.484375 54.046875 
z
" id="DejaVuSans-Oblique-3b2"/>
    </defs>
    <g style="fill:#d9d9d9;" transform="translate(86.002813 21.06)scale(0.18 -0.18)">
     <use transform="translate(0 0.390625)" xlink:href="#ArialMT-42"/>
     <use transform="translate(66.699219 0.390625)" xlink:href="#ArialMT-65"/>
     <use transform="translate(122.314453 0.390625)" xlink:href="#ArialMT-66"/>
     <use transform="translate(150.097656 0.390625)" xlink:href="#ArialMT-6f"/>
     <use transform="translate(205.712891 0.390625)" xlink:href="#ArialMT-72"/>
     <use transform="translate(239.013672 0.390625)" xlink:href="#ArialMT-65"/>
     <use transform="translate(294.628906 0.390625)" xlink:href="#ArialMT-20"/>
     <use transform="translate(322.412109 0.390625)" xlink:href="#ArialMT-66"/>
     <use transform="translate(350.195312 0.390625)" xlink:href="#ArialMT-69"/>
     <use transform="translate(372.412109 0.390625)" xlink:href="#ArialMT-74"/>
     <use transform="translate(400.195312 0.390625)" xlink:href="#ArialMT-3a"/>
     <use transform="translate(427.978516 0.390625)" xlink:href="#ArialMT-20"/>
     <use transform="translate(455.761719 0.390625)" xlink:href="#DejaVuSans-Oblique-3be"/>
     <use transform="translate(531.005859 0.390625)" xlink:href="#DejaVuSans-3d"/>
     <use transform="translate(634.277344 0.390625)" xlink:href="#DejaVuSans-30"/>
     <use transform="translate(697.900391 0.390625)" xlink:href="#DejaVuSans-2e"/>
     <use transform="translate(729.6875 0.390625)" xlink:href="#DejaVuSans-31"/>
     <use transform="translate(793.310547 0.390625)" xlink:href="#ArialMT-3b"/>
     <use transform="translate(821.09375 0.390625)" xlink:href="#ArialMT-20"/>
     <use transform="translate(848.876953 0.390625)" xlink:href="#DejaVuSans-Oblique-3b2"/>
     <use transform="translate(932.177734 0.390625)" xlink:href="#DejaVuSans-3d"/>
     <use transform="translate(1035.449219 0.390625)" xlink:href="#DejaVuSans-30"/>
     <use transform="translate(1099.072266 0.390625)" xlink:href="#DejaVuSans-2e"/>
     <use transform="translate(1130.859375 0.390625)" xlink:href="#DejaVuSans-30"/>
     <use transform="translate(1194.482422 0.390625)" xlink:href="#DejaVuSans-30"/>
     <use transform="translate(1258.105469 0.390625)" xlink:href="#DejaVuSans-30"/>
     <use transform="translate(1321.728516 0.390625)" xlink:href="#DejaVuSans-30"/>
    </g>
   </g>
  </g>
 </g>
 <defs>
  <clipPath id="pdef8ee7039">
   <rect height="163.08" width="279" x="71.242813" y="27.06"/>
  </clipPath>
 </defs>
</svg>
