<?xml version="1.0" encoding="utf-8" standalone="no"?>
<!DOCTYPE svg PUBLIC "-//W3C//DTD SVG 1.1//EN"
  "http://www.w3.org/Graphics/SVG/1.1/DTD/svg11.dtd">
<!-- Created with matplotlib (http://matplotlib.org/) -->
<svg height="229pt" version="1.1" viewBox="0 0 363 229" width="363pt" xmlns="http://www.w3.org/2000/svg" xmlns:xlink="http://www.w3.org/1999/xlink">
 <defs>
  <style type="text/css">
*{stroke-linecap:butt;stroke-linejoin:round;stroke-miterlimit:100000;}
  </style>
 </defs>
 <g id="figure_1">
  <g id="patch_1">
   <path d="M 0 229.466719 
L 363.603516 229.466719 
L 363.603516 -0 
L 0 -0 
z
" style="fill:#3f3f3f;"/>
  </g>
  <g id="axes_1">
   <g id="patch_2">
    <path d="M 64.891406 181.458984 
L 343.891406 181.458984 
L 343.891406 14.058984 
L 64.891406 14.058984 
z
" style="fill:#504040;"/>
   </g>
   <g id="matplotlib.axis_1">
    <g id="xtick_1">
     <g id="line2d_1">
      <path clip-path="url(#pe0cfe50073)" d="M 64.891406 181.458984 
L 64.891406 14.058984 
" style="fill:none;stroke:#808080;stroke-linecap:round;"/>
     </g>
     <g id="line2d_2"/>
     <g id="line2d_3"/>
     <g id="text_1">
      <!-- 0 -->
      <defs>
       <path d="M 4.15625 35.296875 
Q 4.15625 48 6.765625 55.734375 
Q 9.375 63.484375 14.515625 67.671875 
Q 19.671875 71.875 27.484375 71.875 
Q 33.25 71.875 37.59375 69.546875 
Q 41.9375 67.234375 44.765625 62.859375 
Q 47.609375 58.5 49.21875 52.21875 
Q 50.828125 45.953125 50.828125 35.296875 
Q 50.828125 22.703125 48.234375 14.96875 
Q 45.65625 7.234375 40.5 3 
Q 35.359375 -1.21875 27.484375 -1.21875 
Q 17.140625 -1.21875 11.234375 6.203125 
Q 4.15625 15.140625 4.15625 35.296875 
M 13.1875 35.296875 
Q 13.1875 17.671875 17.3125 11.828125 
Q 21.4375 6 27.484375 6 
Q 33.546875 6 37.671875 11.859375 
Q 41.796875 17.71875 41.796875 35.296875 
Q 41.796875 52.984375 37.671875 58.78125 
Q 33.546875 64.59375 27.390625 64.59375 
Q 21.34375 64.59375 17.71875 59.46875 
Q 13.1875 52.9375 13.1875 35.296875 
" id="ArialMT-30"/>
      </defs>
      <g style="fill:#d9d9d9;" transform="translate(60.720703125 199.195703125)scale(0.15 -0.15)">
       <use xlink:href="#ArialMT-30"/>
      </g>
     </g>
    </g>
    <g id="xtick_2">
     <g id="line2d_4">
      <path clip-path="url(#pe0cfe50073)" d="M 95.891406 181.458984 
L 95.891406 14.058984 
" style="fill:none;stroke:#808080;stroke-linecap:round;"/>
     </g>
     <g id="line2d_5"/>
     <g id="line2d_6"/>
     <g id="text_2">
      <!-- 20 -->
      <defs>
       <path d="M 50.34375 8.453125 
L 50.34375 0 
L 3.03125 0 
Q 2.9375 3.171875 4.046875 6.109375 
Q 5.859375 10.9375 9.828125 15.625 
Q 13.8125 20.3125 21.34375 26.46875 
Q 33.015625 36.03125 37.109375 41.625 
Q 41.21875 47.21875 41.21875 52.203125 
Q 41.21875 57.421875 37.46875 61 
Q 33.734375 64.59375 27.734375 64.59375 
Q 21.390625 64.59375 17.578125 60.78125 
Q 13.765625 56.984375 13.71875 50.25 
L 4.6875 51.171875 
Q 5.609375 61.28125 11.65625 66.578125 
Q 17.71875 71.875 27.9375 71.875 
Q 38.234375 71.875 44.234375 66.15625 
Q 50.25 60.453125 50.25 52 
Q 50.25 47.703125 48.484375 43.546875 
Q 46.734375 39.40625 42.65625 34.8125 
Q 38.578125 30.21875 29.109375 22.21875 
Q 21.1875 15.578125 18.9375 13.203125 
Q 16.703125 10.84375 15.234375 8.453125 
z
" id="ArialMT-32"/>
      </defs>
      <g style="fill:#d9d9d9;" transform="translate(87.55 199.195703125)scale(0.15 -0.15)">
       <use xlink:href="#ArialMT-32"/>
       <use x="55.615234375" xlink:href="#ArialMT-30"/>
      </g>
     </g>
    </g>
    <g id="xtick_3">
     <g id="line2d_7">
      <path clip-path="url(#pe0cfe50073)" d="M 126.891406 181.458984 
L 126.891406 14.058984 
" style="fill:none;stroke:#808080;stroke-linecap:round;"/>
     </g>
     <g id="line2d_8"/>
     <g id="line2d_9"/>
     <g id="text_3">
      <!-- 40 -->
      <defs>
       <path d="M 32.328125 0 
L 32.328125 17.140625 
L 1.265625 17.140625 
L 1.265625 25.203125 
L 33.9375 71.578125 
L 41.109375 71.578125 
L 41.109375 25.203125 
L 50.78125 25.203125 
L 50.78125 17.140625 
L 41.109375 17.140625 
L 41.109375 0 
z
M 32.328125 25.203125 
L 32.328125 57.46875 
L 9.90625 25.203125 
z
" id="ArialMT-34"/>
      </defs>
      <g style="fill:#d9d9d9;" transform="translate(118.55 199.195703125)scale(0.15 -0.15)">
       <use xlink:href="#ArialMT-34"/>
       <use x="55.615234375" xlink:href="#ArialMT-30"/>
      </g>
     </g>
    </g>
    <g id="xtick_4">
     <g id="line2d_10">
      <path clip-path="url(#pe0cfe50073)" d="M 157.891406 181.458984 
L 157.891406 14.058984 
" style="fill:none;stroke:#808080;stroke-linecap:round;"/>
     </g>
     <g id="line2d_11"/>
     <g id="line2d_12"/>
     <g id="text_4">
      <!-- 60 -->
      <defs>
       <path d="M 49.75 54.046875 
L 41.015625 53.375 
Q 39.84375 58.546875 37.703125 60.890625 
Q 34.125 64.65625 28.90625 64.65625 
Q 24.703125 64.65625 21.53125 62.3125 
Q 17.390625 59.28125 14.984375 53.46875 
Q 12.59375 47.65625 12.5 36.921875 
Q 15.671875 41.75 20.265625 44.09375 
Q 24.859375 46.4375 29.890625 46.4375 
Q 38.671875 46.4375 44.84375 39.96875 
Q 51.03125 33.5 51.03125 23.25 
Q 51.03125 16.5 48.125 10.71875 
Q 45.21875 4.9375 40.140625 1.859375 
Q 35.0625 -1.21875 28.609375 -1.21875 
Q 17.625 -1.21875 10.6875 6.859375 
Q 3.765625 14.9375 3.765625 33.5 
Q 3.765625 54.25 11.421875 63.671875 
Q 18.109375 71.875 29.4375 71.875 
Q 37.890625 71.875 43.28125 67.140625 
Q 48.6875 62.40625 49.75 54.046875 
M 13.875 23.1875 
Q 13.875 18.65625 15.796875 14.5 
Q 17.71875 10.359375 21.1875 8.171875 
Q 24.65625 6 28.46875 6 
Q 34.03125 6 38.03125 10.484375 
Q 42.046875 14.984375 42.046875 22.703125 
Q 42.046875 30.125 38.078125 34.390625 
Q 34.125 38.671875 28.125 38.671875 
Q 22.171875 38.671875 18.015625 34.390625 
Q 13.875 30.125 13.875 23.1875 
" id="ArialMT-36"/>
      </defs>
      <g style="fill:#d9d9d9;" transform="translate(149.55 199.195703125)scale(0.15 -0.15)">
       <use xlink:href="#ArialMT-36"/>
       <use x="55.615234375" xlink:href="#ArialMT-30"/>
      </g>
     </g>
    </g>
    <g id="xtick_5">
     <g id="line2d_13">
      <path clip-path="url(#pe0cfe50073)" d="M 188.891406 181.458984 
L 188.891406 14.058984 
" style="fill:none;stroke:#808080;stroke-linecap:round;"/>
     </g>
     <g id="line2d_14"/>
     <g id="line2d_15"/>
     <g id="text_5">
      <!-- 80 -->
      <defs>
       <path d="M 17.671875 38.8125 
Q 12.203125 40.828125 9.5625 44.53125 
Q 6.9375 48.25 6.9375 53.421875 
Q 6.9375 61.234375 12.546875 66.546875 
Q 18.171875 71.875 27.484375 71.875 
Q 36.859375 71.875 42.578125 66.421875 
Q 48.296875 60.984375 48.296875 53.171875 
Q 48.296875 48.1875 45.671875 44.5 
Q 43.0625 40.828125 37.75 38.8125 
Q 44.34375 36.671875 47.78125 31.875 
Q 51.21875 27.09375 51.21875 20.453125 
Q 51.21875 11.28125 44.71875 5.03125 
Q 38.234375 -1.21875 27.640625 -1.21875 
Q 17.046875 -1.21875 10.546875 5.046875 
Q 4.046875 11.328125 4.046875 20.703125 
Q 4.046875 27.6875 7.59375 32.390625 
Q 11.140625 37.109375 17.671875 38.8125 
M 15.921875 53.71875 
Q 15.921875 48.640625 19.1875 45.40625 
Q 22.46875 42.1875 27.6875 42.1875 
Q 32.765625 42.1875 36.015625 45.375 
Q 39.265625 48.578125 39.265625 53.21875 
Q 39.265625 58.0625 35.90625 61.359375 
Q 32.5625 64.65625 27.59375 64.65625 
Q 22.5625 64.65625 19.234375 61.421875 
Q 15.921875 58.203125 15.921875 53.71875 
M 13.09375 20.65625 
Q 13.09375 16.890625 14.875 13.375 
Q 16.65625 9.859375 20.171875 7.921875 
Q 23.6875 6 27.734375 6 
Q 34.03125 6 38.125 10.046875 
Q 42.234375 14.109375 42.234375 20.359375 
Q 42.234375 26.703125 38.015625 30.859375 
Q 33.796875 35.015625 27.4375 35.015625 
Q 21.234375 35.015625 17.15625 30.90625 
Q 13.09375 26.8125 13.09375 20.65625 
" id="ArialMT-38"/>
      </defs>
      <g style="fill:#d9d9d9;" transform="translate(180.55 199.195703125)scale(0.15 -0.15)">
       <use xlink:href="#ArialMT-38"/>
       <use x="55.615234375" xlink:href="#ArialMT-30"/>
      </g>
     </g>
    </g>
    <g id="xtick_6">
     <g id="line2d_16">
      <path clip-path="url(#pe0cfe50073)" d="M 219.891406 181.458984 
L 219.891406 14.058984 
" style="fill:none;stroke:#808080;stroke-linecap:round;"/>
     </g>
     <g id="line2d_17"/>
     <g id="line2d_18"/>
     <g id="text_6">
      <!-- 100 -->
      <defs>
       <path d="M 37.25 0 
L 28.46875 0 
L 28.46875 56 
Q 25.296875 52.984375 20.140625 49.953125 
Q 14.984375 46.921875 10.890625 45.40625 
L 10.890625 53.90625 
Q 18.265625 57.375 23.78125 62.296875 
Q 29.296875 67.234375 31.59375 71.875 
L 37.25 71.875 
z
" id="ArialMT-31"/>
      </defs>
      <g style="fill:#d9d9d9;" transform="translate(207.379296875 199.195703125)scale(0.15 -0.15)">
       <use xlink:href="#ArialMT-31"/>
       <use x="55.615234375" xlink:href="#ArialMT-30"/>
       <use x="111.23046875" xlink:href="#ArialMT-30"/>
      </g>
     </g>
    </g>
    <g id="xtick_7">
     <g id="line2d_19">
      <path clip-path="url(#pe0cfe50073)" d="M 250.891406 181.458984 
L 250.891406 14.058984 
" style="fill:none;stroke:#808080;stroke-linecap:round;"/>
     </g>
     <g id="line2d_20"/>
     <g id="line2d_21"/>
     <g id="text_7">
      <!-- 120 -->
      <g style="fill:#d9d9d9;" transform="translate(238.379296875 199.195703125)scale(0.15 -0.15)">
       <use xlink:href="#ArialMT-31"/>
       <use x="55.615234375" xlink:href="#ArialMT-32"/>
       <use x="111.23046875" xlink:href="#ArialMT-30"/>
      </g>
     </g>
    </g>
    <g id="xtick_8">
     <g id="line2d_22">
      <path clip-path="url(#pe0cfe50073)" d="M 281.891406 181.458984 
L 281.891406 14.058984 
" style="fill:none;stroke:#808080;stroke-linecap:round;"/>
     </g>
     <g id="line2d_23"/>
     <g id="line2d_24"/>
     <g id="text_8">
      <!-- 140 -->
      <g style="fill:#d9d9d9;" transform="translate(269.379296875 199.195703125)scale(0.15 -0.15)">
       <use xlink:href="#ArialMT-31"/>
       <use x="55.615234375" xlink:href="#ArialMT-34"/>
       <use x="111.23046875" xlink:href="#ArialMT-30"/>
      </g>
     </g>
    </g>
    <g id="xtick_9">
     <g id="line2d_25">
      <path clip-path="url(#pe0cfe50073)" d="M 312.891406 181.458984 
L 312.891406 14.058984 
" style="fill:none;stroke:#808080;stroke-linecap:round;"/>
     </g>
     <g id="line2d_26"/>
     <g id="line2d_27"/>
     <g id="text_9">
      <!-- 160 -->
      <g style="fill:#d9d9d9;" transform="translate(300.379296875 199.195703125)scale(0.15 -0.15)">
       <use xlink:href="#ArialMT-31"/>
       <use x="55.615234375" xlink:href="#ArialMT-36"/>
       <use x="111.23046875" xlink:href="#ArialMT-30"/>
      </g>
     </g>
    </g>
    <g id="xtick_10">
     <g id="line2d_28">
      <path clip-path="url(#pe0cfe50073)" d="M 343.891406 181.458984 
L 343.891406 14.058984 
" style="fill:none;stroke:#808080;stroke-linecap:round;"/>
     </g>
     <g id="line2d_29"/>
     <g id="line2d_30"/>
     <g id="text_10">
      <!-- 180 -->
      <g style="fill:#d9d9d9;" transform="translate(331.379296875 199.195703125)scale(0.15 -0.15)">
       <use xlink:href="#ArialMT-31"/>
       <use x="55.615234375" xlink:href="#ArialMT-38"/>
       <use x="111.23046875" xlink:href="#ArialMT-30"/>
      </g>
     </g>
    </g>
    <g id="text_11">
     <!-- $\theta$ -->
     <defs>
      <path d="M 16.109375 -1.125 
Q 11.578125 -1.125 8.84375 2.1875 
Q 6.109375 5.515625 5.046875 10.203125 
Q 4 14.890625 4 19.484375 
L 4 19.578125 
Q 4 24.5625 4.953125 29.921875 
Q 5.90625 35.296875 7.703125 40.640625 
Q 9.515625 46 11.625 50.203125 
Q 13.09375 53.125 15.40625 56.734375 
Q 17.71875 60.359375 20.578125 63.5 
Q 23.4375 66.65625 26.734375 68.578125 
Q 30.03125 70.515625 33.40625 70.515625 
L 33.5 70.515625 
Q 37.109375 70.515625 39.515625 68.5 
Q 41.9375 66.5 43.28125 63.375 
Q 44.625 60.25 45.15625 56.6875 
Q 45.703125 53.125 45.703125 49.90625 
Q 45.703125 42.328125 43.65625 34.4375 
Q 41.609375 26.5625 37.984375 19.1875 
Q 36.625 16.40625 34.203125 12.640625 
Q 31.78125 8.890625 29.078125 5.90625 
Q 26.375 2.9375 23 0.90625 
Q 19.625 -1.125 16.21875 -1.125 
z
M 16.3125 1.515625 
Q 19.625 1.515625 22.671875 5.046875 
Q 25.734375 8.59375 28.03125 13.640625 
Q 30.328125 18.703125 32.0625 24 
Q 33.796875 29.296875 34.625 33.015625 
L 14.203125 33.015625 
Q 12.640625 26.703125 11.765625 22.140625 
Q 10.890625 17.578125 10.890625 13.1875 
Q 10.890625 1.515625 16.3125 1.515625 
M 14.984375 36.53125 
L 35.5 36.53125 
Q 36.578125 40.921875 37.203125 43.875 
Q 37.84375 46.828125 38.28125 50.09375 
Q 38.71875 53.375 38.71875 56.203125 
Q 38.71875 67.921875 33.40625 67.921875 
Q 27.046875 67.921875 22.4375 57.6875 
Q 17.828125 47.46875 14.984375 36.53125 
" id="Cmmi10-b5"/>
     </defs>
     <g style="fill:#d9d9d9;" transform="translate(200.51390625 218.98734375)scale(0.165 -0.165)">
      <use transform="translate(0.0 0.484375)" xlink:href="#Cmmi10-b5"/>
     </g>
    </g>
   </g>
   <g id="matplotlib.axis_2">
    <g id="ytick_1">
     <g id="line2d_31">
      <path clip-path="url(#pe0cfe50073)" d="M 64.891406 181.458984 
L 343.891406 181.458984 
" style="fill:none;stroke:#808080;stroke-linecap:round;"/>
     </g>
     <g id="line2d_32"/>
     <g id="line2d_33"/>
     <g id="text_12">
      <!-- 0.10 -->
      <defs>
       <path d="M 9.078125 0 
L 9.078125 10.015625 
L 19.09375 10.015625 
L 19.09375 0 
z
" id="ArialMT-2e"/>
      </defs>
      <g style="fill:#d9d9d9;" transform="translate(28.7 185.33671875)scale(0.15 -0.15)">
       <use xlink:href="#ArialMT-30"/>
       <use x="55.615234375" xlink:href="#ArialMT-2e"/>
       <use x="83.3984375" xlink:href="#ArialMT-31"/>
       <use x="139.013671875" xlink:href="#ArialMT-30"/>
      </g>
     </g>
    </g>
    <g id="ytick_2">
     <g id="line2d_34">
      <path clip-path="url(#pe0cfe50073)" d="M 64.891406 157.544699 
L 343.891406 157.544699 
" style="fill:none;stroke:#808080;stroke-linecap:round;"/>
     </g>
     <g id="line2d_35"/>
     <g id="line2d_36"/>
     <g id="text_13">
      <!-- 0.11 -->
      <g style="fill:#d9d9d9;" transform="translate(28.71640625 161.422433036)scale(0.15 -0.15)">
       <use xlink:href="#ArialMT-30"/>
       <use x="55.615234375" xlink:href="#ArialMT-2e"/>
       <use x="83.3984375" xlink:href="#ArialMT-31"/>
       <use x="138.904296875" xlink:href="#ArialMT-31"/>
      </g>
     </g>
    </g>
    <g id="ytick_3">
     <g id="line2d_37">
      <path clip-path="url(#pe0cfe50073)" d="M 64.891406 133.630413 
L 343.891406 133.630413 
" style="fill:none;stroke:#808080;stroke-linecap:round;"/>
     </g>
     <g id="line2d_38"/>
     <g id="line2d_39"/>
     <g id="text_14">
      <!-- 0.12 -->
      <g style="fill:#d9d9d9;" transform="translate(28.7 137.508147321)scale(0.15 -0.15)">
       <use xlink:href="#ArialMT-30"/>
       <use x="55.615234375" xlink:href="#ArialMT-2e"/>
       <use x="83.3984375" xlink:href="#ArialMT-31"/>
       <use x="139.013671875" xlink:href="#ArialMT-32"/>
      </g>
     </g>
    </g>
    <g id="ytick_4">
     <g id="line2d_40">
      <path clip-path="url(#pe0cfe50073)" d="M 64.891406 109.716127 
L 343.891406 109.716127 
" style="fill:none;stroke:#808080;stroke-linecap:round;"/>
     </g>
     <g id="line2d_41"/>
     <g id="line2d_42"/>
     <g id="text_15">
      <!-- 0.13 -->
      <defs>
       <path d="M 4.203125 18.890625 
L 12.984375 20.0625 
Q 14.5 12.59375 18.140625 9.296875 
Q 21.78125 6 27 6 
Q 33.203125 6 37.46875 10.296875 
Q 41.75 14.59375 41.75 20.953125 
Q 41.75 27 37.796875 30.921875 
Q 33.84375 34.859375 27.734375 34.859375 
Q 25.25 34.859375 21.53125 33.890625 
L 22.515625 41.609375 
Q 23.390625 41.5 23.921875 41.5 
Q 29.546875 41.5 34.03125 44.421875 
Q 38.53125 47.359375 38.53125 53.46875 
Q 38.53125 58.296875 35.25 61.46875 
Q 31.984375 64.65625 26.8125 64.65625 
Q 21.6875 64.65625 18.265625 61.421875 
Q 14.84375 58.203125 13.875 51.765625 
L 5.078125 53.328125 
Q 6.6875 62.15625 12.390625 67.015625 
Q 18.109375 71.875 26.609375 71.875 
Q 32.46875 71.875 37.390625 69.359375 
Q 42.328125 66.84375 44.9375 62.5 
Q 47.5625 58.15625 47.5625 53.265625 
Q 47.5625 48.640625 45.0625 44.828125 
Q 42.578125 41.015625 37.703125 38.765625 
Q 44.046875 37.3125 47.5625 32.6875 
Q 51.078125 28.078125 51.078125 21.140625 
Q 51.078125 11.765625 44.234375 5.25 
Q 37.40625 -1.265625 26.953125 -1.265625 
Q 17.53125 -1.265625 11.296875 4.34375 
Q 5.078125 9.96875 4.203125 18.890625 
" id="ArialMT-33"/>
      </defs>
      <g style="fill:#d9d9d9;" transform="translate(28.7 113.593861607)scale(0.15 -0.15)">
       <use xlink:href="#ArialMT-30"/>
       <use x="55.615234375" xlink:href="#ArialMT-2e"/>
       <use x="83.3984375" xlink:href="#ArialMT-31"/>
       <use x="139.013671875" xlink:href="#ArialMT-33"/>
      </g>
     </g>
    </g>
    <g id="ytick_5">
     <g id="line2d_43">
      <path clip-path="url(#pe0cfe50073)" d="M 64.891406 85.801842 
L 343.891406 85.801842 
" style="fill:none;stroke:#808080;stroke-linecap:round;"/>
     </g>
     <g id="line2d_44"/>
     <g id="line2d_45"/>
     <g id="text_16">
      <!-- 0.14 -->
      <g style="fill:#d9d9d9;" transform="translate(28.7 89.6795758929)scale(0.15 -0.15)">
       <use xlink:href="#ArialMT-30"/>
       <use x="55.615234375" xlink:href="#ArialMT-2e"/>
       <use x="83.3984375" xlink:href="#ArialMT-31"/>
       <use x="139.013671875" xlink:href="#ArialMT-34"/>
      </g>
     </g>
    </g>
    <g id="ytick_6">
     <g id="line2d_46">
      <path clip-path="url(#pe0cfe50073)" d="M 64.891406 61.887556 
L 343.891406 61.887556 
" style="fill:none;stroke:#808080;stroke-linecap:round;"/>
     </g>
     <g id="line2d_47"/>
     <g id="line2d_48"/>
     <g id="text_17">
      <!-- 0.15 -->
      <defs>
       <path d="M 4.15625 18.75 
L 13.375 19.53125 
Q 14.40625 12.796875 18.140625 9.390625 
Q 21.875 6 27.15625 6 
Q 33.5 6 37.890625 10.78125 
Q 42.28125 15.578125 42.28125 23.484375 
Q 42.28125 31 38.0625 35.34375 
Q 33.84375 39.703125 27 39.703125 
Q 22.75 39.703125 19.328125 37.765625 
Q 15.921875 35.84375 13.96875 32.765625 
L 5.71875 33.84375 
L 12.640625 70.609375 
L 48.25 70.609375 
L 48.25 62.203125 
L 19.671875 62.203125 
L 15.828125 42.96875 
Q 22.265625 47.46875 29.34375 47.46875 
Q 38.71875 47.46875 45.15625 40.96875 
Q 51.609375 34.46875 51.609375 24.265625 
Q 51.609375 14.546875 45.953125 7.46875 
Q 39.0625 -1.21875 27.15625 -1.21875 
Q 17.390625 -1.21875 11.203125 4.25 
Q 5.03125 9.71875 4.15625 18.75 
" id="ArialMT-35"/>
      </defs>
      <g style="fill:#d9d9d9;" transform="translate(28.7 65.7652901786)scale(0.15 -0.15)">
       <use xlink:href="#ArialMT-30"/>
       <use x="55.615234375" xlink:href="#ArialMT-2e"/>
       <use x="83.3984375" xlink:href="#ArialMT-31"/>
       <use x="139.013671875" xlink:href="#ArialMT-35"/>
      </g>
     </g>
    </g>
    <g id="ytick_7">
     <g id="line2d_49">
      <path clip-path="url(#pe0cfe50073)" d="M 64.891406 37.97327 
L 343.891406 37.97327 
" style="fill:none;stroke:#808080;stroke-linecap:round;"/>
     </g>
     <g id="line2d_50"/>
     <g id="line2d_51"/>
     <g id="text_18">
      <!-- 0.16 -->
      <g style="fill:#d9d9d9;" transform="translate(28.7 41.8510044643)scale(0.15 -0.15)">
       <use xlink:href="#ArialMT-30"/>
       <use x="55.615234375" xlink:href="#ArialMT-2e"/>
       <use x="83.3984375" xlink:href="#ArialMT-31"/>
       <use x="139.013671875" xlink:href="#ArialMT-36"/>
      </g>
     </g>
    </g>
    <g id="ytick_8">
     <g id="line2d_52">
      <path clip-path="url(#pe0cfe50073)" d="M 64.891406 14.058984 
L 343.891406 14.058984 
" style="fill:none;stroke:#808080;stroke-linecap:round;"/>
     </g>
     <g id="line2d_53"/>
     <g id="line2d_54"/>
     <g id="text_19">
      <!-- 0.17 -->
      <defs>
       <path d="M 4.734375 62.203125 
L 4.734375 70.65625 
L 51.078125 70.65625 
L 51.078125 63.8125 
Q 44.234375 56.546875 37.515625 44.484375 
Q 30.8125 32.421875 27.15625 19.671875 
Q 24.515625 10.6875 23.78125 0 
L 14.75 0 
Q 14.890625 8.453125 18.0625 20.40625 
Q 21.234375 32.375 27.171875 43.484375 
Q 33.109375 54.59375 39.796875 62.203125 
z
" id="ArialMT-37"/>
      </defs>
      <g style="fill:#d9d9d9;" transform="translate(28.7 17.93671875)scale(0.15 -0.15)">
       <use xlink:href="#ArialMT-30"/>
       <use x="55.615234375" xlink:href="#ArialMT-2e"/>
       <use x="83.3984375" xlink:href="#ArialMT-31"/>
       <use x="139.013671875" xlink:href="#ArialMT-37"/>
      </g>
     </g>
    </g>
    <g id="text_20">
     <!-- $\theta_1/\theta$ -->
     <defs>
      <path d="M 5.609375 -23 
Q 5.609375 -22.703125 5.71875 -22.609375 
L 40.484375 73.78125 
Q 40.671875 74.359375 41.15625 74.671875 
Q 41.65625 75 42.28125 75 
Q 43.171875 75 43.71875 74.453125 
Q 44.28125 73.921875 44.28125 73 
L 44.28125 72.609375 
L 9.515625 -23.78125 
Q 8.9375 -25 7.625 -25 
Q 6.78125 -25 6.1875 -24.40625 
Q 5.609375 -23.828125 5.609375 -23 
" id="Cmmi10-3d"/>
      <path d="M 9.28125 0 
L 9.28125 3.515625 
Q 21.78125 3.515625 21.78125 6.6875 
L 21.78125 59.1875 
Q 16.609375 56.6875 8.6875 56.6875 
L 8.6875 60.203125 
Q 20.953125 60.203125 27.203125 66.609375 
L 28.609375 66.609375 
Q 28.953125 66.609375 29.265625 66.328125 
Q 29.59375 66.0625 29.59375 65.71875 
L 29.59375 6.6875 
Q 29.59375 3.515625 42.09375 3.515625 
L 42.09375 0 
z
" id="Cmr10-31"/>
     </defs>
     <g style="fill:#d9d9d9;" transform="translate(19.575 113.103984375)rotate(-90.0)scale(0.165 -0.165)">
      <use xlink:href="#Cmmi10-b5"/>
      <use transform="translate(46.923828125 -17.006249999999994)scale(0.7)" xlink:href="#Cmr10-31"/>
      <use transform="translate(88.301171875 0.0)" xlink:href="#Cmmi10-3d"/>
      <use transform="translate(138.301171875 0.0)" xlink:href="#Cmmi10-b5"/>
     </g>
    </g>
   </g>
   <g id="line2d_55">
    <path clip-path="url(#pe0cfe50073)" d="M 67.31107 106.957122 
L 69.730734 107.086448 
L 72.150397 107.301006 
L 74.570061 107.59934 
L 76.989725 107.979443 
L 79.409388 108.438797 
L 81.829052 108.97441 
L 84.248716 109.582866 
L 86.66838 110.260376 
L 89.088043 111.002836 
L 91.507707 111.805879 
L 93.927371 112.664935 
L 96.347034 113.575286 
L 98.766698 114.532118 
L 101.186362 115.530569 
L 103.606026 116.565774 
L 106.025689 117.632908 
L 108.445353 118.727218 
L 110.865017 119.844055 
L 113.28468 120.978897 
L 115.704344 122.127372 
L 118.124008 123.285269 
L 120.543671 124.448555 
L 122.963335 125.61338 
L 125.382999 126.776077 
L 127.802663 127.933169 
L 130.222326 129.081366 
L 132.64199 130.217557 
L 135.061654 131.33881 
L 137.481317 132.442362 
L 139.900981 133.525608 
L 142.320645 134.586099 
L 144.740309 135.621525 
L 147.159972 136.629709 
L 149.579636 137.608593 
L 151.9993 138.556231 
L 154.418963 139.470774 
L 156.838627 140.350462 
L 159.258291 141.193613 
L 161.677954 141.99861 
L 164.097618 142.763893 
L 166.517282 143.487948 
L 168.936946 144.169295 
L 171.356609 144.806482 
L 173.776273 145.398072 
L 176.195937 145.942633 
L 178.6156 146.438732 
L 181.035264 146.884921 
L 183.454928 147.279733 
L 185.874592 147.621667 
L 188.294255 147.909182 
L 190.713919 148.140689 
L 193.133583 148.314538 
L 195.553246 148.429007 
L 197.97291 148.482299 
L 200.392574 148.472525 
L 202.812238 148.397694 
L 205.231901 148.255708 
L 207.651565 148.044342 
L 210.071229 147.761238 
L 212.490892 147.403888 
L 214.910556 146.969625 
L 217.33022 146.455605 
L 219.749883 145.858794 
L 222.169547 145.175949 
L 224.589211 144.403607 
L 227.008875 143.538061 
L 229.428538 142.575343 
L 231.848202 141.511204 
L 234.267866 140.341093 
L 236.687529 139.060133 
L 239.107193 137.663097 
L 241.526857 136.144387 
L 243.946521 134.498001 
L 246.366184 132.717516 
L 248.785848 130.796053 
L 251.205512 128.726256 
L 253.625175 126.500267 
L 256.044839 124.109701 
L 258.464503 121.545629 
L 260.884166 118.798565 
L 263.30383 115.858464 
L 265.723494 112.714727 
L 268.143158 109.356233 
L 270.562821 105.771387 
L 272.982485 101.948207 
L 275.402149 97.874458 
L 277.821812 93.537847 
L 280.241476 88.926306 
L 282.66114 84.028394 
L 285.080804 78.833848 
L 287.500467 73.334359 
L 289.920131 67.524623 
L 292.339795 61.403795 
L 294.759458 54.977452 
L 297.179122 48.260291 
L 299.598786 41.279775 
L 302.018449 34.081116 
" style="fill:none;stroke:#00d7ff;stroke-linecap:round;stroke-width:1.75;"/>
   </g>
   <g id="line2d_56">
    <path clip-path="url(#pe0cfe50073)" d="M 67.31107 113.113994 
L 69.730734 113.238853 
L 72.150397 113.446002 
L 74.570061 113.734034 
L 76.989725 114.101016 
L 79.409388 114.544515 
L 81.829052 115.061645 
L 84.248716 115.649108 
L 86.66838 116.303247 
L 89.088043 117.020096 
L 91.507707 117.795437 
L 93.927371 118.624855 
L 96.347034 119.503786 
L 98.766698 120.427574 
L 101.186362 121.391516 
L 103.606026 122.390903 
L 106.025689 123.42106 
L 108.445353 124.477383 
L 110.865017 125.555364 
L 113.28468 126.650617 
L 115.704344 127.758897 
L 118.124008 128.876116 
L 120.543671 129.998354 
L 122.963335 131.121865 
L 125.382999 132.243082 
L 127.802663 133.358617 
L 130.222326 134.465263 
L 132.64199 135.559984 
L 135.061654 136.639916 
L 137.481317 137.702357 
L 139.900981 138.744761 
L 142.320645 139.764724 
L 144.740309 140.759981 
L 147.159972 141.728393 
L 149.579636 142.667937 
L 151.9993 143.576693 
L 154.418963 144.452838 
L 156.838627 145.294632 
L 159.258291 146.100408 
L 161.677954 146.868564 
L 164.097618 147.597548 
L 166.517282 148.285854 
L 168.936946 148.932005 
L 171.356609 149.534549 
L 173.776273 150.092048 
L 176.195937 150.603066 
L 178.6156 151.066164 
L 181.035264 151.479884 
L 183.454928 151.842748 
L 185.874592 152.153242 
L 188.294255 152.40981 
L 190.713919 152.610842 
L 193.133583 152.754667 
L 195.553246 152.839543 
L 197.97291 152.863644 
L 200.392574 152.825051 
L 202.812238 152.721743 
L 205.231901 152.551583 
L 207.651565 152.312308 
L 210.071229 152.001513 
L 212.490892 151.616644 
L 214.910556 151.154976 
L 217.33022 150.613606 
L 219.749883 149.98943 
L 222.169547 149.279131 
L 224.589211 148.47916 
L 227.008875 147.585715 
L 229.428538 146.594721 
L 231.848202 145.50181 
L 234.267866 144.302294 
L 236.687529 142.991143 
L 239.107193 141.562958 
L 241.526857 140.011942 
L 243.946521 138.331871 
L 246.366184 136.516063 
L 248.785848 134.557349 
L 251.205512 132.448038 
L 253.625175 130.179886 
L 256.044839 127.744065 
L 258.464503 125.131136 
L 260.884166 122.331023 
L 263.30383 119.332994 
L 265.723494 116.125655 
L 268.143158 112.69696 
L 270.562821 109.03423 
L 272.982485 105.124222 
L 275.402149 100.953218 
L 277.821812 96.507184 
L 280.241476 91.772007 
L 282.66114 86.73383 
L 285.080804 81.379541 
L 287.500467 75.697462 
L 289.920131 69.678305 
L 292.339795 63.316504 
L 294.759458 56.612055 
L 297.179122 49.57305 
L 299.598786 42.219171 
L 302.018449 34.586484 
" style="fill:none;stroke:#03ed3a;stroke-dasharray:6.000000,6.000000;stroke-dashoffset:0.0;"/>
   </g>
   <g id="line2d_57">
    <path clip-path="url(#pe0cfe50073)" d="M 67.31107 181.453126 
L 69.730734 181.435546 
L 72.150397 181.406232 
L 74.570061 181.365164 
L 76.989725 181.312313 
L 79.409388 181.247642 
L 81.829052 181.171106 
L 84.248716 181.082651 
L 86.66838 180.982213 
L 89.088043 180.869723 
L 91.507707 180.7451 
L 93.927371 180.608254 
L 96.347034 180.459088 
L 98.766698 180.297495 
L 101.186362 180.123356 
L 103.606026 179.936545 
L 106.025689 179.736925 
L 108.445353 179.524348 
L 110.865017 179.298656 
L 113.28468 179.059679 
L 115.704344 178.807237 
L 118.124008 178.541138 
L 120.543671 178.261176 
L 122.963335 177.967134 
L 125.382999 177.658781 
L 127.802663 177.335873 
L 130.222326 176.998151 
L 132.64199 176.645343 
L 135.061654 176.277157 
L 137.481317 175.89329 
L 139.900981 175.493419 
L 142.320645 175.077203 
L 144.740309 174.644284 
L 147.159972 174.194283 
L 149.579636 173.7268 
L 151.9993 173.241415 
L 154.418963 172.737684 
L 156.838627 172.215139 
L 159.258291 171.673285 
L 161.677954 171.111604 
L 164.097618 170.529544 
L 166.517282 169.926529 
L 168.936946 169.301945 
L 171.356609 168.655148 
L 173.776273 167.985457 
L 176.195937 167.292152 
L 178.6156 166.574471 
L 181.035264 165.831612 
L 183.454928 165.062722 
L 185.874592 164.266902 
L 188.294255 163.443198 
L 190.713919 162.5906 
L 193.133583 161.708036 
L 195.553246 160.794369 
L 197.97291 159.848392 
L 200.392574 158.868821 
L 202.812238 157.854293 
L 205.231901 156.803354 
L 207.651565 155.714458 
L 210.071229 154.585953 
L 212.490892 153.416079 
L 214.910556 152.202952 
L 217.33022 150.94456 
L 219.749883 149.638746 
L 222.169547 148.283197 
L 224.589211 146.875432 
L 227.008875 145.412783 
L 229.428538 143.892379 
L 231.848202 142.311124 
L 234.267866 140.665679 
L 236.687529 138.95243 
L 239.107193 137.167469 
L 241.526857 135.306551 
L 243.946521 133.365069 
L 246.366184 131.338005 
L 248.785848 129.219884 
L 251.205512 127.004726 
L 253.625175 124.685977 
L 256.044839 122.256442 
L 258.464503 119.708205 
L 260.884166 117.03253 
L 263.30383 114.219753 
L 265.723494 111.259153 
L 268.143158 108.138798 
L 270.562821 104.845369 
L 272.982485 101.363947 
L 275.402149 97.677757 
L 277.821812 93.767869 
L 280.241476 89.612827 
L 282.66114 85.188207 
L 285.080804 80.466069 
L 287.500467 75.414289 
L 289.920131 69.995723 
L 292.339795 64.167158 
L 294.759458 57.877991 
L 297.179122 51.068531 
L 299.598786 43.667806 
L 302.018449 35.590683 
" style="fill:none;stroke:#ffc400;stroke-linecap:round;stroke-width:1.75;"/>
   </g>
   <g id="line2d_58">
    <path clip-path="url(#pe0cfe50073)" d="M 72.150397 181.400243 
L 74.570061 181.356464 
L 76.989725 181.311684 
L 79.409388 181.238466 
L 81.829052 181.165247 
L 84.248716 181.075281 
L 86.66838 180.972254 
L 89.088043 180.866116 
L 91.507707 180.732782 
L 93.927371 180.599447 
L 96.347034 180.445689 
L 98.766698 180.281439 
L 101.186362 180.109601 
L 103.606026 179.913737 
L 106.025689 179.717873 
L 108.445353 179.49466 
L 110.865017 179.26642 
L 113.28468 179.022299 
L 115.704344 178.760883 
L 118.124008 178.494518 
L 120.543671 178.199116 
L 122.963335 177.903714 
L 125.382999 177.578785 
L 127.802663 177.248603 
L 130.222326 176.89739 
L 132.64199 176.531677 
L 135.061654 176.152295 
L 137.481317 175.750372 
L 139.900981 175.340782 
L 142.320645 174.902061 
L 144.740309 174.460105 
L 147.159972 173.984113 
L 149.579636 173.507563 
L 151.9993 172.993962 
L 154.418963 172.480361 
L 156.838627 171.929186 
L 159.258291 171.376804 
L 161.677954 170.787589 
L 164.097618 170.194176 
L 166.517282 169.567299 
L 168.936946 168.93105 
L 171.356609 168.266854 
L 173.776273 167.586277 
L 176.195937 166.885297 
L 178.6156 166.159295 
L 181.035264 165.422267 
L 183.454928 164.65022 
L 185.874592 163.866037 
L 188.294255 163.059921 
L 190.713919 162.228844 
L 193.133583 161.383013 
L 195.553246 160.51316 
L 197.97291 159.62152 
L 200.392574 158.71389 
L 202.812238 157.787214 
L 205.231901 156.837221 
L 207.651565 155.871787 
L 210.071229 154.890728 
L 212.490892 153.894245 
L 214.910556 152.880448 
L 217.33022 151.853848 
L 219.749883 150.816363 
L 222.169547 149.769615 
L 224.589211 148.715673 
L 227.008875 147.657055 
L 229.428538 146.596723 
L 231.848202 145.538074 
L 234.267866 144.484927 
L 236.687529 143.441505 
L 239.107193 142.412417 
L 241.526857 141.403413 
L 243.946521 140.423485 
L 246.366184 139.476001 
L 248.785848 138.567456 
L 251.205512 137.715463 
L 253.625175 136.918052 
L 256.044839 136.199629 
L 258.464503 135.561881 
L 260.884166 135.021242 
L 263.30383 134.601185 
L 265.723494 134.312594 
L 268.143158 134.175477 
L 270.562821 134.21493 
L 272.982485 134.456822 
L 275.402149 134.918869 
L 277.821812 135.646336 
L 280.241476 136.66132 
L 282.66114 138.0035 
L 285.080804 139.711144 
L 287.500467 141.837158 
L 289.920131 144.420507 
L 292.339795 147.516214 
L 294.759458 151.180645 
L 297.179122 155.473641 
L 299.598786 160.455335 
L 302.018449 166.197578 
L 304.438113 172.762289 
" style="fill:none;stroke:#ffffff;stroke-dasharray:1.000000,3.000000;stroke-dashoffset:0.0;stroke-width:1.75;"/>
   </g>
   <g id="patch_3">
    <path d="M 343.891406 181.458984 
L 343.891406 14.058984 
" style="fill:none;"/>
   </g>
   <g id="patch_4">
    <path d="M 64.891406 14.058984 
L 343.891406 14.058984 
" style="fill:none;"/>
   </g>
   <g id="patch_5">
    <path d="M 64.891406 181.458984 
L 343.891406 181.458984 
" style="fill:none;"/>
   </g>
   <g id="patch_6">
    <path d="M 64.891406 181.458984 
L 64.891406 14.058984 
" style="fill:none;"/>
   </g>
  </g>
 </g>
 <defs>
  <clipPath id="pe0cfe50073">
   <rect height="167.4" width="279.0" x="64.89140625" y="14.058984375"/>
  </clipPath>
 </defs>
</svg>
