<?xml version="1.0" encoding="utf-8" standalone="no"?>
<!DOCTYPE svg PUBLIC "-//W3C//DTD SVG 1.1//EN"
  "http://www.w3.org/Graphics/SVG/1.1/DTD/svg11.dtd">
<!-- Created with matplotlib (http://matplotlib.org/) -->
<svg height="240pt" version="1.1" viewBox="0 0 363 240" width="363pt" xmlns="http://www.w3.org/2000/svg" xmlns:xlink="http://www.w3.org/1999/xlink">
 <defs>
  <style type="text/css">
*{stroke-linecap:butt;stroke-linejoin:round;stroke-miterlimit:100000;}
  </style>
 </defs>
 <g id="figure_1">
  <g id="patch_1">
   <path d="M 0 240.747734 
L 363.603516 240.747734 
L 363.603516 0 
L 0 0 
z
" style="fill:#3f3f3f;"/>
  </g>
  <g id="axes_1">
   <g id="patch_2">
    <path d="M 64.891406 192.74 
L 343.891406 192.74 
L 343.891406 25.34 
L 64.891406 25.34 
z
" style="fill:#504040;"/>
   </g>
   <g id="matplotlib.axis_1">
    <g id="xtick_1">
     <g id="line2d_1">
      <path clip-path="url(#paedfd71a98)" d="M 64.891406 192.74 
L 64.891406 25.34 
" style="fill:none;stroke:#808080;stroke-linecap:round;"/>
     </g>
     <g id="line2d_2"/>
     <g id="line2d_3"/>
     <g id="text_1">
      <!-- 0 -->
      <defs>
       <path d="M 4.15625 35.296875 
Q 4.15625 48 6.765625 55.734375 
Q 9.375 63.484375 14.515625 67.671875 
Q 19.671875 71.875 27.484375 71.875 
Q 33.25 71.875 37.59375 69.546875 
Q 41.9375 67.234375 44.765625 62.859375 
Q 47.609375 58.5 49.21875 52.21875 
Q 50.828125 45.953125 50.828125 35.296875 
Q 50.828125 22.703125 48.234375 14.96875 
Q 45.65625 7.234375 40.5 3 
Q 35.359375 -1.21875 27.484375 -1.21875 
Q 17.140625 -1.21875 11.234375 6.203125 
Q 4.15625 15.140625 4.15625 35.296875 
M 13.1875 35.296875 
Q 13.1875 17.671875 17.3125 11.828125 
Q 21.4375 6 27.484375 6 
Q 33.546875 6 37.671875 11.859375 
Q 41.796875 17.71875 41.796875 35.296875 
Q 41.796875 52.984375 37.671875 58.78125 
Q 33.546875 64.59375 27.390625 64.59375 
Q 21.34375 64.59375 17.71875 59.46875 
Q 13.1875 52.9375 13.1875 35.296875 
" id="ArialMT-30"/>
      </defs>
      <g style="fill:#d9d9d9;" transform="translate(60.720703125 210.47671875)scale(0.15 -0.15)">
       <use xlink:href="#ArialMT-30"/>
      </g>
     </g>
    </g>
    <g id="xtick_2">
     <g id="line2d_4">
      <path clip-path="url(#paedfd71a98)" d="M 95.891406 192.74 
L 95.891406 25.34 
" style="fill:none;stroke:#808080;stroke-linecap:round;"/>
     </g>
     <g id="line2d_5"/>
     <g id="line2d_6"/>
     <g id="text_2">
      <!-- 20 -->
      <defs>
       <path d="M 50.34375 8.453125 
L 50.34375 0 
L 3.03125 0 
Q 2.9375 3.171875 4.046875 6.109375 
Q 5.859375 10.9375 9.828125 15.625 
Q 13.8125 20.3125 21.34375 26.46875 
Q 33.015625 36.03125 37.109375 41.625 
Q 41.21875 47.21875 41.21875 52.203125 
Q 41.21875 57.421875 37.46875 61 
Q 33.734375 64.59375 27.734375 64.59375 
Q 21.390625 64.59375 17.578125 60.78125 
Q 13.765625 56.984375 13.71875 50.25 
L 4.6875 51.171875 
Q 5.609375 61.28125 11.65625 66.578125 
Q 17.71875 71.875 27.9375 71.875 
Q 38.234375 71.875 44.234375 66.15625 
Q 50.25 60.453125 50.25 52 
Q 50.25 47.703125 48.484375 43.546875 
Q 46.734375 39.40625 42.65625 34.8125 
Q 38.578125 30.21875 29.109375 22.21875 
Q 21.1875 15.578125 18.9375 13.203125 
Q 16.703125 10.84375 15.234375 8.453125 
z
" id="ArialMT-32"/>
      </defs>
      <g style="fill:#d9d9d9;" transform="translate(87.55 210.47671875)scale(0.15 -0.15)">
       <use xlink:href="#ArialMT-32"/>
       <use x="55.615234375" xlink:href="#ArialMT-30"/>
      </g>
     </g>
    </g>
    <g id="xtick_3">
     <g id="line2d_7">
      <path clip-path="url(#paedfd71a98)" d="M 126.891406 192.74 
L 126.891406 25.34 
" style="fill:none;stroke:#808080;stroke-linecap:round;"/>
     </g>
     <g id="line2d_8"/>
     <g id="line2d_9"/>
     <g id="text_3">
      <!-- 40 -->
      <defs>
       <path d="M 32.328125 0 
L 32.328125 17.140625 
L 1.265625 17.140625 
L 1.265625 25.203125 
L 33.9375 71.578125 
L 41.109375 71.578125 
L 41.109375 25.203125 
L 50.78125 25.203125 
L 50.78125 17.140625 
L 41.109375 17.140625 
L 41.109375 0 
z
M 32.328125 25.203125 
L 32.328125 57.46875 
L 9.90625 25.203125 
z
" id="ArialMT-34"/>
      </defs>
      <g style="fill:#d9d9d9;" transform="translate(118.55 210.47671875)scale(0.15 -0.15)">
       <use xlink:href="#ArialMT-34"/>
       <use x="55.615234375" xlink:href="#ArialMT-30"/>
      </g>
     </g>
    </g>
    <g id="xtick_4">
     <g id="line2d_10">
      <path clip-path="url(#paedfd71a98)" d="M 157.891406 192.74 
L 157.891406 25.34 
" style="fill:none;stroke:#808080;stroke-linecap:round;"/>
     </g>
     <g id="line2d_11"/>
     <g id="line2d_12"/>
     <g id="text_4">
      <!-- 60 -->
      <defs>
       <path d="M 49.75 54.046875 
L 41.015625 53.375 
Q 39.84375 58.546875 37.703125 60.890625 
Q 34.125 64.65625 28.90625 64.65625 
Q 24.703125 64.65625 21.53125 62.3125 
Q 17.390625 59.28125 14.984375 53.46875 
Q 12.59375 47.65625 12.5 36.921875 
Q 15.671875 41.75 20.265625 44.09375 
Q 24.859375 46.4375 29.890625 46.4375 
Q 38.671875 46.4375 44.84375 39.96875 
Q 51.03125 33.5 51.03125 23.25 
Q 51.03125 16.5 48.125 10.71875 
Q 45.21875 4.9375 40.140625 1.859375 
Q 35.0625 -1.21875 28.609375 -1.21875 
Q 17.625 -1.21875 10.6875 6.859375 
Q 3.765625 14.9375 3.765625 33.5 
Q 3.765625 54.25 11.421875 63.671875 
Q 18.109375 71.875 29.4375 71.875 
Q 37.890625 71.875 43.28125 67.140625 
Q 48.6875 62.40625 49.75 54.046875 
M 13.875 23.1875 
Q 13.875 18.65625 15.796875 14.5 
Q 17.71875 10.359375 21.1875 8.171875 
Q 24.65625 6 28.46875 6 
Q 34.03125 6 38.03125 10.484375 
Q 42.046875 14.984375 42.046875 22.703125 
Q 42.046875 30.125 38.078125 34.390625 
Q 34.125 38.671875 28.125 38.671875 
Q 22.171875 38.671875 18.015625 34.390625 
Q 13.875 30.125 13.875 23.1875 
" id="ArialMT-36"/>
      </defs>
      <g style="fill:#d9d9d9;" transform="translate(149.55 210.47671875)scale(0.15 -0.15)">
       <use xlink:href="#ArialMT-36"/>
       <use x="55.615234375" xlink:href="#ArialMT-30"/>
      </g>
     </g>
    </g>
    <g id="xtick_5">
     <g id="line2d_13">
      <path clip-path="url(#paedfd71a98)" d="M 188.891406 192.74 
L 188.891406 25.34 
" style="fill:none;stroke:#808080;stroke-linecap:round;"/>
     </g>
     <g id="line2d_14"/>
     <g id="line2d_15"/>
     <g id="text_5">
      <!-- 80 -->
      <defs>
       <path d="M 17.671875 38.8125 
Q 12.203125 40.828125 9.5625 44.53125 
Q 6.9375 48.25 6.9375 53.421875 
Q 6.9375 61.234375 12.546875 66.546875 
Q 18.171875 71.875 27.484375 71.875 
Q 36.859375 71.875 42.578125 66.421875 
Q 48.296875 60.984375 48.296875 53.171875 
Q 48.296875 48.1875 45.671875 44.5 
Q 43.0625 40.828125 37.75 38.8125 
Q 44.34375 36.671875 47.78125 31.875 
Q 51.21875 27.09375 51.21875 20.453125 
Q 51.21875 11.28125 44.71875 5.03125 
Q 38.234375 -1.21875 27.640625 -1.21875 
Q 17.046875 -1.21875 10.546875 5.046875 
Q 4.046875 11.328125 4.046875 20.703125 
Q 4.046875 27.6875 7.59375 32.390625 
Q 11.140625 37.109375 17.671875 38.8125 
M 15.921875 53.71875 
Q 15.921875 48.640625 19.1875 45.40625 
Q 22.46875 42.1875 27.6875 42.1875 
Q 32.765625 42.1875 36.015625 45.375 
Q 39.265625 48.578125 39.265625 53.21875 
Q 39.265625 58.0625 35.90625 61.359375 
Q 32.5625 64.65625 27.59375 64.65625 
Q 22.5625 64.65625 19.234375 61.421875 
Q 15.921875 58.203125 15.921875 53.71875 
M 13.09375 20.65625 
Q 13.09375 16.890625 14.875 13.375 
Q 16.65625 9.859375 20.171875 7.921875 
Q 23.6875 6 27.734375 6 
Q 34.03125 6 38.125 10.046875 
Q 42.234375 14.109375 42.234375 20.359375 
Q 42.234375 26.703125 38.015625 30.859375 
Q 33.796875 35.015625 27.4375 35.015625 
Q 21.234375 35.015625 17.15625 30.90625 
Q 13.09375 26.8125 13.09375 20.65625 
" id="ArialMT-38"/>
      </defs>
      <g style="fill:#d9d9d9;" transform="translate(180.55 210.47671875)scale(0.15 -0.15)">
       <use xlink:href="#ArialMT-38"/>
       <use x="55.615234375" xlink:href="#ArialMT-30"/>
      </g>
     </g>
    </g>
    <g id="xtick_6">
     <g id="line2d_16">
      <path clip-path="url(#paedfd71a98)" d="M 219.891406 192.74 
L 219.891406 25.34 
" style="fill:none;stroke:#808080;stroke-linecap:round;"/>
     </g>
     <g id="line2d_17"/>
     <g id="line2d_18"/>
     <g id="text_6">
      <!-- 100 -->
      <defs>
       <path d="M 37.25 0 
L 28.46875 0 
L 28.46875 56 
Q 25.296875 52.984375 20.140625 49.953125 
Q 14.984375 46.921875 10.890625 45.40625 
L 10.890625 53.90625 
Q 18.265625 57.375 23.78125 62.296875 
Q 29.296875 67.234375 31.59375 71.875 
L 37.25 71.875 
z
" id="ArialMT-31"/>
      </defs>
      <g style="fill:#d9d9d9;" transform="translate(207.379296875 210.47671875)scale(0.15 -0.15)">
       <use xlink:href="#ArialMT-31"/>
       <use x="55.615234375" xlink:href="#ArialMT-30"/>
       <use x="111.23046875" xlink:href="#ArialMT-30"/>
      </g>
     </g>
    </g>
    <g id="xtick_7">
     <g id="line2d_19">
      <path clip-path="url(#paedfd71a98)" d="M 250.891406 192.74 
L 250.891406 25.34 
" style="fill:none;stroke:#808080;stroke-linecap:round;"/>
     </g>
     <g id="line2d_20"/>
     <g id="line2d_21"/>
     <g id="text_7">
      <!-- 120 -->
      <g style="fill:#d9d9d9;" transform="translate(238.379296875 210.47671875)scale(0.15 -0.15)">
       <use xlink:href="#ArialMT-31"/>
       <use x="55.615234375" xlink:href="#ArialMT-32"/>
       <use x="111.23046875" xlink:href="#ArialMT-30"/>
      </g>
     </g>
    </g>
    <g id="xtick_8">
     <g id="line2d_22">
      <path clip-path="url(#paedfd71a98)" d="M 281.891406 192.74 
L 281.891406 25.34 
" style="fill:none;stroke:#808080;stroke-linecap:round;"/>
     </g>
     <g id="line2d_23"/>
     <g id="line2d_24"/>
     <g id="text_8">
      <!-- 140 -->
      <g style="fill:#d9d9d9;" transform="translate(269.379296875 210.47671875)scale(0.15 -0.15)">
       <use xlink:href="#ArialMT-31"/>
       <use x="55.615234375" xlink:href="#ArialMT-34"/>
       <use x="111.23046875" xlink:href="#ArialMT-30"/>
      </g>
     </g>
    </g>
    <g id="xtick_9">
     <g id="line2d_25">
      <path clip-path="url(#paedfd71a98)" d="M 312.891406 192.74 
L 312.891406 25.34 
" style="fill:none;stroke:#808080;stroke-linecap:round;"/>
     </g>
     <g id="line2d_26"/>
     <g id="line2d_27"/>
     <g id="text_9">
      <!-- 160 -->
      <g style="fill:#d9d9d9;" transform="translate(300.379296875 210.47671875)scale(0.15 -0.15)">
       <use xlink:href="#ArialMT-31"/>
       <use x="55.615234375" xlink:href="#ArialMT-36"/>
       <use x="111.23046875" xlink:href="#ArialMT-30"/>
      </g>
     </g>
    </g>
    <g id="xtick_10">
     <g id="line2d_28">
      <path clip-path="url(#paedfd71a98)" d="M 343.891406 192.74 
L 343.891406 25.34 
" style="fill:none;stroke:#808080;stroke-linecap:round;"/>
     </g>
     <g id="line2d_29"/>
     <g id="line2d_30"/>
     <g id="text_10">
      <!-- 180 -->
      <g style="fill:#d9d9d9;" transform="translate(331.379296875 210.47671875)scale(0.15 -0.15)">
       <use xlink:href="#ArialMT-31"/>
       <use x="55.615234375" xlink:href="#ArialMT-38"/>
       <use x="111.23046875" xlink:href="#ArialMT-30"/>
      </g>
     </g>
    </g>
    <g id="text_11">
     <!-- $\theta$ -->
     <defs>
      <path d="M 16.109375 -1.125 
Q 11.578125 -1.125 8.84375 2.1875 
Q 6.109375 5.515625 5.046875 10.203125 
Q 4 14.890625 4 19.484375 
L 4 19.578125 
Q 4 24.5625 4.953125 29.921875 
Q 5.90625 35.296875 7.703125 40.640625 
Q 9.515625 46 11.625 50.203125 
Q 13.09375 53.125 15.40625 56.734375 
Q 17.71875 60.359375 20.578125 63.5 
Q 23.4375 66.65625 26.734375 68.578125 
Q 30.03125 70.515625 33.40625 70.515625 
L 33.5 70.515625 
Q 37.109375 70.515625 39.515625 68.5 
Q 41.9375 66.5 43.28125 63.375 
Q 44.625 60.25 45.15625 56.6875 
Q 45.703125 53.125 45.703125 49.90625 
Q 45.703125 42.328125 43.65625 34.4375 
Q 41.609375 26.5625 37.984375 19.1875 
Q 36.625 16.40625 34.203125 12.640625 
Q 31.78125 8.890625 29.078125 5.90625 
Q 26.375 2.9375 23 0.90625 
Q 19.625 -1.125 16.21875 -1.125 
z
M 16.3125 1.515625 
Q 19.625 1.515625 22.671875 5.046875 
Q 25.734375 8.59375 28.03125 13.640625 
Q 30.328125 18.703125 32.0625 24 
Q 33.796875 29.296875 34.625 33.015625 
L 14.203125 33.015625 
Q 12.640625 26.703125 11.765625 22.140625 
Q 10.890625 17.578125 10.890625 13.1875 
Q 10.890625 1.515625 16.3125 1.515625 
M 14.984375 36.53125 
L 35.5 36.53125 
Q 36.578125 40.921875 37.203125 43.875 
Q 37.84375 46.828125 38.28125 50.09375 
Q 38.71875 53.375 38.71875 56.203125 
Q 38.71875 67.921875 33.40625 67.921875 
Q 27.046875 67.921875 22.4375 57.6875 
Q 17.828125 47.46875 14.984375 36.53125 
" id="Cmmi10-b5"/>
     </defs>
     <g style="fill:#d9d9d9;" transform="translate(200.51390625 230.268359375)scale(0.165 -0.165)">
      <use transform="translate(0.0 0.484375)" xlink:href="#Cmmi10-b5"/>
     </g>
    </g>
   </g>
   <g id="matplotlib.axis_2">
    <g id="ytick_1">
     <g id="line2d_31">
      <path clip-path="url(#paedfd71a98)" d="M 64.891406 192.74 
L 343.891406 192.74 
" style="fill:none;stroke:#808080;stroke-linecap:round;"/>
     </g>
     <g id="line2d_32"/>
     <g id="line2d_33"/>
     <g id="text_12">
      <!-- 0.00 -->
      <defs>
       <path d="M 9.078125 0 
L 9.078125 10.015625 
L 19.09375 10.015625 
L 19.09375 0 
z
" id="ArialMT-2e"/>
      </defs>
      <g style="fill:#d9d9d9;" transform="translate(28.7 196.617734375)scale(0.15 -0.15)">
       <use xlink:href="#ArialMT-30"/>
       <use x="55.615234375" xlink:href="#ArialMT-2e"/>
       <use x="83.3984375" xlink:href="#ArialMT-30"/>
       <use x="139.013671875" xlink:href="#ArialMT-30"/>
      </g>
     </g>
    </g>
    <g id="ytick_2">
     <g id="line2d_34">
      <path clip-path="url(#paedfd71a98)" d="M 64.891406 159.26 
L 343.891406 159.26 
" style="fill:none;stroke:#808080;stroke-linecap:round;"/>
     </g>
     <g id="line2d_35"/>
     <g id="line2d_36"/>
     <g id="text_13">
      <!-- 0.05 -->
      <defs>
       <path d="M 4.15625 18.75 
L 13.375 19.53125 
Q 14.40625 12.796875 18.140625 9.390625 
Q 21.875 6 27.15625 6 
Q 33.5 6 37.890625 10.78125 
Q 42.28125 15.578125 42.28125 23.484375 
Q 42.28125 31 38.0625 35.34375 
Q 33.84375 39.703125 27 39.703125 
Q 22.75 39.703125 19.328125 37.765625 
Q 15.921875 35.84375 13.96875 32.765625 
L 5.71875 33.84375 
L 12.640625 70.609375 
L 48.25 70.609375 
L 48.25 62.203125 
L 19.671875 62.203125 
L 15.828125 42.96875 
Q 22.265625 47.46875 29.34375 47.46875 
Q 38.71875 47.46875 45.15625 40.96875 
Q 51.609375 34.46875 51.609375 24.265625 
Q 51.609375 14.546875 45.953125 7.46875 
Q 39.0625 -1.21875 27.15625 -1.21875 
Q 17.390625 -1.21875 11.203125 4.25 
Q 5.03125 9.71875 4.15625 18.75 
" id="ArialMT-35"/>
      </defs>
      <g style="fill:#d9d9d9;" transform="translate(28.7 163.137734375)scale(0.15 -0.15)">
       <use xlink:href="#ArialMT-30"/>
       <use x="55.615234375" xlink:href="#ArialMT-2e"/>
       <use x="83.3984375" xlink:href="#ArialMT-30"/>
       <use x="139.013671875" xlink:href="#ArialMT-35"/>
      </g>
     </g>
    </g>
    <g id="ytick_3">
     <g id="line2d_37">
      <path clip-path="url(#paedfd71a98)" d="M 64.891406 125.78 
L 343.891406 125.78 
" style="fill:none;stroke:#808080;stroke-linecap:round;"/>
     </g>
     <g id="line2d_38"/>
     <g id="line2d_39"/>
     <g id="text_14">
      <!-- 0.10 -->
      <g style="fill:#d9d9d9;" transform="translate(28.7 129.657734375)scale(0.15 -0.15)">
       <use xlink:href="#ArialMT-30"/>
       <use x="55.615234375" xlink:href="#ArialMT-2e"/>
       <use x="83.3984375" xlink:href="#ArialMT-31"/>
       <use x="139.013671875" xlink:href="#ArialMT-30"/>
      </g>
     </g>
    </g>
    <g id="ytick_4">
     <g id="line2d_40">
      <path clip-path="url(#paedfd71a98)" d="M 64.891406 92.3 
L 343.891406 92.3 
" style="fill:none;stroke:#808080;stroke-linecap:round;"/>
     </g>
     <g id="line2d_41"/>
     <g id="line2d_42"/>
     <g id="text_15">
      <!-- 0.15 -->
      <g style="fill:#d9d9d9;" transform="translate(28.7 96.177734375)scale(0.15 -0.15)">
       <use xlink:href="#ArialMT-30"/>
       <use x="55.615234375" xlink:href="#ArialMT-2e"/>
       <use x="83.3984375" xlink:href="#ArialMT-31"/>
       <use x="139.013671875" xlink:href="#ArialMT-35"/>
      </g>
     </g>
    </g>
    <g id="ytick_5">
     <g id="line2d_43">
      <path clip-path="url(#paedfd71a98)" d="M 64.891406 58.82 
L 343.891406 58.82 
" style="fill:none;stroke:#808080;stroke-linecap:round;"/>
     </g>
     <g id="line2d_44"/>
     <g id="line2d_45"/>
     <g id="text_16">
      <!-- 0.20 -->
      <g style="fill:#d9d9d9;" transform="translate(28.7 62.697734375)scale(0.15 -0.15)">
       <use xlink:href="#ArialMT-30"/>
       <use x="55.615234375" xlink:href="#ArialMT-2e"/>
       <use x="83.3984375" xlink:href="#ArialMT-32"/>
       <use x="139.013671875" xlink:href="#ArialMT-30"/>
      </g>
     </g>
    </g>
    <g id="ytick_6">
     <g id="line2d_46">
      <path clip-path="url(#paedfd71a98)" d="M 64.891406 25.34 
L 343.891406 25.34 
" style="fill:none;stroke:#808080;stroke-linecap:round;"/>
     </g>
     <g id="line2d_47"/>
     <g id="line2d_48"/>
     <g id="text_17">
      <!-- 0.25 -->
      <g style="fill:#d9d9d9;" transform="translate(28.7 29.217734375)scale(0.15 -0.15)">
       <use xlink:href="#ArialMT-30"/>
       <use x="55.615234375" xlink:href="#ArialMT-2e"/>
       <use x="83.3984375" xlink:href="#ArialMT-32"/>
       <use x="139.013671875" xlink:href="#ArialMT-35"/>
      </g>
     </g>
    </g>
    <g id="text_18">
     <!-- $\theta_1/\theta$ -->
     <defs>
      <path d="M 5.609375 -23 
Q 5.609375 -22.703125 5.71875 -22.609375 
L 40.484375 73.78125 
Q 40.671875 74.359375 41.15625 74.671875 
Q 41.65625 75 42.28125 75 
Q 43.171875 75 43.71875 74.453125 
Q 44.28125 73.921875 44.28125 73 
L 44.28125 72.609375 
L 9.515625 -23.78125 
Q 8.9375 -25 7.625 -25 
Q 6.78125 -25 6.1875 -24.40625 
Q 5.609375 -23.828125 5.609375 -23 
" id="Cmmi10-3d"/>
      <path d="M 9.28125 0 
L 9.28125 3.515625 
Q 21.78125 3.515625 21.78125 6.6875 
L 21.78125 59.1875 
Q 16.609375 56.6875 8.6875 56.6875 
L 8.6875 60.203125 
Q 20.953125 60.203125 27.203125 66.609375 
L 28.609375 66.609375 
Q 28.953125 66.609375 29.265625 66.328125 
Q 29.59375 66.0625 29.59375 65.71875 
L 29.59375 6.6875 
Q 29.59375 3.515625 42.09375 3.515625 
L 42.09375 0 
z
" id="Cmr10-31"/>
     </defs>
     <g style="fill:#d9d9d9;" transform="translate(19.575 124.385)rotate(-90.0)scale(0.165 -0.165)">
      <use xlink:href="#Cmmi10-b5"/>
      <use transform="translate(46.923828125 -17.006249999999994)scale(0.7)" xlink:href="#Cmr10-31"/>
      <use transform="translate(88.301171875 0.0)" xlink:href="#Cmmi10-3d"/>
      <use transform="translate(138.301171875 0.0)" xlink:href="#Cmmi10-b5"/>
     </g>
    </g>
   </g>
   <g id="line2d_49">
    <path clip-path="url(#paedfd71a98)" d="M 67.513385 31.651954 
L 70.135363 33.229463 
L 72.757342 35.727191 
L 75.37932 38.977726 
L 78.001299 42.793631 
L 80.623277 46.993222 
L 83.245256 51.417219 
L 85.867234 55.936173 
L 88.489213 60.451101 
L 91.111191 64.890273 
L 93.73317 69.204424 
L 96.355148 73.361806 
L 98.977126 77.343794 
L 101.599105 81.141273 
L 104.221083 84.751823 
L 106.843062 88.1776 
L 109.46504 91.423776 
L 112.087019 94.497414 
L 114.708997 97.406674 
L 117.330976 100.160253 
L 119.952954 102.767006 
L 122.574933 105.23569 
L 125.196911 107.574798 
L 127.81889 109.792457 
L 130.440868 111.896366 
L 133.062847 113.893773 
L 135.684825 115.791462 
L 138.306804 117.595762 
L 140.928782 119.312561 
L 143.550761 120.947328 
L 146.172739 122.505133 
L 148.794718 123.990675 
L 151.416696 125.408306 
L 154.038675 126.762053 
L 156.660653 128.055648 
L 159.282632 129.292544 
L 161.90461 130.475939 
L 164.526589 131.608797 
L 167.148567 132.693862 
L 169.770545 133.733679 
L 172.392524 134.730608 
L 175.014502 135.686839 
L 177.636481 136.6044 
L 180.258459 137.485177 
L 182.880438 138.330919 
L 185.502416 139.143248 
L 188.124395 139.923671 
L 190.746373 140.673584 
L 193.368352 141.394283 
L 195.99033 142.086968 
L 198.612309 142.752751 
L 201.234287 143.392658 
L 203.856266 144.007637 
L 206.478244 144.59856 
L 209.100223 145.166228 
L 211.722201 145.711374 
L 214.34418 146.234663 
L 216.966158 146.736698 
L 219.588137 147.218021 
L 222.210115 147.679111 
L 224.832094 148.120387 
L 227.454072 148.542211 
L 230.076051 148.944882 
L 232.698029 149.328641 
L 235.320007 149.693665 
L 237.941986 150.040068 
L 240.563964 150.367897 
L 243.185943 150.677129 
L 245.807921 150.967669 
L 248.4299 151.239338 
L 251.051878 151.491875 
L 253.673857 151.724923 
L 256.295835 151.938023 
L 258.917814 152.130599 
L 261.539792 152.301949 
L 264.161771 152.451228 
L 266.783749 152.577425 
L 269.405728 152.679346 
L 272.027706 152.755581 
L 274.649685 152.804477 
L 277.271663 152.824093 
L 279.893642 152.81216 
L 282.51562 152.766018 
L 285.137599 152.682555 
L 287.759577 152.558122 
L 290.381556 152.388445 
L 293.003534 152.168507 
L 295.625513 151.892426 
L 298.247491 151.553308 
L 300.86947 151.143104 
L 303.491448 150.652471 
L 306.113426 150.070696 
L 308.735405 149.385756 
L 311.357383 148.584704 
L 313.979362 147.654729 
L 316.60134 146.585588 
L 319.223319 145.374825 
L 321.845297 144.03859 
" style="fill:none;stroke:#00d7ff;stroke-linecap:round;stroke-width:1.75;"/>
   </g>
   <g id="line2d_50">
    <path clip-path="url(#paedfd71a98)" d="M 67.513385 40.794993 
L 70.135363 42.241289 
L 72.757342 44.5338 
L 75.37932 47.521775 
L 78.001299 51.035713 
L 80.623277 54.91044 
L 83.245256 59.000275 
L 85.867234 63.186017 
L 88.489213 67.375836 
L 91.111191 71.502603 
L 93.73317 75.519724 
L 96.355148 79.396746 
L 98.977126 83.11539 
L 101.599105 86.666279 
L 104.221083 90.046352 
L 106.843062 93.256908 
L 109.46504 96.302158 
L 112.087019 99.188171 
L 114.708997 101.922118 
L 117.330976 104.511751 
L 119.952954 106.965031 
L 122.574933 109.289881 
L 125.196911 111.494025 
L 127.81889 113.584881 
L 130.440868 115.569501 
L 133.062847 117.454542 
L 135.684825 119.24625 
L 138.306804 120.950463 
L 140.928782 122.572624 
L 143.550761 124.117793 
L 146.172739 125.590672 
L 148.794718 126.995622 
L 151.416696 128.336686 
L 154.038675 129.617613 
L 156.660653 130.841874 
L 159.282632 132.012689 
L 161.90461 133.13304 
L 164.526589 134.205692 
L 167.148567 135.233209 
L 169.770545 136.217969 
L 172.392524 137.162176 
L 175.014502 138.067878 
L 177.636481 138.936974 
L 180.258459 139.771225 
L 182.880438 140.57227 
L 185.502416 141.341625 
L 188.124395 142.0807 
L 190.746373 142.790802 
L 193.368352 143.473141 
L 195.99033 144.12884 
L 198.612309 144.758936 
L 201.234287 145.364387 
L 203.856266 145.946076 
L 206.478244 146.504816 
L 209.100223 147.041349 
L 211.722201 147.556355 
L 214.34418 148.050448 
L 216.966158 148.524183 
L 219.588137 148.978055 
L 222.210115 149.412499 
L 224.832094 149.827894 
L 227.454072 150.224558 
L 230.076051 150.602755 
L 232.698029 150.962684 
L 235.320007 151.304486 
L 237.941986 151.628239 
L 240.563964 151.933953 
L 243.185943 152.22157 
L 245.807921 152.490953 
L 248.4299 152.74189 
L 251.051878 152.974078 
L 253.673857 153.187118 
L 256.295835 153.380506 
L 258.917814 153.55362 
L 261.539792 153.705705 
L 264.161771 153.835856 
L 266.783749 153.942998 
L 269.405728 154.025859 
L 272.027706 154.082943 
L 274.649685 154.112494 
L 277.271663 154.112449 
L 279.893642 154.08039 
L 282.51562 154.013479 
L 285.137599 153.908381 
L 287.759577 153.761174 
L 290.381556 153.567233 
L 293.003534 153.321099 
L 295.625513 153.016314 
L 298.247491 152.645237 
L 300.86947 152.198827 
L 303.491448 151.666412 
L 306.113426 151.035471 
L 308.735405 150.29149 
L 311.357383 149.418044 
L 313.979362 148.397394 
L 316.60134 147.212236 
L 319.223319 145.84991 
L 321.845297 144.311804 
" style="fill:none;stroke:#03ed3a;stroke-dasharray:6.000000,6.000000;stroke-dashoffset:0.0;"/>
   </g>
   <g id="line2d_51">
    <path clip-path="url(#paedfd71a98)" d="M 67.513385 125.791205 
L 70.135363 125.824799 
L 72.757342 125.880721 
L 75.37932 125.95887 
L 78.001299 126.059105 
L 80.623277 126.181245 
L 83.245256 126.325067 
L 85.867234 126.490311 
L 88.489213 126.676677 
L 91.111191 126.883827 
L 93.73317 127.111385 
L 96.355148 127.358935 
L 98.977126 127.626029 
L 101.599105 127.912178 
L 104.221083 128.21686 
L 106.843062 128.539519 
L 109.46504 128.879565 
L 112.087019 129.236374 
L 114.708997 129.609293 
L 117.330976 129.997638 
L 119.952954 130.400695 
L 122.574933 130.817723 
L 125.196911 131.247954 
L 127.81889 131.690597 
L 130.440868 132.144836 
L 133.062847 132.609836 
L 135.684825 133.084738 
L 138.306804 133.568671 
L 140.928782 134.060743 
L 143.550761 134.560052 
L 146.172739 135.065683 
L 148.794718 135.576713 
L 151.416696 136.092212 
L 154.038675 136.611247 
L 156.660653 137.132881 
L 159.282632 137.656183 
L 161.90461 138.180223 
L 164.526589 138.704081 
L 167.148567 139.226847 
L 169.770545 139.747626 
L 172.392524 140.265539 
L 175.014502 140.779728 
L 177.636481 141.289363 
L 180.258459 141.793636 
L 182.880438 142.291776 
L 185.502416 142.783043 
L 188.124395 143.266738 
L 190.746373 143.742203 
L 193.368352 144.208824 
L 195.99033 144.666036 
L 198.612309 145.113327 
L 201.234287 145.550236 
L 203.856266 145.97636 
L 206.478244 146.391355 
L 209.100223 146.794933 
L 211.722201 147.18686 
L 214.34418 147.566939 
L 216.966158 147.935001 
L 219.588137 148.2909 
L 222.210115 148.634503 
L 224.832094 148.965681 
L 227.454072 149.284309 
L 230.076051 149.590252 
L 232.698029 149.883369 
L 235.320007 150.163499 
L 237.941986 150.430463 
L 240.563964 150.684054 
L 243.185943 150.924035 
L 245.807921 151.15013 
L 248.4299 151.362022 
L 251.051878 151.559342 
L 253.673857 151.741664 
L 256.295835 151.908497 
L 258.917814 152.059272 
L 261.539792 152.193333 
L 264.161771 152.309924 
L 266.783749 152.408173 
L 269.405728 152.48707 
L 272.027706 152.54545 
L 274.649685 152.58196 
L 277.271663 152.595032 
L 279.893642 152.582837 
L 282.51562 152.543237 
L 285.137599 152.473724 
L 287.759577 152.371338 
L 290.381556 152.232569 
L 293.003534 152.053228 
L 295.625513 151.828279 
L 298.247491 151.551618 
L 300.86947 151.215782 
L 303.491448 150.811544 
L 306.113426 150.327369 
L 308.735405 149.748621 
L 311.357383 149.056472 
L 313.979362 148.226223 
L 316.60134 147.224796 
L 319.223319 146.006766 
L 321.845297 144.50785 
" style="fill:none;stroke:#ffc400;stroke-linecap:round;stroke-width:1.75;"/>
   </g>
   <g id="line2d_52">
    <path clip-path="url(#paedfd71a98)" d="M 67.513385 125.791233 
L 70.135363 125.824826 
L 72.757342 125.880675 
L 75.37932 125.958606 
L 78.001299 126.05838 
L 80.623277 126.179695 
L 83.245256 126.322204 
L 85.867234 126.485497 
L 88.489213 126.669066 
L 91.111191 126.872386 
L 93.73317 127.094891 
L 96.355148 127.335979 
L 98.977126 127.59501 
L 101.599105 127.871323 
L 104.221083 128.16423 
L 106.843062 128.473031 
L 109.46504 128.797013 
L 112.087019 129.135458 
L 114.708997 129.487649 
L 117.330976 129.852871 
L 119.952954 130.230419 
L 122.574933 130.619602 
L 125.196911 131.019743 
L 127.81889 131.430191 
L 130.440868 131.85033 
L 133.062847 132.279528 
L 135.684825 132.717205 
L 138.306804 133.162808 
L 140.928782 133.615816 
L 143.550761 134.075744 
L 146.172739 134.542156 
L 148.794718 135.014604 
L 151.416696 135.492703 
L 154.038675 135.976098 
L 156.660653 136.464473 
L 159.282632 136.957551 
L 161.90461 137.455083 
L 164.526589 137.956846 
L 167.148567 138.462661 
L 169.770545 138.972382 
L 172.392524 139.485896 
L 175.014502 140.003124 
L 177.636481 140.524019 
L 180.258459 141.048566 
L 182.880438 141.576782 
L 185.502416 142.108714 
L 188.124395 142.64444 
L 190.746373 143.184067 
L 193.368352 143.727735 
L 195.99033 144.275627 
L 198.612309 144.827921 
L 201.234287 145.384845 
L 203.856266 145.946671 
L 206.478244 146.51366 
L 209.100223 147.086136 
L 211.722201 147.664438 
L 214.34418 148.248919 
L 216.966158 148.839974 
L 219.588137 149.438021 
L 222.210115 150.043501 
L 224.832094 150.656875 
L 227.454072 151.27862 
L 230.076051 151.90929 
L 232.698029 152.549358 
L 235.320007 153.199427 
L 237.941986 153.860039 
L 240.563964 154.53178 
L 243.185943 155.215249 
L 245.807921 155.911061 
L 248.4299 156.619848 
L 251.051878 157.342205 
L 253.673857 158.078763 
L 256.295835 158.830156 
L 258.917814 159.596993 
L 261.539792 160.37985 
L 264.161771 161.179306 
L 266.783749 161.995898 
L 269.405728 162.830154 
L 272.027706 163.682535 
L 274.649685 164.553424 
L 277.271663 165.443182 
L 279.893642 166.352067 
L 282.51562 167.280267 
L 285.137599 168.227855 
L 287.759577 169.194825 
L 290.381556 170.181009 
L 293.003534 171.186139 
L 295.625513 172.209781 
L 298.247491 173.251361 
L 300.86947 174.310125 
L 303.491448 175.385167 
L 306.113426 176.475382 
L 308.735405 177.579474 
L 311.357383 178.69599 
L 313.979362 179.823257 
L 316.60134 180.959439 
L 319.223319 182.102516 
L 321.845297 183.250308 
L 324.467276 184.400473 
" style="fill:none;stroke:#ffffff;stroke-dasharray:1.000000,3.000000;stroke-dashoffset:0.0;stroke-width:1.75;"/>
   </g>
   <g id="patch_3">
    <path d="M 343.891406 192.74 
L 343.891406 25.34 
" style="fill:none;"/>
   </g>
   <g id="patch_4">
    <path d="M 64.891406 25.34 
L 343.891406 25.34 
" style="fill:none;"/>
   </g>
   <g id="patch_5">
    <path d="M 64.891406 192.74 
L 343.891406 192.74 
" style="fill:none;"/>
   </g>
   <g id="patch_6">
    <path d="M 64.891406 192.74 
L 64.891406 25.34 
" style="fill:none;"/>
   </g>
   <g id="text_19">
    <!-- After fit: $\xi = 0.4$; $\beta = 0.0100$ -->
    <defs>
     <path d="M 8.6875 0 
L 8.6875 45.015625 
L 0.921875 45.015625 
L 0.921875 51.859375 
L 8.6875 51.859375 
L 8.6875 57.375 
Q 8.6875 62.59375 9.625 65.140625 
Q 10.890625 68.5625 14.078125 70.671875 
Q 17.28125 72.796875 23.046875 72.796875 
Q 26.765625 72.796875 31.25 71.921875 
L 29.9375 64.265625 
Q 27.203125 64.75 24.75 64.75 
Q 20.75 64.75 19.09375 63.03125 
Q 17.4375 61.328125 17.4375 56.640625 
L 17.4375 51.859375 
L 27.546875 51.859375 
L 27.546875 45.015625 
L 17.4375 45.015625 
L 17.4375 0 
z
" id="ArialMT-66"/>
     <path d="M -0.140625 0 
L 27.34375 71.578125 
L 37.546875 71.578125 
L 66.84375 0 
L 56.0625 0 
L 47.703125 21.6875 
L 17.78125 21.6875 
L 9.90625 0 
z
M 20.515625 29.390625 
L 44.78125 29.390625 
L 37.3125 49.21875 
Q 33.890625 58.25 32.234375 64.0625 
Q 30.859375 57.171875 28.375 50.390625 
z
" id="ArialMT-41"/>
     <path id="ArialMT-20"/>
     <path d="M 42.09375 16.703125 
L 51.171875 15.578125 
Q 49.03125 7.625 43.21875 3.21875 
Q 37.40625 -1.171875 28.375 -1.171875 
Q 17 -1.171875 10.328125 5.828125 
Q 3.65625 12.84375 3.65625 25.484375 
Q 3.65625 38.578125 10.390625 45.796875 
Q 17.140625 53.03125 27.875 53.03125 
Q 38.28125 53.03125 44.875 45.953125 
Q 51.46875 38.875 51.46875 26.03125 
Q 51.46875 25.25 51.421875 23.6875 
L 12.75 23.6875 
Q 13.234375 15.140625 17.578125 10.59375 
Q 21.921875 6.0625 28.421875 6.0625 
Q 33.25 6.0625 36.671875 8.59375 
Q 40.09375 11.140625 42.09375 16.703125 
M 13.234375 30.90625 
L 42.1875 30.90625 
Q 41.609375 37.453125 38.875 40.71875 
Q 34.671875 45.796875 27.984375 45.796875 
Q 21.921875 45.796875 17.796875 41.75 
Q 13.671875 37.703125 13.234375 30.90625 
" id="ArialMT-65"/>
     <path d="M 25.78125 7.859375 
L 27.046875 0.09375 
Q 23.34375 -0.6875 20.40625 -0.6875 
Q 15.625 -0.6875 12.984375 0.828125 
Q 10.359375 2.34375 9.28125 4.8125 
Q 8.203125 7.28125 8.203125 15.1875 
L 8.203125 45.015625 
L 1.765625 45.015625 
L 1.765625 51.859375 
L 8.203125 51.859375 
L 8.203125 64.703125 
L 16.9375 69.96875 
L 16.9375 51.859375 
L 25.78125 51.859375 
L 25.78125 45.015625 
L 16.9375 45.015625 
L 16.9375 14.703125 
Q 16.9375 10.9375 17.40625 9.859375 
Q 17.875 8.796875 18.921875 8.15625 
Q 19.96875 7.515625 21.921875 7.515625 
Q 23.390625 7.515625 25.78125 7.859375 
" id="ArialMT-74"/>
     <path d="M 6.5 0 
L 6.5 51.859375 
L 14.40625 51.859375 
L 14.40625 44 
Q 17.4375 49.515625 20 51.265625 
Q 22.5625 53.03125 25.640625 53.03125 
Q 30.078125 53.03125 34.671875 50.203125 
L 31.640625 42.046875 
Q 28.421875 43.953125 25.203125 43.953125 
Q 22.3125 43.953125 20.015625 42.21875 
Q 17.71875 40.484375 16.75 37.40625 
Q 15.28125 32.71875 15.28125 27.15625 
L 15.28125 0 
z
" id="ArialMT-72"/>
     <path d="M 6.640625 61.46875 
L 6.640625 71.578125 
L 15.4375 71.578125 
L 15.4375 61.46875 
z
M 6.640625 0 
L 6.640625 51.859375 
L 15.4375 51.859375 
L 15.4375 0 
z
" id="ArialMT-69"/>
     <path d="M 2.6875 -19.390625 
Q 2.390625 -19.390625 2.140625 -19.046875 
Q 1.90625 -18.703125 1.90625 -18.40625 
L 17.28125 43.40625 
Q 18.609375 48.390625 21.140625 53.078125 
Q 23.6875 57.765625 27.515625 61.796875 
Q 31.34375 65.828125 35.9375 68.171875 
Q 40.53125 70.515625 45.703125 70.515625 
Q 49.421875 70.515625 52.421875 68.875 
Q 55.421875 67.234375 57.15625 64.28125 
Q 58.890625 61.328125 58.890625 57.625 
Q 58.890625 54.046875 57.515625 50.796875 
Q 56.15625 47.5625 53.703125 44.75 
Q 51.265625 41.9375 48.484375 40.1875 
Q 50.09375 39.15625 51.359375 37.5625 
Q 52.640625 35.984375 53.421875 34.25 
Q 54.203125 32.515625 54.640625 30.390625 
Q 55.078125 28.265625 55.078125 26.421875 
Q 55.078125 21.296875 52.875 16.3125 
Q 50.6875 11.328125 46.890625 7.265625 
Q 43.109375 3.21875 38.21875 0.84375 
Q 33.34375 -1.515625 28.21875 -1.515625 
Q 22.609375 -1.515625 18.109375 1.5625 
Q 13.625 4.640625 11.921875 9.90625 
L 4.6875 -18.796875 
Q 4.6875 -19.390625 3.90625 -19.390625 
z
M 28.421875 1.21875 
Q 32.90625 1.21875 36.546875 4.171875 
Q 40.1875 7.125 42.546875 11.59375 
Q 44.921875 16.0625 46.15625 21.0625 
Q 47.40625 26.078125 47.40625 30.171875 
Q 47.40625 35.25 44.484375 38.1875 
Q 41.0625 36.921875 37.796875 36.921875 
Q 29.890625 36.921875 29.890625 39.59375 
Q 29.890625 43.109375 38.921875 43.109375 
Q 42.140625 43.109375 44.828125 42.09375 
Q 46.96875 43.75 48.71875 46.96875 
Q 50.484375 50.203125 51.390625 53.71875 
Q 52.296875 57.234375 52.296875 60.296875 
Q 52.296875 63.578125 50.5625 65.75 
Q 48.828125 67.921875 45.515625 67.921875 
Q 39.40625 67.921875 34.15625 64.15625 
Q 28.90625 60.40625 25.296875 54.65625 
Q 21.6875 48.921875 20.125 42.828125 
L 14.59375 20.703125 
Q 14.0625 18.40625 13.921875 15.578125 
Q 13.921875 9.328125 18.015625 5.265625 
Q 22.125 1.21875 28.421875 1.21875 
M 32.90625 39.890625 
Q 34.421875 39.5 37.890625 39.5 
Q 39.59375 39.5 41.3125 40.09375 
Q 41.21875 40.1875 40.921875 40.1875 
Q 39.84375 40.484375 38.625 40.484375 
Q 34.078125 40.484375 32.90625 39.890625 
" id="Cmmi10-af"/>
     <path d="M 25 -2.203125 
Q 12.75 -2.203125 8.328125 7.875 
Q 3.90625 17.96875 3.90625 31.890625 
Q 3.90625 40.578125 5.484375 48.234375 
Q 7.078125 55.90625 11.78125 61.25 
Q 16.5 66.609375 25 66.609375 
Q 31.59375 66.609375 35.78125 63.375 
Q 39.984375 60.15625 42.1875 55.046875 
Q 44.390625 49.953125 45.1875 44.109375 
Q 46 38.28125 46 31.890625 
Q 46 23.296875 44.40625 15.796875 
Q 42.828125 8.296875 38.1875 3.046875 
Q 33.546875 -2.203125 25 -2.203125 
M 25 0.390625 
Q 30.5625 0.390625 33.296875 6.09375 
Q 36.03125 11.8125 36.671875 18.75 
Q 37.3125 25.6875 37.3125 33.5 
Q 37.3125 41.015625 36.671875 47.359375 
Q 36.03125 53.71875 33.3125 58.859375 
Q 30.609375 64.015625 25 64.015625 
Q 19.34375 64.015625 16.609375 58.828125 
Q 13.875 53.65625 13.234375 47.328125 
Q 12.59375 41.015625 12.59375 33.5 
Q 12.59375 27.9375 12.859375 23 
Q 13.140625 18.0625 14.3125 12.8125 
Q 15.484375 7.5625 18.09375 3.96875 
Q 20.703125 0.390625 25 0.390625 
" id="Cmr10-30"/>
     <path d="M 9.03125 41.84375 
L 9.03125 51.859375 
L 19.046875 51.859375 
L 19.046875 41.84375 
z
M 9.03125 0 
L 9.03125 10.015625 
L 19.046875 10.015625 
L 19.046875 0 
z
" id="ArialMT-3a"/>
     <path d="M 16.3125 -15.578125 
Q 16.453125 -14.40625 17.671875 -14.40625 
Q 17.78125 -14.40625 19.5625 -15.375 
Q 21.34375 -16.359375 23.484375 -17.140625 
Q 25.640625 -17.921875 27.78125 -17.921875 
Q 29.640625 -17.921875 30.90625 -16.328125 
Q 32.171875 -14.75 32.171875 -12.890625 
Q 32.171875 -10.25 29.390625 -9.1875 
L 12.40625 -2.59375 
Q 8.015625 -0.875 5.15625 2.515625 
Q 2.296875 5.90625 2.296875 10.203125 
Q 2.296875 14.0625 4.34375 18.234375 
Q 6.390625 22.40625 9.609375 25.796875 
Q 12.84375 29.203125 16.5 31.296875 
Q 13.578125 33.0625 11.9375 35.8125 
Q 10.296875 38.578125 10.296875 41.890625 
Q 10.296875 45.40625 11.734375 48.4375 
Q 13.1875 51.46875 15.671875 53.953125 
Q 18.171875 56.453125 21.234375 58.171875 
Q 24.3125 59.90625 27.484375 60.796875 
Q 27 62.84375 27 64.5 
Q 27 69.921875 29.109375 69.921875 
Q 29.640625 69.921875 30.03125 69.53125 
Q 30.421875 69.140625 30.421875 68.609375 
Q 30.421875 68.109375 30.15625 66.453125 
Q 29.890625 64.796875 29.890625 64.40625 
Q 29.890625 62.703125 30.328125 61.375 
Q 32.90625 61.921875 35.296875 61.921875 
Q 44.484375 61.921875 44.484375 59.078125 
Q 44.484375 55.71875 34.28125 55.71875 
Q 31.15625 55.71875 29.203125 57.8125 
Q 26.3125 56.34375 23.875 53.65625 
Q 21.4375 50.984375 20.0625 47.6875 
Q 18.703125 44.390625 18.703125 41.015625 
Q 18.703125 36.328125 21.390625 33.5 
Q 24.953125 34.71875 28.515625 34.71875 
Q 37.703125 34.71875 37.703125 31.890625 
Q 37.703125 28.515625 27.484375 28.515625 
Q 23.34375 28.515625 19.671875 29.78125 
Q 15.234375 27.390625 11.515625 22.5 
Q 7.8125 17.625 7.8125 13.09375 
Q 7.8125 10.15625 9.9375 7.9375 
Q 12.0625 5.71875 15.1875 4.390625 
L 32.90625 -2.484375 
Q 35.203125 -3.375 36.640625 -5.296875 
Q 38.09375 -7.234375 38.09375 -9.71875 
Q 38.09375 -13.8125 34.9375 -17.15625 
Q 31.78125 -20.515625 27.6875 -20.515625 
Q 26.421875 -20.515625 23.53125 -19.828125 
Q 20.65625 -19.140625 18.484375 -18.015625 
Q 16.3125 -16.890625 16.3125 -15.578125 
M 24.421875 31.59375 
Q 25.734375 31.109375 27.6875 31.109375 
Q 32.515625 31.109375 34.625 31.6875 
Q 32.71875 32.078125 28.421875 32.078125 
Q 26.703125 32.078125 24.421875 31.59375 
M 32.078125 58.890625 
Q 32.953125 58.296875 34.515625 58.296875 
Q 39.3125 58.296875 41.40625 58.890625 
z
" id="Cmmi10-bb"/>
     <path d="M 8.890625 41.84375 
L 8.890625 51.859375 
L 18.890625 51.859375 
L 18.890625 41.84375 
z
M 8.890625 0 
L 8.890625 10.015625 
L 18.890625 10.015625 
L 18.890625 0 
Q 18.890625 -5.515625 16.9375 -8.90625 
Q 14.984375 -12.3125 10.75 -14.15625 
L 8.296875 -10.40625 
Q 11.078125 -9.1875 12.390625 -6.8125 
Q 13.71875 -4.4375 13.875 0 
z
" id="ArialMT-3b"/>
     <path d="M 8.40625 5.515625 
Q 8.40625 7.765625 10.0625 9.375 
Q 11.71875 10.984375 13.921875 10.984375 
Q 15.28125 10.984375 16.59375 10.25 
Q 17.921875 9.515625 18.65625 8.203125 
Q 19.390625 6.890625 19.390625 5.515625 
Q 19.390625 3.328125 17.765625 1.65625 
Q 16.15625 0 13.921875 0 
Q 11.71875 0 10.0625 1.65625 
Q 8.40625 3.328125 8.40625 5.515625 
" id="Cmmi10-3a"/>
     <path d="M 2.78125 16.5 
L 2.78125 20.015625 
L 33.6875 66.109375 
Q 34.03125 66.609375 34.71875 66.609375 
L 36.1875 66.609375 
Q 37.3125 66.609375 37.3125 65.484375 
L 37.3125 20.015625 
L 47.125 20.015625 
L 47.125 16.5 
L 37.3125 16.5 
L 37.3125 6.6875 
Q 37.3125 4.640625 40.234375 4.078125 
Q 43.171875 3.515625 47.015625 3.515625 
L 47.015625 0 
L 19.484375 0 
L 19.484375 3.515625 
Q 23.34375 3.515625 26.265625 4.078125 
Q 29.203125 4.640625 29.203125 6.6875 
L 29.203125 16.5 
z
M 6.109375 20.015625 
L 29.78125 20.015625 
L 29.78125 55.421875 
z
" id="Cmr10-34"/>
     <path d="M 7.515625 13.28125 
Q 6.6875 13.28125 6.140625 13.90625 
Q 5.609375 14.546875 5.609375 15.28125 
Q 5.609375 16.109375 6.140625 16.6875 
Q 6.6875 17.28125 7.515625 17.28125 
L 70.3125 17.28125 
Q 71.046875 17.28125 71.578125 16.6875 
Q 72.125 16.109375 72.125 15.28125 
Q 72.125 14.546875 71.578125 13.90625 
Q 71.046875 13.28125 70.3125 13.28125 
z
M 7.515625 32.71875 
Q 6.6875 32.71875 6.140625 33.296875 
Q 5.609375 33.890625 5.609375 34.71875 
Q 5.609375 35.453125 6.140625 36.078125 
Q 6.6875 36.71875 7.515625 36.71875 
L 70.3125 36.71875 
Q 71.046875 36.71875 71.578125 36.078125 
Q 72.125 35.453125 72.125 34.71875 
Q 72.125 33.890625 71.578125 33.296875 
Q 71.046875 32.71875 70.3125 32.71875 
z
" id="Cmr10-3d"/>
    </defs>
    <g style="fill:#d9d9d9;" transform="translate(96.84140625 20.34)scale(0.18 -0.18)">
     <use transform="translate(0.0 0.203125)" xlink:href="#ArialMT-41"/>
     <use transform="translate(66.69921875 0.203125)" xlink:href="#ArialMT-66"/>
     <use transform="translate(94.482421875 0.203125)" xlink:href="#ArialMT-74"/>
     <use transform="translate(122.265625 0.203125)" xlink:href="#ArialMT-65"/>
     <use transform="translate(177.880859375 0.203125)" xlink:href="#ArialMT-72"/>
     <use transform="translate(211.181640625 0.203125)" xlink:href="#ArialMT-20"/>
     <use transform="translate(238.96484375 0.203125)" xlink:href="#ArialMT-66"/>
     <use transform="translate(266.748046875 0.203125)" xlink:href="#ArialMT-69"/>
     <use transform="translate(288.96484375 0.203125)" xlink:href="#ArialMT-74"/>
     <use transform="translate(316.748046875 0.203125)" xlink:href="#ArialMT-3a"/>
     <use transform="translate(344.53125 0.203125)" xlink:href="#ArialMT-20"/>
     <use transform="translate(372.314453125 0.203125)" xlink:href="#Cmmi10-bb"/>
     <use transform="translate(433.57421875 0.203125)" xlink:href="#Cmr10-3d"/>
     <use transform="translate(528.818359375 0.203125)" xlink:href="#Cmr10-30"/>
     <use transform="translate(578.818359375 0.203125)" xlink:href="#Cmmi10-3a"/>
     <use transform="translate(624.0625 0.203125)" xlink:href="#Cmr10-34"/>
     <use transform="translate(674.0625 0.203125)" xlink:href="#ArialMT-3b"/>
     <use transform="translate(701.845703125 0.203125)" xlink:href="#ArialMT-20"/>
     <use transform="translate(729.62890625 0.203125)" xlink:href="#Cmmi10-af"/>
     <use transform="translate(803.681640625 0.203125)" xlink:href="#Cmr10-3d"/>
     <use transform="translate(898.92578125 0.203125)" xlink:href="#Cmr10-30"/>
     <use transform="translate(948.92578125 0.203125)" xlink:href="#Cmmi10-3a"/>
     <use transform="translate(994.169921875 0.203125)" xlink:href="#Cmr10-30"/>
     <use transform="translate(1044.169921875 0.203125)" xlink:href="#Cmr10-31"/>
     <use transform="translate(1094.169921875 0.203125)" xlink:href="#Cmr10-30"/>
     <use transform="translate(1144.169921875 0.203125)" xlink:href="#Cmr10-30"/>
    </g>
   </g>
  </g>
 </g>
 <defs>
  <clipPath id="paedfd71a98">
   <rect height="167.4" width="279.0" x="64.89140625" y="25.34"/>
  </clipPath>
 </defs>
</svg>
