<?xml version="1.0" encoding="utf-8" standalone="no"?>
<!DOCTYPE svg PUBLIC "-//W3C//DTD SVG 1.1//EN"
  "http://www.w3.org/Graphics/SVG/1.1/DTD/svg11.dtd">
<!-- Created with matplotlib (http://matplotlib.org/) -->
<svg height="240pt" version="1.1" viewBox="0 0 363 240" width="363pt" xmlns="http://www.w3.org/2000/svg" xmlns:xlink="http://www.w3.org/1999/xlink">
 <defs>
  <style type="text/css">
*{stroke-linecap:butt;stroke-linejoin:round;stroke-miterlimit:100000;}
  </style>
 </defs>
 <g id="figure_1">
  <g id="patch_1">
   <path d="M 0 240.747734 
L 363.603516 240.747734 
L 363.603516 0 
L 0 0 
z
" style="fill:#3f3f3f;"/>
  </g>
  <g id="axes_1">
   <g id="patch_2">
    <path d="M 64.891406 192.74 
L 343.891406 192.74 
L 343.891406 25.34 
L 64.891406 25.34 
z
" style="fill:#504040;"/>
   </g>
   <g id="matplotlib.axis_1">
    <g id="xtick_1">
     <g id="line2d_1">
      <path clip-path="url(#p6a45ad957b)" d="M 64.891406 192.74 
L 64.891406 25.34 
" style="fill:none;stroke:#808080;stroke-linecap:round;"/>
     </g>
     <g id="line2d_2"/>
     <g id="line2d_3"/>
     <g id="text_1">
      <!-- 0 -->
      <defs>
       <path d="M 4.15625 35.296875 
Q 4.15625 48 6.765625 55.734375 
Q 9.375 63.484375 14.515625 67.671875 
Q 19.671875 71.875 27.484375 71.875 
Q 33.25 71.875 37.59375 69.546875 
Q 41.9375 67.234375 44.765625 62.859375 
Q 47.609375 58.5 49.21875 52.21875 
Q 50.828125 45.953125 50.828125 35.296875 
Q 50.828125 22.703125 48.234375 14.96875 
Q 45.65625 7.234375 40.5 3 
Q 35.359375 -1.21875 27.484375 -1.21875 
Q 17.140625 -1.21875 11.234375 6.203125 
Q 4.15625 15.140625 4.15625 35.296875 
M 13.1875 35.296875 
Q 13.1875 17.671875 17.3125 11.828125 
Q 21.4375 6 27.484375 6 
Q 33.546875 6 37.671875 11.859375 
Q 41.796875 17.71875 41.796875 35.296875 
Q 41.796875 52.984375 37.671875 58.78125 
Q 33.546875 64.59375 27.390625 64.59375 
Q 21.34375 64.59375 17.71875 59.46875 
Q 13.1875 52.9375 13.1875 35.296875 
" id="ArialMT-30"/>
      </defs>
      <g style="fill:#d9d9d9;" transform="translate(60.720703125 210.47671875)scale(0.15 -0.15)">
       <use xlink:href="#ArialMT-30"/>
      </g>
     </g>
    </g>
    <g id="xtick_2">
     <g id="line2d_4">
      <path clip-path="url(#p6a45ad957b)" d="M 95.891406 192.74 
L 95.891406 25.34 
" style="fill:none;stroke:#808080;stroke-linecap:round;"/>
     </g>
     <g id="line2d_5"/>
     <g id="line2d_6"/>
     <g id="text_2">
      <!-- 20 -->
      <defs>
       <path d="M 50.34375 8.453125 
L 50.34375 0 
L 3.03125 0 
Q 2.9375 3.171875 4.046875 6.109375 
Q 5.859375 10.9375 9.828125 15.625 
Q 13.8125 20.3125 21.34375 26.46875 
Q 33.015625 36.03125 37.109375 41.625 
Q 41.21875 47.21875 41.21875 52.203125 
Q 41.21875 57.421875 37.46875 61 
Q 33.734375 64.59375 27.734375 64.59375 
Q 21.390625 64.59375 17.578125 60.78125 
Q 13.765625 56.984375 13.71875 50.25 
L 4.6875 51.171875 
Q 5.609375 61.28125 11.65625 66.578125 
Q 17.71875 71.875 27.9375 71.875 
Q 38.234375 71.875 44.234375 66.15625 
Q 50.25 60.453125 50.25 52 
Q 50.25 47.703125 48.484375 43.546875 
Q 46.734375 39.40625 42.65625 34.8125 
Q 38.578125 30.21875 29.109375 22.21875 
Q 21.1875 15.578125 18.9375 13.203125 
Q 16.703125 10.84375 15.234375 8.453125 
z
" id="ArialMT-32"/>
      </defs>
      <g style="fill:#d9d9d9;" transform="translate(87.55 210.47671875)scale(0.15 -0.15)">
       <use xlink:href="#ArialMT-32"/>
       <use x="55.615234375" xlink:href="#ArialMT-30"/>
      </g>
     </g>
    </g>
    <g id="xtick_3">
     <g id="line2d_7">
      <path clip-path="url(#p6a45ad957b)" d="M 126.891406 192.74 
L 126.891406 25.34 
" style="fill:none;stroke:#808080;stroke-linecap:round;"/>
     </g>
     <g id="line2d_8"/>
     <g id="line2d_9"/>
     <g id="text_3">
      <!-- 40 -->
      <defs>
       <path d="M 32.328125 0 
L 32.328125 17.140625 
L 1.265625 17.140625 
L 1.265625 25.203125 
L 33.9375 71.578125 
L 41.109375 71.578125 
L 41.109375 25.203125 
L 50.78125 25.203125 
L 50.78125 17.140625 
L 41.109375 17.140625 
L 41.109375 0 
z
M 32.328125 25.203125 
L 32.328125 57.46875 
L 9.90625 25.203125 
z
" id="ArialMT-34"/>
      </defs>
      <g style="fill:#d9d9d9;" transform="translate(118.55 210.47671875)scale(0.15 -0.15)">
       <use xlink:href="#ArialMT-34"/>
       <use x="55.615234375" xlink:href="#ArialMT-30"/>
      </g>
     </g>
    </g>
    <g id="xtick_4">
     <g id="line2d_10">
      <path clip-path="url(#p6a45ad957b)" d="M 157.891406 192.74 
L 157.891406 25.34 
" style="fill:none;stroke:#808080;stroke-linecap:round;"/>
     </g>
     <g id="line2d_11"/>
     <g id="line2d_12"/>
     <g id="text_4">
      <!-- 60 -->
      <defs>
       <path d="M 49.75 54.046875 
L 41.015625 53.375 
Q 39.84375 58.546875 37.703125 60.890625 
Q 34.125 64.65625 28.90625 64.65625 
Q 24.703125 64.65625 21.53125 62.3125 
Q 17.390625 59.28125 14.984375 53.46875 
Q 12.59375 47.65625 12.5 36.921875 
Q 15.671875 41.75 20.265625 44.09375 
Q 24.859375 46.4375 29.890625 46.4375 
Q 38.671875 46.4375 44.84375 39.96875 
Q 51.03125 33.5 51.03125 23.25 
Q 51.03125 16.5 48.125 10.71875 
Q 45.21875 4.9375 40.140625 1.859375 
Q 35.0625 -1.21875 28.609375 -1.21875 
Q 17.625 -1.21875 10.6875 6.859375 
Q 3.765625 14.9375 3.765625 33.5 
Q 3.765625 54.25 11.421875 63.671875 
Q 18.109375 71.875 29.4375 71.875 
Q 37.890625 71.875 43.28125 67.140625 
Q 48.6875 62.40625 49.75 54.046875 
M 13.875 23.1875 
Q 13.875 18.65625 15.796875 14.5 
Q 17.71875 10.359375 21.1875 8.171875 
Q 24.65625 6 28.46875 6 
Q 34.03125 6 38.03125 10.484375 
Q 42.046875 14.984375 42.046875 22.703125 
Q 42.046875 30.125 38.078125 34.390625 
Q 34.125 38.671875 28.125 38.671875 
Q 22.171875 38.671875 18.015625 34.390625 
Q 13.875 30.125 13.875 23.1875 
" id="ArialMT-36"/>
      </defs>
      <g style="fill:#d9d9d9;" transform="translate(149.55 210.47671875)scale(0.15 -0.15)">
       <use xlink:href="#ArialMT-36"/>
       <use x="55.615234375" xlink:href="#ArialMT-30"/>
      </g>
     </g>
    </g>
    <g id="xtick_5">
     <g id="line2d_13">
      <path clip-path="url(#p6a45ad957b)" d="M 188.891406 192.74 
L 188.891406 25.34 
" style="fill:none;stroke:#808080;stroke-linecap:round;"/>
     </g>
     <g id="line2d_14"/>
     <g id="line2d_15"/>
     <g id="text_5">
      <!-- 80 -->
      <defs>
       <path d="M 17.671875 38.8125 
Q 12.203125 40.828125 9.5625 44.53125 
Q 6.9375 48.25 6.9375 53.421875 
Q 6.9375 61.234375 12.546875 66.546875 
Q 18.171875 71.875 27.484375 71.875 
Q 36.859375 71.875 42.578125 66.421875 
Q 48.296875 60.984375 48.296875 53.171875 
Q 48.296875 48.1875 45.671875 44.5 
Q 43.0625 40.828125 37.75 38.8125 
Q 44.34375 36.671875 47.78125 31.875 
Q 51.21875 27.09375 51.21875 20.453125 
Q 51.21875 11.28125 44.71875 5.03125 
Q 38.234375 -1.21875 27.640625 -1.21875 
Q 17.046875 -1.21875 10.546875 5.046875 
Q 4.046875 11.328125 4.046875 20.703125 
Q 4.046875 27.6875 7.59375 32.390625 
Q 11.140625 37.109375 17.671875 38.8125 
M 15.921875 53.71875 
Q 15.921875 48.640625 19.1875 45.40625 
Q 22.46875 42.1875 27.6875 42.1875 
Q 32.765625 42.1875 36.015625 45.375 
Q 39.265625 48.578125 39.265625 53.21875 
Q 39.265625 58.0625 35.90625 61.359375 
Q 32.5625 64.65625 27.59375 64.65625 
Q 22.5625 64.65625 19.234375 61.421875 
Q 15.921875 58.203125 15.921875 53.71875 
M 13.09375 20.65625 
Q 13.09375 16.890625 14.875 13.375 
Q 16.65625 9.859375 20.171875 7.921875 
Q 23.6875 6 27.734375 6 
Q 34.03125 6 38.125 10.046875 
Q 42.234375 14.109375 42.234375 20.359375 
Q 42.234375 26.703125 38.015625 30.859375 
Q 33.796875 35.015625 27.4375 35.015625 
Q 21.234375 35.015625 17.15625 30.90625 
Q 13.09375 26.8125 13.09375 20.65625 
" id="ArialMT-38"/>
      </defs>
      <g style="fill:#d9d9d9;" transform="translate(180.55 210.47671875)scale(0.15 -0.15)">
       <use xlink:href="#ArialMT-38"/>
       <use x="55.615234375" xlink:href="#ArialMT-30"/>
      </g>
     </g>
    </g>
    <g id="xtick_6">
     <g id="line2d_16">
      <path clip-path="url(#p6a45ad957b)" d="M 219.891406 192.74 
L 219.891406 25.34 
" style="fill:none;stroke:#808080;stroke-linecap:round;"/>
     </g>
     <g id="line2d_17"/>
     <g id="line2d_18"/>
     <g id="text_6">
      <!-- 100 -->
      <defs>
       <path d="M 37.25 0 
L 28.46875 0 
L 28.46875 56 
Q 25.296875 52.984375 20.140625 49.953125 
Q 14.984375 46.921875 10.890625 45.40625 
L 10.890625 53.90625 
Q 18.265625 57.375 23.78125 62.296875 
Q 29.296875 67.234375 31.59375 71.875 
L 37.25 71.875 
z
" id="ArialMT-31"/>
      </defs>
      <g style="fill:#d9d9d9;" transform="translate(207.379296875 210.47671875)scale(0.15 -0.15)">
       <use xlink:href="#ArialMT-31"/>
       <use x="55.615234375" xlink:href="#ArialMT-30"/>
       <use x="111.23046875" xlink:href="#ArialMT-30"/>
      </g>
     </g>
    </g>
    <g id="xtick_7">
     <g id="line2d_19">
      <path clip-path="url(#p6a45ad957b)" d="M 250.891406 192.74 
L 250.891406 25.34 
" style="fill:none;stroke:#808080;stroke-linecap:round;"/>
     </g>
     <g id="line2d_20"/>
     <g id="line2d_21"/>
     <g id="text_7">
      <!-- 120 -->
      <g style="fill:#d9d9d9;" transform="translate(238.379296875 210.47671875)scale(0.15 -0.15)">
       <use xlink:href="#ArialMT-31"/>
       <use x="55.615234375" xlink:href="#ArialMT-32"/>
       <use x="111.23046875" xlink:href="#ArialMT-30"/>
      </g>
     </g>
    </g>
    <g id="xtick_8">
     <g id="line2d_22">
      <path clip-path="url(#p6a45ad957b)" d="M 281.891406 192.74 
L 281.891406 25.34 
" style="fill:none;stroke:#808080;stroke-linecap:round;"/>
     </g>
     <g id="line2d_23"/>
     <g id="line2d_24"/>
     <g id="text_8">
      <!-- 140 -->
      <g style="fill:#d9d9d9;" transform="translate(269.379296875 210.47671875)scale(0.15 -0.15)">
       <use xlink:href="#ArialMT-31"/>
       <use x="55.615234375" xlink:href="#ArialMT-34"/>
       <use x="111.23046875" xlink:href="#ArialMT-30"/>
      </g>
     </g>
    </g>
    <g id="xtick_9">
     <g id="line2d_25">
      <path clip-path="url(#p6a45ad957b)" d="M 312.891406 192.74 
L 312.891406 25.34 
" style="fill:none;stroke:#808080;stroke-linecap:round;"/>
     </g>
     <g id="line2d_26"/>
     <g id="line2d_27"/>
     <g id="text_9">
      <!-- 160 -->
      <g style="fill:#d9d9d9;" transform="translate(300.379296875 210.47671875)scale(0.15 -0.15)">
       <use xlink:href="#ArialMT-31"/>
       <use x="55.615234375" xlink:href="#ArialMT-36"/>
       <use x="111.23046875" xlink:href="#ArialMT-30"/>
      </g>
     </g>
    </g>
    <g id="xtick_10">
     <g id="line2d_28">
      <path clip-path="url(#p6a45ad957b)" d="M 343.891406 192.74 
L 343.891406 25.34 
" style="fill:none;stroke:#808080;stroke-linecap:round;"/>
     </g>
     <g id="line2d_29"/>
     <g id="line2d_30"/>
     <g id="text_10">
      <!-- 180 -->
      <g style="fill:#d9d9d9;" transform="translate(331.379296875 210.47671875)scale(0.15 -0.15)">
       <use xlink:href="#ArialMT-31"/>
       <use x="55.615234375" xlink:href="#ArialMT-38"/>
       <use x="111.23046875" xlink:href="#ArialMT-30"/>
      </g>
     </g>
    </g>
    <g id="text_11">
     <!-- $\theta$ -->
     <defs>
      <path d="M 16.109375 -1.125 
Q 11.578125 -1.125 8.84375 2.1875 
Q 6.109375 5.515625 5.046875 10.203125 
Q 4 14.890625 4 19.484375 
L 4 19.578125 
Q 4 24.5625 4.953125 29.921875 
Q 5.90625 35.296875 7.703125 40.640625 
Q 9.515625 46 11.625 50.203125 
Q 13.09375 53.125 15.40625 56.734375 
Q 17.71875 60.359375 20.578125 63.5 
Q 23.4375 66.65625 26.734375 68.578125 
Q 30.03125 70.515625 33.40625 70.515625 
L 33.5 70.515625 
Q 37.109375 70.515625 39.515625 68.5 
Q 41.9375 66.5 43.28125 63.375 
Q 44.625 60.25 45.15625 56.6875 
Q 45.703125 53.125 45.703125 49.90625 
Q 45.703125 42.328125 43.65625 34.4375 
Q 41.609375 26.5625 37.984375 19.1875 
Q 36.625 16.40625 34.203125 12.640625 
Q 31.78125 8.890625 29.078125 5.90625 
Q 26.375 2.9375 23 0.90625 
Q 19.625 -1.125 16.21875 -1.125 
z
M 16.3125 1.515625 
Q 19.625 1.515625 22.671875 5.046875 
Q 25.734375 8.59375 28.03125 13.640625 
Q 30.328125 18.703125 32.0625 24 
Q 33.796875 29.296875 34.625 33.015625 
L 14.203125 33.015625 
Q 12.640625 26.703125 11.765625 22.140625 
Q 10.890625 17.578125 10.890625 13.1875 
Q 10.890625 1.515625 16.3125 1.515625 
M 14.984375 36.53125 
L 35.5 36.53125 
Q 36.578125 40.921875 37.203125 43.875 
Q 37.84375 46.828125 38.28125 50.09375 
Q 38.71875 53.375 38.71875 56.203125 
Q 38.71875 67.921875 33.40625 67.921875 
Q 27.046875 67.921875 22.4375 57.6875 
Q 17.828125 47.46875 14.984375 36.53125 
" id="Cmmi10-b5"/>
     </defs>
     <g style="fill:#d9d9d9;" transform="translate(200.51390625 230.268359375)scale(0.165 -0.165)">
      <use transform="translate(0.0 0.484375)" xlink:href="#Cmmi10-b5"/>
     </g>
    </g>
   </g>
   <g id="matplotlib.axis_2">
    <g id="ytick_1">
     <g id="line2d_31">
      <path clip-path="url(#p6a45ad957b)" d="M 64.891406 192.74 
L 343.891406 192.74 
" style="fill:none;stroke:#808080;stroke-linecap:round;"/>
     </g>
     <g id="line2d_32"/>
     <g id="line2d_33"/>
     <g id="text_12">
      <!-- 0.10 -->
      <defs>
       <path d="M 9.078125 0 
L 9.078125 10.015625 
L 19.09375 10.015625 
L 19.09375 0 
z
" id="ArialMT-2e"/>
      </defs>
      <g style="fill:#d9d9d9;" transform="translate(28.7 196.617734375)scale(0.15 -0.15)">
       <use xlink:href="#ArialMT-30"/>
       <use x="55.615234375" xlink:href="#ArialMT-2e"/>
       <use x="83.3984375" xlink:href="#ArialMT-31"/>
       <use x="139.013671875" xlink:href="#ArialMT-30"/>
      </g>
     </g>
    </g>
    <g id="ytick_2">
     <g id="line2d_34">
      <path clip-path="url(#p6a45ad957b)" d="M 64.891406 168.825714 
L 343.891406 168.825714 
" style="fill:none;stroke:#808080;stroke-linecap:round;"/>
     </g>
     <g id="line2d_35"/>
     <g id="line2d_36"/>
     <g id="text_13">
      <!-- 0.11 -->
      <g style="fill:#d9d9d9;" transform="translate(28.71640625 172.703448661)scale(0.15 -0.15)">
       <use xlink:href="#ArialMT-30"/>
       <use x="55.615234375" xlink:href="#ArialMT-2e"/>
       <use x="83.3984375" xlink:href="#ArialMT-31"/>
       <use x="138.904296875" xlink:href="#ArialMT-31"/>
      </g>
     </g>
    </g>
    <g id="ytick_3">
     <g id="line2d_37">
      <path clip-path="url(#p6a45ad957b)" d="M 64.891406 144.911429 
L 343.891406 144.911429 
" style="fill:none;stroke:#808080;stroke-linecap:round;"/>
     </g>
     <g id="line2d_38"/>
     <g id="line2d_39"/>
     <g id="text_14">
      <!-- 0.12 -->
      <g style="fill:#d9d9d9;" transform="translate(28.7 148.789162946)scale(0.15 -0.15)">
       <use xlink:href="#ArialMT-30"/>
       <use x="55.615234375" xlink:href="#ArialMT-2e"/>
       <use x="83.3984375" xlink:href="#ArialMT-31"/>
       <use x="139.013671875" xlink:href="#ArialMT-32"/>
      </g>
     </g>
    </g>
    <g id="ytick_4">
     <g id="line2d_40">
      <path clip-path="url(#p6a45ad957b)" d="M 64.891406 120.997143 
L 343.891406 120.997143 
" style="fill:none;stroke:#808080;stroke-linecap:round;"/>
     </g>
     <g id="line2d_41"/>
     <g id="line2d_42"/>
     <g id="text_15">
      <!-- 0.13 -->
      <defs>
       <path d="M 4.203125 18.890625 
L 12.984375 20.0625 
Q 14.5 12.59375 18.140625 9.296875 
Q 21.78125 6 27 6 
Q 33.203125 6 37.46875 10.296875 
Q 41.75 14.59375 41.75 20.953125 
Q 41.75 27 37.796875 30.921875 
Q 33.84375 34.859375 27.734375 34.859375 
Q 25.25 34.859375 21.53125 33.890625 
L 22.515625 41.609375 
Q 23.390625 41.5 23.921875 41.5 
Q 29.546875 41.5 34.03125 44.421875 
Q 38.53125 47.359375 38.53125 53.46875 
Q 38.53125 58.296875 35.25 61.46875 
Q 31.984375 64.65625 26.8125 64.65625 
Q 21.6875 64.65625 18.265625 61.421875 
Q 14.84375 58.203125 13.875 51.765625 
L 5.078125 53.328125 
Q 6.6875 62.15625 12.390625 67.015625 
Q 18.109375 71.875 26.609375 71.875 
Q 32.46875 71.875 37.390625 69.359375 
Q 42.328125 66.84375 44.9375 62.5 
Q 47.5625 58.15625 47.5625 53.265625 
Q 47.5625 48.640625 45.0625 44.828125 
Q 42.578125 41.015625 37.703125 38.765625 
Q 44.046875 37.3125 47.5625 32.6875 
Q 51.078125 28.078125 51.078125 21.140625 
Q 51.078125 11.765625 44.234375 5.25 
Q 37.40625 -1.265625 26.953125 -1.265625 
Q 17.53125 -1.265625 11.296875 4.34375 
Q 5.078125 9.96875 4.203125 18.890625 
" id="ArialMT-33"/>
      </defs>
      <g style="fill:#d9d9d9;" transform="translate(28.7 124.874877232)scale(0.15 -0.15)">
       <use xlink:href="#ArialMT-30"/>
       <use x="55.615234375" xlink:href="#ArialMT-2e"/>
       <use x="83.3984375" xlink:href="#ArialMT-31"/>
       <use x="139.013671875" xlink:href="#ArialMT-33"/>
      </g>
     </g>
    </g>
    <g id="ytick_5">
     <g id="line2d_43">
      <path clip-path="url(#p6a45ad957b)" d="M 64.891406 97.082857 
L 343.891406 97.082857 
" style="fill:none;stroke:#808080;stroke-linecap:round;"/>
     </g>
     <g id="line2d_44"/>
     <g id="line2d_45"/>
     <g id="text_16">
      <!-- 0.14 -->
      <g style="fill:#d9d9d9;" transform="translate(28.7 100.960591518)scale(0.15 -0.15)">
       <use xlink:href="#ArialMT-30"/>
       <use x="55.615234375" xlink:href="#ArialMT-2e"/>
       <use x="83.3984375" xlink:href="#ArialMT-31"/>
       <use x="139.013671875" xlink:href="#ArialMT-34"/>
      </g>
     </g>
    </g>
    <g id="ytick_6">
     <g id="line2d_46">
      <path clip-path="url(#p6a45ad957b)" d="M 64.891406 73.168571 
L 343.891406 73.168571 
" style="fill:none;stroke:#808080;stroke-linecap:round;"/>
     </g>
     <g id="line2d_47"/>
     <g id="line2d_48"/>
     <g id="text_17">
      <!-- 0.15 -->
      <defs>
       <path d="M 4.15625 18.75 
L 13.375 19.53125 
Q 14.40625 12.796875 18.140625 9.390625 
Q 21.875 6 27.15625 6 
Q 33.5 6 37.890625 10.78125 
Q 42.28125 15.578125 42.28125 23.484375 
Q 42.28125 31 38.0625 35.34375 
Q 33.84375 39.703125 27 39.703125 
Q 22.75 39.703125 19.328125 37.765625 
Q 15.921875 35.84375 13.96875 32.765625 
L 5.71875 33.84375 
L 12.640625 70.609375 
L 48.25 70.609375 
L 48.25 62.203125 
L 19.671875 62.203125 
L 15.828125 42.96875 
Q 22.265625 47.46875 29.34375 47.46875 
Q 38.71875 47.46875 45.15625 40.96875 
Q 51.609375 34.46875 51.609375 24.265625 
Q 51.609375 14.546875 45.953125 7.46875 
Q 39.0625 -1.21875 27.15625 -1.21875 
Q 17.390625 -1.21875 11.203125 4.25 
Q 5.03125 9.71875 4.15625 18.75 
" id="ArialMT-35"/>
      </defs>
      <g style="fill:#d9d9d9;" transform="translate(28.7 77.0463058036)scale(0.15 -0.15)">
       <use xlink:href="#ArialMT-30"/>
       <use x="55.615234375" xlink:href="#ArialMT-2e"/>
       <use x="83.3984375" xlink:href="#ArialMT-31"/>
       <use x="139.013671875" xlink:href="#ArialMT-35"/>
      </g>
     </g>
    </g>
    <g id="ytick_7">
     <g id="line2d_49">
      <path clip-path="url(#p6a45ad957b)" d="M 64.891406 49.254286 
L 343.891406 49.254286 
" style="fill:none;stroke:#808080;stroke-linecap:round;"/>
     </g>
     <g id="line2d_50"/>
     <g id="line2d_51"/>
     <g id="text_18">
      <!-- 0.16 -->
      <g style="fill:#d9d9d9;" transform="translate(28.7 53.1320200893)scale(0.15 -0.15)">
       <use xlink:href="#ArialMT-30"/>
       <use x="55.615234375" xlink:href="#ArialMT-2e"/>
       <use x="83.3984375" xlink:href="#ArialMT-31"/>
       <use x="139.013671875" xlink:href="#ArialMT-36"/>
      </g>
     </g>
    </g>
    <g id="ytick_8">
     <g id="line2d_52">
      <path clip-path="url(#p6a45ad957b)" d="M 64.891406 25.34 
L 343.891406 25.34 
" style="fill:none;stroke:#808080;stroke-linecap:round;"/>
     </g>
     <g id="line2d_53"/>
     <g id="line2d_54"/>
     <g id="text_19">
      <!-- 0.17 -->
      <defs>
       <path d="M 4.734375 62.203125 
L 4.734375 70.65625 
L 51.078125 70.65625 
L 51.078125 63.8125 
Q 44.234375 56.546875 37.515625 44.484375 
Q 30.8125 32.421875 27.15625 19.671875 
Q 24.515625 10.6875 23.78125 0 
L 14.75 0 
Q 14.890625 8.453125 18.0625 20.40625 
Q 21.234375 32.375 27.171875 43.484375 
Q 33.109375 54.59375 39.796875 62.203125 
z
" id="ArialMT-37"/>
      </defs>
      <g style="fill:#d9d9d9;" transform="translate(28.7 29.217734375)scale(0.15 -0.15)">
       <use xlink:href="#ArialMT-30"/>
       <use x="55.615234375" xlink:href="#ArialMT-2e"/>
       <use x="83.3984375" xlink:href="#ArialMT-31"/>
       <use x="139.013671875" xlink:href="#ArialMT-37"/>
      </g>
     </g>
    </g>
    <g id="text_20">
     <!-- $\theta_1/\theta$ -->
     <defs>
      <path d="M 5.609375 -23 
Q 5.609375 -22.703125 5.71875 -22.609375 
L 40.484375 73.78125 
Q 40.671875 74.359375 41.15625 74.671875 
Q 41.65625 75 42.28125 75 
Q 43.171875 75 43.71875 74.453125 
Q 44.28125 73.921875 44.28125 73 
L 44.28125 72.609375 
L 9.515625 -23.78125 
Q 8.9375 -25 7.625 -25 
Q 6.78125 -25 6.1875 -24.40625 
Q 5.609375 -23.828125 5.609375 -23 
" id="Cmmi10-3d"/>
      <path d="M 9.28125 0 
L 9.28125 3.515625 
Q 21.78125 3.515625 21.78125 6.6875 
L 21.78125 59.1875 
Q 16.609375 56.6875 8.6875 56.6875 
L 8.6875 60.203125 
Q 20.953125 60.203125 27.203125 66.609375 
L 28.609375 66.609375 
Q 28.953125 66.609375 29.265625 66.328125 
Q 29.59375 66.0625 29.59375 65.71875 
L 29.59375 6.6875 
Q 29.59375 3.515625 42.09375 3.515625 
L 42.09375 0 
z
" id="Cmr10-31"/>
     </defs>
     <g style="fill:#d9d9d9;" transform="translate(19.575 124.385)rotate(-90.0)scale(0.165 -0.165)">
      <use xlink:href="#Cmmi10-b5"/>
      <use transform="translate(46.923828125 -17.006249999999994)scale(0.7)" xlink:href="#Cmr10-31"/>
      <use transform="translate(88.301171875 0.0)" xlink:href="#Cmmi10-3d"/>
      <use transform="translate(138.301171875 0.0)" xlink:href="#Cmmi10-b5"/>
     </g>
    </g>
   </g>
   <g id="line2d_55">
    <path clip-path="url(#p6a45ad957b)" d="M 67.31107 118.238178 
L 69.730734 118.367503 
L 72.150397 118.582062 
L 74.570061 118.880396 
L 76.989725 119.260499 
L 79.409388 119.719852 
L 81.829052 120.255465 
L 84.248716 120.86392 
L 86.66838 121.54143 
L 89.088043 122.283889 
L 91.507707 123.086931 
L 93.927371 123.945987 
L 96.347034 124.856338 
L 98.766698 125.813169 
L 101.186362 126.811619 
L 103.606026 127.846824 
L 106.025689 128.913957 
L 108.445353 130.008267 
L 110.865017 131.125103 
L 113.28468 132.259944 
L 115.704344 133.408418 
L 118.124008 134.566314 
L 120.543671 135.7296 
L 122.963335 136.894424 
L 125.382999 138.05712 
L 127.802663 139.214212 
L 130.222326 140.362408 
L 132.64199 141.498598 
L 135.061654 142.619851 
L 137.481317 143.723401 
L 139.900981 144.806647 
L 142.320645 145.867137 
L 144.740309 146.902563 
L 147.159972 147.910746 
L 149.579636 148.889629 
L 151.9993 149.837266 
L 154.418963 150.751809 
L 156.838627 151.631497 
L 159.258291 152.474647 
L 161.677954 153.279643 
L 164.097618 154.044926 
L 166.517282 154.76898 
L 168.936946 155.450327 
L 171.356609 156.087513 
L 173.776273 156.679102 
L 176.195937 157.223663 
L 178.6156 157.719761 
L 181.035264 158.16595 
L 183.454928 158.560761 
L 185.874592 158.902694 
L 188.294255 159.19021 
L 190.713919 159.421716 
L 193.133583 159.595564 
L 195.553246 159.710033 
L 197.97291 159.763324 
L 200.392574 159.753549 
L 202.812238 159.678719 
L 205.231901 159.536732 
L 207.651565 159.325366 
L 210.071229 159.042261 
L 212.490892 158.684911 
L 214.910556 158.250647 
L 217.33022 157.736627 
L 219.749883 157.139815 
L 222.169547 156.45697 
L 224.589211 155.684628 
L 227.008875 154.819081 
L 229.428538 153.856362 
L 231.848202 152.792223 
L 234.267866 151.622111 
L 236.687529 150.341151 
L 239.107193 148.944115 
L 241.526857 147.425404 
L 243.946521 145.779018 
L 246.366184 143.998532 
L 248.785848 142.077069 
L 251.205512 140.007272 
L 253.625175 137.781282 
L 256.044839 135.390716 
L 258.464503 132.826643 
L 260.884166 130.079579 
L 263.30383 127.139477 
L 265.723494 123.99574 
L 268.143158 120.637246 
L 270.562821 117.0524 
L 272.982485 113.229219 
L 275.402149 109.15547 
L 277.821812 104.818859 
L 280.241476 100.207318 
L 282.66114 95.309406 
L 285.080804 90.11486 
L 287.500467 84.61537 
L 289.920131 78.805635 
L 292.339795 72.684807 
L 294.759458 66.258465 
L 297.179122 59.541304 
L 299.598786 52.560788 
L 302.018449 45.362131 
" style="fill:none;stroke:#00d7ff;stroke-linecap:round;stroke-width:1.75;"/>
   </g>
   <g id="line2d_56">
    <path clip-path="url(#p6a45ad957b)" d="M 67.31107 173.492644 
L 69.730734 173.516539 
L 72.150397 173.556171 
L 74.570061 173.611251 
L 76.989725 173.681377 
L 79.409388 173.76604 
L 81.829052 173.864626 
L 84.248716 173.976421 
L 86.66838 174.100614 
L 89.088043 174.23631 
L 91.507707 174.382529 
L 93.927371 174.538216 
L 96.347034 174.70225 
L 98.766698 174.873445 
L 101.186362 175.050564 
L 103.606026 175.232323 
L 106.025689 175.417394 
L 108.445353 175.60442 
L 110.865017 175.792011 
L 113.28468 175.978757 
L 115.704344 176.163232 
L 118.124008 176.343995 
L 120.543671 176.519598 
L 122.963335 176.688589 
L 125.382999 176.849514 
L 127.802663 177.000918 
L 130.222326 177.141353 
L 132.64199 177.269372 
L 135.061654 177.383536 
L 137.481317 177.482411 
L 139.900981 177.564569 
L 142.320645 177.628589 
L 144.740309 177.673054 
L 147.159972 177.696552 
L 149.579636 177.697673 
L 151.9993 177.675008 
L 154.418963 177.627147 
L 156.838627 177.552675 
L 159.258291 177.450172 
L 161.677954 177.318207 
L 164.097618 177.155339 
L 166.517282 176.960107 
L 168.936946 176.731035 
L 171.356609 176.466621 
L 173.776273 176.165336 
L 176.195937 175.825619 
L 178.6156 175.445873 
L 181.035264 175.024461 
L 183.454928 174.5597 
L 185.874592 174.049856 
L 188.294255 173.493139 
L 190.713919 172.887698 
L 193.133583 172.231616 
L 195.553246 171.5229 
L 197.97291 170.759482 
L 200.392574 169.939205 
L 202.812238 169.059822 
L 205.231901 168.118986 
L 207.651565 167.114247 
L 210.071229 166.043038 
L 212.490892 164.902675 
L 214.910556 163.690346 
L 217.33022 162.403101 
L 219.749883 161.037851 
L 222.169547 159.591354 
L 224.589211 158.060213 
L 227.008875 156.440864 
L 229.428538 154.729575 
L 231.848202 152.922437 
L 234.267866 151.015358 
L 236.687529 149.004067 
L 239.107193 146.884104 
L 241.526857 144.650832 
L 243.946521 142.299432 
L 246.366184 139.824921 
L 248.785848 137.222166 
L 251.205512 134.485902 
L 253.625175 131.610775 
L 256.044839 128.591377 
L 258.464503 125.422316 
L 260.884166 122.098287 
L 263.30383 118.614187 
L 265.723494 114.965244 
L 268.143158 111.147199 
L 270.562821 107.15653 
L 272.982485 102.990748 
L 275.402149 98.648763 
L 277.821812 94.131368 
L 280.241476 89.44184 
L 282.66114 84.586715 
L 285.080804 79.576771 
L 287.500467 74.428283 
L 289.920131 69.16462 
L 292.339795 63.818273 
L 294.759458 58.433445 
L 297.179122 53.06935 
L 299.598786 47.8044 
L 302.018449 42.741549 
" style="fill:none;stroke:#03ed3a;stroke-dasharray:6.000000,6.000000;stroke-dashoffset:0.0;"/>
   </g>
   <g id="line2d_57">
    <path clip-path="url(#p6a45ad957b)" d="M 67.31107 192.734141 
L 69.730734 192.716561 
L 72.150397 192.687248 
L 74.570061 192.64618 
L 76.989725 192.593329 
L 79.409388 192.528658 
L 81.829052 192.452122 
L 84.248716 192.363666 
L 86.66838 192.263229 
L 89.088043 192.150739 
L 91.507707 192.026115 
L 93.927371 191.88927 
L 96.347034 191.740104 
L 98.766698 191.57851 
L 101.186362 191.404372 
L 103.606026 191.217561 
L 106.025689 191.017941 
L 108.445353 190.805364 
L 110.865017 190.579672 
L 113.28468 190.340695 
L 115.704344 190.088253 
L 118.124008 189.822153 
L 120.543671 189.542191 
L 122.963335 189.248149 
L 125.382999 188.939796 
L 127.802663 188.616889 
L 130.222326 188.279167 
L 132.64199 187.926358 
L 135.061654 187.558173 
L 137.481317 187.174306 
L 139.900981 186.774435 
L 142.320645 186.358219 
L 144.740309 185.9253 
L 147.159972 185.475298 
L 149.579636 185.007816 
L 151.9993 184.522431 
L 154.418963 184.0187 
L 156.838627 183.496154 
L 159.258291 182.954301 
L 161.677954 182.392619 
L 164.097618 181.81056 
L 166.517282 181.207544 
L 168.936946 180.582961 
L 171.356609 179.936164 
L 173.776273 179.266473 
L 176.195937 178.573167 
L 178.6156 177.855487 
L 181.035264 177.112627 
L 183.454928 176.343738 
L 185.874592 175.547918 
L 188.294255 174.724214 
L 190.713919 173.871616 
L 193.133583 172.989052 
L 195.553246 172.075385 
L 197.97291 171.129407 
L 200.392574 170.149837 
L 202.812238 169.135308 
L 205.231901 168.08437 
L 207.651565 166.995473 
L 210.071229 165.866969 
L 212.490892 164.697094 
L 214.910556 163.483968 
L 217.33022 162.225576 
L 219.749883 160.919761 
L 222.169547 159.564213 
L 224.589211 158.156448 
L 227.008875 156.693799 
L 229.428538 155.173395 
L 231.848202 153.59214 
L 234.267866 151.946694 
L 236.687529 150.233446 
L 239.107193 148.448484 
L 241.526857 146.587567 
L 243.946521 144.646085 
L 246.366184 142.61902 
L 248.785848 140.5009 
L 251.205512 138.285742 
L 253.625175 135.966992 
L 256.044839 133.537458 
L 258.464503 130.989221 
L 260.884166 128.313546 
L 263.30383 125.500769 
L 265.723494 122.540168 
L 268.143158 119.419813 
L 270.562821 116.126384 
L 272.982485 112.644962 
L 275.402149 108.958773 
L 277.821812 105.048885 
L 280.241476 100.893843 
L 282.66114 96.469223 
L 285.080804 91.747085 
L 287.500467 86.695305 
L 289.920131 81.276738 
L 292.339795 75.448173 
L 294.759458 69.159006 
L 297.179122 62.349547 
L 299.598786 54.948821 
L 302.018449 46.871699 
" style="fill:none;stroke:#ffc400;stroke-linecap:round;stroke-width:1.75;"/>
   </g>
   <g id="line2d_58">
    <path clip-path="url(#p6a45ad957b)" d="M 72.150397 192.681259 
L 74.570061 192.637479 
L 76.989725 192.5927 
L 79.409388 192.519481 
L 81.829052 192.446262 
L 84.248716 192.356297 
L 86.66838 192.253269 
L 89.088043 192.147132 
L 91.507707 192.013798 
L 93.927371 191.880463 
L 96.347034 191.726704 
L 98.766698 191.562454 
L 101.186362 191.390616 
L 103.606026 191.194753 
L 106.025689 190.998889 
L 108.445353 190.775676 
L 110.865017 190.547436 
L 113.28468 190.303314 
L 115.704344 190.041899 
L 118.124008 189.775534 
L 120.543671 189.480132 
L 122.963335 189.18473 
L 125.382999 188.859801 
L 127.802663 188.529619 
L 130.222326 188.178405 
L 132.64199 187.812693 
L 135.061654 187.433311 
L 137.481317 187.031388 
L 139.900981 186.621798 
L 142.320645 186.183077 
L 144.740309 185.741121 
L 147.159972 185.265129 
L 149.579636 184.788579 
L 151.9993 184.274978 
L 154.418963 183.761377 
L 156.838627 183.210201 
L 159.258291 182.65782 
L 161.677954 182.068605 
L 164.097618 181.475192 
L 166.517282 180.848315 
L 168.936946 180.212066 
L 171.356609 179.54787 
L 173.776273 178.867292 
L 176.195937 178.166313 
L 178.6156 177.440311 
L 181.035264 176.703283 
L 183.454928 175.931236 
L 185.874592 175.147053 
L 188.294255 174.340937 
L 190.713919 173.50986 
L 193.133583 172.664028 
L 195.553246 171.794176 
L 197.97291 170.902536 
L 200.392574 169.994905 
L 202.812238 169.06823 
L 205.231901 168.118237 
L 207.651565 167.152802 
L 210.071229 166.171743 
L 212.490892 165.175261 
L 214.910556 164.161464 
L 217.33022 163.134864 
L 219.749883 162.097379 
L 222.169547 161.050631 
L 224.589211 159.996689 
L 227.008875 158.938071 
L 229.428538 157.877739 
L 231.848202 156.81909 
L 234.267866 155.765942 
L 236.687529 154.722521 
L 239.107193 153.693433 
L 241.526857 152.684429 
L 243.946521 151.704501 
L 246.366184 150.757017 
L 248.785848 149.848472 
L 251.205512 148.996479 
L 253.625175 148.199067 
L 256.044839 147.480645 
L 258.464503 146.842897 
L 260.884166 146.302258 
L 263.30383 145.8822 
L 265.723494 145.593609 
L 268.143158 145.456493 
L 270.562821 145.495945 
L 272.982485 145.737838 
L 275.402149 146.199885 
L 277.821812 146.927352 
L 280.241476 147.942336 
L 282.66114 149.284515 
L 285.080804 150.99216 
L 287.500467 153.118174 
L 289.920131 155.701523 
L 292.339795 158.79723 
L 294.759458 162.461661 
L 297.179122 166.754657 
L 299.598786 171.73635 
L 302.018449 177.478594 
L 304.438113 184.043305 
" style="fill:none;stroke:#ffffff;stroke-dasharray:1.000000,3.000000;stroke-dashoffset:0.0;stroke-width:1.75;"/>
   </g>
   <g id="patch_3">
    <path d="M 343.891406 192.74 
L 343.891406 25.34 
" style="fill:none;"/>
   </g>
   <g id="patch_4">
    <path d="M 64.891406 25.34 
L 343.891406 25.34 
" style="fill:none;"/>
   </g>
   <g id="patch_5">
    <path d="M 64.891406 192.74 
L 343.891406 192.74 
" style="fill:none;"/>
   </g>
   <g id="patch_6">
    <path d="M 64.891406 192.74 
L 64.891406 25.34 
" style="fill:none;"/>
   </g>
   <g id="text_21">
    <!-- After fit: CRW, $\beta = 0.4000$ -->
    <defs>
     <path d="M 8.6875 0 
L 8.6875 45.015625 
L 0.921875 45.015625 
L 0.921875 51.859375 
L 8.6875 51.859375 
L 8.6875 57.375 
Q 8.6875 62.59375 9.625 65.140625 
Q 10.890625 68.5625 14.078125 70.671875 
Q 17.28125 72.796875 23.046875 72.796875 
Q 26.765625 72.796875 31.25 71.921875 
L 29.9375 64.265625 
Q 27.203125 64.75 24.75 64.75 
Q 20.75 64.75 19.09375 63.03125 
Q 17.4375 61.328125 17.4375 56.640625 
L 17.4375 51.859375 
L 27.546875 51.859375 
L 27.546875 45.015625 
L 17.4375 45.015625 
L 17.4375 0 
z
" id="ArialMT-66"/>
     <path d="M -0.140625 0 
L 27.34375 71.578125 
L 37.546875 71.578125 
L 66.84375 0 
L 56.0625 0 
L 47.703125 21.6875 
L 17.78125 21.6875 
L 9.90625 0 
z
M 20.515625 29.390625 
L 44.78125 29.390625 
L 37.3125 49.21875 
Q 33.890625 58.25 32.234375 64.0625 
Q 30.859375 57.171875 28.375 50.390625 
z
" id="ArialMT-41"/>
     <path id="ArialMT-20"/>
     <path d="M 20.21875 0 
L 1.21875 71.578125 
L 10.9375 71.578125 
L 21.828125 24.65625 
Q 23.578125 17.28125 24.859375 10.015625 
Q 27.59375 21.484375 28.078125 23.25 
L 41.703125 71.578125 
L 53.125 71.578125 
L 63.375 35.359375 
Q 67.234375 21.875 68.953125 10.015625 
Q 70.3125 16.796875 72.515625 25.59375 
L 83.734375 71.578125 
L 93.265625 71.578125 
L 73.640625 0 
L 64.5 0 
L 49.421875 54.546875 
Q 47.515625 61.375 47.171875 62.9375 
Q 46.046875 58.015625 45.0625 54.546875 
L 29.890625 0 
z
" id="ArialMT-57"/>
     <path d="M 25.78125 7.859375 
L 27.046875 0.09375 
Q 23.34375 -0.6875 20.40625 -0.6875 
Q 15.625 -0.6875 12.984375 0.828125 
Q 10.359375 2.34375 9.28125 4.8125 
Q 8.203125 7.28125 8.203125 15.1875 
L 8.203125 45.015625 
L 1.765625 45.015625 
L 1.765625 51.859375 
L 8.203125 51.859375 
L 8.203125 64.703125 
L 16.9375 69.96875 
L 16.9375 51.859375 
L 25.78125 51.859375 
L 25.78125 45.015625 
L 16.9375 45.015625 
L 16.9375 14.703125 
Q 16.9375 10.9375 17.40625 9.859375 
Q 17.875 8.796875 18.921875 8.15625 
Q 19.96875 7.515625 21.921875 7.515625 
Q 23.390625 7.515625 25.78125 7.859375 
" id="ArialMT-74"/>
     <path d="M 6.5 0 
L 6.5 51.859375 
L 14.40625 51.859375 
L 14.40625 44 
Q 17.4375 49.515625 20 51.265625 
Q 22.5625 53.03125 25.640625 53.03125 
Q 30.078125 53.03125 34.671875 50.203125 
L 31.640625 42.046875 
Q 28.421875 43.953125 25.203125 43.953125 
Q 22.3125 43.953125 20.015625 42.21875 
Q 17.71875 40.484375 16.75 37.40625 
Q 15.28125 32.71875 15.28125 27.15625 
L 15.28125 0 
z
" id="ArialMT-72"/>
     <path d="M 42.09375 16.703125 
L 51.171875 15.578125 
Q 49.03125 7.625 43.21875 3.21875 
Q 37.40625 -1.171875 28.375 -1.171875 
Q 17 -1.171875 10.328125 5.828125 
Q 3.65625 12.84375 3.65625 25.484375 
Q 3.65625 38.578125 10.390625 45.796875 
Q 17.140625 53.03125 27.875 53.03125 
Q 38.28125 53.03125 44.875 45.953125 
Q 51.46875 38.875 51.46875 26.03125 
Q 51.46875 25.25 51.421875 23.6875 
L 12.75 23.6875 
Q 13.234375 15.140625 17.578125 10.59375 
Q 21.921875 6.0625 28.421875 6.0625 
Q 33.25 6.0625 36.671875 8.59375 
Q 40.09375 11.140625 42.09375 16.703125 
M 13.234375 30.90625 
L 42.1875 30.90625 
Q 41.609375 37.453125 38.875 40.71875 
Q 34.671875 45.796875 27.984375 45.796875 
Q 21.921875 45.796875 17.796875 41.75 
Q 13.671875 37.703125 13.234375 30.90625 
" id="ArialMT-65"/>
     <path d="M 2.6875 -19.390625 
Q 2.390625 -19.390625 2.140625 -19.046875 
Q 1.90625 -18.703125 1.90625 -18.40625 
L 17.28125 43.40625 
Q 18.609375 48.390625 21.140625 53.078125 
Q 23.6875 57.765625 27.515625 61.796875 
Q 31.34375 65.828125 35.9375 68.171875 
Q 40.53125 70.515625 45.703125 70.515625 
Q 49.421875 70.515625 52.421875 68.875 
Q 55.421875 67.234375 57.15625 64.28125 
Q 58.890625 61.328125 58.890625 57.625 
Q 58.890625 54.046875 57.515625 50.796875 
Q 56.15625 47.5625 53.703125 44.75 
Q 51.265625 41.9375 48.484375 40.1875 
Q 50.09375 39.15625 51.359375 37.5625 
Q 52.640625 35.984375 53.421875 34.25 
Q 54.203125 32.515625 54.640625 30.390625 
Q 55.078125 28.265625 55.078125 26.421875 
Q 55.078125 21.296875 52.875 16.3125 
Q 50.6875 11.328125 46.890625 7.265625 
Q 43.109375 3.21875 38.21875 0.84375 
Q 33.34375 -1.515625 28.21875 -1.515625 
Q 22.609375 -1.515625 18.109375 1.5625 
Q 13.625 4.640625 11.921875 9.90625 
L 4.6875 -18.796875 
Q 4.6875 -19.390625 3.90625 -19.390625 
z
M 28.421875 1.21875 
Q 32.90625 1.21875 36.546875 4.171875 
Q 40.1875 7.125 42.546875 11.59375 
Q 44.921875 16.0625 46.15625 21.0625 
Q 47.40625 26.078125 47.40625 30.171875 
Q 47.40625 35.25 44.484375 38.1875 
Q 41.0625 36.921875 37.796875 36.921875 
Q 29.890625 36.921875 29.890625 39.59375 
Q 29.890625 43.109375 38.921875 43.109375 
Q 42.140625 43.109375 44.828125 42.09375 
Q 46.96875 43.75 48.71875 46.96875 
Q 50.484375 50.203125 51.390625 53.71875 
Q 52.296875 57.234375 52.296875 60.296875 
Q 52.296875 63.578125 50.5625 65.75 
Q 48.828125 67.921875 45.515625 67.921875 
Q 39.40625 67.921875 34.15625 64.15625 
Q 28.90625 60.40625 25.296875 54.65625 
Q 21.6875 48.921875 20.125 42.828125 
L 14.59375 20.703125 
Q 14.0625 18.40625 13.921875 15.578125 
Q 13.921875 9.328125 18.015625 5.265625 
Q 22.125 1.21875 28.421875 1.21875 
M 32.90625 39.890625 
Q 34.421875 39.5 37.890625 39.5 
Q 39.59375 39.5 41.3125 40.09375 
Q 41.21875 40.1875 40.921875 40.1875 
Q 39.84375 40.484375 38.625 40.484375 
Q 34.078125 40.484375 32.90625 39.890625 
" id="Cmmi10-af"/>
     <path d="M 25 -2.203125 
Q 12.75 -2.203125 8.328125 7.875 
Q 3.90625 17.96875 3.90625 31.890625 
Q 3.90625 40.578125 5.484375 48.234375 
Q 7.078125 55.90625 11.78125 61.25 
Q 16.5 66.609375 25 66.609375 
Q 31.59375 66.609375 35.78125 63.375 
Q 39.984375 60.15625 42.1875 55.046875 
Q 44.390625 49.953125 45.1875 44.109375 
Q 46 38.28125 46 31.890625 
Q 46 23.296875 44.40625 15.796875 
Q 42.828125 8.296875 38.1875 3.046875 
Q 33.546875 -2.203125 25 -2.203125 
M 25 0.390625 
Q 30.5625 0.390625 33.296875 6.09375 
Q 36.03125 11.8125 36.671875 18.75 
Q 37.3125 25.6875 37.3125 33.5 
Q 37.3125 41.015625 36.671875 47.359375 
Q 36.03125 53.71875 33.3125 58.859375 
Q 30.609375 64.015625 25 64.015625 
Q 19.34375 64.015625 16.609375 58.828125 
Q 13.875 53.65625 13.234375 47.328125 
Q 12.59375 41.015625 12.59375 33.5 
Q 12.59375 27.9375 12.859375 23 
Q 13.140625 18.0625 14.3125 12.8125 
Q 15.484375 7.5625 18.09375 3.96875 
Q 20.703125 0.390625 25 0.390625 
" id="Cmr10-30"/>
     <path d="M 9.03125 41.84375 
L 9.03125 51.859375 
L 19.046875 51.859375 
L 19.046875 41.84375 
z
M 9.03125 0 
L 9.03125 10.015625 
L 19.046875 10.015625 
L 19.046875 0 
z
" id="ArialMT-3a"/>
     <path d="M 8.40625 5.515625 
Q 8.40625 7.765625 10.0625 9.375 
Q 11.71875 10.984375 13.921875 10.984375 
Q 15.28125 10.984375 16.59375 10.25 
Q 17.921875 9.515625 18.65625 8.203125 
Q 19.390625 6.890625 19.390625 5.515625 
Q 19.390625 3.328125 17.765625 1.65625 
Q 16.15625 0 13.921875 0 
Q 11.71875 0 10.0625 1.65625 
Q 8.40625 3.328125 8.40625 5.515625 
" id="Cmmi10-3a"/>
     <path d="M 7.515625 13.28125 
Q 6.6875 13.28125 6.140625 13.90625 
Q 5.609375 14.546875 5.609375 15.28125 
Q 5.609375 16.109375 6.140625 16.6875 
Q 6.6875 17.28125 7.515625 17.28125 
L 70.3125 17.28125 
Q 71.046875 17.28125 71.578125 16.6875 
Q 72.125 16.109375 72.125 15.28125 
Q 72.125 14.546875 71.578125 13.90625 
Q 71.046875 13.28125 70.3125 13.28125 
z
M 7.515625 32.71875 
Q 6.6875 32.71875 6.140625 33.296875 
Q 5.609375 33.890625 5.609375 34.71875 
Q 5.609375 35.453125 6.140625 36.078125 
Q 6.6875 36.71875 7.515625 36.71875 
L 70.3125 36.71875 
Q 71.046875 36.71875 71.578125 36.078125 
Q 72.125 35.453125 72.125 34.71875 
Q 72.125 33.890625 71.578125 33.296875 
Q 71.046875 32.71875 70.3125 32.71875 
z
" id="Cmr10-3d"/>
     <path d="M 7.859375 0 
L 7.859375 71.578125 
L 39.59375 71.578125 
Q 49.171875 71.578125 54.140625 69.640625 
Q 59.125 67.71875 62.109375 62.828125 
Q 65.09375 57.953125 65.09375 52.046875 
Q 65.09375 44.4375 60.15625 39.203125 
Q 55.21875 33.984375 44.921875 32.5625 
Q 48.6875 30.765625 50.640625 29 
Q 54.78125 25.203125 58.5 19.484375 
L 70.953125 0 
L 59.03125 0 
L 49.5625 14.890625 
Q 45.40625 21.34375 42.71875 24.75 
Q 40.046875 28.171875 37.921875 29.53125 
Q 35.796875 30.90625 33.59375 31.453125 
Q 31.984375 31.78125 28.328125 31.78125 
L 17.328125 31.78125 
L 17.328125 0 
z
M 17.328125 39.984375 
L 37.703125 39.984375 
Q 44.1875 39.984375 47.84375 41.328125 
Q 51.515625 42.671875 53.421875 45.625 
Q 55.328125 48.578125 55.328125 52.046875 
Q 55.328125 57.125 51.640625 60.390625 
Q 47.953125 63.671875 39.984375 63.671875 
L 17.328125 63.671875 
z
" id="ArialMT-52"/>
     <path d="M 58.796875 25.09375 
L 68.265625 22.703125 
Q 65.28125 11.03125 57.546875 4.90625 
Q 49.8125 -1.21875 38.625 -1.21875 
Q 27.046875 -1.21875 19.796875 3.484375 
Q 12.546875 8.203125 8.765625 17.140625 
Q 4.984375 26.078125 4.984375 36.328125 
Q 4.984375 47.515625 9.25 55.828125 
Q 13.53125 64.15625 21.40625 68.46875 
Q 29.296875 72.796875 38.765625 72.796875 
Q 49.515625 72.796875 56.828125 67.328125 
Q 64.15625 61.859375 67.046875 51.953125 
L 57.71875 49.75 
Q 55.21875 57.5625 50.484375 61.125 
Q 45.75 64.703125 38.578125 64.703125 
Q 30.328125 64.703125 24.78125 60.734375 
Q 19.234375 56.78125 16.984375 50.109375 
Q 14.75 43.453125 14.75 36.375 
Q 14.75 27.25 17.40625 20.4375 
Q 20.0625 13.625 25.671875 10.25 
Q 31.296875 6.890625 37.84375 6.890625 
Q 45.796875 6.890625 51.3125 11.46875 
Q 56.84375 16.0625 58.796875 25.09375 
" id="ArialMT-43"/>
     <path d="M 2.78125 16.5 
L 2.78125 20.015625 
L 33.6875 66.109375 
Q 34.03125 66.609375 34.71875 66.609375 
L 36.1875 66.609375 
Q 37.3125 66.609375 37.3125 65.484375 
L 37.3125 20.015625 
L 47.125 20.015625 
L 47.125 16.5 
L 37.3125 16.5 
L 37.3125 6.6875 
Q 37.3125 4.640625 40.234375 4.078125 
Q 43.171875 3.515625 47.015625 3.515625 
L 47.015625 0 
L 19.484375 0 
L 19.484375 3.515625 
Q 23.34375 3.515625 26.265625 4.078125 
Q 29.203125 4.640625 29.203125 6.6875 
L 29.203125 16.5 
z
M 6.109375 20.015625 
L 29.78125 20.015625 
L 29.78125 55.421875 
z
" id="Cmr10-34"/>
     <path d="M 8.890625 0 
L 8.890625 10.015625 
L 18.890625 10.015625 
L 18.890625 0 
Q 18.890625 -5.515625 16.9375 -8.90625 
Q 14.984375 -12.3125 10.75 -14.15625 
L 8.296875 -10.40625 
Q 11.078125 -9.1875 12.390625 -6.8125 
Q 13.71875 -4.4375 13.875 0 
z
" id="ArialMT-2c"/>
     <path d="M 6.640625 61.46875 
L 6.640625 71.578125 
L 15.4375 71.578125 
L 15.4375 61.46875 
z
M 6.640625 0 
L 6.640625 51.859375 
L 15.4375 51.859375 
L 15.4375 0 
z
" id="ArialMT-69"/>
    </defs>
    <g style="fill:#d9d9d9;" transform="translate(102.51140625 20.34)scale(0.18 -0.18)">
     <use transform="translate(0.0 0.203125)" xlink:href="#ArialMT-41"/>
     <use transform="translate(66.69921875 0.203125)" xlink:href="#ArialMT-66"/>
     <use transform="translate(94.482421875 0.203125)" xlink:href="#ArialMT-74"/>
     <use transform="translate(122.265625 0.203125)" xlink:href="#ArialMT-65"/>
     <use transform="translate(177.880859375 0.203125)" xlink:href="#ArialMT-72"/>
     <use transform="translate(211.181640625 0.203125)" xlink:href="#ArialMT-20"/>
     <use transform="translate(238.96484375 0.203125)" xlink:href="#ArialMT-66"/>
     <use transform="translate(266.748046875 0.203125)" xlink:href="#ArialMT-69"/>
     <use transform="translate(288.96484375 0.203125)" xlink:href="#ArialMT-74"/>
     <use transform="translate(316.748046875 0.203125)" xlink:href="#ArialMT-3a"/>
     <use transform="translate(344.53125 0.203125)" xlink:href="#ArialMT-20"/>
     <use transform="translate(372.314453125 0.203125)" xlink:href="#ArialMT-43"/>
     <use transform="translate(444.53125 0.203125)" xlink:href="#ArialMT-52"/>
     <use transform="translate(516.748046875 0.203125)" xlink:href="#ArialMT-57"/>
     <use transform="translate(611.1328125 0.203125)" xlink:href="#ArialMT-2c"/>
     <use transform="translate(638.916015625 0.203125)" xlink:href="#ArialMT-20"/>
     <use transform="translate(666.69921875 0.203125)" xlink:href="#Cmmi10-af"/>
     <use transform="translate(740.751953125 0.203125)" xlink:href="#Cmr10-3d"/>
     <use transform="translate(835.99609375 0.203125)" xlink:href="#Cmr10-30"/>
     <use transform="translate(885.99609375 0.203125)" xlink:href="#Cmmi10-3a"/>
     <use transform="translate(931.240234375 0.203125)" xlink:href="#Cmr10-34"/>
     <use transform="translate(981.240234375 0.203125)" xlink:href="#Cmr10-30"/>
     <use transform="translate(1031.240234375 0.203125)" xlink:href="#Cmr10-30"/>
     <use transform="translate(1081.240234375 0.203125)" xlink:href="#Cmr10-30"/>
    </g>
   </g>
  </g>
 </g>
 <defs>
  <clipPath id="p6a45ad957b">
   <rect height="167.4" width="279.0" x="64.89140625" y="25.34"/>
  </clipPath>
 </defs>
</svg>
