<?xml version="1.0" encoding="utf-8" standalone="no"?>
<!DOCTYPE svg PUBLIC "-//W3C//DTD SVG 1.1//EN"
  "http://www.w3.org/Graphics/SVG/1.1/DTD/svg11.dtd">
<!-- Created with matplotlib (http://matplotlib.org/) -->
<svg height="237pt" version="1.1" viewBox="0 0 365 237" width="365pt" xmlns="http://www.w3.org/2000/svg" xmlns:xlink="http://www.w3.org/1999/xlink">
 <defs>
  <style type="text/css">
*{stroke-linecap:butt;stroke-linejoin:round;}
  </style>
 </defs>
 <g id="figure_1">
  <g id="patch_1">
   <path d="M 0 237.147734 
L 365.784219 237.147734 
L 365.784219 0 
L 0 0 
z
" style="fill:#3f3f3f;"/>
  </g>
  <g id="axes_1">
   <g id="patch_2">
    <path d="M 79.584219 190.14 
L 358.584219 190.14 
L 358.584219 27.06 
L 79.584219 27.06 
z
" style="fill:#504040;"/>
   </g>
   <g id="matplotlib.axis_1">
    <g id="xtick_1">
     <g id="line2d_1">
      <path clip-path="url(#p766a6dfac7)" d="M 79.584219 190.14 
L 79.584219 27.06 
" style="fill:none;stroke:#808080;stroke-linecap:round;"/>
     </g>
     <g id="line2d_2"/>
     <g id="text_1">
      <!-- 0 -->
      <defs>
       <path d="M 4.15625 35.296875 
Q 4.15625 48 6.765625 55.734375 
Q 9.375 63.484375 14.515625 67.671875 
Q 19.671875 71.875 27.484375 71.875 
Q 33.25 71.875 37.59375 69.546875 
Q 41.9375 67.234375 44.765625 62.859375 
Q 47.609375 58.5 49.21875 52.21875 
Q 50.828125 45.953125 50.828125 35.296875 
Q 50.828125 22.703125 48.234375 14.96875 
Q 45.65625 7.234375 40.5 3 
Q 35.359375 -1.21875 27.484375 -1.21875 
Q 17.140625 -1.21875 11.234375 6.203125 
Q 4.15625 15.140625 4.15625 35.296875 
M 13.1875 35.296875 
Q 13.1875 17.671875 17.3125 11.828125 
Q 21.4375 6 27.484375 6 
Q 33.546875 6 37.671875 11.859375 
Q 41.796875 17.71875 41.796875 35.296875 
Q 41.796875 52.984375 37.671875 58.78125 
Q 33.546875 64.59375 27.390625 64.59375 
Q 21.34375 64.59375 17.71875 59.46875 
Q 13.1875 52.9375 13.1875 35.296875 
" id="ArialMT-30"/>
      </defs>
      <g style="fill:#d9d9d9;" transform="translate(75.413516 207.876719)scale(0.15 -0.15)">
       <use xlink:href="#ArialMT-30"/>
      </g>
     </g>
    </g>
    <g id="xtick_2">
     <g id="line2d_3">
      <path clip-path="url(#p766a6dfac7)" d="M 157.084219 190.14 
L 157.084219 27.06 
" style="fill:none;stroke:#808080;stroke-linecap:round;"/>
     </g>
     <g id="line2d_4"/>
     <g id="text_2">
      <!-- 50 -->
      <defs>
       <path d="M 4.15625 18.75 
L 13.375 19.53125 
Q 14.40625 12.796875 18.140625 9.390625 
Q 21.875 6 27.15625 6 
Q 33.5 6 37.890625 10.78125 
Q 42.28125 15.578125 42.28125 23.484375 
Q 42.28125 31 38.0625 35.34375 
Q 33.84375 39.703125 27 39.703125 
Q 22.75 39.703125 19.328125 37.765625 
Q 15.921875 35.84375 13.96875 32.765625 
L 5.71875 33.84375 
L 12.640625 70.609375 
L 48.25 70.609375 
L 48.25 62.203125 
L 19.671875 62.203125 
L 15.828125 42.96875 
Q 22.265625 47.46875 29.34375 47.46875 
Q 38.71875 47.46875 45.15625 40.96875 
Q 51.609375 34.46875 51.609375 24.265625 
Q 51.609375 14.546875 45.953125 7.46875 
Q 39.0625 -1.21875 27.15625 -1.21875 
Q 17.390625 -1.21875 11.203125 4.25 
Q 5.03125 9.71875 4.15625 18.75 
" id="ArialMT-35"/>
      </defs>
      <g style="fill:#d9d9d9;" transform="translate(148.742812 207.876719)scale(0.15 -0.15)">
       <use xlink:href="#ArialMT-35"/>
       <use x="55.615234" xlink:href="#ArialMT-30"/>
      </g>
     </g>
    </g>
    <g id="xtick_3">
     <g id="line2d_5">
      <path clip-path="url(#p766a6dfac7)" d="M 234.584219 190.14 
L 234.584219 27.06 
" style="fill:none;stroke:#808080;stroke-linecap:round;"/>
     </g>
     <g id="line2d_6"/>
     <g id="text_3">
      <!-- 100 -->
      <defs>
       <path d="M 37.25 0 
L 28.46875 0 
L 28.46875 56 
Q 25.296875 52.984375 20.140625 49.953125 
Q 14.984375 46.921875 10.890625 45.40625 
L 10.890625 53.90625 
Q 18.265625 57.375 23.78125 62.296875 
Q 29.296875 67.234375 31.59375 71.875 
L 37.25 71.875 
z
" id="ArialMT-31"/>
      </defs>
      <g style="fill:#d9d9d9;" transform="translate(222.072109 207.876719)scale(0.15 -0.15)">
       <use xlink:href="#ArialMT-31"/>
       <use x="55.615234" xlink:href="#ArialMT-30"/>
       <use x="111.230469" xlink:href="#ArialMT-30"/>
      </g>
     </g>
    </g>
    <g id="xtick_4">
     <g id="line2d_7">
      <path clip-path="url(#p766a6dfac7)" d="M 312.084219 190.14 
L 312.084219 27.06 
" style="fill:none;stroke:#808080;stroke-linecap:round;"/>
     </g>
     <g id="line2d_8"/>
     <g id="text_4">
      <!-- 150 -->
      <g style="fill:#d9d9d9;" transform="translate(299.572109 207.876719)scale(0.15 -0.15)">
       <use xlink:href="#ArialMT-31"/>
       <use x="55.615234" xlink:href="#ArialMT-35"/>
       <use x="111.230469" xlink:href="#ArialMT-30"/>
      </g>
     </g>
    </g>
    <g id="text_5">
     <!-- $\theta$ -->
     <defs>
      <path d="M 45.515625 34.671875 
L 14.453125 34.671875 
Q 12.359375 20.0625 14.5 13.875 
Q 17.1875 6.25 24.46875 6.25 
Q 31.78125 6.25 37.359375 13.921875 
Q 42.234375 20.65625 45.515625 34.671875 
M 47.015625 42.96875 
Q 48.34375 56.84375 46.625 61.71875 
Q 43.953125 69.4375 36.765625 69.4375 
Q 29.296875 69.4375 23.828125 61.8125 
Q 19.53125 55.671875 16.15625 42.96875 
z
M 38.1875 76.765625 
Q 49.90625 76.765625 54.59375 66.40625 
Q 59.28125 56.109375 55.71875 37.84375 
Q 52.203125 19.625 43.453125 9.28125 
Q 34.765625 -1.125 23.046875 -1.125 
Q 11.28125 -1.125 6.640625 9.28125 
Q 2 19.625 5.515625 37.84375 
Q 9.078125 56.109375 17.71875 66.40625 
Q 26.421875 76.765625 38.1875 76.765625 
" id="DejaVuSans-Oblique-3b8"/>
     </defs>
     <g style="fill:#d9d9d9;" transform="translate(213.969219 226.668359)scale(0.165 -0.165)">
      <use transform="translate(0 0.234375)" xlink:href="#DejaVuSans-Oblique-3b8"/>
     </g>
    </g>
   </g>
   <g id="matplotlib.axis_2">
    <g id="ytick_1">
     <g id="line2d_9">
      <path clip-path="url(#p766a6dfac7)" d="M 79.584219 190.14 
L 358.584219 190.14 
" style="fill:none;stroke:#808080;stroke-linecap:round;"/>
     </g>
     <g id="line2d_10"/>
     <g id="text_6">
      <!-- 0.0000 -->
      <defs>
       <path d="M 9.078125 0 
L 9.078125 10.015625 
L 19.09375 10.015625 
L 19.09375 0 
z
" id="ArialMT-2e"/>
      </defs>
      <g style="fill:#d9d9d9;" transform="translate(26.71 195.508359)scale(0.15 -0.15)">
       <use xlink:href="#ArialMT-30"/>
       <use x="55.615234" xlink:href="#ArialMT-2e"/>
       <use x="83.398438" xlink:href="#ArialMT-30"/>
       <use x="139.013672" xlink:href="#ArialMT-30"/>
       <use x="194.628906" xlink:href="#ArialMT-30"/>
       <use x="250.244141" xlink:href="#ArialMT-30"/>
      </g>
     </g>
    </g>
    <g id="ytick_2">
     <g id="line2d_11">
      <path clip-path="url(#p766a6dfac7)" d="M 79.584219 151.248376 
L 358.584219 151.248376 
" style="fill:none;stroke:#808080;stroke-linecap:round;"/>
     </g>
     <g id="line2d_12"/>
     <g id="text_7">
      <!-- 0.0025 -->
      <defs>
       <path d="M 50.34375 8.453125 
L 50.34375 0 
L 3.03125 0 
Q 2.9375 3.171875 4.046875 6.109375 
Q 5.859375 10.9375 9.828125 15.625 
Q 13.8125 20.3125 21.34375 26.46875 
Q 33.015625 36.03125 37.109375 41.625 
Q 41.21875 47.21875 41.21875 52.203125 
Q 41.21875 57.421875 37.46875 61 
Q 33.734375 64.59375 27.734375 64.59375 
Q 21.390625 64.59375 17.578125 60.78125 
Q 13.765625 56.984375 13.71875 50.25 
L 4.6875 51.171875 
Q 5.609375 61.28125 11.65625 66.578125 
Q 17.71875 71.875 27.9375 71.875 
Q 38.234375 71.875 44.234375 66.15625 
Q 50.25 60.453125 50.25 52 
Q 50.25 47.703125 48.484375 43.546875 
Q 46.734375 39.40625 42.65625 34.8125 
Q 38.578125 30.21875 29.109375 22.21875 
Q 21.1875 15.578125 18.9375 13.203125 
Q 16.703125 10.84375 15.234375 8.453125 
z
" id="ArialMT-32"/>
      </defs>
      <g style="fill:#d9d9d9;" transform="translate(26.71 156.616735)scale(0.15 -0.15)">
       <use xlink:href="#ArialMT-30"/>
       <use x="55.615234" xlink:href="#ArialMT-2e"/>
       <use x="83.398438" xlink:href="#ArialMT-30"/>
       <use x="139.013672" xlink:href="#ArialMT-30"/>
       <use x="194.628906" xlink:href="#ArialMT-32"/>
       <use x="250.244141" xlink:href="#ArialMT-35"/>
      </g>
     </g>
    </g>
    <g id="ytick_3">
     <g id="line2d_13">
      <path clip-path="url(#p766a6dfac7)" d="M 79.584219 112.356752 
L 358.584219 112.356752 
" style="fill:none;stroke:#808080;stroke-linecap:round;"/>
     </g>
     <g id="line2d_14"/>
     <g id="text_8">
      <!-- 0.0050 -->
      <g style="fill:#d9d9d9;" transform="translate(26.71 117.725112)scale(0.15 -0.15)">
       <use xlink:href="#ArialMT-30"/>
       <use x="55.615234" xlink:href="#ArialMT-2e"/>
       <use x="83.398438" xlink:href="#ArialMT-30"/>
       <use x="139.013672" xlink:href="#ArialMT-30"/>
       <use x="194.628906" xlink:href="#ArialMT-35"/>
       <use x="250.244141" xlink:href="#ArialMT-30"/>
      </g>
     </g>
    </g>
    <g id="ytick_4">
     <g id="line2d_15">
      <path clip-path="url(#p766a6dfac7)" d="M 79.584219 73.465128 
L 358.584219 73.465128 
" style="fill:none;stroke:#808080;stroke-linecap:round;"/>
     </g>
     <g id="line2d_16"/>
     <g id="text_9">
      <!-- 0.0075 -->
      <defs>
       <path d="M 4.734375 62.203125 
L 4.734375 70.65625 
L 51.078125 70.65625 
L 51.078125 63.8125 
Q 44.234375 56.546875 37.515625 44.484375 
Q 30.8125 32.421875 27.15625 19.671875 
Q 24.515625 10.6875 23.78125 0 
L 14.75 0 
Q 14.890625 8.453125 18.0625 20.40625 
Q 21.234375 32.375 27.171875 43.484375 
Q 33.109375 54.59375 39.796875 62.203125 
z
" id="ArialMT-37"/>
      </defs>
      <g style="fill:#d9d9d9;" transform="translate(26.71 78.833488)scale(0.15 -0.15)">
       <use xlink:href="#ArialMT-30"/>
       <use x="55.615234" xlink:href="#ArialMT-2e"/>
       <use x="83.398438" xlink:href="#ArialMT-30"/>
       <use x="139.013672" xlink:href="#ArialMT-30"/>
       <use x="194.628906" xlink:href="#ArialMT-37"/>
       <use x="250.244141" xlink:href="#ArialMT-35"/>
      </g>
     </g>
    </g>
    <g id="ytick_5">
     <g id="line2d_17">
      <path clip-path="url(#p766a6dfac7)" d="M 79.584219 34.573504 
L 358.584219 34.573504 
" style="fill:none;stroke:#808080;stroke-linecap:round;"/>
     </g>
     <g id="line2d_18"/>
     <g id="text_10">
      <!-- 0.0100 -->
      <g style="fill:#d9d9d9;" transform="translate(26.71 39.941864)scale(0.15 -0.15)">
       <use xlink:href="#ArialMT-30"/>
       <use x="55.615234" xlink:href="#ArialMT-2e"/>
       <use x="83.398438" xlink:href="#ArialMT-30"/>
       <use x="139.013672" xlink:href="#ArialMT-31"/>
       <use x="194.628906" xlink:href="#ArialMT-30"/>
       <use x="250.244141" xlink:href="#ArialMT-30"/>
      </g>
     </g>
    </g>
    <g id="text_11">
     <!-- $\theta_1/\theta$ -->
     <defs>
      <path d="M 12.40625 8.296875 
L 28.515625 8.296875 
L 28.515625 63.921875 
L 10.984375 60.40625 
L 10.984375 69.390625 
L 28.421875 72.90625 
L 38.28125 72.90625 
L 38.28125 8.296875 
L 54.390625 8.296875 
L 54.390625 0 
L 12.40625 0 
z
" id="DejaVuSans-31"/>
      <path d="M 25.390625 72.90625 
L 33.6875 72.90625 
L 8.296875 -9.28125 
L 0 -9.28125 
z
" id="DejaVuSans-2f"/>
     </defs>
     <g style="fill:#d9d9d9;" transform="translate(19.430625 125.43)rotate(-90)scale(0.165 -0.165)">
      <use transform="translate(0 0.234375)" xlink:href="#DejaVuSans-Oblique-3b8"/>
      <use transform="translate(61.181641 -16.171875)scale(0.7)" xlink:href="#DejaVuSans-31"/>
      <use transform="translate(108.452148 0.234375)" xlink:href="#DejaVuSans-2f"/>
      <use transform="translate(142.143555 0.234375)" xlink:href="#DejaVuSans-Oblique-3b8"/>
     </g>
    </g>
   </g>
   <g id="line2d_19">
    <path clip-path="url(#p766a6dfac7)" d="M 0 0 
" style="fill:none;stroke:#00d7ff;stroke-linecap:round;stroke-width:1.75;"/>
   </g>
   <g id="line2d_20">
    <path clip-path="url(#p766a6dfac7)" d="M 82.383488 34.776727 
L 85.182757 35.383029 
L 87.982027 36.382418 
L 90.781296 37.758589 
L 93.580566 39.489434 
L 96.379835 41.547724 
L 99.179104 43.901934 
L 101.978374 46.517186 
L 104.777643 49.356255 
L 107.576912 52.380616 
L 110.376182 55.55147 
L 113.175451 58.830724 
L 115.97472 62.181883 
L 118.77399 65.570813 
L 121.573259 68.966363 
L 124.372529 72.340825 
L 127.171798 75.670222 
L 129.971067 78.93443 
L 132.770337 82.117149 
L 135.569606 85.205738 
L 138.368875 88.190942 
L 141.168145 91.066541 
L 143.967414 93.828954 
L 146.766683 96.476816 
L 149.565953 99.010571 
L 152.365222 101.432076 
L 155.164492 103.744255 
L 157.963761 105.95079 
L 160.76303 108.055873 
L 163.5623 110.063993 
L 166.361569 111.97978 
L 169.160838 113.807879 
L 171.960108 115.552865 
L 174.759377 117.219177 
L 177.558646 118.811081 
L 180.357916 120.332644 
L 183.157185 121.787717 
L 185.956455 123.179937 
L 188.755724 124.512721 
L 191.554993 125.789276 
L 194.354263 127.012603 
L 197.153532 128.18551 
L 199.952801 129.310617 
L 202.752071 130.390372 
L 205.55134 131.427056 
L 208.350609 132.422795 
L 211.149879 133.379572 
L 213.949148 134.299233 
L 216.748418 135.183494 
L 219.547687 136.033954 
L 222.346956 136.852098 
L 225.146226 137.639306 
L 227.945495 138.396858 
L 230.744764 139.125939 
L 233.544034 139.827645 
L 236.343303 140.502987 
L 239.142572 141.152895 
L 241.941842 141.778219 
L 244.741111 142.379735 
L 247.540381 142.958145 
L 250.33965 143.514078 
L 253.138919 144.048093 
L 255.938189 144.560674 
L 258.737458 145.052238 
L 261.536727 145.523125 
L 264.335997 145.973601 
L 267.135266 146.40385 
L 269.934535 146.813976 
L 272.733805 147.20399 
L 275.533074 147.573806 
L 278.332344 147.923233 
L 281.131613 148.251956 
L 283.930882 148.559529 
L 286.730152 148.84535 
L 289.529421 149.108639 
L 292.32869 149.348407 
L 295.12796 149.563419 
L 297.927229 149.752145 
L 300.726498 149.912698 
L 303.525768 150.042752 
L 306.325037 150.13944 
L 309.124307 150.199214 
L 311.923576 150.217657 
L 314.722845 150.189234 
L 317.522115 150.106942 
L 320.321384 149.961817 
L 323.120653 149.742224 
L 325.919923 149.432816 
L 328.719192 149.012941 
L 331.518461 148.454153 
L 334.317731 147.716136 
L 337.117 146.73973 
L 339.91627 145.434276 
L 342.715539 143.652908 
L 345.514808 141.139541 
L 348.314078 137.399466 
L 351.113347 131.318245 
L 353.912616 119.634498 
" style="fill:none;stroke:#ffc400;stroke-linecap:round;stroke-width:1.75;"/>
   </g>
   <g id="line2d_21">
    <path clip-path="url(#p766a6dfac7)" d="M 82.383488 34.776684 
L 85.182757 35.381384 
L 87.982027 36.373909 
L 90.781296 37.732636 
L 93.580566 39.428508 
L 96.379835 41.427807 
L 99.179104 43.693011 
L 101.978374 46.184587 
L 104.777643 48.863132 
L 107.576912 51.690169 
L 110.376182 54.629425 
L 113.175451 57.647616 
L 115.97472 60.714738 
L 118.77399 63.80448 
L 121.573259 66.89412 
L 124.372529 69.964488 
L 127.171798 72.999695 
L 129.971067 75.98683 
L 132.770337 78.915736 
L 135.569606 81.778459 
L 138.368875 84.569246 
L 141.168145 87.284034 
L 143.967414 89.919936 
L 146.766683 92.475706 
L 149.565953 94.950801 
L 152.365222 97.345417 
L 155.164492 99.660577 
L 157.963761 101.897784 
L 160.76303 104.058626 
L 163.5623 106.145475 
L 166.361569 108.160324 
L 169.160838 110.105852 
L 171.960108 111.984587 
L 174.759377 113.79892 
L 177.558646 115.55158 
L 180.357916 117.245191 
L 183.157185 118.882398 
L 185.956455 120.465362 
L 188.755724 121.996835 
L 191.554993 123.47919 
L 194.354263 124.91476 
L 197.153532 126.305727 
L 199.952801 127.654219 
L 202.752071 128.962529 
L 205.55134 130.232741 
L 208.350609 131.466504 
L 211.149879 132.666039 
L 213.949148 133.833101 
L 216.748418 134.969373 
L 219.547687 136.076804 
L 222.346956 137.15676 
L 225.146226 138.21121 
L 227.945495 139.241441 
L 230.744764 140.249225 
L 233.544034 141.236013 
L 236.343303 142.203223 
L 239.142572 143.15245 
L 241.941842 144.085118 
L 244.741111 145.002616 
L 247.540381 145.906424 
L 250.33965 146.798007 
L 253.138919 147.678818 
L 255.938189 148.550307 
L 258.737458 149.41398 
L 261.536727 150.271387 
L 264.335997 151.124054 
L 267.135266 151.973614 
L 269.934535 152.821714 
L 272.733805 153.670078 
L 275.533074 154.520501 
L 278.332344 155.374837 
L 281.131613 156.235056 
L 283.930882 157.103182 
L 286.730152 157.981363 
L 289.529421 158.871814 
L 292.32869 159.776951 
L 295.12796 160.699157 
L 297.927229 161.640994 
L 300.726498 162.60513 
L 303.525768 163.594246 
L 306.325037 164.611144 
L 309.124307 165.658552 
L 311.923576 166.73925 
L 314.722845 167.855863 
L 317.522115 169.010873 
L 320.321384 170.206475 
L 323.120653 171.44448 
L 325.919923 172.726164 
L 328.719192 174.05213 
L 331.518461 175.422142 
L 334.317731 176.834942 
L 337.117 178.288138 
L 339.91627 179.778007 
L 342.715539 181.299494 
L 345.514808 182.846094 
L 348.314078 184.409978 
L 351.113347 185.982106 
L 353.912616 187.552456 
L 356.711886 189.110357 
" style="fill:none;stroke:#ffffff;stroke-dasharray:2.2,2.2;stroke-dashoffset:0;stroke-width:1.75;"/>
   </g>
   <g id="patch_3">
    <path d="M 79.584219 190.14 
L 79.584219 27.06 
" style="fill:none;"/>
   </g>
   <g id="patch_4">
    <path d="M 358.584219 190.14 
L 358.584219 27.06 
" style="fill:none;"/>
   </g>
   <g id="patch_5">
    <path d="M 79.584219 190.14 
L 358.584219 190.14 
" style="fill:none;"/>
   </g>
   <g id="patch_6">
    <path d="M 79.584219 27.06 
L 358.584219 27.06 
" style="fill:none;"/>
   </g>
   <g id="text_12">
    <!-- Before fit: $\xi = 0.1$; $\beta = 0.0001$ -->
    <defs>
     <path d="M 7.328125 0 
L 7.328125 71.578125 
L 34.1875 71.578125 
Q 42.390625 71.578125 47.34375 69.40625 
Q 52.296875 67.234375 55.09375 62.71875 
Q 57.90625 58.203125 57.90625 53.265625 
Q 57.90625 48.6875 55.421875 44.625 
Q 52.9375 40.578125 47.90625 38.09375 
Q 54.390625 36.1875 57.875 31.59375 
Q 61.375 27 61.375 20.75 
Q 61.375 15.71875 59.25 11.390625 
Q 57.125 7.078125 54 4.734375 
Q 50.875 2.390625 46.15625 1.1875 
Q 41.453125 0 34.625 0 
z
M 16.796875 41.5 
L 32.28125 41.5 
Q 38.578125 41.5 41.3125 42.328125 
Q 44.921875 43.40625 46.75 45.890625 
Q 48.578125 48.390625 48.578125 52.15625 
Q 48.578125 55.71875 46.875 58.421875 
Q 45.171875 61.140625 41.984375 62.140625 
Q 38.8125 63.140625 31.109375 63.140625 
L 16.796875 63.140625 
z
M 16.796875 8.453125 
L 34.625 8.453125 
Q 39.203125 8.453125 41.0625 8.796875 
Q 44.34375 9.375 46.53125 10.734375 
Q 48.734375 12.109375 50.140625 14.71875 
Q 51.5625 17.328125 51.5625 20.75 
Q 51.5625 24.75 49.515625 27.703125 
Q 47.46875 30.671875 43.828125 31.859375 
Q 40.1875 33.0625 33.34375 33.0625 
L 16.796875 33.0625 
z
" id="ArialMT-42"/>
     <path d="M 42.09375 16.703125 
L 51.171875 15.578125 
Q 49.03125 7.625 43.21875 3.21875 
Q 37.40625 -1.171875 28.375 -1.171875 
Q 17 -1.171875 10.328125 5.828125 
Q 3.65625 12.84375 3.65625 25.484375 
Q 3.65625 38.578125 10.390625 45.796875 
Q 17.140625 53.03125 27.875 53.03125 
Q 38.28125 53.03125 44.875 45.953125 
Q 51.46875 38.875 51.46875 26.03125 
Q 51.46875 25.25 51.421875 23.6875 
L 12.75 23.6875 
Q 13.234375 15.140625 17.578125 10.59375 
Q 21.921875 6.0625 28.421875 6.0625 
Q 33.25 6.0625 36.671875 8.59375 
Q 40.09375 11.140625 42.09375 16.703125 
M 13.234375 30.90625 
L 42.1875 30.90625 
Q 41.609375 37.453125 38.875 40.71875 
Q 34.671875 45.796875 27.984375 45.796875 
Q 21.921875 45.796875 17.796875 41.75 
Q 13.671875 37.703125 13.234375 30.90625 
" id="ArialMT-65"/>
     <path d="M 8.6875 0 
L 8.6875 45.015625 
L 0.921875 45.015625 
L 0.921875 51.859375 
L 8.6875 51.859375 
L 8.6875 57.375 
Q 8.6875 62.59375 9.625 65.140625 
Q 10.890625 68.5625 14.078125 70.671875 
Q 17.28125 72.796875 23.046875 72.796875 
Q 26.765625 72.796875 31.25 71.921875 
L 29.9375 64.265625 
Q 27.203125 64.75 24.75 64.75 
Q 20.75 64.75 19.09375 63.03125 
Q 17.4375 61.328125 17.4375 56.640625 
L 17.4375 51.859375 
L 27.546875 51.859375 
L 27.546875 45.015625 
L 17.4375 45.015625 
L 17.4375 0 
z
" id="ArialMT-66"/>
     <path d="M 3.328125 25.921875 
Q 3.328125 40.328125 11.328125 47.265625 
Q 18.015625 53.03125 27.640625 53.03125 
Q 38.328125 53.03125 45.109375 46.015625 
Q 51.90625 39.015625 51.90625 26.65625 
Q 51.90625 16.65625 48.90625 10.90625 
Q 45.90625 5.171875 40.15625 2 
Q 34.421875 -1.171875 27.640625 -1.171875 
Q 16.75 -1.171875 10.03125 5.8125 
Q 3.328125 12.796875 3.328125 25.921875 
M 12.359375 25.921875 
Q 12.359375 15.96875 16.703125 11.015625 
Q 21.046875 6.0625 27.640625 6.0625 
Q 34.1875 6.0625 38.53125 11.03125 
Q 42.875 16.015625 42.875 26.21875 
Q 42.875 35.84375 38.5 40.796875 
Q 34.125 45.75 27.640625 45.75 
Q 21.046875 45.75 16.703125 40.8125 
Q 12.359375 35.890625 12.359375 25.921875 
" id="ArialMT-6f"/>
     <path d="M 6.5 0 
L 6.5 51.859375 
L 14.40625 51.859375 
L 14.40625 44 
Q 17.4375 49.515625 20 51.265625 
Q 22.5625 53.03125 25.640625 53.03125 
Q 30.078125 53.03125 34.671875 50.203125 
L 31.640625 42.046875 
Q 28.421875 43.953125 25.203125 43.953125 
Q 22.3125 43.953125 20.015625 42.21875 
Q 17.71875 40.484375 16.75 37.40625 
Q 15.28125 32.71875 15.28125 27.15625 
L 15.28125 0 
z
" id="ArialMT-72"/>
     <path id="ArialMT-20"/>
     <path d="M 6.640625 61.46875 
L 6.640625 71.578125 
L 15.4375 71.578125 
L 15.4375 61.46875 
z
M 6.640625 0 
L 6.640625 51.859375 
L 15.4375 51.859375 
L 15.4375 0 
z
" id="ArialMT-69"/>
     <path d="M 25.78125 7.859375 
L 27.046875 0.09375 
Q 23.34375 -0.6875 20.40625 -0.6875 
Q 15.625 -0.6875 12.984375 0.828125 
Q 10.359375 2.34375 9.28125 4.8125 
Q 8.203125 7.28125 8.203125 15.1875 
L 8.203125 45.015625 
L 1.765625 45.015625 
L 1.765625 51.859375 
L 8.203125 51.859375 
L 8.203125 64.703125 
L 16.9375 69.96875 
L 16.9375 51.859375 
L 25.78125 51.859375 
L 25.78125 45.015625 
L 16.9375 45.015625 
L 16.9375 14.703125 
Q 16.9375 10.9375 17.40625 9.859375 
Q 17.875 8.796875 18.921875 8.15625 
Q 19.96875 7.515625 21.921875 7.515625 
Q 23.390625 7.515625 25.78125 7.859375 
" id="ArialMT-74"/>
     <path d="M 9.03125 41.84375 
L 9.03125 51.859375 
L 19.046875 51.859375 
L 19.046875 41.84375 
z
M 9.03125 0 
L 9.03125 10.015625 
L 19.046875 10.015625 
L 19.046875 0 
z
" id="ArialMT-3a"/>
     <path d="M 31.5 6.203125 
Q 37.9375 6.15625 41.0625 2.484375 
Q 44.4375 -1.375 43.3125 -7.234375 
Q 42.1875 -12.84375 37.84375 -16.75 
Q 33.109375 -21 25.140625 -21 
Q 25.875 -17.328125 26.5625 -13.625 
Q 29.890625 -13.875 32.375 -11.71875 
Q 34.28125 -10.015625 34.625 -8.203125 
Q 35.109375 -5.609375 33.984375 -3.46875 
Q 32.8125 -1.421875 30.03125 -1.421875 
Q -0.390625 -1.421875 3.765625 19.921875 
Q 6.59375 34.578125 23.6875 38.875 
Q 10.359375 40.625 12.84375 53.328125 
Q 14.703125 62.9375 26.21875 66.9375 
L 16.0625 66.9375 
L 17.828125 75.984375 
L 56.34375 75.984375 
L 54.59375 66.9375 
Q 23.875 66.9375 21.09375 52.734375 
Q 19.28125 43.40625 45.015625 42.96875 
L 43.40625 34.671875 
Q 15.765625 35.75 12.796875 19.921875 
Q 10.296875 6.6875 31.5 6.203125 
" id="DejaVuSans-Oblique-3be"/>
     <path d="M 10.59375 45.40625 
L 73.1875 45.40625 
L 73.1875 37.203125 
L 10.59375 37.203125 
z
M 10.59375 25.484375 
L 73.1875 25.484375 
L 73.1875 17.1875 
L 10.59375 17.1875 
z
" id="DejaVuSans-3d"/>
     <path d="M 31.78125 66.40625 
Q 24.171875 66.40625 20.328125 58.90625 
Q 16.5 51.421875 16.5 36.375 
Q 16.5 21.390625 20.328125 13.890625 
Q 24.171875 6.390625 31.78125 6.390625 
Q 39.453125 6.390625 43.28125 13.890625 
Q 47.125 21.390625 47.125 36.375 
Q 47.125 51.421875 43.28125 58.90625 
Q 39.453125 66.40625 31.78125 66.40625 
M 31.78125 74.21875 
Q 44.046875 74.21875 50.515625 64.515625 
Q 56.984375 54.828125 56.984375 36.375 
Q 56.984375 17.96875 50.515625 8.265625 
Q 44.046875 -1.421875 31.78125 -1.421875 
Q 19.53125 -1.421875 13.0625 8.265625 
Q 6.59375 17.96875 6.59375 36.375 
Q 6.59375 54.828125 13.0625 64.515625 
Q 19.53125 74.21875 31.78125 74.21875 
" id="DejaVuSans-30"/>
     <path d="M 10.6875 12.40625 
L 21 12.40625 
L 21 0 
L 10.6875 0 
z
" id="DejaVuSans-2e"/>
     <path d="M 8.890625 41.84375 
L 8.890625 51.859375 
L 18.890625 51.859375 
L 18.890625 41.84375 
z
M 8.890625 0 
L 8.890625 10.015625 
L 18.890625 10.015625 
L 18.890625 0 
Q 18.890625 -5.515625 16.9375 -8.90625 
Q 14.984375 -12.3125 10.75 -14.15625 
L 8.296875 -10.40625 
Q 11.078125 -9.1875 12.390625 -6.8125 
Q 13.71875 -4.4375 13.875 0 
z
" id="ArialMT-3b"/>
     <path d="M 13.625 3.375 
L 8.9375 -20.796875 
L -0.09375 -20.796875 
L 14.5 54.34375 
Q 18.84375 76.609375 39.65625 76.609375 
Q 60.75 76.609375 57.171875 57.8125 
Q 54.734375 44.4375 45.21875 39.546875 
Q 58.015625 35.15625 55.515625 22.125 
Q 51.125 -1.078125 27.484375 -1.03125 
Q 17.140625 -0.984375 13.625 3.375 
M 15.921875 15.09375 
Q 19.671875 6.59375 29.296875 6.640625 
Q 43.359375 6.640625 46.34375 21.96875 
Q 49.03125 35.75 26.171875 34.671875 
L 27.78125 42.96875 
Q 45.453125 42.671875 48.53125 58.59375 
Q 50.640625 69.34375 39.203125 69.28125 
Q 26.421875 69.28125 23.484375 54.046875 
z
" id="DejaVuSans-Oblique-3b2"/>
    </defs>
    <g style="fill:#d9d9d9;" transform="translate(94.344219 21.06)scale(0.18 -0.18)">
     <use transform="translate(0 0.390625)" xlink:href="#ArialMT-42"/>
     <use transform="translate(66.699219 0.390625)" xlink:href="#ArialMT-65"/>
     <use transform="translate(122.314453 0.390625)" xlink:href="#ArialMT-66"/>
     <use transform="translate(150.097656 0.390625)" xlink:href="#ArialMT-6f"/>
     <use transform="translate(205.712891 0.390625)" xlink:href="#ArialMT-72"/>
     <use transform="translate(239.013672 0.390625)" xlink:href="#ArialMT-65"/>
     <use transform="translate(294.628906 0.390625)" xlink:href="#ArialMT-20"/>
     <use transform="translate(322.412109 0.390625)" xlink:href="#ArialMT-66"/>
     <use transform="translate(350.195312 0.390625)" xlink:href="#ArialMT-69"/>
     <use transform="translate(372.412109 0.390625)" xlink:href="#ArialMT-74"/>
     <use transform="translate(400.195312 0.390625)" xlink:href="#ArialMT-3a"/>
     <use transform="translate(427.978516 0.390625)" xlink:href="#ArialMT-20"/>
     <use transform="translate(455.761719 0.390625)" xlink:href="#DejaVuSans-Oblique-3be"/>
     <use transform="translate(531.005859 0.390625)" xlink:href="#DejaVuSans-3d"/>
     <use transform="translate(634.277344 0.390625)" xlink:href="#DejaVuSans-30"/>
     <use transform="translate(697.900391 0.390625)" xlink:href="#DejaVuSans-2e"/>
     <use transform="translate(729.6875 0.390625)" xlink:href="#DejaVuSans-31"/>
     <use transform="translate(793.310547 0.390625)" xlink:href="#ArialMT-3b"/>
     <use transform="translate(821.09375 0.390625)" xlink:href="#ArialMT-20"/>
     <use transform="translate(848.876953 0.390625)" xlink:href="#DejaVuSans-Oblique-3b2"/>
     <use transform="translate(932.177734 0.390625)" xlink:href="#DejaVuSans-3d"/>
     <use transform="translate(1035.449219 0.390625)" xlink:href="#DejaVuSans-30"/>
     <use transform="translate(1099.072266 0.390625)" xlink:href="#DejaVuSans-2e"/>
     <use transform="translate(1130.859375 0.390625)" xlink:href="#DejaVuSans-30"/>
     <use transform="translate(1194.482422 0.390625)" xlink:href="#DejaVuSans-30"/>
     <use transform="translate(1258.105469 0.390625)" xlink:href="#DejaVuSans-30"/>
     <use transform="translate(1321.728516 0.390625)" xlink:href="#DejaVuSans-31"/>
    </g>
   </g>
  </g>
 </g>
 <defs>
  <clipPath id="p766a6dfac7">
   <rect height="163.08" width="279" x="79.584219" y="27.06"/>
  </clipPath>
 </defs>
</svg>
