<?xml version="1.0" encoding="utf-8" standalone="no"?>
<!DOCTYPE svg PUBLIC "-//W3C//DTD SVG 1.1//EN"
  "http://www.w3.org/Graphics/SVG/1.1/DTD/svg11.dtd">
<!-- Created with matplotlib (http://matplotlib.org/) -->
<svg height="237pt" version="1.1" viewBox="0 0 349 237" width="349pt" xmlns="http://www.w3.org/2000/svg" xmlns:xlink="http://www.w3.org/1999/xlink">
 <defs>
  <style type="text/css">
*{stroke-linecap:butt;stroke-linejoin:round;}
  </style>
 </defs>
 <g id="figure_1">
  <g id="patch_1">
   <path d="M 0 237.147734 
L 349.101406 237.147734 
L 349.101406 0 
L 0 0 
z
" style="fill:#3f3f3f;"/>
  </g>
  <g id="axes_1">
   <g id="patch_2">
    <path d="M 62.901406 190.14 
L 341.901406 190.14 
L 341.901406 27.06 
L 62.901406 27.06 
z
" style="fill:#504040;"/>
   </g>
   <g id="matplotlib.axis_1">
    <g id="xtick_1">
     <g id="line2d_1">
      <path clip-path="url(#pf291de0986)" d="M 62.901406 190.14 
L 62.901406 27.06 
" style="fill:none;stroke:#808080;stroke-linecap:round;"/>
     </g>
     <g id="line2d_2"/>
     <g id="text_1">
      <!-- 0 -->
      <defs>
       <path d="M 4.15625 35.296875 
Q 4.15625 48 6.765625 55.734375 
Q 9.375 63.484375 14.515625 67.671875 
Q 19.671875 71.875 27.484375 71.875 
Q 33.25 71.875 37.59375 69.546875 
Q 41.9375 67.234375 44.765625 62.859375 
Q 47.609375 58.5 49.21875 52.21875 
Q 50.828125 45.953125 50.828125 35.296875 
Q 50.828125 22.703125 48.234375 14.96875 
Q 45.65625 7.234375 40.5 3 
Q 35.359375 -1.21875 27.484375 -1.21875 
Q 17.140625 -1.21875 11.234375 6.203125 
Q 4.15625 15.140625 4.15625 35.296875 
M 13.1875 35.296875 
Q 13.1875 17.671875 17.3125 11.828125 
Q 21.4375 6 27.484375 6 
Q 33.546875 6 37.671875 11.859375 
Q 41.796875 17.71875 41.796875 35.296875 
Q 41.796875 52.984375 37.671875 58.78125 
Q 33.546875 64.59375 27.390625 64.59375 
Q 21.34375 64.59375 17.71875 59.46875 
Q 13.1875 52.9375 13.1875 35.296875 
" id="ArialMT-30"/>
      </defs>
      <g style="fill:#d9d9d9;" transform="translate(58.730703 207.876719)scale(0.15 -0.15)">
       <use xlink:href="#ArialMT-30"/>
      </g>
     </g>
    </g>
    <g id="xtick_2">
     <g id="line2d_3">
      <path clip-path="url(#pf291de0986)" d="M 140.401406 190.14 
L 140.401406 27.06 
" style="fill:none;stroke:#808080;stroke-linecap:round;"/>
     </g>
     <g id="line2d_4"/>
     <g id="text_2">
      <!-- 50 -->
      <defs>
       <path d="M 4.15625 18.75 
L 13.375 19.53125 
Q 14.40625 12.796875 18.140625 9.390625 
Q 21.875 6 27.15625 6 
Q 33.5 6 37.890625 10.78125 
Q 42.28125 15.578125 42.28125 23.484375 
Q 42.28125 31 38.0625 35.34375 
Q 33.84375 39.703125 27 39.703125 
Q 22.75 39.703125 19.328125 37.765625 
Q 15.921875 35.84375 13.96875 32.765625 
L 5.71875 33.84375 
L 12.640625 70.609375 
L 48.25 70.609375 
L 48.25 62.203125 
L 19.671875 62.203125 
L 15.828125 42.96875 
Q 22.265625 47.46875 29.34375 47.46875 
Q 38.71875 47.46875 45.15625 40.96875 
Q 51.609375 34.46875 51.609375 24.265625 
Q 51.609375 14.546875 45.953125 7.46875 
Q 39.0625 -1.21875 27.15625 -1.21875 
Q 17.390625 -1.21875 11.203125 4.25 
Q 5.03125 9.71875 4.15625 18.75 
" id="ArialMT-35"/>
      </defs>
      <g style="fill:#d9d9d9;" transform="translate(132.06 207.876719)scale(0.15 -0.15)">
       <use xlink:href="#ArialMT-35"/>
       <use x="55.615234" xlink:href="#ArialMT-30"/>
      </g>
     </g>
    </g>
    <g id="xtick_3">
     <g id="line2d_5">
      <path clip-path="url(#pf291de0986)" d="M 217.901406 190.14 
L 217.901406 27.06 
" style="fill:none;stroke:#808080;stroke-linecap:round;"/>
     </g>
     <g id="line2d_6"/>
     <g id="text_3">
      <!-- 100 -->
      <defs>
       <path d="M 37.25 0 
L 28.46875 0 
L 28.46875 56 
Q 25.296875 52.984375 20.140625 49.953125 
Q 14.984375 46.921875 10.890625 45.40625 
L 10.890625 53.90625 
Q 18.265625 57.375 23.78125 62.296875 
Q 29.296875 67.234375 31.59375 71.875 
L 37.25 71.875 
z
" id="ArialMT-31"/>
      </defs>
      <g style="fill:#d9d9d9;" transform="translate(205.389297 207.876719)scale(0.15 -0.15)">
       <use xlink:href="#ArialMT-31"/>
       <use x="55.615234" xlink:href="#ArialMT-30"/>
       <use x="111.230469" xlink:href="#ArialMT-30"/>
      </g>
     </g>
    </g>
    <g id="xtick_4">
     <g id="line2d_7">
      <path clip-path="url(#pf291de0986)" d="M 295.401406 190.14 
L 295.401406 27.06 
" style="fill:none;stroke:#808080;stroke-linecap:round;"/>
     </g>
     <g id="line2d_8"/>
     <g id="text_4">
      <!-- 150 -->
      <g style="fill:#d9d9d9;" transform="translate(282.889297 207.876719)scale(0.15 -0.15)">
       <use xlink:href="#ArialMT-31"/>
       <use x="55.615234" xlink:href="#ArialMT-35"/>
       <use x="111.230469" xlink:href="#ArialMT-30"/>
      </g>
     </g>
    </g>
    <g id="text_5">
     <!-- $\theta$ -->
     <defs>
      <path d="M 45.515625 34.671875 
L 14.453125 34.671875 
Q 12.359375 20.0625 14.5 13.875 
Q 17.1875 6.25 24.46875 6.25 
Q 31.78125 6.25 37.359375 13.921875 
Q 42.234375 20.65625 45.515625 34.671875 
M 47.015625 42.96875 
Q 48.34375 56.84375 46.625 61.71875 
Q 43.953125 69.4375 36.765625 69.4375 
Q 29.296875 69.4375 23.828125 61.8125 
Q 19.53125 55.671875 16.15625 42.96875 
z
M 38.1875 76.765625 
Q 49.90625 76.765625 54.59375 66.40625 
Q 59.28125 56.109375 55.71875 37.84375 
Q 52.203125 19.625 43.453125 9.28125 
Q 34.765625 -1.125 23.046875 -1.125 
Q 11.28125 -1.125 6.640625 9.28125 
Q 2 19.625 5.515625 37.84375 
Q 9.078125 56.109375 17.71875 66.40625 
Q 26.421875 76.765625 38.1875 76.765625 
" id="DejaVuSans-Oblique-3b8"/>
     </defs>
     <g style="fill:#d9d9d9;" transform="translate(197.286406 226.668359)scale(0.165 -0.165)">
      <use transform="translate(0 0.234375)" xlink:href="#DejaVuSans-Oblique-3b8"/>
     </g>
    </g>
   </g>
   <g id="matplotlib.axis_2">
    <g id="ytick_1">
     <g id="line2d_9">
      <path clip-path="url(#pf291de0986)" d="M 62.901406 182.733064 
L 341.901406 182.733064 
" style="fill:none;stroke:#808080;stroke-linecap:round;"/>
     </g>
     <g id="line2d_10"/>
     <g id="text_6">
      <!-- 0.10 -->
      <defs>
       <path d="M 9.078125 0 
L 9.078125 10.015625 
L 19.09375 10.015625 
L 19.09375 0 
z
" id="ArialMT-2e"/>
      </defs>
      <g style="fill:#d9d9d9;" transform="translate(26.71 188.101423)scale(0.15 -0.15)">
       <use xlink:href="#ArialMT-30"/>
       <use x="55.615234" xlink:href="#ArialMT-2e"/>
       <use x="83.398438" xlink:href="#ArialMT-31"/>
       <use x="139.013672" xlink:href="#ArialMT-30"/>
      </g>
     </g>
    </g>
    <g id="ytick_2">
     <g id="line2d_11">
      <path clip-path="url(#pf291de0986)" d="M 62.901406 135.458708 
L 341.901406 135.458708 
" style="fill:none;stroke:#808080;stroke-linecap:round;"/>
     </g>
     <g id="line2d_12"/>
     <g id="text_7">
      <!-- 0.12 -->
      <defs>
       <path d="M 50.34375 8.453125 
L 50.34375 0 
L 3.03125 0 
Q 2.9375 3.171875 4.046875 6.109375 
Q 5.859375 10.9375 9.828125 15.625 
Q 13.8125 20.3125 21.34375 26.46875 
Q 33.015625 36.03125 37.109375 41.625 
Q 41.21875 47.21875 41.21875 52.203125 
Q 41.21875 57.421875 37.46875 61 
Q 33.734375 64.59375 27.734375 64.59375 
Q 21.390625 64.59375 17.578125 60.78125 
Q 13.765625 56.984375 13.71875 50.25 
L 4.6875 51.171875 
Q 5.609375 61.28125 11.65625 66.578125 
Q 17.71875 71.875 27.9375 71.875 
Q 38.234375 71.875 44.234375 66.15625 
Q 50.25 60.453125 50.25 52 
Q 50.25 47.703125 48.484375 43.546875 
Q 46.734375 39.40625 42.65625 34.8125 
Q 38.578125 30.21875 29.109375 22.21875 
Q 21.1875 15.578125 18.9375 13.203125 
Q 16.703125 10.84375 15.234375 8.453125 
z
" id="ArialMT-32"/>
      </defs>
      <g style="fill:#d9d9d9;" transform="translate(26.71 140.827067)scale(0.15 -0.15)">
       <use xlink:href="#ArialMT-30"/>
       <use x="55.615234" xlink:href="#ArialMT-2e"/>
       <use x="83.398438" xlink:href="#ArialMT-31"/>
       <use x="139.013672" xlink:href="#ArialMT-32"/>
      </g>
     </g>
    </g>
    <g id="ytick_3">
     <g id="line2d_13">
      <path clip-path="url(#pf291de0986)" d="M 62.901406 88.184352 
L 341.901406 88.184352 
" style="fill:none;stroke:#808080;stroke-linecap:round;"/>
     </g>
     <g id="line2d_14"/>
     <g id="text_8">
      <!-- 0.14 -->
      <defs>
       <path d="M 32.328125 0 
L 32.328125 17.140625 
L 1.265625 17.140625 
L 1.265625 25.203125 
L 33.9375 71.578125 
L 41.109375 71.578125 
L 41.109375 25.203125 
L 50.78125 25.203125 
L 50.78125 17.140625 
L 41.109375 17.140625 
L 41.109375 0 
z
M 32.328125 25.203125 
L 32.328125 57.46875 
L 9.90625 25.203125 
z
" id="ArialMT-34"/>
      </defs>
      <g style="fill:#d9d9d9;" transform="translate(26.71 93.552712)scale(0.15 -0.15)">
       <use xlink:href="#ArialMT-30"/>
       <use x="55.615234" xlink:href="#ArialMT-2e"/>
       <use x="83.398438" xlink:href="#ArialMT-31"/>
       <use x="139.013672" xlink:href="#ArialMT-34"/>
      </g>
     </g>
    </g>
    <g id="ytick_4">
     <g id="line2d_15">
      <path clip-path="url(#pf291de0986)" d="M 62.901406 40.909997 
L 341.901406 40.909997 
" style="fill:none;stroke:#808080;stroke-linecap:round;"/>
     </g>
     <g id="line2d_16"/>
     <g id="text_9">
      <!-- 0.16 -->
      <defs>
       <path d="M 49.75 54.046875 
L 41.015625 53.375 
Q 39.84375 58.546875 37.703125 60.890625 
Q 34.125 64.65625 28.90625 64.65625 
Q 24.703125 64.65625 21.53125 62.3125 
Q 17.390625 59.28125 14.984375 53.46875 
Q 12.59375 47.65625 12.5 36.921875 
Q 15.671875 41.75 20.265625 44.09375 
Q 24.859375 46.4375 29.890625 46.4375 
Q 38.671875 46.4375 44.84375 39.96875 
Q 51.03125 33.5 51.03125 23.25 
Q 51.03125 16.5 48.125 10.71875 
Q 45.21875 4.9375 40.140625 1.859375 
Q 35.0625 -1.21875 28.609375 -1.21875 
Q 17.625 -1.21875 10.6875 6.859375 
Q 3.765625 14.9375 3.765625 33.5 
Q 3.765625 54.25 11.421875 63.671875 
Q 18.109375 71.875 29.4375 71.875 
Q 37.890625 71.875 43.28125 67.140625 
Q 48.6875 62.40625 49.75 54.046875 
M 13.875 23.1875 
Q 13.875 18.65625 15.796875 14.5 
Q 17.71875 10.359375 21.1875 8.171875 
Q 24.65625 6 28.46875 6 
Q 34.03125 6 38.03125 10.484375 
Q 42.046875 14.984375 42.046875 22.703125 
Q 42.046875 30.125 38.078125 34.390625 
Q 34.125 38.671875 28.125 38.671875 
Q 22.171875 38.671875 18.015625 34.390625 
Q 13.875 30.125 13.875 23.1875 
" id="ArialMT-36"/>
      </defs>
      <g style="fill:#d9d9d9;" transform="translate(26.71 46.278356)scale(0.15 -0.15)">
       <use xlink:href="#ArialMT-30"/>
       <use x="55.615234" xlink:href="#ArialMT-2e"/>
       <use x="83.398438" xlink:href="#ArialMT-31"/>
       <use x="139.013672" xlink:href="#ArialMT-36"/>
      </g>
     </g>
    </g>
    <g id="text_10">
     <!-- $\theta_1/\theta$ -->
     <defs>
      <path d="M 12.40625 8.296875 
L 28.515625 8.296875 
L 28.515625 63.921875 
L 10.984375 60.40625 
L 10.984375 69.390625 
L 28.421875 72.90625 
L 38.28125 72.90625 
L 38.28125 8.296875 
L 54.390625 8.296875 
L 54.390625 0 
L 12.40625 0 
z
" id="DejaVuSans-31"/>
      <path d="M 25.390625 72.90625 
L 33.6875 72.90625 
L 8.296875 -9.28125 
L 0 -9.28125 
z
" id="DejaVuSans-2f"/>
     </defs>
     <g style="fill:#d9d9d9;" transform="translate(19.430625 125.43)rotate(-90)scale(0.165 -0.165)">
      <use transform="translate(0 0.234375)" xlink:href="#DejaVuSans-Oblique-3b8"/>
      <use transform="translate(61.181641 -16.171875)scale(0.7)" xlink:href="#DejaVuSans-31"/>
      <use transform="translate(108.452148 0.234375)" xlink:href="#DejaVuSans-2f"/>
      <use transform="translate(142.143555 0.234375)" xlink:href="#DejaVuSans-Oblique-3b8"/>
     </g>
    </g>
   </g>
   <g id="line2d_17">
    <path clip-path="url(#pf291de0986)" d="M 65.32107 109.094535 
L 67.740734 109.222362 
L 70.160397 109.434434 
L 72.580061 109.729311 
L 74.999725 110.10501 
L 77.419388 110.55904 
L 79.839052 111.088446 
L 82.258716 111.689851 
L 84.67838 112.35951 
L 87.098043 113.093366 
L 89.517707 113.887103 
L 91.937371 114.736205 
L 94.357034 115.636007 
L 96.776698 116.581751 
L 99.196362 117.568631 
L 101.616026 118.59184 
L 104.035689 119.646608 
L 106.455353 120.728237 
L 108.875017 121.832132 
L 111.29468 122.953823 
L 113.714344 124.088989 
L 116.134008 125.233468 
L 118.553671 126.383274 
L 120.973335 127.5346 
L 123.392999 128.683824 
L 125.812663 129.827508 
L 128.232326 130.962399 
L 130.65199 132.085424 
L 133.071654 133.193684 
L 135.491317 134.284447 
L 137.910981 135.355141 
L 140.330645 136.403343 
L 142.750309 137.42677 
L 145.169972 138.423271 
L 147.589636 139.390811 
L 150.0093 140.327467 
L 152.428963 141.231413 
L 154.848627 142.100907 
L 157.268291 142.934287 
L 159.687954 143.729956 
L 162.107618 144.48637 
L 164.527282 145.202034 
L 166.946946 145.875486 
L 169.366609 146.505289 
L 171.786273 147.090023 
L 174.205937 147.628274 
L 176.6256 148.118623 
L 179.045264 148.559642 
L 181.464928 148.949878 
L 183.884592 149.287849 
L 186.304255 149.572033 
L 188.723919 149.800857 
L 191.143583 149.97269 
L 193.563246 150.085833 
L 195.98291 150.138507 
L 198.402574 150.128845 
L 200.822238 150.054881 
L 203.241901 149.91454 
L 205.661565 149.705623 
L 208.081229 149.425799 
L 210.500892 149.072589 
L 212.920556 148.643358 
L 215.34022 148.135294 
L 217.759883 147.545397 
L 220.179547 146.870465 
L 222.599211 146.107072 
L 225.018875 145.251555 
L 227.438538 144.299992 
L 229.858202 143.248183 
L 232.277866 142.09163 
L 234.697529 140.825513 
L 237.117193 139.444665 
L 239.536857 137.943552 
L 241.956521 136.316244 
L 244.376184 134.55639 
L 246.795848 132.657191 
L 249.215512 130.611378 
L 251.635175 128.411183 
L 254.054839 126.048317 
L 256.474503 123.513955 
L 258.894166 120.798723 
L 261.31383 117.89269 
L 263.733494 114.785381 
L 266.153158 111.465804 
L 268.572821 107.922497 
L 270.992485 104.143618 
L 273.412149 100.117073 
L 275.831812 95.830713 
L 278.251476 91.272609 
L 280.67114 86.431451 
L 283.090804 81.297097 
L 285.510467 75.861333 
L 287.930131 70.118919 
L 290.349795 64.069015 
L 292.769458 57.717139 
L 295.189122 51.077813 
L 297.608786 44.178185 
L 300.028449 37.062943 
" style="fill:none;stroke:#00d7ff;stroke-linecap:round;stroke-width:1.75;"/>
   </g>
   <g id="line2d_18">
    <path clip-path="url(#pf291de0986)" d="M 65.32107 163.708737 
L 67.740734 163.732356 
L 70.160397 163.771528 
L 72.580061 163.825969 
L 74.999725 163.895283 
L 77.419388 163.978965 
L 79.839052 164.076409 
L 82.258716 164.186908 
L 84.67838 164.309663 
L 87.098043 164.443786 
L 89.517707 164.588311 
L 91.937371 164.742194 
L 94.357034 164.904326 
L 96.776698 165.073538 
L 99.196362 165.248605 
L 101.616026 165.428257 
L 104.035689 165.611185 
L 106.455353 165.796043 
L 108.875017 165.98146 
L 111.29468 166.166042 
L 113.714344 166.348379 
L 116.134008 166.527048 
L 118.553671 166.700616 
L 120.973335 166.867649 
L 123.392999 167.026709 
L 125.812663 167.176359 
L 128.232326 167.315167 
L 130.65199 167.441703 
L 133.071654 167.554544 
L 135.491317 167.652273 
L 137.910981 167.733479 
L 140.330645 167.796757 
L 142.750309 167.840707 
L 145.169972 167.863932 
L 147.589636 167.865041 
L 150.0093 167.842638 
L 152.428963 167.795332 
L 154.848627 167.721723 
L 157.268291 167.620407 
L 159.687954 167.489971 
L 162.107618 167.32899 
L 164.527282 167.136021 
L 166.946946 166.909604 
L 169.366609 166.648253 
L 171.786273 166.350459 
L 174.205937 166.014679 
L 176.6256 165.639333 
L 179.045264 165.222805 
L 181.464928 164.763429 
L 183.884592 164.259492 
L 186.304255 163.709226 
L 188.723919 163.110801 
L 191.143583 162.462321 
L 193.563246 161.761818 
L 195.98291 161.007246 
L 198.402574 160.196474 
L 200.822238 159.32728 
L 203.241901 158.397347 
L 205.661565 157.40425 
L 208.081229 156.345454 
L 210.500892 155.218305 
L 212.920556 154.020023 
L 215.34022 152.747695 
L 217.759883 151.398265 
L 220.179547 149.968529 
L 222.599211 148.45513 
L 225.018875 146.854546 
L 227.438538 145.163087 
L 229.858202 143.376888 
L 232.277866 141.491908 
L 234.697529 139.503922 
L 237.117193 137.408525 
L 239.536857 135.201131 
L 241.956521 132.876978 
L 244.376184 130.431141 
L 246.795848 127.858545 
L 249.215512 125.153988 
L 251.635175 122.312176 
L 254.054839 119.327766 
L 256.474503 116.195426 
L 258.894166 112.909915 
L 261.31383 109.466187 
L 263.733494 105.859526 
L 266.153158 102.085723 
L 268.572821 98.141296 
L 270.992485 94.023785 
L 273.412149 89.732114 
L 275.831812 85.267064 
L 278.251476 80.631876 
L 280.67114 75.83301 
L 283.090804 70.881118 
L 285.510467 65.792289 
L 287.930131 60.589619 
L 290.349795 55.305223 
L 292.769458 49.982793 
L 295.189122 44.680854 
L 297.608786 39.476912 
L 300.028449 34.472727 
" style="fill:none;stroke:#03ed3a;stroke-dasharray:5.6,2.4;stroke-dashoffset:0;"/>
   </g>
   <g id="line2d_19">
    <path clip-path="url(#pf291de0986)" d="M 65.32107 182.727273 
L 67.740734 182.709896 
L 70.160397 182.680922 
L 72.580061 182.64033 
L 74.999725 182.588092 
L 77.419388 182.52417 
L 79.839052 182.448521 
L 82.258716 182.361091 
L 84.67838 182.261817 
L 87.098043 182.15063 
L 89.517707 182.027451 
L 91.937371 181.892191 
L 94.357034 181.744754 
L 96.776698 181.585033 
L 99.196362 181.412912 
L 101.616026 181.228266 
L 104.035689 181.030959 
L 106.455353 180.820845 
L 108.875017 180.597768 
L 111.29468 180.36156 
L 113.714344 180.112044 
L 116.134008 179.849028 
L 118.553671 179.57231 
L 120.973335 179.281675 
L 123.392999 178.976895 
L 125.812663 178.657729 
L 128.232326 178.323921 
L 130.65199 177.9752 
L 133.071654 177.611281 
L 135.491317 177.231862 
L 137.910981 176.836624 
L 140.330645 176.425232 
L 142.750309 175.997329 
L 145.169972 175.552542 
L 147.589636 175.090476 
L 150.0093 174.610716 
L 152.428963 174.112822 
L 154.848627 173.596331 
L 157.268291 173.060757 
L 159.687954 172.505583 
L 162.107618 171.930269 
L 164.527282 171.334241 
L 166.946946 170.716895 
L 169.366609 170.077593 
L 171.786273 169.415661 
L 174.205937 168.73039 
L 176.6256 168.021025 
L 179.045264 167.286774 
L 181.464928 166.526794 
L 183.884592 165.740195 
L 186.304255 164.926036 
L 188.723919 164.083318 
L 191.143583 163.21098 
L 193.563246 162.3079 
L 195.98291 161.372884 
L 198.402574 160.404665 
L 200.822238 159.401892 
L 203.241901 158.363131 
L 205.661565 157.286853 
L 208.081229 156.171425 
L 210.500892 155.015106 
L 212.920556 153.816037 
L 215.34022 152.572227 
L 217.759883 151.281543 
L 220.179547 149.941702 
L 222.599211 148.55025 
L 225.018875 147.10455 
L 227.438538 145.601763 
L 229.858202 144.038831 
L 232.277866 142.412452 
L 234.697529 140.719056 
L 237.117193 138.954778 
L 239.536857 137.115424 
L 241.956521 135.196439 
L 244.376184 133.192863 
L 246.795848 131.099287 
L 249.215512 128.909796 
L 251.635175 126.617916 
L 254.054839 124.216534 
L 256.474503 121.697825 
L 258.894166 119.053154 
L 261.31383 116.27297 
L 263.733494 113.346676 
L 266.153158 110.262478 
L 268.572821 107.007212 
L 270.992485 103.566131 
L 273.412149 99.922655 
L 275.831812 96.058073 
L 278.251476 91.951178 
L 280.67114 87.577828 
L 283.090804 82.910409 
L 285.510467 77.917166 
L 287.930131 72.561388 
L 290.349795 66.800362 
L 292.769458 60.584071 
L 295.189122 53.853516 
L 297.608786 46.538547 
L 300.028449 38.555018 
" style="fill:none;stroke:#ffc400;stroke-linecap:round;stroke-width:1.75;"/>
   </g>
   <g id="line2d_20">
    <path clip-path="url(#pf291de0986)" d="M 70.160397 182.675003 
L 72.580061 182.631731 
L 74.999725 182.58747 
L 77.419388 182.5151 
L 79.839052 182.442729 
L 82.258716 182.353807 
L 84.67838 182.251973 
L 87.098043 182.147065 
L 89.517707 182.015276 
L 91.937371 181.883486 
L 94.357034 181.73151 
L 96.776698 181.569163 
L 99.196362 181.399316 
L 101.616026 181.205722 
L 104.035689 181.012127 
L 106.455353 180.791501 
L 108.875017 180.565906 
L 111.29468 180.324613 
L 113.714344 180.066227 
L 116.134008 179.802948 
L 118.553671 179.510969 
L 120.973335 179.21899 
L 123.392999 178.897826 
L 125.812663 178.57147 
L 128.232326 178.224326 
L 130.65199 177.862852 
L 133.071654 177.487866 
L 135.491317 177.0906 
L 137.910981 176.685756 
L 140.330645 176.252119 
L 142.750309 175.815284 
L 145.169972 175.344808 
L 147.589636 174.87378 
L 150.0093 174.36613 
L 152.428963 173.858481 
L 154.848627 173.313692 
L 157.268291 172.767711 
L 159.687954 172.185324 
L 162.107618 171.598787 
L 164.527282 170.979174 
L 166.946946 170.350297 
L 169.366609 169.693798 
L 171.786273 169.021107 
L 174.205937 168.32825 
L 176.6256 167.61066 
L 179.045264 166.882172 
L 181.464928 166.119072 
L 183.884592 165.343975 
L 186.304255 164.5472 
L 188.723919 163.725753 
L 191.143583 162.889723 
L 193.563246 162.02995 
L 195.98291 161.148642 
L 198.402574 160.251529 
L 200.822238 159.335591 
L 203.241901 158.396606 
L 205.661565 157.442359 
L 208.081229 156.472668 
L 210.500892 155.487732 
L 212.920556 154.485683 
L 215.34022 153.470978 
L 217.759883 152.445515 
L 220.179547 151.410896 
L 222.599211 150.369167 
L 225.018875 149.322816 
L 227.438538 148.274771 
L 229.858202 147.228388 
L 232.277866 146.187445 
L 234.697529 145.156114 
L 237.117193 144.13895 
L 239.536857 143.141638 
L 241.956521 142.173065 
L 244.376184 141.23656 
L 246.795848 140.338543 
L 249.215512 139.496422 
L 251.635175 138.708251 
L 254.054839 137.998153 
L 256.474503 137.367795 
L 258.894166 136.833421 
L 261.31383 136.418231 
L 263.733494 136.132984 
L 266.153158 135.997456 
L 268.572821 136.036452 
L 270.992485 136.275541 
L 273.412149 136.732234 
L 275.831812 137.451272 
L 278.251476 138.454495 
L 280.67114 139.781121 
L 283.090804 141.468978 
L 285.510467 143.570357 
L 287.930131 146.123771 
L 290.349795 149.183607 
L 292.769458 152.805576 
L 295.189122 157.048827 
L 297.608786 161.972795 
L 300.028449 167.6485 
L 302.448113 174.137142 
" style="fill:none;stroke:#ffffff;stroke-dasharray:2.2,2.2;stroke-dashoffset:0;stroke-width:1.75;"/>
   </g>
   <g id="patch_3">
    <path d="M 62.901406 190.14 
L 62.901406 27.06 
" style="fill:none;"/>
   </g>
   <g id="patch_4">
    <path d="M 341.901406 190.14 
L 341.901406 27.06 
" style="fill:none;"/>
   </g>
   <g id="patch_5">
    <path d="M 62.901406 190.14 
L 341.901406 190.14 
" style="fill:none;"/>
   </g>
   <g id="patch_6">
    <path d="M 62.901406 27.06 
L 341.901406 27.06 
" style="fill:none;"/>
   </g>
   <g id="text_11">
    <!-- After fit: CRW, $\beta = 0.0100$ -->
    <defs>
     <path d="M -0.140625 0 
L 27.34375 71.578125 
L 37.546875 71.578125 
L 66.84375 0 
L 56.0625 0 
L 47.703125 21.6875 
L 17.78125 21.6875 
L 9.90625 0 
z
M 20.515625 29.390625 
L 44.78125 29.390625 
L 37.3125 49.21875 
Q 33.890625 58.25 32.234375 64.0625 
Q 30.859375 57.171875 28.375 50.390625 
z
" id="ArialMT-41"/>
     <path d="M 8.6875 0 
L 8.6875 45.015625 
L 0.921875 45.015625 
L 0.921875 51.859375 
L 8.6875 51.859375 
L 8.6875 57.375 
Q 8.6875 62.59375 9.625 65.140625 
Q 10.890625 68.5625 14.078125 70.671875 
Q 17.28125 72.796875 23.046875 72.796875 
Q 26.765625 72.796875 31.25 71.921875 
L 29.9375 64.265625 
Q 27.203125 64.75 24.75 64.75 
Q 20.75 64.75 19.09375 63.03125 
Q 17.4375 61.328125 17.4375 56.640625 
L 17.4375 51.859375 
L 27.546875 51.859375 
L 27.546875 45.015625 
L 17.4375 45.015625 
L 17.4375 0 
z
" id="ArialMT-66"/>
     <path d="M 25.78125 7.859375 
L 27.046875 0.09375 
Q 23.34375 -0.6875 20.40625 -0.6875 
Q 15.625 -0.6875 12.984375 0.828125 
Q 10.359375 2.34375 9.28125 4.8125 
Q 8.203125 7.28125 8.203125 15.1875 
L 8.203125 45.015625 
L 1.765625 45.015625 
L 1.765625 51.859375 
L 8.203125 51.859375 
L 8.203125 64.703125 
L 16.9375 69.96875 
L 16.9375 51.859375 
L 25.78125 51.859375 
L 25.78125 45.015625 
L 16.9375 45.015625 
L 16.9375 14.703125 
Q 16.9375 10.9375 17.40625 9.859375 
Q 17.875 8.796875 18.921875 8.15625 
Q 19.96875 7.515625 21.921875 7.515625 
Q 23.390625 7.515625 25.78125 7.859375 
" id="ArialMT-74"/>
     <path d="M 42.09375 16.703125 
L 51.171875 15.578125 
Q 49.03125 7.625 43.21875 3.21875 
Q 37.40625 -1.171875 28.375 -1.171875 
Q 17 -1.171875 10.328125 5.828125 
Q 3.65625 12.84375 3.65625 25.484375 
Q 3.65625 38.578125 10.390625 45.796875 
Q 17.140625 53.03125 27.875 53.03125 
Q 38.28125 53.03125 44.875 45.953125 
Q 51.46875 38.875 51.46875 26.03125 
Q 51.46875 25.25 51.421875 23.6875 
L 12.75 23.6875 
Q 13.234375 15.140625 17.578125 10.59375 
Q 21.921875 6.0625 28.421875 6.0625 
Q 33.25 6.0625 36.671875 8.59375 
Q 40.09375 11.140625 42.09375 16.703125 
M 13.234375 30.90625 
L 42.1875 30.90625 
Q 41.609375 37.453125 38.875 40.71875 
Q 34.671875 45.796875 27.984375 45.796875 
Q 21.921875 45.796875 17.796875 41.75 
Q 13.671875 37.703125 13.234375 30.90625 
" id="ArialMT-65"/>
     <path d="M 6.5 0 
L 6.5 51.859375 
L 14.40625 51.859375 
L 14.40625 44 
Q 17.4375 49.515625 20 51.265625 
Q 22.5625 53.03125 25.640625 53.03125 
Q 30.078125 53.03125 34.671875 50.203125 
L 31.640625 42.046875 
Q 28.421875 43.953125 25.203125 43.953125 
Q 22.3125 43.953125 20.015625 42.21875 
Q 17.71875 40.484375 16.75 37.40625 
Q 15.28125 32.71875 15.28125 27.15625 
L 15.28125 0 
z
" id="ArialMT-72"/>
     <path id="ArialMT-20"/>
     <path d="M 6.640625 61.46875 
L 6.640625 71.578125 
L 15.4375 71.578125 
L 15.4375 61.46875 
z
M 6.640625 0 
L 6.640625 51.859375 
L 15.4375 51.859375 
L 15.4375 0 
z
" id="ArialMT-69"/>
     <path d="M 9.03125 41.84375 
L 9.03125 51.859375 
L 19.046875 51.859375 
L 19.046875 41.84375 
z
M 9.03125 0 
L 9.03125 10.015625 
L 19.046875 10.015625 
L 19.046875 0 
z
" id="ArialMT-3a"/>
     <path d="M 58.796875 25.09375 
L 68.265625 22.703125 
Q 65.28125 11.03125 57.546875 4.90625 
Q 49.8125 -1.21875 38.625 -1.21875 
Q 27.046875 -1.21875 19.796875 3.484375 
Q 12.546875 8.203125 8.765625 17.140625 
Q 4.984375 26.078125 4.984375 36.328125 
Q 4.984375 47.515625 9.25 55.828125 
Q 13.53125 64.15625 21.40625 68.46875 
Q 29.296875 72.796875 38.765625 72.796875 
Q 49.515625 72.796875 56.828125 67.328125 
Q 64.15625 61.859375 67.046875 51.953125 
L 57.71875 49.75 
Q 55.21875 57.5625 50.484375 61.125 
Q 45.75 64.703125 38.578125 64.703125 
Q 30.328125 64.703125 24.78125 60.734375 
Q 19.234375 56.78125 16.984375 50.109375 
Q 14.75 43.453125 14.75 36.375 
Q 14.75 27.25 17.40625 20.4375 
Q 20.0625 13.625 25.671875 10.25 
Q 31.296875 6.890625 37.84375 6.890625 
Q 45.796875 6.890625 51.3125 11.46875 
Q 56.84375 16.0625 58.796875 25.09375 
" id="ArialMT-43"/>
     <path d="M 7.859375 0 
L 7.859375 71.578125 
L 39.59375 71.578125 
Q 49.171875 71.578125 54.140625 69.640625 
Q 59.125 67.71875 62.109375 62.828125 
Q 65.09375 57.953125 65.09375 52.046875 
Q 65.09375 44.4375 60.15625 39.203125 
Q 55.21875 33.984375 44.921875 32.5625 
Q 48.6875 30.765625 50.640625 29 
Q 54.78125 25.203125 58.5 19.484375 
L 70.953125 0 
L 59.03125 0 
L 49.5625 14.890625 
Q 45.40625 21.34375 42.71875 24.75 
Q 40.046875 28.171875 37.921875 29.53125 
Q 35.796875 30.90625 33.59375 31.453125 
Q 31.984375 31.78125 28.328125 31.78125 
L 17.328125 31.78125 
L 17.328125 0 
z
M 17.328125 39.984375 
L 37.703125 39.984375 
Q 44.1875 39.984375 47.84375 41.328125 
Q 51.515625 42.671875 53.421875 45.625 
Q 55.328125 48.578125 55.328125 52.046875 
Q 55.328125 57.125 51.640625 60.390625 
Q 47.953125 63.671875 39.984375 63.671875 
L 17.328125 63.671875 
z
" id="ArialMT-52"/>
     <path d="M 20.21875 0 
L 1.21875 71.578125 
L 10.9375 71.578125 
L 21.828125 24.65625 
Q 23.578125 17.28125 24.859375 10.015625 
Q 27.59375 21.484375 28.078125 23.25 
L 41.703125 71.578125 
L 53.125 71.578125 
L 63.375 35.359375 
Q 67.234375 21.875 68.953125 10.015625 
Q 70.3125 16.796875 72.515625 25.59375 
L 83.734375 71.578125 
L 93.265625 71.578125 
L 73.640625 0 
L 64.5 0 
L 49.421875 54.546875 
Q 47.515625 61.375 47.171875 62.9375 
Q 46.046875 58.015625 45.0625 54.546875 
L 29.890625 0 
z
" id="ArialMT-57"/>
     <path d="M 8.890625 0 
L 8.890625 10.015625 
L 18.890625 10.015625 
L 18.890625 0 
Q 18.890625 -5.515625 16.9375 -8.90625 
Q 14.984375 -12.3125 10.75 -14.15625 
L 8.296875 -10.40625 
Q 11.078125 -9.1875 12.390625 -6.8125 
Q 13.71875 -4.4375 13.875 0 
z
" id="ArialMT-2c"/>
     <path d="M 13.625 3.375 
L 8.9375 -20.796875 
L -0.09375 -20.796875 
L 14.5 54.34375 
Q 18.84375 76.609375 39.65625 76.609375 
Q 60.75 76.609375 57.171875 57.8125 
Q 54.734375 44.4375 45.21875 39.546875 
Q 58.015625 35.15625 55.515625 22.125 
Q 51.125 -1.078125 27.484375 -1.03125 
Q 17.140625 -0.984375 13.625 3.375 
M 15.921875 15.09375 
Q 19.671875 6.59375 29.296875 6.640625 
Q 43.359375 6.640625 46.34375 21.96875 
Q 49.03125 35.75 26.171875 34.671875 
L 27.78125 42.96875 
Q 45.453125 42.671875 48.53125 58.59375 
Q 50.640625 69.34375 39.203125 69.28125 
Q 26.421875 69.28125 23.484375 54.046875 
z
" id="DejaVuSans-Oblique-3b2"/>
     <path d="M 10.59375 45.40625 
L 73.1875 45.40625 
L 73.1875 37.203125 
L 10.59375 37.203125 
z
M 10.59375 25.484375 
L 73.1875 25.484375 
L 73.1875 17.1875 
L 10.59375 17.1875 
z
" id="DejaVuSans-3d"/>
     <path d="M 31.78125 66.40625 
Q 24.171875 66.40625 20.328125 58.90625 
Q 16.5 51.421875 16.5 36.375 
Q 16.5 21.390625 20.328125 13.890625 
Q 24.171875 6.390625 31.78125 6.390625 
Q 39.453125 6.390625 43.28125 13.890625 
Q 47.125 21.390625 47.125 36.375 
Q 47.125 51.421875 43.28125 58.90625 
Q 39.453125 66.40625 31.78125 66.40625 
M 31.78125 74.21875 
Q 44.046875 74.21875 50.515625 64.515625 
Q 56.984375 54.828125 56.984375 36.375 
Q 56.984375 17.96875 50.515625 8.265625 
Q 44.046875 -1.421875 31.78125 -1.421875 
Q 19.53125 -1.421875 13.0625 8.265625 
Q 6.59375 17.96875 6.59375 36.375 
Q 6.59375 54.828125 13.0625 64.515625 
Q 19.53125 74.21875 31.78125 74.21875 
" id="DejaVuSans-30"/>
     <path d="M 10.6875 12.40625 
L 21 12.40625 
L 21 0 
L 10.6875 0 
z
" id="DejaVuSans-2e"/>
    </defs>
    <g style="fill:#d9d9d9;" transform="translate(94.041406 21.06)scale(0.18 -0.18)">
     <use transform="translate(0 0.390625)" xlink:href="#ArialMT-41"/>
     <use transform="translate(66.699219 0.390625)" xlink:href="#ArialMT-66"/>
     <use transform="translate(94.482422 0.390625)" xlink:href="#ArialMT-74"/>
     <use transform="translate(122.265625 0.390625)" xlink:href="#ArialMT-65"/>
     <use transform="translate(177.880859 0.390625)" xlink:href="#ArialMT-72"/>
     <use transform="translate(211.181641 0.390625)" xlink:href="#ArialMT-20"/>
     <use transform="translate(238.964844 0.390625)" xlink:href="#ArialMT-66"/>
     <use transform="translate(266.748047 0.390625)" xlink:href="#ArialMT-69"/>
     <use transform="translate(288.964844 0.390625)" xlink:href="#ArialMT-74"/>
     <use transform="translate(316.748047 0.390625)" xlink:href="#ArialMT-3a"/>
     <use transform="translate(344.53125 0.390625)" xlink:href="#ArialMT-20"/>
     <use transform="translate(372.314453 0.390625)" xlink:href="#ArialMT-43"/>
     <use transform="translate(444.53125 0.390625)" xlink:href="#ArialMT-52"/>
     <use transform="translate(516.748047 0.390625)" xlink:href="#ArialMT-57"/>
     <use transform="translate(611.132812 0.390625)" xlink:href="#ArialMT-2c"/>
     <use transform="translate(638.916016 0.390625)" xlink:href="#ArialMT-20"/>
     <use transform="translate(666.699219 0.390625)" xlink:href="#DejaVuSans-Oblique-3b2"/>
     <use transform="translate(750 0.390625)" xlink:href="#DejaVuSans-3d"/>
     <use transform="translate(853.271484 0.390625)" xlink:href="#DejaVuSans-30"/>
     <use transform="translate(916.894531 0.390625)" xlink:href="#DejaVuSans-2e"/>
     <use transform="translate(948.681641 0.390625)" xlink:href="#DejaVuSans-30"/>
     <use transform="translate(1012.304688 0.390625)" xlink:href="#DejaVuSans-31"/>
     <use transform="translate(1075.927734 0.390625)" xlink:href="#DejaVuSans-30"/>
     <use transform="translate(1139.550781 0.390625)" xlink:href="#DejaVuSans-30"/>
    </g>
   </g>
  </g>
 </g>
 <defs>
  <clipPath id="pf291de0986">
   <rect height="163.08" width="279" x="62.901406" y="27.06"/>
  </clipPath>
 </defs>
</svg>
