<?xml version="1.0" encoding="utf-8" standalone="no"?>
<!DOCTYPE svg PUBLIC "-//W3C//DTD SVG 1.1//EN"
  "http://www.w3.org/Graphics/SVG/1.1/DTD/svg11.dtd">
<!-- Created with matplotlib (http://matplotlib.org/) -->
<svg height="291pt" version="1.1" viewBox="0 0 270 291" width="270pt" xmlns="http://www.w3.org/2000/svg" xmlns:xlink="http://www.w3.org/1999/xlink">
 <defs>
  <style type="text/css">
*{stroke-linecap:butt;stroke-linejoin:round;}
  </style>
 </defs>
 <g id="figure_1">
  <g id="patch_1">
   <path d="M 0 291.507734 
L 270.862109 291.507734 
L 270.862109 0 
L 0 0 
z
" style="fill:#3f3f3f;"/>
  </g>
  <g id="axes_1">
   <g id="patch_2">
    <path d="M 42.051406 244.5 
L 259.491406 244.5 
L 259.491406 27.06 
L 42.051406 27.06 
z
" style="fill:#504040;"/>
   </g>
   <g id="matplotlib.axis_1">
    <g id="xtick_1">
     <g id="line2d_1">
      <path clip-path="url(#p3656c673af)" d="M 73.114263 244.5 
L 73.114263 27.06 
" style="fill:none;stroke:#808080;stroke-linecap:round;"/>
     </g>
     <g id="line2d_2"/>
     <g id="text_1">
      <!-- −4 -->
      <defs>
       <path d="M 52.828125 31.203125 
L 5.5625 31.203125 
L 5.5625 39.40625 
L 52.828125 39.40625 
z
" id="ArialMT-2212"/>
       <path d="M 32.328125 0 
L 32.328125 17.140625 
L 1.265625 17.140625 
L 1.265625 25.203125 
L 33.9375 71.578125 
L 41.109375 71.578125 
L 41.109375 25.203125 
L 50.78125 25.203125 
L 50.78125 17.140625 
L 41.109375 17.140625 
L 41.109375 0 
z
M 32.328125 25.203125 
L 32.328125 57.46875 
L 9.90625 25.203125 
z
" id="ArialMT-34"/>
      </defs>
      <g style="fill:#d9d9d9;" transform="translate(64.563092 262.236719)scale(0.15 -0.15)">
       <use xlink:href="#ArialMT-2212"/>
       <use x="58.398438" xlink:href="#ArialMT-34"/>
      </g>
     </g>
    </g>
    <g id="xtick_2">
     <g id="line2d_3">
      <path clip-path="url(#p3656c673af)" d="M 135.239978 244.5 
L 135.239978 27.06 
" style="fill:none;stroke:#808080;stroke-linecap:round;"/>
     </g>
     <g id="line2d_4"/>
     <g id="text_2">
      <!-- −2 -->
      <defs>
       <path d="M 50.34375 8.453125 
L 50.34375 0 
L 3.03125 0 
Q 2.9375 3.171875 4.046875 6.109375 
Q 5.859375 10.9375 9.828125 15.625 
Q 13.8125 20.3125 21.34375 26.46875 
Q 33.015625 36.03125 37.109375 41.625 
Q 41.21875 47.21875 41.21875 52.203125 
Q 41.21875 57.421875 37.46875 61 
Q 33.734375 64.59375 27.734375 64.59375 
Q 21.390625 64.59375 17.578125 60.78125 
Q 13.765625 56.984375 13.71875 50.25 
L 4.6875 51.171875 
Q 5.609375 61.28125 11.65625 66.578125 
Q 17.71875 71.875 27.9375 71.875 
Q 38.234375 71.875 44.234375 66.15625 
Q 50.25 60.453125 50.25 52 
Q 50.25 47.703125 48.484375 43.546875 
Q 46.734375 39.40625 42.65625 34.8125 
Q 38.578125 30.21875 29.109375 22.21875 
Q 21.1875 15.578125 18.9375 13.203125 
Q 16.703125 10.84375 15.234375 8.453125 
z
" id="ArialMT-32"/>
      </defs>
      <g style="fill:#d9d9d9;" transform="translate(126.688806 262.236719)scale(0.15 -0.15)">
       <use xlink:href="#ArialMT-2212"/>
       <use x="58.398438" xlink:href="#ArialMT-32"/>
      </g>
     </g>
    </g>
    <g id="xtick_3">
     <g id="line2d_5">
      <path clip-path="url(#p3656c673af)" d="M 197.365692 244.5 
L 197.365692 27.06 
" style="fill:none;stroke:#808080;stroke-linecap:round;"/>
     </g>
     <g id="line2d_6"/>
     <g id="text_3">
      <!-- 0 -->
      <defs>
       <path d="M 4.15625 35.296875 
Q 4.15625 48 6.765625 55.734375 
Q 9.375 63.484375 14.515625 67.671875 
Q 19.671875 71.875 27.484375 71.875 
Q 33.25 71.875 37.59375 69.546875 
Q 41.9375 67.234375 44.765625 62.859375 
Q 47.609375 58.5 49.21875 52.21875 
Q 50.828125 45.953125 50.828125 35.296875 
Q 50.828125 22.703125 48.234375 14.96875 
Q 45.65625 7.234375 40.5 3 
Q 35.359375 -1.21875 27.484375 -1.21875 
Q 17.140625 -1.21875 11.234375 6.203125 
Q 4.15625 15.140625 4.15625 35.296875 
M 13.1875 35.296875 
Q 13.1875 17.671875 17.3125 11.828125 
Q 21.4375 6 27.484375 6 
Q 33.546875 6 37.671875 11.859375 
Q 41.796875 17.71875 41.796875 35.296875 
Q 41.796875 52.984375 37.671875 58.78125 
Q 33.546875 64.59375 27.390625 64.59375 
Q 21.34375 64.59375 17.71875 59.46875 
Q 13.1875 52.9375 13.1875 35.296875 
" id="ArialMT-30"/>
      </defs>
      <g style="fill:#d9d9d9;" transform="translate(193.194989 262.236719)scale(0.15 -0.15)">
       <use xlink:href="#ArialMT-30"/>
      </g>
     </g>
    </g>
    <g id="xtick_4">
     <g id="line2d_7">
      <path clip-path="url(#p3656c673af)" d="M 259.491406 244.5 
L 259.491406 27.06 
" style="fill:none;stroke:#808080;stroke-linecap:round;"/>
     </g>
     <g id="line2d_8"/>
     <g id="text_4">
      <!-- 2 -->
      <g style="fill:#d9d9d9;" transform="translate(255.320703 262.236719)scale(0.15 -0.15)">
       <use xlink:href="#ArialMT-32"/>
      </g>
     </g>
    </g>
    <g id="text_5">
     <!-- $x/r_{0}$ -->
     <defs>
      <path d="M 60.015625 54.6875 
L 34.90625 27.875 
L 50.296875 0 
L 39.984375 0 
L 28.421875 21.6875 
L 8.296875 0 
L -2.59375 0 
L 24.3125 28.8125 
L 10.015625 54.6875 
L 20.3125 54.6875 
L 30.8125 34.90625 
L 49.125 54.6875 
z
" id="DejaVuSans-Oblique-78"/>
      <path d="M 25.390625 72.90625 
L 33.6875 72.90625 
L 8.296875 -9.28125 
L 0 -9.28125 
z
" id="DejaVuSans-2f"/>
      <path d="M 44.578125 46.390625 
Q 43.21875 47.125 41.453125 47.515625 
Q 39.703125 47.90625 37.703125 47.90625 
Q 30.515625 47.90625 25.140625 42.453125 
Q 19.78125 37.015625 18.015625 27.875 
L 12.5 0 
L 3.515625 0 
L 14.203125 54.6875 
L 23.1875 54.6875 
L 21.484375 46.1875 
Q 25.046875 50.921875 30 53.453125 
Q 34.96875 56 40.578125 56 
Q 42.046875 56 43.453125 55.828125 
Q 44.875 55.671875 46.296875 55.28125 
z
" id="DejaVuSans-Oblique-72"/>
      <path d="M 31.78125 66.40625 
Q 24.171875 66.40625 20.328125 58.90625 
Q 16.5 51.421875 16.5 36.375 
Q 16.5 21.390625 20.328125 13.890625 
Q 24.171875 6.390625 31.78125 6.390625 
Q 39.453125 6.390625 43.28125 13.890625 
Q 47.125 21.390625 47.125 36.375 
Q 47.125 51.421875 43.28125 58.90625 
Q 39.453125 66.40625 31.78125 66.40625 
M 31.78125 74.21875 
Q 44.046875 74.21875 50.515625 64.515625 
Q 56.984375 54.828125 56.984375 36.375 
Q 56.984375 17.96875 50.515625 8.265625 
Q 44.046875 -1.421875 31.78125 -1.421875 
Q 19.53125 -1.421875 13.0625 8.265625 
Q 6.59375 17.96875 6.59375 36.375 
Q 6.59375 54.828125 13.0625 64.515625 
Q 19.53125 74.21875 31.78125 74.21875 
" id="DejaVuSans-30"/>
     </defs>
     <g style="fill:#d9d9d9;" transform="translate(135.756406 281.028359)scale(0.165 -0.165)">
      <use transform="translate(0 0.09375)" xlink:href="#DejaVuSans-Oblique-78"/>
      <use transform="translate(59.179688 0.09375)" xlink:href="#DejaVuSans-2f"/>
      <use transform="translate(92.871094 0.09375)" xlink:href="#DejaVuSans-Oblique-72"/>
      <use transform="translate(133.984375 -16.3125)scale(0.7)" xlink:href="#DejaVuSans-30"/>
     </g>
    </g>
   </g>
   <g id="matplotlib.axis_2">
    <g id="ytick_1">
     <g id="line2d_9">
      <path clip-path="url(#p3656c673af)" d="M 42.051406 244.5 
L 259.491406 244.5 
" style="fill:none;stroke:#808080;stroke-linecap:round;"/>
     </g>
     <g id="line2d_10"/>
     <g id="text_6">
      <!-- 0 -->
      <g style="fill:#d9d9d9;" transform="translate(26.71 249.868359)scale(0.15 -0.15)">
       <use xlink:href="#ArialMT-30"/>
      </g>
     </g>
    </g>
    <g id="ytick_2">
     <g id="line2d_11">
      <path clip-path="url(#p3656c673af)" d="M 42.051406 213.437143 
L 259.491406 213.437143 
" style="fill:none;stroke:#808080;stroke-linecap:round;"/>
     </g>
     <g id="line2d_12"/>
     <g id="text_7">
      <!-- 1 -->
      <defs>
       <path d="M 37.25 0 
L 28.46875 0 
L 28.46875 56 
Q 25.296875 52.984375 20.140625 49.953125 
Q 14.984375 46.921875 10.890625 45.40625 
L 10.890625 53.90625 
Q 18.265625 57.375 23.78125 62.296875 
Q 29.296875 67.234375 31.59375 71.875 
L 37.25 71.875 
z
" id="ArialMT-31"/>
      </defs>
      <g style="fill:#d9d9d9;" transform="translate(26.71 218.805502)scale(0.15 -0.15)">
       <use xlink:href="#ArialMT-31"/>
      </g>
     </g>
    </g>
    <g id="ytick_3">
     <g id="line2d_13">
      <path clip-path="url(#p3656c673af)" d="M 42.051406 182.374286 
L 259.491406 182.374286 
" style="fill:none;stroke:#808080;stroke-linecap:round;"/>
     </g>
     <g id="line2d_14"/>
     <g id="text_8">
      <!-- 2 -->
      <g style="fill:#d9d9d9;" transform="translate(26.71 187.742645)scale(0.15 -0.15)">
       <use xlink:href="#ArialMT-32"/>
      </g>
     </g>
    </g>
    <g id="ytick_4">
     <g id="line2d_15">
      <path clip-path="url(#p3656c673af)" d="M 42.051406 151.311429 
L 259.491406 151.311429 
" style="fill:none;stroke:#808080;stroke-linecap:round;"/>
     </g>
     <g id="line2d_16"/>
     <g id="text_9">
      <!-- 3 -->
      <defs>
       <path d="M 4.203125 18.890625 
L 12.984375 20.0625 
Q 14.5 12.59375 18.140625 9.296875 
Q 21.78125 6 27 6 
Q 33.203125 6 37.46875 10.296875 
Q 41.75 14.59375 41.75 20.953125 
Q 41.75 27 37.796875 30.921875 
Q 33.84375 34.859375 27.734375 34.859375 
Q 25.25 34.859375 21.53125 33.890625 
L 22.515625 41.609375 
Q 23.390625 41.5 23.921875 41.5 
Q 29.546875 41.5 34.03125 44.421875 
Q 38.53125 47.359375 38.53125 53.46875 
Q 38.53125 58.296875 35.25 61.46875 
Q 31.984375 64.65625 26.8125 64.65625 
Q 21.6875 64.65625 18.265625 61.421875 
Q 14.84375 58.203125 13.875 51.765625 
L 5.078125 53.328125 
Q 6.6875 62.15625 12.390625 67.015625 
Q 18.109375 71.875 26.609375 71.875 
Q 32.46875 71.875 37.390625 69.359375 
Q 42.328125 66.84375 44.9375 62.5 
Q 47.5625 58.15625 47.5625 53.265625 
Q 47.5625 48.640625 45.0625 44.828125 
Q 42.578125 41.015625 37.703125 38.765625 
Q 44.046875 37.3125 47.5625 32.6875 
Q 51.078125 28.078125 51.078125 21.140625 
Q 51.078125 11.765625 44.234375 5.25 
Q 37.40625 -1.265625 26.953125 -1.265625 
Q 17.53125 -1.265625 11.296875 4.34375 
Q 5.078125 9.96875 4.203125 18.890625 
" id="ArialMT-33"/>
      </defs>
      <g style="fill:#d9d9d9;" transform="translate(26.71 156.679788)scale(0.15 -0.15)">
       <use xlink:href="#ArialMT-33"/>
      </g>
     </g>
    </g>
    <g id="ytick_5">
     <g id="line2d_17">
      <path clip-path="url(#p3656c673af)" d="M 42.051406 120.248571 
L 259.491406 120.248571 
" style="fill:none;stroke:#808080;stroke-linecap:round;"/>
     </g>
     <g id="line2d_18"/>
     <g id="text_10">
      <!-- 4 -->
      <g style="fill:#d9d9d9;" transform="translate(26.71 125.616931)scale(0.15 -0.15)">
       <use xlink:href="#ArialMT-34"/>
      </g>
     </g>
    </g>
    <g id="ytick_6">
     <g id="line2d_19">
      <path clip-path="url(#p3656c673af)" d="M 42.051406 89.185714 
L 259.491406 89.185714 
" style="fill:none;stroke:#808080;stroke-linecap:round;"/>
     </g>
     <g id="line2d_20"/>
     <g id="text_11">
      <!-- 5 -->
      <defs>
       <path d="M 4.15625 18.75 
L 13.375 19.53125 
Q 14.40625 12.796875 18.140625 9.390625 
Q 21.875 6 27.15625 6 
Q 33.5 6 37.890625 10.78125 
Q 42.28125 15.578125 42.28125 23.484375 
Q 42.28125 31 38.0625 35.34375 
Q 33.84375 39.703125 27 39.703125 
Q 22.75 39.703125 19.328125 37.765625 
Q 15.921875 35.84375 13.96875 32.765625 
L 5.71875 33.84375 
L 12.640625 70.609375 
L 48.25 70.609375 
L 48.25 62.203125 
L 19.671875 62.203125 
L 15.828125 42.96875 
Q 22.265625 47.46875 29.34375 47.46875 
Q 38.71875 47.46875 45.15625 40.96875 
Q 51.609375 34.46875 51.609375 24.265625 
Q 51.609375 14.546875 45.953125 7.46875 
Q 39.0625 -1.21875 27.15625 -1.21875 
Q 17.390625 -1.21875 11.203125 4.25 
Q 5.03125 9.71875 4.15625 18.75 
" id="ArialMT-35"/>
      </defs>
      <g style="fill:#d9d9d9;" transform="translate(26.71 94.554074)scale(0.15 -0.15)">
       <use xlink:href="#ArialMT-35"/>
      </g>
     </g>
    </g>
    <g id="ytick_7">
     <g id="line2d_21">
      <path clip-path="url(#p3656c673af)" d="M 42.051406 58.122857 
L 259.491406 58.122857 
" style="fill:none;stroke:#808080;stroke-linecap:round;"/>
     </g>
     <g id="line2d_22"/>
     <g id="text_12">
      <!-- 6 -->
      <defs>
       <path d="M 49.75 54.046875 
L 41.015625 53.375 
Q 39.84375 58.546875 37.703125 60.890625 
Q 34.125 64.65625 28.90625 64.65625 
Q 24.703125 64.65625 21.53125 62.3125 
Q 17.390625 59.28125 14.984375 53.46875 
Q 12.59375 47.65625 12.5 36.921875 
Q 15.671875 41.75 20.265625 44.09375 
Q 24.859375 46.4375 29.890625 46.4375 
Q 38.671875 46.4375 44.84375 39.96875 
Q 51.03125 33.5 51.03125 23.25 
Q 51.03125 16.5 48.125 10.71875 
Q 45.21875 4.9375 40.140625 1.859375 
Q 35.0625 -1.21875 28.609375 -1.21875 
Q 17.625 -1.21875 10.6875 6.859375 
Q 3.765625 14.9375 3.765625 33.5 
Q 3.765625 54.25 11.421875 63.671875 
Q 18.109375 71.875 29.4375 71.875 
Q 37.890625 71.875 43.28125 67.140625 
Q 48.6875 62.40625 49.75 54.046875 
M 13.875 23.1875 
Q 13.875 18.65625 15.796875 14.5 
Q 17.71875 10.359375 21.1875 8.171875 
Q 24.65625 6 28.46875 6 
Q 34.03125 6 38.03125 10.484375 
Q 42.046875 14.984375 42.046875 22.703125 
Q 42.046875 30.125 38.078125 34.390625 
Q 34.125 38.671875 28.125 38.671875 
Q 22.171875 38.671875 18.015625 34.390625 
Q 13.875 30.125 13.875 23.1875 
" id="ArialMT-36"/>
      </defs>
      <g style="fill:#d9d9d9;" transform="translate(26.71 63.491217)scale(0.15 -0.15)">
       <use xlink:href="#ArialMT-36"/>
      </g>
     </g>
    </g>
    <g id="ytick_8">
     <g id="line2d_23">
      <path clip-path="url(#p3656c673af)" d="M 42.051406 27.06 
L 259.491406 27.06 
" style="fill:none;stroke:#808080;stroke-linecap:round;"/>
     </g>
     <g id="line2d_24"/>
     <g id="text_13">
      <!-- 7 -->
      <defs>
       <path d="M 4.734375 62.203125 
L 4.734375 70.65625 
L 51.078125 70.65625 
L 51.078125 63.8125 
Q 44.234375 56.546875 37.515625 44.484375 
Q 30.8125 32.421875 27.15625 19.671875 
Q 24.515625 10.6875 23.78125 0 
L 14.75 0 
Q 14.890625 8.453125 18.0625 20.40625 
Q 21.234375 32.375 27.171875 43.484375 
Q 33.109375 54.59375 39.796875 62.203125 
z
" id="ArialMT-37"/>
      </defs>
      <g style="fill:#d9d9d9;" transform="translate(26.71 32.428359)scale(0.15 -0.15)">
       <use xlink:href="#ArialMT-37"/>
      </g>
     </g>
    </g>
    <g id="text_14">
     <!-- $y/r_{0}$ -->
     <defs>
      <path d="M 24.8125 -5.078125 
Q 18.5625 -15.578125 14.625 -18.1875 
Q 10.6875 -20.796875 4.59375 -20.796875 
L -2.484375 -20.796875 
L -0.984375 -13.28125 
L 4.203125 -13.28125 
Q 7.953125 -13.28125 10.59375 -11.234375 
Q 13.234375 -9.1875 16.5 -3.21875 
L 19.28125 2 
L 7.171875 54.6875 
L 16.703125 54.6875 
L 25.78125 12.796875 
L 50.875 54.6875 
L 60.296875 54.6875 
z
" id="DejaVuSans-Oblique-79"/>
     </defs>
     <g style="fill:#d9d9d9;" transform="translate(19.245 150.795)rotate(-90)scale(0.165 -0.165)">
      <use transform="translate(0 0.09375)" xlink:href="#DejaVuSans-Oblique-79"/>
      <use transform="translate(59.179688 0.09375)" xlink:href="#DejaVuSans-2f"/>
      <use transform="translate(92.871094 0.09375)" xlink:href="#DejaVuSans-Oblique-72"/>
      <use transform="translate(133.984375 -16.3125)scale(0.7)" xlink:href="#DejaVuSans-30"/>
     </g>
    </g>
   </g>
   <g id="line2d_25">
    <path clip-path="url(#p3656c673af)" d="M 228.428549 244.5 
L 228.377205 243.516972 
L 228.224014 242.541688 
L 227.971464 241.581678 
L 227.623619 240.64405 
L 227.185975 239.735307 
L 226.665276 238.861182 
L 226.069306 238.026516 
L 225.40664 237.235166 
L 224.68638 236.489954 
L 223.917892 235.792668 
L 223.110545 235.144086 
L 222.273469 234.544052 
L 221.415337 233.991566 
L 220.544187 233.484915 
L 219.667277 233.021805 
L 218.790988 232.599503 
L 217.920773 232.214985 
L 217.061136 231.865064 
L 216.215661 231.546515 
L 215.387066 231.256169 
L 214.577275 230.990998 
L 213.787517 230.748167 
L 213.018425 230.525077 
L 212.270135 230.319379 
L 211.54239 230.128976 
L 210.834623 229.95202 
L 210.146042 229.786892 
L 209.47569 229.632182 
L 208.822506 229.486666 
L 208.185362 229.349281 
L 207.563098 229.219105 
L 206.954546 229.095334 
L 206.358545 228.977267 
L 205.773953 228.864287 
L 205.199654 228.755852 
L 204.634558 228.65148 
L 204.077607 228.550743 
L 203.52777 228.453254 
L 202.98404 228.358667 
L 202.445438 228.266669 
L 201.911 228.176971 
L 201.379778 228.089312 
L 200.850837 228.003447 
L 200.323246 227.919152 
L 199.796076 227.836215 
L 199.268392 227.754439 
L 198.73925 227.673634 
L 198.207691 227.593622 
L 197.672731 227.514229 
L 197.13336 227.435287 
L 196.588529 227.356633 
L 196.037147 227.278105 
L 195.478066 227.199542 
L 194.91008 227.120785 
L 194.331905 227.041671 
L 193.742173 226.962034 
L 193.139418 226.881705 
L 192.522058 226.800509 
L 191.888376 226.718263 
L 191.236506 226.634774 
L 190.564403 226.549841 
L 189.869818 226.463245 
L 189.150267 226.374757 
L 188.402992 226.284125 
L 187.624916 226.191078 
L 186.81259 226.09532 
L 185.962134 225.996524 
L 185.069154 225.894332 
L 184.128654 225.788342 
L 183.134924 225.678109 
L 182.081401 225.56313 
L 180.9605 225.442839 
L 179.763404 225.316591 
L 178.479796 225.183649 
L 177.097526 225.043166 
L 175.602182 224.894163 
L 173.976539 224.735495 
L 172.199834 224.565821 
L 170.24682 224.383555 
L 168.08649 224.186805 
L 165.68035 223.973293 
L 162.980048 223.740251 
L 159.924033 223.484281 
L 156.432794 223.201155 
L 152.401905 222.885548 
L 147.691607 222.530646 
L 142.110788 222.127581 
L 135.391525 221.664581 
L 127.147111 221.125645 
L 116.799764 220.488434 
L 103.449472 219.720696 
L 85.620444 218.773953 
L 60.730692 217.571506 
L 23.863856 215.983617 
L -1 215.056233 
" style="fill:none;stroke:#ffc400;stroke-linecap:round;stroke-width:2;"/>
   </g>
   <g id="line2d_26">
    <path clip-path="url(#p3656c673af)" d="M 0 0 
" style="fill:none;stroke:#00d7ff;stroke-dasharray:5.6,2.4;stroke-dashoffset:0;stroke-width:1.75;"/>
   </g>
   <g id="line2d_27">
    <path clip-path="url(#p3656c673af)" d="M 166.857589 244.5 
L 166.968273 245.942934 
L 167.299527 247.375493 
L 167.848971 248.787374 
L 168.644985 250.218855 
L 169.705726 251.654704 
L 170.998196 253.031208 
L 172.567658 254.38058 
L 174.423079 255.682663 
L 176.568958 256.915454 
L 179.004527 258.055336 
L 181.722944 259.077397 
L 184.710529 259.955852 
L 187.854314 260.64763 
L 191.210878 261.155637 
L 194.649628 261.450829 
L 198.126627 261.529433 
L 201.597447 261.390446 
L 205.01774 261.035643 
L 208.343805 260.469558 
L 211.533142 259.699424 
L 214.464081 258.764387 
L 217.117045 257.690975 
L 219.548037 256.467207 
L 221.668994 255.148842 
L 223.479489 253.761075 
L 224.984776 252.32735 
L 226.194913 250.869099 
L 227.123911 249.405578 
L 227.788913 247.953779 
L 228.220804 246.475272 
L 228.413358 245.034973 
L 228.384655 243.590828 
L 228.1349 242.15322 
L 227.665889 240.732487 
L 226.951543 239.28788 
L 226.01056 237.883577 
L 224.804828 236.48319 
L 223.320574 235.104624 
L 221.547579 233.767853 
L 219.479971 232.494781 
L 217.117045 231.309025 
L 214.464081 230.235613 
L 211.619385 229.324792 
L 208.524962 228.567953 
L 205.205392 227.990318 
L 201.789196 227.623633 
L 198.320023 227.472584 
L 194.8422 227.539101 
L 191.400165 227.822333 
L 188.037898 228.318663 
L 184.79836 229.021747 
L 181.805801 229.895005 
L 179.004527 230.944664 
L 176.49856 232.121235 
L 174.296534 233.398272 
L 172.40045 234.750603 
L 170.806523 236.154699 
L 169.506037 237.588948 
L 168.486194 239.033838 
L 167.708195 240.524067 
L 167.192572 241.994339 
L 166.918338 243.430581 
L 166.857589 244.5 
L 166.857589 244.5 
" style="fill:none;stroke:#ffffff;stroke-dasharray:2.2,2.2;stroke-dashoffset:0;stroke-width:1.75;"/>
   </g>
   <g id="patch_3">
    <path d="M 42.051406 244.5 
L 42.051406 27.06 
" style="fill:none;"/>
   </g>
   <g id="patch_4">
    <path d="M 259.491406 244.5 
L 259.491406 27.06 
" style="fill:none;"/>
   </g>
   <g id="patch_5">
    <path d="M 42.051406 244.5 
L 259.491406 244.5 
" style="fill:none;"/>
   </g>
   <g id="patch_6">
    <path d="M 42.051406 27.06 
L 259.491406 27.06 
" style="fill:none;"/>
   </g>
   <g id="text_15">
    <!-- $\xi = 0.1$; $\beta = 0.0000$ -->
    <defs>
     <path d="M 31.5 6.203125 
Q 37.9375 6.15625 41.0625 2.484375 
Q 44.4375 -1.375 43.3125 -7.234375 
Q 42.1875 -12.84375 37.84375 -16.75 
Q 33.109375 -21 25.140625 -21 
Q 25.875 -17.328125 26.5625 -13.625 
Q 29.890625 -13.875 32.375 -11.71875 
Q 34.28125 -10.015625 34.625 -8.203125 
Q 35.109375 -5.609375 33.984375 -3.46875 
Q 32.8125 -1.421875 30.03125 -1.421875 
Q -0.390625 -1.421875 3.765625 19.921875 
Q 6.59375 34.578125 23.6875 38.875 
Q 10.359375 40.625 12.84375 53.328125 
Q 14.703125 62.9375 26.21875 66.9375 
L 16.0625 66.9375 
L 17.828125 75.984375 
L 56.34375 75.984375 
L 54.59375 66.9375 
Q 23.875 66.9375 21.09375 52.734375 
Q 19.28125 43.40625 45.015625 42.96875 
L 43.40625 34.671875 
Q 15.765625 35.75 12.796875 19.921875 
Q 10.296875 6.6875 31.5 6.203125 
" id="DejaVuSans-Oblique-3be"/>
     <path d="M 10.59375 45.40625 
L 73.1875 45.40625 
L 73.1875 37.203125 
L 10.59375 37.203125 
z
M 10.59375 25.484375 
L 73.1875 25.484375 
L 73.1875 17.1875 
L 10.59375 17.1875 
z
" id="DejaVuSans-3d"/>
     <path d="M 10.6875 12.40625 
L 21 12.40625 
L 21 0 
L 10.6875 0 
z
" id="DejaVuSans-2e"/>
     <path d="M 12.40625 8.296875 
L 28.515625 8.296875 
L 28.515625 63.921875 
L 10.984375 60.40625 
L 10.984375 69.390625 
L 28.421875 72.90625 
L 38.28125 72.90625 
L 38.28125 8.296875 
L 54.390625 8.296875 
L 54.390625 0 
L 12.40625 0 
z
" id="DejaVuSans-31"/>
     <path d="M 8.890625 41.84375 
L 8.890625 51.859375 
L 18.890625 51.859375 
L 18.890625 41.84375 
z
M 8.890625 0 
L 8.890625 10.015625 
L 18.890625 10.015625 
L 18.890625 0 
Q 18.890625 -5.515625 16.9375 -8.90625 
Q 14.984375 -12.3125 10.75 -14.15625 
L 8.296875 -10.40625 
Q 11.078125 -9.1875 12.390625 -6.8125 
Q 13.71875 -4.4375 13.875 0 
z
" id="ArialMT-3b"/>
     <path id="ArialMT-20"/>
     <path d="M 13.625 3.375 
L 8.9375 -20.796875 
L -0.09375 -20.796875 
L 14.5 54.34375 
Q 18.84375 76.609375 39.65625 76.609375 
Q 60.75 76.609375 57.171875 57.8125 
Q 54.734375 44.4375 45.21875 39.546875 
Q 58.015625 35.15625 55.515625 22.125 
Q 51.125 -1.078125 27.484375 -1.03125 
Q 17.140625 -0.984375 13.625 3.375 
M 15.921875 15.09375 
Q 19.671875 6.59375 29.296875 6.640625 
Q 43.359375 6.640625 46.34375 21.96875 
Q 49.03125 35.75 26.171875 34.671875 
L 27.78125 42.96875 
Q 45.453125 42.671875 48.53125 58.59375 
Q 50.640625 69.34375 39.203125 69.28125 
Q 26.421875 69.28125 23.484375 54.046875 
z
" id="DejaVuSans-Oblique-3b2"/>
    </defs>
    <g style="fill:#d9d9d9;" transform="translate(67.071406 21.06)scale(0.18 -0.18)">
     <use transform="translate(0 0.390625)" xlink:href="#DejaVuSans-Oblique-3be"/>
     <use transform="translate(75.244141 0.390625)" xlink:href="#DejaVuSans-3d"/>
     <use transform="translate(178.515625 0.390625)" xlink:href="#DejaVuSans-30"/>
     <use transform="translate(242.138672 0.390625)" xlink:href="#DejaVuSans-2e"/>
     <use transform="translate(273.925781 0.390625)" xlink:href="#DejaVuSans-31"/>
     <use transform="translate(337.548828 0.390625)" xlink:href="#ArialMT-3b"/>
     <use transform="translate(365.332031 0.390625)" xlink:href="#ArialMT-20"/>
     <use transform="translate(393.115234 0.390625)" xlink:href="#DejaVuSans-Oblique-3b2"/>
     <use transform="translate(476.416016 0.390625)" xlink:href="#DejaVuSans-3d"/>
     <use transform="translate(579.6875 0.390625)" xlink:href="#DejaVuSans-30"/>
     <use transform="translate(643.310547 0.390625)" xlink:href="#DejaVuSans-2e"/>
     <use transform="translate(675.097656 0.390625)" xlink:href="#DejaVuSans-30"/>
     <use transform="translate(738.720703 0.390625)" xlink:href="#DejaVuSans-30"/>
     <use transform="translate(802.34375 0.390625)" xlink:href="#DejaVuSans-30"/>
     <use transform="translate(865.966797 0.390625)" xlink:href="#DejaVuSans-30"/>
    </g>
   </g>
  </g>
 </g>
 <defs>
  <clipPath id="p3656c673af">
   <rect height="217.44" width="217.44" x="42.051406" y="27.06"/>
  </clipPath>
 </defs>
</svg>
