<?xml version="1.0" encoding="utf-8" standalone="no"?>
<!DOCTYPE svg PUBLIC "-//W3C//DTD SVG 1.1//EN"
  "http://www.w3.org/Graphics/SVG/1.1/DTD/svg11.dtd">
<!-- Created with matplotlib (http://matplotlib.org/) -->
<svg height="237pt" version="1.1" viewBox="0 0 349 237" width="349pt" xmlns="http://www.w3.org/2000/svg" xmlns:xlink="http://www.w3.org/1999/xlink">
 <defs>
  <style type="text/css">
*{stroke-linecap:butt;stroke-linejoin:round;}
  </style>
 </defs>
 <g id="figure_1">
  <g id="patch_1">
   <path d="M 0 237.147734 
L 349.101406 237.147734 
L 349.101406 0 
L 0 0 
z
" style="fill:#3f3f3f;"/>
  </g>
  <g id="axes_1">
   <g id="patch_2">
    <path d="M 62.901406 190.14 
L 341.901406 190.14 
L 341.901406 27.06 
L 62.901406 27.06 
z
" style="fill:#504040;"/>
   </g>
   <g id="matplotlib.axis_1">
    <g id="xtick_1">
     <g id="line2d_1">
      <path clip-path="url(#p9b8df09edb)" d="M 62.901406 190.14 
L 62.901406 27.06 
" style="fill:none;stroke:#808080;stroke-linecap:round;"/>
     </g>
     <g id="line2d_2"/>
     <g id="text_1">
      <!-- 0 -->
      <defs>
       <path d="M 4.15625 35.296875 
Q 4.15625 48 6.765625 55.734375 
Q 9.375 63.484375 14.515625 67.671875 
Q 19.671875 71.875 27.484375 71.875 
Q 33.25 71.875 37.59375 69.546875 
Q 41.9375 67.234375 44.765625 62.859375 
Q 47.609375 58.5 49.21875 52.21875 
Q 50.828125 45.953125 50.828125 35.296875 
Q 50.828125 22.703125 48.234375 14.96875 
Q 45.65625 7.234375 40.5 3 
Q 35.359375 -1.21875 27.484375 -1.21875 
Q 17.140625 -1.21875 11.234375 6.203125 
Q 4.15625 15.140625 4.15625 35.296875 
M 13.1875 35.296875 
Q 13.1875 17.671875 17.3125 11.828125 
Q 21.4375 6 27.484375 6 
Q 33.546875 6 37.671875 11.859375 
Q 41.796875 17.71875 41.796875 35.296875 
Q 41.796875 52.984375 37.671875 58.78125 
Q 33.546875 64.59375 27.390625 64.59375 
Q 21.34375 64.59375 17.71875 59.46875 
Q 13.1875 52.9375 13.1875 35.296875 
" id="ArialMT-30"/>
      </defs>
      <g style="fill:#d9d9d9;" transform="translate(58.730703 207.876719)scale(0.15 -0.15)">
       <use xlink:href="#ArialMT-30"/>
      </g>
     </g>
    </g>
    <g id="xtick_2">
     <g id="line2d_3">
      <path clip-path="url(#p9b8df09edb)" d="M 140.401406 190.14 
L 140.401406 27.06 
" style="fill:none;stroke:#808080;stroke-linecap:round;"/>
     </g>
     <g id="line2d_4"/>
     <g id="text_2">
      <!-- 50 -->
      <defs>
       <path d="M 4.15625 18.75 
L 13.375 19.53125 
Q 14.40625 12.796875 18.140625 9.390625 
Q 21.875 6 27.15625 6 
Q 33.5 6 37.890625 10.78125 
Q 42.28125 15.578125 42.28125 23.484375 
Q 42.28125 31 38.0625 35.34375 
Q 33.84375 39.703125 27 39.703125 
Q 22.75 39.703125 19.328125 37.765625 
Q 15.921875 35.84375 13.96875 32.765625 
L 5.71875 33.84375 
L 12.640625 70.609375 
L 48.25 70.609375 
L 48.25 62.203125 
L 19.671875 62.203125 
L 15.828125 42.96875 
Q 22.265625 47.46875 29.34375 47.46875 
Q 38.71875 47.46875 45.15625 40.96875 
Q 51.609375 34.46875 51.609375 24.265625 
Q 51.609375 14.546875 45.953125 7.46875 
Q 39.0625 -1.21875 27.15625 -1.21875 
Q 17.390625 -1.21875 11.203125 4.25 
Q 5.03125 9.71875 4.15625 18.75 
" id="ArialMT-35"/>
      </defs>
      <g style="fill:#d9d9d9;" transform="translate(132.06 207.876719)scale(0.15 -0.15)">
       <use xlink:href="#ArialMT-35"/>
       <use x="55.615234" xlink:href="#ArialMT-30"/>
      </g>
     </g>
    </g>
    <g id="xtick_3">
     <g id="line2d_5">
      <path clip-path="url(#p9b8df09edb)" d="M 217.901406 190.14 
L 217.901406 27.06 
" style="fill:none;stroke:#808080;stroke-linecap:round;"/>
     </g>
     <g id="line2d_6"/>
     <g id="text_3">
      <!-- 100 -->
      <defs>
       <path d="M 37.25 0 
L 28.46875 0 
L 28.46875 56 
Q 25.296875 52.984375 20.140625 49.953125 
Q 14.984375 46.921875 10.890625 45.40625 
L 10.890625 53.90625 
Q 18.265625 57.375 23.78125 62.296875 
Q 29.296875 67.234375 31.59375 71.875 
L 37.25 71.875 
z
" id="ArialMT-31"/>
      </defs>
      <g style="fill:#d9d9d9;" transform="translate(205.389297 207.876719)scale(0.15 -0.15)">
       <use xlink:href="#ArialMT-31"/>
       <use x="55.615234" xlink:href="#ArialMT-30"/>
       <use x="111.230469" xlink:href="#ArialMT-30"/>
      </g>
     </g>
    </g>
    <g id="xtick_4">
     <g id="line2d_7">
      <path clip-path="url(#p9b8df09edb)" d="M 295.401406 190.14 
L 295.401406 27.06 
" style="fill:none;stroke:#808080;stroke-linecap:round;"/>
     </g>
     <g id="line2d_8"/>
     <g id="text_4">
      <!-- 150 -->
      <g style="fill:#d9d9d9;" transform="translate(282.889297 207.876719)scale(0.15 -0.15)">
       <use xlink:href="#ArialMT-31"/>
       <use x="55.615234" xlink:href="#ArialMT-35"/>
       <use x="111.230469" xlink:href="#ArialMT-30"/>
      </g>
     </g>
    </g>
    <g id="text_5">
     <!-- $\theta$ -->
     <defs>
      <path d="M 45.515625 34.671875 
L 14.453125 34.671875 
Q 12.359375 20.0625 14.5 13.875 
Q 17.1875 6.25 24.46875 6.25 
Q 31.78125 6.25 37.359375 13.921875 
Q 42.234375 20.65625 45.515625 34.671875 
M 47.015625 42.96875 
Q 48.34375 56.84375 46.625 61.71875 
Q 43.953125 69.4375 36.765625 69.4375 
Q 29.296875 69.4375 23.828125 61.8125 
Q 19.53125 55.671875 16.15625 42.96875 
z
M 38.1875 76.765625 
Q 49.90625 76.765625 54.59375 66.40625 
Q 59.28125 56.109375 55.71875 37.84375 
Q 52.203125 19.625 43.453125 9.28125 
Q 34.765625 -1.125 23.046875 -1.125 
Q 11.28125 -1.125 6.640625 9.28125 
Q 2 19.625 5.515625 37.84375 
Q 9.078125 56.109375 17.71875 66.40625 
Q 26.421875 76.765625 38.1875 76.765625 
" id="DejaVuSans-Oblique-3b8"/>
     </defs>
     <g style="fill:#d9d9d9;" transform="translate(197.286406 226.668359)scale(0.165 -0.165)">
      <use transform="translate(0 0.234375)" xlink:href="#DejaVuSans-Oblique-3b8"/>
     </g>
    </g>
   </g>
   <g id="matplotlib.axis_2">
    <g id="ytick_1">
     <g id="line2d_9">
      <path clip-path="url(#p9b8df09edb)" d="M 62.901406 190.14 
L 341.901406 190.14 
" style="fill:none;stroke:#808080;stroke-linecap:round;"/>
     </g>
     <g id="line2d_10"/>
     <g id="text_6">
      <!-- 0.00 -->
      <defs>
       <path d="M 9.078125 0 
L 9.078125 10.015625 
L 19.09375 10.015625 
L 19.09375 0 
z
" id="ArialMT-2e"/>
      </defs>
      <g style="fill:#d9d9d9;" transform="translate(26.71 195.508359)scale(0.15 -0.15)">
       <use xlink:href="#ArialMT-30"/>
       <use x="55.615234" xlink:href="#ArialMT-2e"/>
       <use x="83.398438" xlink:href="#ArialMT-30"/>
       <use x="139.013672" xlink:href="#ArialMT-30"/>
      </g>
     </g>
    </g>
    <g id="ytick_2">
     <g id="line2d_11">
      <path clip-path="url(#p9b8df09edb)" d="M 62.901406 140.977882 
L 341.901406 140.977882 
" style="fill:none;stroke:#808080;stroke-linecap:round;"/>
     </g>
     <g id="line2d_12"/>
     <g id="text_7">
      <!-- 0.05 -->
      <g style="fill:#d9d9d9;" transform="translate(26.71 146.346241)scale(0.15 -0.15)">
       <use xlink:href="#ArialMT-30"/>
       <use x="55.615234" xlink:href="#ArialMT-2e"/>
       <use x="83.398438" xlink:href="#ArialMT-30"/>
       <use x="139.013672" xlink:href="#ArialMT-35"/>
      </g>
     </g>
    </g>
    <g id="ytick_3">
     <g id="line2d_13">
      <path clip-path="url(#p9b8df09edb)" d="M 62.901406 91.815764 
L 341.901406 91.815764 
" style="fill:none;stroke:#808080;stroke-linecap:round;"/>
     </g>
     <g id="line2d_14"/>
     <g id="text_8">
      <!-- 0.10 -->
      <g style="fill:#d9d9d9;" transform="translate(26.71 97.184123)scale(0.15 -0.15)">
       <use xlink:href="#ArialMT-30"/>
       <use x="55.615234" xlink:href="#ArialMT-2e"/>
       <use x="83.398438" xlink:href="#ArialMT-31"/>
       <use x="139.013672" xlink:href="#ArialMT-30"/>
      </g>
     </g>
    </g>
    <g id="ytick_4">
     <g id="line2d_15">
      <path clip-path="url(#p9b8df09edb)" d="M 62.901406 42.653646 
L 341.901406 42.653646 
" style="fill:none;stroke:#808080;stroke-linecap:round;"/>
     </g>
     <g id="line2d_16"/>
     <g id="text_9">
      <!-- 0.15 -->
      <g style="fill:#d9d9d9;" transform="translate(26.71 48.022005)scale(0.15 -0.15)">
       <use xlink:href="#ArialMT-30"/>
       <use x="55.615234" xlink:href="#ArialMT-2e"/>
       <use x="83.398438" xlink:href="#ArialMT-31"/>
       <use x="139.013672" xlink:href="#ArialMT-35"/>
      </g>
     </g>
    </g>
    <g id="text_10">
     <!-- $\theta_1/\theta$ -->
     <defs>
      <path d="M 12.40625 8.296875 
L 28.515625 8.296875 
L 28.515625 63.921875 
L 10.984375 60.40625 
L 10.984375 69.390625 
L 28.421875 72.90625 
L 38.28125 72.90625 
L 38.28125 8.296875 
L 54.390625 8.296875 
L 54.390625 0 
L 12.40625 0 
z
" id="DejaVuSans-31"/>
      <path d="M 25.390625 72.90625 
L 33.6875 72.90625 
L 8.296875 -9.28125 
L 0 -9.28125 
z
" id="DejaVuSans-2f"/>
     </defs>
     <g style="fill:#d9d9d9;" transform="translate(19.430625 125.43)rotate(-90)scale(0.165 -0.165)">
      <use transform="translate(0 0.234375)" xlink:href="#DejaVuSans-Oblique-3b8"/>
      <use transform="translate(61.181641 -16.171875)scale(0.7)" xlink:href="#DejaVuSans-31"/>
      <use transform="translate(108.452148 0.234375)" xlink:href="#DejaVuSans-2f"/>
      <use transform="translate(142.143555 0.234375)" xlink:href="#DejaVuSans-Oblique-3b8"/>
     </g>
    </g>
   </g>
   <g id="line2d_17">
    <path clip-path="url(#p9b8df09edb)" d="M 65.32107 83.902161 
L 67.740734 83.911986 
L 70.160397 83.928281 
L 72.580061 83.950927 
L 74.999725 83.979759 
L 77.419388 84.014569 
L 79.839052 84.055103 
L 82.258716 84.101067 
L 84.67838 84.15213 
L 87.098043 84.207922 
L 89.517707 84.26804 
L 91.937371 84.332051 
L 94.357034 84.399494 
L 96.776698 84.469881 
L 99.196362 84.542704 
L 101.616026 84.617435 
L 104.035689 84.693528 
L 106.455353 84.770423 
L 108.875017 84.847552 
L 111.29468 84.924333 
L 113.714344 85.000181 
L 116.134008 85.074502 
L 118.553671 85.146702 
L 120.973335 85.216183 
L 123.392999 85.282347 
L 125.812663 85.344598 
L 128.232326 85.402338 
L 130.65199 85.454973 
L 133.071654 85.501912 
L 135.491317 85.542565 
L 137.910981 85.576344 
L 140.330645 85.602666 
L 142.750309 85.620948 
L 145.169972 85.630609 
L 147.589636 85.63107 
L 150.0093 85.621752 
L 152.428963 85.602073 
L 154.848627 85.571454 
L 157.268291 85.52931 
L 159.687954 85.475052 
L 162.107618 85.408088 
L 164.527282 85.327818 
L 166.946946 85.233635 
L 169.366609 85.12492 
L 171.786273 85.001046 
L 174.205937 84.86137 
L 176.6256 84.705237 
L 179.045264 84.531972 
L 181.464928 84.340884 
L 183.884592 84.13126 
L 186.304255 83.902365 
L 188.723919 83.653436 
L 191.143583 83.383686 
L 193.563246 83.092296 
L 195.98291 82.778414 
L 198.402574 82.441155 
L 200.822238 82.079594 
L 203.241901 81.692767 
L 205.661565 81.279666 
L 208.081229 80.839236 
L 210.500892 80.370372 
L 212.920556 79.87192 
L 215.34022 79.342665 
L 217.759883 78.781339 
L 220.179547 78.186608 
L 222.599211 77.557075 
L 225.018875 76.891276 
L 227.438538 76.187675 
L 229.858202 75.444664 
L 232.277866 74.660564 
L 234.697529 73.833616 
L 237.117193 72.961988 
L 239.536857 72.043772 
L 241.956521 71.076987 
L 244.376184 70.059586 
L 246.795848 68.989455 
L 249.215512 67.864433 
L 251.635175 66.682317 
L 254.054839 65.440883 
L 256.474503 64.137915 
L 258.894166 62.771232 
L 261.31383 61.338734 
L 263.733494 59.838462 
L 266.153158 58.268662 
L 268.572821 56.627888 
L 270.992485 54.915115 
L 273.412149 53.129896 
L 275.831812 51.272557 
L 278.251476 49.344445 
L 280.67114 47.348247 
L 283.090804 45.288394 
L 285.510467 43.17158 
L 287.930131 41.00741 
L 290.349795 38.809245 
L 292.769458 36.595259 
L 295.189122 34.389796 
L 297.608786 32.225098 
L 300.028449 30.143493 
" style="fill:none;stroke:#00d7ff;stroke-linecap:round;stroke-width:1.75;"/>
   </g>
   <g id="line2d_18">
    <path clip-path="url(#p9b8df09edb)" d="M 65.32107 91.813355 
L 67.740734 91.806127 
L 70.160397 91.794075 
L 72.580061 91.777189 
L 74.999725 91.75546 
L 77.419388 91.72887 
L 79.839052 91.697402 
L 82.258716 91.661033 
L 84.67838 91.619738 
L 87.098043 91.573488 
L 89.517707 91.522248 
L 91.937371 91.465984 
L 94.357034 91.404654 
L 96.776698 91.338214 
L 99.196362 91.266617 
L 101.616026 91.189809 
L 104.035689 91.107735 
L 106.455353 91.020333 
L 108.875017 90.927539 
L 111.29468 90.829283 
L 113.714344 90.725491 
L 116.134008 90.616083 
L 118.553671 90.500976 
L 120.973335 90.38008 
L 123.392999 90.2533 
L 125.812663 90.120535 
L 128.232326 89.98168 
L 130.65199 89.836622 
L 133.071654 89.685242 
L 135.491317 89.527414 
L 137.910981 89.363006 
L 140.330645 89.191877 
L 142.750309 89.013881 
L 145.169972 88.828862 
L 147.589636 88.636655 
L 150.0093 88.437088 
L 152.428963 88.229978 
L 154.848627 88.015132 
L 157.268291 87.792347 
L 159.687954 87.56141 
L 162.107618 87.322095 
L 164.527282 87.074163 
L 166.946946 86.817364 
L 169.366609 86.551432 
L 171.786273 86.276087 
L 174.205937 85.991032 
L 176.6256 85.695956 
L 179.045264 85.390527 
L 181.464928 85.074396 
L 183.884592 84.747193 
L 186.304255 84.408525 
L 188.723919 84.057976 
L 191.143583 83.695108 
L 193.563246 83.319451 
L 195.98291 82.93051 
L 198.402574 82.527757 
L 200.822238 82.110631 
L 203.241901 81.678534 
L 205.661565 81.230832 
L 208.081229 80.766844 
L 210.500892 80.285847 
L 212.920556 79.787067 
L 215.34022 79.269675 
L 217.759883 78.732786 
L 220.179547 78.175449 
L 222.599211 77.596642 
L 225.018875 76.99527 
L 227.438538 76.370152 
L 229.858202 75.720015 
L 232.277866 75.043485 
L 234.697529 74.339079 
L 237.117193 73.605187 
L 239.536857 72.840066 
L 241.956521 72.04182 
L 244.376184 71.208387 
L 246.795848 70.337516 
L 249.215512 69.426748 
L 251.635175 68.473387 
L 254.054839 67.474478 
L 256.474503 66.426763 
L 258.894166 65.326652 
L 261.31383 64.170171 
L 263.733494 62.952912 
L 266.153158 61.66997 
L 268.572821 60.315868 
L 270.992485 58.884471 
L 273.412149 57.368885 
L 275.831812 55.761324 
L 278.251476 54.052967 
L 280.67114 52.233772 
L 283.090804 50.292252 
L 285.510467 48.215199 
L 287.930131 45.987341 
L 290.349795 43.59091 
L 292.769458 41.005102 
L 295.189122 38.205375 
L 297.608786 35.162546 
L 300.028449 31.841615 
" style="fill:none;stroke:#ffc400;stroke-linecap:round;stroke-width:1.75;"/>
   </g>
   <g id="line2d_19">
    <path clip-path="url(#p9b8df09edb)" d="M 70.160397 91.791612 
L 72.580061 91.773612 
L 74.999725 91.755201 
L 77.419388 91.725097 
L 79.839052 91.694993 
L 82.258716 91.658003 
L 84.67838 91.615643 
L 87.098043 91.572005 
L 89.517707 91.517184 
L 91.937371 91.462363 
L 94.357034 91.399145 
L 96.776698 91.331613 
L 99.196362 91.260961 
L 101.616026 91.180431 
L 104.035689 91.099901 
L 106.455353 91.008127 
L 108.875017 90.914285 
L 111.29468 90.813914 
L 113.714344 90.706432 
L 116.134008 90.596916 
L 118.553671 90.47546 
L 120.973335 90.354005 
L 123.392999 90.22041 
L 125.812663 90.084654 
L 128.232326 89.940252 
L 130.65199 89.789888 
L 133.071654 89.633904 
L 135.491317 89.468652 
L 137.910981 89.300248 
L 140.330645 89.119867 
L 142.750309 88.938156 
L 145.169972 88.74245 
L 147.589636 88.546516 
L 150.0093 88.335347 
L 152.428963 88.124179 
L 154.848627 87.897561 
L 157.268291 87.670448 
L 159.687954 87.428191 
L 162.107618 87.184207 
L 164.527282 86.926465 
L 166.946946 86.66487 
L 169.366609 86.391784 
L 171.786273 86.111963 
L 174.205937 85.823753 
L 176.6256 85.525255 
L 179.045264 85.222224 
L 181.464928 84.904795 
L 183.884592 84.582376 
L 186.304255 84.250939 
L 188.723919 83.90924 
L 191.143583 83.561474 
L 193.563246 83.203831 
L 195.98291 82.837231 
L 198.402574 82.464056 
L 200.822238 82.083051 
L 203.241901 81.692459 
L 205.661565 81.295518 
L 208.081229 80.892153 
L 210.500892 80.482447 
L 212.920556 80.065621 
L 215.34022 79.643532 
L 217.759883 79.216967 
L 220.179547 78.786594 
L 222.599211 78.353263 
L 225.018875 77.918009 
L 227.438538 77.48205 
L 229.858202 77.046784 
L 232.277866 76.61378 
L 234.697529 76.184774 
L 237.117193 75.761662 
L 239.536857 75.346807 
L 241.956521 74.943907 
L 244.376184 74.554346 
L 246.795848 74.180795 
L 249.215512 73.830496 
L 251.635175 73.502638 
L 254.054839 73.207257 
L 256.474503 72.945045 
L 258.894166 72.72276 
L 261.31383 72.550052 
L 263.733494 72.431397 
L 266.153158 72.375021 
L 268.572821 72.391242 
L 270.992485 72.490697 
L 273.412149 72.680669 
L 275.831812 72.979769 
L 278.251476 73.397083 
L 280.67114 73.948923 
L 283.090804 74.651026 
L 285.510467 75.525142 
L 287.930131 76.587293 
L 290.349795 77.860102 
L 292.769458 79.366742 
L 295.189122 81.131819 
L 297.608786 83.180056 
L 300.028449 85.540995 
L 302.448113 88.240094 
" style="fill:none;stroke:#ffffff;stroke-dasharray:2.2,2.2;stroke-dashoffset:0;stroke-width:1.75;"/>
   </g>
   <g id="patch_3">
    <path d="M 62.901406 190.14 
L 62.901406 27.06 
" style="fill:none;"/>
   </g>
   <g id="patch_4">
    <path d="M 341.901406 190.14 
L 341.901406 27.06 
" style="fill:none;"/>
   </g>
   <g id="patch_5">
    <path d="M 62.901406 190.14 
L 341.901406 190.14 
" style="fill:none;"/>
   </g>
   <g id="patch_6">
    <path d="M 62.901406 27.06 
L 341.901406 27.06 
" style="fill:none;"/>
   </g>
   <g id="text_11">
    <!-- Before fit: CRW, $\beta = 0.0100$ -->
    <defs>
     <path d="M 7.328125 0 
L 7.328125 71.578125 
L 34.1875 71.578125 
Q 42.390625 71.578125 47.34375 69.40625 
Q 52.296875 67.234375 55.09375 62.71875 
Q 57.90625 58.203125 57.90625 53.265625 
Q 57.90625 48.6875 55.421875 44.625 
Q 52.9375 40.578125 47.90625 38.09375 
Q 54.390625 36.1875 57.875 31.59375 
Q 61.375 27 61.375 20.75 
Q 61.375 15.71875 59.25 11.390625 
Q 57.125 7.078125 54 4.734375 
Q 50.875 2.390625 46.15625 1.1875 
Q 41.453125 0 34.625 0 
z
M 16.796875 41.5 
L 32.28125 41.5 
Q 38.578125 41.5 41.3125 42.328125 
Q 44.921875 43.40625 46.75 45.890625 
Q 48.578125 48.390625 48.578125 52.15625 
Q 48.578125 55.71875 46.875 58.421875 
Q 45.171875 61.140625 41.984375 62.140625 
Q 38.8125 63.140625 31.109375 63.140625 
L 16.796875 63.140625 
z
M 16.796875 8.453125 
L 34.625 8.453125 
Q 39.203125 8.453125 41.0625 8.796875 
Q 44.34375 9.375 46.53125 10.734375 
Q 48.734375 12.109375 50.140625 14.71875 
Q 51.5625 17.328125 51.5625 20.75 
Q 51.5625 24.75 49.515625 27.703125 
Q 47.46875 30.671875 43.828125 31.859375 
Q 40.1875 33.0625 33.34375 33.0625 
L 16.796875 33.0625 
z
" id="ArialMT-42"/>
     <path d="M 42.09375 16.703125 
L 51.171875 15.578125 
Q 49.03125 7.625 43.21875 3.21875 
Q 37.40625 -1.171875 28.375 -1.171875 
Q 17 -1.171875 10.328125 5.828125 
Q 3.65625 12.84375 3.65625 25.484375 
Q 3.65625 38.578125 10.390625 45.796875 
Q 17.140625 53.03125 27.875 53.03125 
Q 38.28125 53.03125 44.875 45.953125 
Q 51.46875 38.875 51.46875 26.03125 
Q 51.46875 25.25 51.421875 23.6875 
L 12.75 23.6875 
Q 13.234375 15.140625 17.578125 10.59375 
Q 21.921875 6.0625 28.421875 6.0625 
Q 33.25 6.0625 36.671875 8.59375 
Q 40.09375 11.140625 42.09375 16.703125 
M 13.234375 30.90625 
L 42.1875 30.90625 
Q 41.609375 37.453125 38.875 40.71875 
Q 34.671875 45.796875 27.984375 45.796875 
Q 21.921875 45.796875 17.796875 41.75 
Q 13.671875 37.703125 13.234375 30.90625 
" id="ArialMT-65"/>
     <path d="M 8.6875 0 
L 8.6875 45.015625 
L 0.921875 45.015625 
L 0.921875 51.859375 
L 8.6875 51.859375 
L 8.6875 57.375 
Q 8.6875 62.59375 9.625 65.140625 
Q 10.890625 68.5625 14.078125 70.671875 
Q 17.28125 72.796875 23.046875 72.796875 
Q 26.765625 72.796875 31.25 71.921875 
L 29.9375 64.265625 
Q 27.203125 64.75 24.75 64.75 
Q 20.75 64.75 19.09375 63.03125 
Q 17.4375 61.328125 17.4375 56.640625 
L 17.4375 51.859375 
L 27.546875 51.859375 
L 27.546875 45.015625 
L 17.4375 45.015625 
L 17.4375 0 
z
" id="ArialMT-66"/>
     <path d="M 3.328125 25.921875 
Q 3.328125 40.328125 11.328125 47.265625 
Q 18.015625 53.03125 27.640625 53.03125 
Q 38.328125 53.03125 45.109375 46.015625 
Q 51.90625 39.015625 51.90625 26.65625 
Q 51.90625 16.65625 48.90625 10.90625 
Q 45.90625 5.171875 40.15625 2 
Q 34.421875 -1.171875 27.640625 -1.171875 
Q 16.75 -1.171875 10.03125 5.8125 
Q 3.328125 12.796875 3.328125 25.921875 
M 12.359375 25.921875 
Q 12.359375 15.96875 16.703125 11.015625 
Q 21.046875 6.0625 27.640625 6.0625 
Q 34.1875 6.0625 38.53125 11.03125 
Q 42.875 16.015625 42.875 26.21875 
Q 42.875 35.84375 38.5 40.796875 
Q 34.125 45.75 27.640625 45.75 
Q 21.046875 45.75 16.703125 40.8125 
Q 12.359375 35.890625 12.359375 25.921875 
" id="ArialMT-6f"/>
     <path d="M 6.5 0 
L 6.5 51.859375 
L 14.40625 51.859375 
L 14.40625 44 
Q 17.4375 49.515625 20 51.265625 
Q 22.5625 53.03125 25.640625 53.03125 
Q 30.078125 53.03125 34.671875 50.203125 
L 31.640625 42.046875 
Q 28.421875 43.953125 25.203125 43.953125 
Q 22.3125 43.953125 20.015625 42.21875 
Q 17.71875 40.484375 16.75 37.40625 
Q 15.28125 32.71875 15.28125 27.15625 
L 15.28125 0 
z
" id="ArialMT-72"/>
     <path id="ArialMT-20"/>
     <path d="M 6.640625 61.46875 
L 6.640625 71.578125 
L 15.4375 71.578125 
L 15.4375 61.46875 
z
M 6.640625 0 
L 6.640625 51.859375 
L 15.4375 51.859375 
L 15.4375 0 
z
" id="ArialMT-69"/>
     <path d="M 25.78125 7.859375 
L 27.046875 0.09375 
Q 23.34375 -0.6875 20.40625 -0.6875 
Q 15.625 -0.6875 12.984375 0.828125 
Q 10.359375 2.34375 9.28125 4.8125 
Q 8.203125 7.28125 8.203125 15.1875 
L 8.203125 45.015625 
L 1.765625 45.015625 
L 1.765625 51.859375 
L 8.203125 51.859375 
L 8.203125 64.703125 
L 16.9375 69.96875 
L 16.9375 51.859375 
L 25.78125 51.859375 
L 25.78125 45.015625 
L 16.9375 45.015625 
L 16.9375 14.703125 
Q 16.9375 10.9375 17.40625 9.859375 
Q 17.875 8.796875 18.921875 8.15625 
Q 19.96875 7.515625 21.921875 7.515625 
Q 23.390625 7.515625 25.78125 7.859375 
" id="ArialMT-74"/>
     <path d="M 9.03125 41.84375 
L 9.03125 51.859375 
L 19.046875 51.859375 
L 19.046875 41.84375 
z
M 9.03125 0 
L 9.03125 10.015625 
L 19.046875 10.015625 
L 19.046875 0 
z
" id="ArialMT-3a"/>
     <path d="M 58.796875 25.09375 
L 68.265625 22.703125 
Q 65.28125 11.03125 57.546875 4.90625 
Q 49.8125 -1.21875 38.625 -1.21875 
Q 27.046875 -1.21875 19.796875 3.484375 
Q 12.546875 8.203125 8.765625 17.140625 
Q 4.984375 26.078125 4.984375 36.328125 
Q 4.984375 47.515625 9.25 55.828125 
Q 13.53125 64.15625 21.40625 68.46875 
Q 29.296875 72.796875 38.765625 72.796875 
Q 49.515625 72.796875 56.828125 67.328125 
Q 64.15625 61.859375 67.046875 51.953125 
L 57.71875 49.75 
Q 55.21875 57.5625 50.484375 61.125 
Q 45.75 64.703125 38.578125 64.703125 
Q 30.328125 64.703125 24.78125 60.734375 
Q 19.234375 56.78125 16.984375 50.109375 
Q 14.75 43.453125 14.75 36.375 
Q 14.75 27.25 17.40625 20.4375 
Q 20.0625 13.625 25.671875 10.25 
Q 31.296875 6.890625 37.84375 6.890625 
Q 45.796875 6.890625 51.3125 11.46875 
Q 56.84375 16.0625 58.796875 25.09375 
" id="ArialMT-43"/>
     <path d="M 7.859375 0 
L 7.859375 71.578125 
L 39.59375 71.578125 
Q 49.171875 71.578125 54.140625 69.640625 
Q 59.125 67.71875 62.109375 62.828125 
Q 65.09375 57.953125 65.09375 52.046875 
Q 65.09375 44.4375 60.15625 39.203125 
Q 55.21875 33.984375 44.921875 32.5625 
Q 48.6875 30.765625 50.640625 29 
Q 54.78125 25.203125 58.5 19.484375 
L 70.953125 0 
L 59.03125 0 
L 49.5625 14.890625 
Q 45.40625 21.34375 42.71875 24.75 
Q 40.046875 28.171875 37.921875 29.53125 
Q 35.796875 30.90625 33.59375 31.453125 
Q 31.984375 31.78125 28.328125 31.78125 
L 17.328125 31.78125 
L 17.328125 0 
z
M 17.328125 39.984375 
L 37.703125 39.984375 
Q 44.1875 39.984375 47.84375 41.328125 
Q 51.515625 42.671875 53.421875 45.625 
Q 55.328125 48.578125 55.328125 52.046875 
Q 55.328125 57.125 51.640625 60.390625 
Q 47.953125 63.671875 39.984375 63.671875 
L 17.328125 63.671875 
z
" id="ArialMT-52"/>
     <path d="M 20.21875 0 
L 1.21875 71.578125 
L 10.9375 71.578125 
L 21.828125 24.65625 
Q 23.578125 17.28125 24.859375 10.015625 
Q 27.59375 21.484375 28.078125 23.25 
L 41.703125 71.578125 
L 53.125 71.578125 
L 63.375 35.359375 
Q 67.234375 21.875 68.953125 10.015625 
Q 70.3125 16.796875 72.515625 25.59375 
L 83.734375 71.578125 
L 93.265625 71.578125 
L 73.640625 0 
L 64.5 0 
L 49.421875 54.546875 
Q 47.515625 61.375 47.171875 62.9375 
Q 46.046875 58.015625 45.0625 54.546875 
L 29.890625 0 
z
" id="ArialMT-57"/>
     <path d="M 8.890625 0 
L 8.890625 10.015625 
L 18.890625 10.015625 
L 18.890625 0 
Q 18.890625 -5.515625 16.9375 -8.90625 
Q 14.984375 -12.3125 10.75 -14.15625 
L 8.296875 -10.40625 
Q 11.078125 -9.1875 12.390625 -6.8125 
Q 13.71875 -4.4375 13.875 0 
z
" id="ArialMT-2c"/>
     <path d="M 13.625 3.375 
L 8.9375 -20.796875 
L -0.09375 -20.796875 
L 14.5 54.34375 
Q 18.84375 76.609375 39.65625 76.609375 
Q 60.75 76.609375 57.171875 57.8125 
Q 54.734375 44.4375 45.21875 39.546875 
Q 58.015625 35.15625 55.515625 22.125 
Q 51.125 -1.078125 27.484375 -1.03125 
Q 17.140625 -0.984375 13.625 3.375 
M 15.921875 15.09375 
Q 19.671875 6.59375 29.296875 6.640625 
Q 43.359375 6.640625 46.34375 21.96875 
Q 49.03125 35.75 26.171875 34.671875 
L 27.78125 42.96875 
Q 45.453125 42.671875 48.53125 58.59375 
Q 50.640625 69.34375 39.203125 69.28125 
Q 26.421875 69.28125 23.484375 54.046875 
z
" id="DejaVuSans-Oblique-3b2"/>
     <path d="M 10.59375 45.40625 
L 73.1875 45.40625 
L 73.1875 37.203125 
L 10.59375 37.203125 
z
M 10.59375 25.484375 
L 73.1875 25.484375 
L 73.1875 17.1875 
L 10.59375 17.1875 
z
" id="DejaVuSans-3d"/>
     <path d="M 31.78125 66.40625 
Q 24.171875 66.40625 20.328125 58.90625 
Q 16.5 51.421875 16.5 36.375 
Q 16.5 21.390625 20.328125 13.890625 
Q 24.171875 6.390625 31.78125 6.390625 
Q 39.453125 6.390625 43.28125 13.890625 
Q 47.125 21.390625 47.125 36.375 
Q 47.125 51.421875 43.28125 58.90625 
Q 39.453125 66.40625 31.78125 66.40625 
M 31.78125 74.21875 
Q 44.046875 74.21875 50.515625 64.515625 
Q 56.984375 54.828125 56.984375 36.375 
Q 56.984375 17.96875 50.515625 8.265625 
Q 44.046875 -1.421875 31.78125 -1.421875 
Q 19.53125 -1.421875 13.0625 8.265625 
Q 6.59375 17.96875 6.59375 36.375 
Q 6.59375 54.828125 13.0625 64.515625 
Q 19.53125 74.21875 31.78125 74.21875 
" id="DejaVuSans-30"/>
     <path d="M 10.6875 12.40625 
L 21 12.40625 
L 21 0 
L 10.6875 0 
z
" id="DejaVuSans-2e"/>
    </defs>
    <g style="fill:#d9d9d9;" transform="translate(86.571406 21.06)scale(0.18 -0.18)">
     <use transform="translate(0 0.390625)" xlink:href="#ArialMT-42"/>
     <use transform="translate(66.699219 0.390625)" xlink:href="#ArialMT-65"/>
     <use transform="translate(122.314453 0.390625)" xlink:href="#ArialMT-66"/>
     <use transform="translate(150.097656 0.390625)" xlink:href="#ArialMT-6f"/>
     <use transform="translate(205.712891 0.390625)" xlink:href="#ArialMT-72"/>
     <use transform="translate(239.013672 0.390625)" xlink:href="#ArialMT-65"/>
     <use transform="translate(294.628906 0.390625)" xlink:href="#ArialMT-20"/>
     <use transform="translate(322.412109 0.390625)" xlink:href="#ArialMT-66"/>
     <use transform="translate(350.195312 0.390625)" xlink:href="#ArialMT-69"/>
     <use transform="translate(372.412109 0.390625)" xlink:href="#ArialMT-74"/>
     <use transform="translate(400.195312 0.390625)" xlink:href="#ArialMT-3a"/>
     <use transform="translate(427.978516 0.390625)" xlink:href="#ArialMT-20"/>
     <use transform="translate(455.761719 0.390625)" xlink:href="#ArialMT-43"/>
     <use transform="translate(527.978516 0.390625)" xlink:href="#ArialMT-52"/>
     <use transform="translate(600.195312 0.390625)" xlink:href="#ArialMT-57"/>
     <use transform="translate(694.580078 0.390625)" xlink:href="#ArialMT-2c"/>
     <use transform="translate(722.363281 0.390625)" xlink:href="#ArialMT-20"/>
     <use transform="translate(750.146484 0.390625)" xlink:href="#DejaVuSans-Oblique-3b2"/>
     <use transform="translate(833.447266 0.390625)" xlink:href="#DejaVuSans-3d"/>
     <use transform="translate(936.71875 0.390625)" xlink:href="#DejaVuSans-30"/>
     <use transform="translate(1000.341797 0.390625)" xlink:href="#DejaVuSans-2e"/>
     <use transform="translate(1032.128906 0.390625)" xlink:href="#DejaVuSans-30"/>
     <use transform="translate(1095.751953 0.390625)" xlink:href="#DejaVuSans-31"/>
     <use transform="translate(1159.375 0.390625)" xlink:href="#DejaVuSans-30"/>
     <use transform="translate(1222.998047 0.390625)" xlink:href="#DejaVuSans-30"/>
    </g>
   </g>
  </g>
 </g>
 <defs>
  <clipPath id="p9b8df09edb">
   <rect height="163.08" width="279" x="62.901406" y="27.06"/>
  </clipPath>
 </defs>
</svg>
